<svg xmlns="http://www.w3.org/2000/svg" width="34.046" height="334.963" viewBox="0 0 34.046 334.963"><g opacity=".7"><path fill="#B58FC1" d="M0 0h34.046v334.963h-34.046z"/><g fill="#FDFAF7"><path d="M21.538 245.722l-12 .214-.135-7.61.936-.017.117 6.585 4.443-.079-.115-6.459.936-.017.115 6.459 4.749-.085-.117-6.584.936-.017.135 7.61zM21.43 230.328l-5.882.105c-1.674.029-2.162.884-2.14 2.144.02 1.115.742 2.254 1.543 2.798l6.566-.117.017.936-8.688.154-.017-.936 1.312-.023c-.767-.616-1.562-1.844-1.585-3.103-.031-1.763.815-2.75 2.776-2.785l6.08-.108.018.935zM10.711 227.504c-.396.007-.707-.329-.714-.707-.007-.396.293-.725.688-.731.396-.008.726.311.732.706.008.377-.31.725-.706.732zm13.689 2.708l-.781-.4c.301-.312.581-.73.571-1.288-.016-.845-.495-1.503-1.61-1.482l-9.786.174-.017-.936 9.786-.174c1.619-.029 2.444.82 2.471 2.313.014.773-.193 1.263-.634 1.793zM17.194 224.359c-2.536.045-4.58-1.538-4.625-4.075-.046-2.572 1.939-4.228 4.477-4.272 2.536-.045 4.599 1.538 4.645 4.11.044 2.536-1.96 4.191-4.497 4.237zm-.131-7.34c-1.925.035-3.686 1.2-3.649 3.251.036 2.015 1.838 3.135 3.763 3.1 1.943-.034 3.703-1.218 3.668-3.232-.037-2.052-1.838-3.154-3.782-3.119zM24.068 214.474c.087-.199.135-.542.131-.758-.01-.576-.251-.968-1.085-1.312l-1.56-.656-8.695 3.845-.019-1.044 7.535-3.302-7.647-2.995-.019-1.061 10.676 4.309c1.105.448 1.641 1.176 1.659 2.184.005.306-.042.703-.109.938l-.867-.148zM24.068 202.327c.087-.199.135-.542.131-.758-.01-.576-.251-.968-1.085-1.312l-1.56-.656-8.695 3.845-.019-1.044 7.535-3.302-7.647-2.995-.019-1.061 10.676 4.309c1.105.448 1.641 1.176 1.659 2.184.005.306-.042.703-.109.938l-.867-.148zM17.194 194.452c-2.536.045-4.58-1.538-4.625-4.075-.046-2.572 1.939-4.228 4.477-4.272 2.536-.045 4.599 1.537 4.645 4.11.044 2.536-1.96 4.191-4.497 4.237zm-.131-7.34c-1.925.034-3.686 1.199-3.649 3.25.036 2.015 1.838 3.135 3.763 3.1 1.943-.034 3.703-1.217 3.668-3.232-.037-2.051-1.838-3.153-3.782-3.118zM21.43 178.333l-1.276.023c.804.688 1.526 1.844 1.549 3.104.031 1.763-.779 2.749-2.74 2.784l-6.116.108-.017-.936 5.9-.104c1.691-.03 2.144-.884 2.121-2.144-.02-1.115-.705-2.237-1.489-2.799l-6.62.118-.017-.936 8.688-.155.017.937zM21.499 175.065l-8.688.154-.017-.936 1.493-.026c-.985-.72-1.704-1.697-1.726-2.902l1.025-.019c-.033.163-.031.289-.027.469.016.881.828 2.055 1.591 2.437l6.332-.112.017.935zM20.366 166.647l-.693-.546c.691-.57 1.249-1.605 1.227-2.829-.025-1.457-.797-2.307-1.804-2.289-2.375.042-.928 5.505-4.059 5.561-1.331.024-2.431-1.09-2.466-3.051-.026-1.493.532-2.493 1.223-3.136l.675.511c-.675.516-1.126 1.459-1.105 2.61.024 1.35.722 2.146 1.621 2.131 2.177-.039.748-5.484 4.095-5.544 1.403-.024 2.574 1.034 2.612 3.211.025 1.404-.37 2.491-1.326 3.371zM21.43 152.331l-1.276.023c.804.688 1.526 1.844 1.549 3.104.031 1.763-.779 2.749-2.74 2.784l-6.116.108-.017-.936 5.9-.104c1.691-.03 2.144-.884 2.121-2.144-.02-1.115-.705-2.237-1.489-2.799l-6.62.118-.017-.936 8.688-.155.017.937zM17.182 149.627c-2.536.045-4.581-1.574-4.626-4.129-.027-1.512.551-2.386 1.42-3.103l.587.638c-.852.645-1.18 1.442-1.162 2.396.036 2.033 1.677 3.245 3.764 3.208s3.702-1.308 3.666-3.34c-.018-.954-.392-1.739-1.266-2.354l.563-.657c.912.686 1.521 1.538 1.549 3.05.045 2.554-1.958 4.245-4.495 4.291zM17.182 141.323c-2.536.045-4.581-1.574-4.626-4.129-.027-1.512.551-2.386 1.42-3.103l.587.638c-.852.645-1.18 1.442-1.162 2.396.036 2.033 1.677 3.245 3.764 3.208s3.702-1.308 3.666-3.34c-.018-.954-.392-1.739-1.266-2.354l.563-.657c.912.686 1.521 1.538 1.549 3.05.045 2.554-1.958 4.245-4.495 4.291zM17.193 133.019c-2.519.045-4.583-1.683-4.626-4.093-.047-2.645 2.014-4.139 4.533-4.184l.251-.005.13 7.268c1.888-.123 3.43-1.41 3.394-3.461-.02-1.098-.451-2.098-1.256-2.821l.603-.497c.915.848 1.438 1.937 1.464 3.376.045 2.536-1.812 4.369-4.493 4.417zm-3.815-4.09c.036 2.052 1.854 3.045 3.366 3.09l-.112-6.314c-1.476.043-3.293 1.047-3.254 3.224zM20.366 123.612l-.693-.546c.691-.57 1.249-1.605 1.227-2.829-.025-1.457-.797-2.307-1.804-2.289-2.375.042-.928 5.505-4.059 5.561-1.331.024-2.431-1.09-2.466-3.051-.026-1.493.532-2.493 1.223-3.136l.675.511c-.675.516-1.126 1.459-1.105 2.61.024 1.35.722 2.146 1.621 2.131 2.177-.039.748-5.484 4.095-5.544 1.403-.024 2.574 1.034 2.612 3.211.025 1.404-.37 2.49-1.326 3.371zM20.366 115.938l-.693-.546c.691-.57 1.249-1.605 1.227-2.829-.025-1.457-.797-2.307-1.804-2.289-2.375.042-.928 5.505-4.059 5.561-1.331.024-2.431-1.09-2.466-3.051-.026-1.493.532-2.493 1.223-3.136l.675.511c-.675.516-1.126 1.459-1.105 2.61.024 1.35.722 2.146 1.621 2.131 2.177-.039.748-5.484 4.095-5.544 1.403-.024 2.574 1.034 2.612 3.211.025 1.403-.37 2.49-1.326 3.371z"/></g><path opacity=".1" fill-rule="evenodd" clip-rule="evenodd" fill="#112F35" d="M6.191 6.603h21.695v10.976h-21.695z"/><path opacity=".1" fill="#112F35" d="M17.022 0h17.023v334.963h-17.023z"/></g></svg>