<svg xmlns="http://www.w3.org/2000/svg" width="47.203" height="310.582" viewBox="0 0 47.203 310.582"><g opacity=".7"><path fill="#F49B6C" d="M0 0h47.203v310.582h-47.203z"/><g fill="#B77451"><path d="M29.405 212.706l-5.702.102.135 7.61 5.703-.102.019 1.025-12 .214-.018-1.025 5.36-.096-.135-7.609-5.361.095-.019-1.025 12-.214.018 1.025zM29.396 200.587l-2.929 1.24.113 6.351 2.971 1.135.021 1.188-12.087-4.698-.022-1.277 11.912-5.125.021 1.186zm-10.825 4.548l7.066 2.718-.101-5.667-6.965 2.949zM29.539 198.218l-12 .214-.08-4.498c-.041-2.303 1.555-3.645 3.444-3.678 1.889-.034 3.531 1.269 3.572 3.553l.062 3.473 4.983-.089.019 1.025zm-8.617-6.883c-1.511.026-2.554 1.089-2.525 2.69l.061 3.364 5.145-.092-.06-3.364c-.029-1.601-1.128-2.624-2.621-2.598zM29.539 188.527l-12 .214-.08-4.498c-.041-2.303 1.555-3.645 3.444-3.678 1.889-.034 3.531 1.269 3.572 3.553l.062 3.473 4.983-.089.019 1.025zm-8.617-6.882c-1.511.026-2.554 1.089-2.525 2.69l.061 3.364 5.145-.092-.06-3.364c-.029-1.601-1.128-2.625-2.621-2.598zM29.482 175.293l-5.127.091-6.787 4.891-.022-1.242 5.829-4.152-5.974-3.942-.021-1.242 6.957 4.646 5.127-.092.018 1.042zM23.571 164.782c-3.688.065-6.254-2.57-6.314-5.971-.034-1.906.785-3.379 2.045-4.409l.573.854c-1.03.774-1.708 2.101-1.683 3.539.05 2.807 2.229 4.964 5.36 4.907 3.094-.055 5.231-2.288 5.182-5.095-.025-1.439-.75-2.74-1.808-3.477l.524-.892c1.332 1.056 2.185 2.444 2.219 4.352.061 3.401-2.409 6.127-6.098 6.192zM29.529 152.987l-11.999.214-.019-1.044 11.063-.197-.104-5.811.936-.017.123 6.855zM29.484 144.61l-12 .214-.018-1.025 11.999-.214.019 1.025zM29.538 141.183l-12 .214-.135-7.61.936-.017.117 6.585 4.443-.079-.115-6.459.936-.017.115 6.459 4.749-.085-.117-6.584.936-.017.135 7.61zM29.405 123.037l-10.174 7.739 10.309-.184.019 1.025-12 .214-.019-1.044 10.031-7.7-10.165.181-.019-1.025 12-.214.018 1.008zM29.483 116.565l-11.063.197.069 3.922-.936.017-.158-8.887.936-.017.07 3.922 11.063-.197.019 1.043zM27.86 110.755l-.785-.651c.868-.789 1.709-2.064 1.678-3.791-.043-2.446-1.423-3.124-2.448-3.105-3.526.062-1.563 7.226-5.755 7.301-1.961.035-3.233-1.706-3.272-3.883-.031-1.781.573-3.159 1.619-4.096l.768.67c-1.028.882-1.475 2.113-1.45 3.463.028 1.602.968 2.79 2.263 2.767 3.076-.055 1.257-7.221 5.736-7.3 1.548-.027 3.419.965 3.477 4.203.034 1.978-.75 3.485-1.831 4.422z"/></g><path opacity=".1" fill-rule="evenodd" clip-rule="evenodd" fill="#112F35" d="M8.747 8.812h29.707v12.678h-29.707z"/><path opacity=".1" fill="#112F35" d="M23.601 0h23.603v310.582h-23.603z"/></g></svg>