<?xml version="1.0" encoding="utf-8"?>
<!-- Generator: Adobe Illustrator 16.0.0, SVG Export Plug-In . SVG Version: 6.00 Build 0)  -->
<!DOCTYPE svg PUBLIC "-//W3C//DTD SVG 1.1//EN" "http://www.w3.org/Graphics/SVG/1.1/DTD/svg11.dtd">
<svg version="1.1" id="Layer_1" xmlns="http://www.w3.org/2000/svg" xmlns:xlink="http://www.w3.org/1999/xlink" x="0px" y="0px"
	 width="595.379px" height="373.234px" viewBox="0 0 595.379 373.234" enable-background="new 0 0 595.379 373.234"
	 xml:space="preserve">
<path fill="#112F35" d="M595.379,9c0-4.95-4.049-9-9-9H9C4.05,0,0,4.05,0,9v364.234h595.379V9z"/>
<path fill="#FFF9EE" d="M21.6,21.6h552.18v330.034H21.6V21.6z"/>
<path fill="#C2E1C4" d="M21.6,21.6h552.18v330.034H21.6V21.6z"/>
<g>
	<path fill="#FFF9EE" d="M522.772,54.962h26.867v2h-26.867V54.962z M475.37,54.962h42.246v2H475.37V54.962z M457.368,54.962h12.846
		v2h-12.846V54.962z M421.809,54.962h30.404v2h-30.404V54.962z M408.729,54.962h7.926v2h-7.926V54.962z M376.772,54.962h26.867v2
		h-26.867V54.962z M329.37,54.962h42.246v2H329.37V54.962z M311.368,54.962h12.846v2h-12.846V54.962z M275.809,54.962h30.404v2
		h-30.404V54.962z M262.729,54.962h7.925v2h-7.925V54.962z"/>
</g>
<g>
	<path fill="#FFF9EE" d="M50.549,46.788c0-0.72,0.46-1.121,1.08-1.121c0.618,0,1.078,0.401,1.078,1.121v7.106h2.56
		c0.734,0,1.036,0.546,1.036,1.035c0.001,0.536-0.403,1.059-1.036,1.059h-3.596c-0.704,0-1.122-0.46-1.122-1.18V46.788z
		 M68.884,44.517c-0.402-0.404-1.06-0.405-1.463-0.001l-1.075,1.075c-0.403,0.403-1.062,0.403-1.465,0l-0.005-0.006
		c-0.404-0.402-0.395-1.053,0.02-1.445l1.835-1.872c0.91-0.911,1.885-0.956,2.822-0.02l1.854,1.896
		c0.412,0.392,0.421,1.043,0.019,1.444l-0.003,0.006c-0.403,0.402-1.063,0.401-1.465-0.002L68.884,44.517z M79.689,46.816
		c0-0.69-0.432-1.149-1.037-1.149c-0.603,0-1.034,0.459-1.034,1.149v2.034c-0.547-0.475-1.252-0.718-1.971-0.718
		c-2.229,0-3.336,2.086-3.336,4.099c0,1.956,1.324,3.897,3.408,3.897c0.706,0,1.51-0.482,1.9-1.116l0.06,0.203
		c0.114,0.431,0.489,0.746,0.988,0.746c0.608,0,1.023-0.44,1.023-1.022l-0.004-0.094l0.004-0.12L79.689,46.816L79.689,46.816z
		 M75.992,54.004c-1.078,0-1.61-0.896-1.61-1.859c0-0.978,0.532-2.07,1.61-2.07c1.107,0,1.626,0.991,1.626,1.999
		C77.618,53.08,77.127,54.004,75.992,54.004 M68.783,48.133c-0.952,0-1.876,0.274-2.278,0.803c-0.101-0.459-0.509-0.803-0.999-0.803
		c-0.565,0-1.022,0.458-1.022,1.021l0.004,0.099l-0.004,0.116v5.442c0,0.689,0.432,1.15,1.034,1.15c0.604,0,1.036-0.461,1.036-1.15
		v-3.314c0-0.805,0.693-1.423,1.541-1.423c0.749,0,1.45,0.459,1.45,1.423v3.314c0,0.689,0.432,1.15,1.034,1.15
		c0.605,0,1.037-0.461,1.037-1.15v-3.889C71.616,49.167,70.408,48.133,68.783,48.133 M63.664,49.154
		c0-0.563-0.459-1.021-1.024-1.021c-0.519,0-0.945,0.387-1.01,0.886c-0.465-0.602-1.185-0.886-1.921-0.886
		c-1.898,0-3.423,1.739-3.423,4.012c0,2.331,1.481,3.984,3.423,3.984c0.769,0,1.401-0.397,1.926-0.996
		c0.082,0.479,0.475,0.84,1.006,0.84l0.251-0.027c0.412-0.062,0.604-0.299,0.695-0.58c0.05-0.126,0.078-0.267,0.078-0.416
		l-0.004-0.078l0.004-0.261v-5.039l-0.006-0.302L63.664,49.154 M59.996,54.004c-1.122,0-1.639-0.865-1.639-1.859
		c0-0.991,0.503-2.07,1.639-2.07c1.094,0,1.597,1.079,1.597,2.07C61.592,53.139,61.075,54.004,59.996,54.004"/>
	<path fill="#FFF9EE" d="M82.34,52.745c0.146,1.021,0.993,1.497,1.957,1.497c1.063,0,1.59-0.835,2.138-0.835
		c0.446,0,0.849,0.446,0.849,0.892c0,0.892-1.635,1.754-3.173,1.754c-2.332,0-3.883-1.696-3.883-3.983
		c0-2.101,1.524-4.013,3.709-4.013c2.244,0,3.727,2.043,3.727,3.77c0,0.617-0.275,0.919-0.907,0.919L82.34,52.745L82.34,52.745z
		 M85.591,51.364c-0.115-0.905-0.691-1.581-1.655-1.581c-0.919,0-1.538,0.704-1.639,1.581H85.591z M88.17,49.18
		c0-0.691,0.547-1.037,1.063-1.037c0.407,0,0.728,0.198,1.01,0.863h0.027c0.389-0.575,0.805-0.863,1.452-0.863
		c0.504,0,1.009,0.36,1.009,1.108c0,0.676-0.62,0.718-1.24,1.007c-0.617,0.287-1.248,0.56-1.248,1.38v3.178
		c0,0.691-0.433,1.152-1.038,1.152c-0.604,0-1.035-0.461-1.035-1.152V49.18L88.17,49.18z"/>
</g>
<path fill="none" stroke="#FFF9EE" stroke-miterlimit="10" d="M22.042,328.388l102.871-105.871l45.537,45.537v-0.145
	l105.872-105.872l45.537,45.536l0.001,0.809l57.596-57.595l45.537,45.537L527.565,92.292"/>
<path fill="#FFF9EE" d="M525.678,98.734l-0.908-0.417l2.725-5.955l-5.916,2.81l-0.43-0.902l8.398-3.99L525.678,98.734z"/>
<g enable-background="new    ">
	<path fill="#FFF9EE" d="M233.824,222.562c0-5.184,4.032-9.151,9.151-10.943c-4.736-1.664-8.447-4.735-8.447-10.047
		c0-8.063,8.511-11.264,16.447-11.264c7.872,0,16.447,3.2,16.447,11.264c0,5.312-3.776,8.383-8.447,10.047
		c5.056,1.792,9.151,5.76,9.151,10.943c0,7.936-8.191,11.839-17.151,11.839S233.824,230.498,233.824,222.562z M258.91,221.282
		c0-3.52-5.312-5.184-7.936-5.567c-2.688,0.384-7.936,2.048-7.936,5.567c0,3.072,3.456,5.056,7.936,5.056
		C255.326,226.337,258.91,224.354,258.91,221.282z M258.142,203.108c0-3.008-3.008-4.736-7.167-4.736
		c-4.224,0-7.231,1.729-7.231,4.736c0,3.136,4.607,4.479,7.231,4.928C253.599,207.587,258.142,206.244,258.142,203.108z"/>
	<path fill="#FFF9EE" d="M273.503,228.001l5.056-6.335c2.88,3.008,6.848,4.671,11.327,4.671c5.056,0,7.936-2.879,7.936-6.335
		c0-3.775-2.816-6.336-7.68-6.336c-3.52,0-6.399,1.024-8.959,3.456l-6.336-1.728v-24.446h29.31v7.999h-20.223v10.432
		c2.048-2.048,5.504-3.584,9.407-3.584c7.231,0,13.695,5.184,13.695,13.823c0,9.023-6.784,14.782-17.087,14.782
		C282.526,234.401,277.151,231.969,273.503,228.001z"/>
	<path fill="#FFF9EE" d="M310.942,200.996c0-6.016,4.288-10.688,10.815-10.688c6.592,0,10.88,4.672,10.88,10.688
		c0,5.951-4.288,10.56-10.88,10.56C315.23,211.555,310.942,206.947,310.942,200.996z M326.877,200.996
		c0-3.52-2.176-5.695-5.12-5.695c-2.88,0-5.056,2.176-5.056,5.695c0,3.392,2.176,5.567,5.056,5.567
		C324.702,206.563,326.877,204.387,326.877,200.996z M317.598,233.633l27.262-42.685h4.863l-27.326,42.685H317.598z
		 M334.428,223.842c0-6.016,4.288-10.752,10.815-10.752c6.528,0,10.88,4.736,10.88,10.752c0,5.951-4.352,10.559-10.88,10.559
		C338.716,234.401,334.428,229.793,334.428,223.842z M350.364,223.842c0-3.52-2.176-5.696-5.12-5.696s-5.056,2.177-5.056,5.696
		c0,3.455,2.111,5.567,5.056,5.567S350.364,227.297,350.364,223.842z"/>
</g>
<path fill="none" stroke="#FFF9EE" stroke-width="19" stroke-miterlimit="10" d="M377.604,250.539
	c3.818-10.389,5.902-21.613,5.902-33.326c0-53.35-43.248-96.597-96.597-96.597c-53.35,0-96.598,43.248-96.598,96.597
	c0,53.351,43.248,96.598,96.598,96.598"/>
</svg>
