<svg xmlns="http://www.w3.org/2000/svg" xmlns:xlink="http://www.w3.org/1999/xlink" width="128.29" height="128.438" viewBox="0 0 128.29 128.438"><defs><path id="a" d="M128.288 96.998c.015.054-.066.051-.211.08-4.494.924-17.207 6.825-23.039 8.833-12.832 4.42-39.568 9.723-52.458 13.969-5.435 1.791-27.592 9.497-28.207 8.463-2.514-4.227-8.134-23.181-9.669-31.203-.652-3.409-.846-10.408-1.648-13.784-.666-2.8-2.823-8.165-3.926-10.824-.785-1.892-2.868-5.462-3.479-7.417-2.55-8.185-5.651-33.824-5.651-33.824l6.058-1.136 2.569-2.192 5.675-.599 6.06-1.84 4.607-2.288 8.654-1.831 3.805-2.188 3.466-.427 2.628-1.54 3.189-.214.764-1.059 13.471-4.866 2.479.296s26.429-6.157 33.57-11.407c2.434 6.848 8.024 18.499 10.203 24.853 2.865 8.361 5.668 25.986 8.857 34.229.722 1.864 2.994 5.216 3.729 7.073 2.948 7.437 5.91 20.896 8.504 30.843z"/></defs><clipPath id="b"><use xlink:href="#a" overflow="visible"/></clipPath><g clip-path="url(#b)"><path fill="#FFF8ED" d="M9.129 72.531c1.103 2.659 3.26 8.024 3.926 10.824.803 3.376.996 10.375 1.648 13.784 1.536 8.022 7.155 26.977 9.669 31.203.614 1.034 22.772-6.672 28.207-8.463 12.89-4.246 39.626-9.549 52.458-13.969 5.832-2.008 18.545-7.909 23.039-8.833.145-.029.226-.026.211-.08-2.594-9.947-5.556-23.406-8.501-30.843-.735-1.857-3.008-5.209-3.729-7.073-3.189-8.243-5.992-25.868-8.857-34.229-2.156-6.288-7.65-17.759-10.121-24.633l-.756.24c-7.984 5.143-32.896 10.947-32.896 10.947l-1.131-.135-14.822 4.709-.761 1.055-3.189.214-2.628 1.54-3.466.427-3.805 2.188-8.654 1.831-4.607 2.288-6.06 1.84-3.97.419-2.383.758-1.893 1.615-6.058 1.136s3.101 25.639 5.65 33.823c.611 1.955 2.694 5.526 3.479 7.417z"/><path fill="#E6E0D6" d="M16.052 103.037l104.958-33.461-.32-.948-104.881 33.436.243.973zM19.172 114.168l105.011-33.479-.253-.969-105.048 33.49.29.958zM22.886 125.107l104.112-33.189-.243-.973-104.232 33.229.363.933z"/><path fill="#3D5052" d="M20.046 98.115c.008-.066.065-.476.2-.462.253.052-.456 4.448-.501 4.863-.173 1.587-.63 3.641-.114 5.19l-.058.001c.223-.255.182-.964.223-1.271.134-1.018.269-2.035.467-3.043.299-1.515.703-3.046 1.417-4.424.43-.848 1.73-2.892 2.958-2.589.528.101-.562 3.119-.817 3.057.128.024 1.261-.681 1.497-.811.768-.423 1.499-.909 2.2-1.434.347-.261 3.27-3.073 3.437-2.953.27.214-2.804 2.703-3.041 2.88-.699.519-1.426 1.005-2.185 1.431-.227.127-1.732 1.043-1.881.924-.077 0 2.223-4.626-.558-2.437-1.983 1.556-2.503 4.738-2.944 7.058-.131.69-.248 1.382-.355 2.076-.072.462-.067 1.091-.28 1.516-.102.494-.328-.925-.33-.996-.057-2.82.282-5.78.665-8.576zM43.865 90.179c.189-.226.357.002.187.202-.188.112-.35.361-.497.522-.706.786-1.455 1.573-2.277 2.238-.562.454-1.598 1.177-2.276.513-.415-.398-.261-.845-.47-1.264l.268.029c-.126-.019-.319.616-.375.73-.314.643-.744 1.293-1.307 1.744-.462.364-1.575.9-1.891.069-.24-.651.006-1.289.093-1.937.07-.245.323-.183.271.065-.082.281-.171.555-.223.845-.17.905.156 1.581 1.144 1.193.782-.312 1.31-1.051 1.687-1.77.093-.184.249-1.06.518-.979-.033-.012.152.674.167.707.328.733 1.026.731 1.662.394 1.371-.68 2.43-2.096 3.319-3.301zM58.368 85.562c.23.201-2.498 2.621-2.718 2.811-.534.456-1.167 1.08-1.895 1.173-.812.127-1.636-.577-2.014-1.237-.684.94-1.29 1.898-2.218 2.628-1.42 1.071-2.308-.179-2.68-1.519-1.073 1.264-2.152 2.731-3.529 3.671-.85.527-.113-2.867.234-2.809.246.067-.543 2.353-.448 2.702.779-.079 1.827-1.569 2.325-2.104.168-.181 1.266-1.604 1.37-1.604.474.355.518 2.009 1.637 1.993 1.035-.014 2.034-1.528 2.594-2.266.18-.236.444-.938.771-.938l-.007-.003c.028.051.024.094.098.084-.115 0 .542.777.611.839.74.664 1.512.521 2.254-.021.331-.243 3.539-3.465 3.615-3.4zM36.11 92.657c.053.043-3.879 4.901-4.215 5.372-.39.549-.778 1.099-1.164 1.65.041.512.04 1.062-.102 1.559-.235.826-1.803 1.671-1.266.343.207-.512.499-.987.799-1.448.141-.216.286-.429.438-.637-.031-.349-.089-.696-.148-1.041-.193-1.118-.706-2.442-.478-3.582.033-.159.331-.551.337-.211-.072.353-.143.668-.119 1.035.061 1.229.405 2.429.512 3.653.523-.689 5.157-6.883 5.406-6.693zm-5.61 8.698c.168-.491.161-1.019.127-1.529-.453.652-.975 1.337-1.248 2.089-.251.745.986-.165 1.121-.56z"/><g fill="#3D5052"><path d="M23.96 120.803zM24.908 122.644c1.488 1.257 3.31-1.86 3.999-2.807.304.586 1.035 1.201 1.71 1.242.843.096 1.609-.677 2.196-1.179.22-.188 2.946-2.615 2.719-2.81-.095-.079-3.104 3.007-3.414 3.248-.701.544-1.442.919-2.261.329-.113-.081-.93-.976-.807-.994-.321.071-.104-.188-.517.395-.625.882-2.457 3.678-3.692 2.357-.227-.242-.711-1.638-.817-1.636-.227.004-1.964 2.139-1.904 2.301.645-.699 1.283-1.41 1.888-2.145.167.599.424 1.278.9 1.699z"/></g><path fill="#3D5052" d="M34.748 117.271c.241-.14.272.173.057.264-.422.165-.926.579-.954 1.064-.068 1.468 2.324.916 3.071.665 1.135-.38 2.116-1.004 2.972-1.835.218-.211 1.904-2.405 2.048-2.324.273.171-1.316 1.765-1.476 1.93-.837.876-1.884 1.69-2.98 2.22-.899.427-2.299.764-3.221.21-1.056-.63-.284-1.747.483-2.194zM48.497 112.966c.259.3-2.639 2.02-2.881 2.154-.738.409-1.497.762-2.286 1.063-.483.18-.946.135-.971.699-.026.543.319.58.71.894 1.671 1.337-.575 1.324-.843.423-.095-.285-.091-.615-.081-.912l-.594-.402c-.022-.009-.197-.132-.169-.077l-.033-.044.064-.103c.573-.069.766-.109.844-.708.094-.76.329-1.561.347-2.322-.105.176-1.161 2.054-1.415 1.859-.163-.128.812-1.298.886-1.411.522-.786.694-1.434.873-2.353.024-.126.42-2.31.66-2.177.737.151-.368 2.805-.515 3.121-.537 1.175-.649 2.45-.711 3.744 1.162-.364 2.279-.873 3.322-1.499.255-.152 2.681-2.053 2.793-1.949zm-6.508 4.06l.159.099.043-.547-.628.176c.148.077.287.182.426.272zm.937.851c-.186-.152-.376-.298-.571-.438.011.663.155.979.833 1.188.815.248-.034-.575-.262-.75zm.326-7.102c-.158.666-.287 1.337-.415 2.009.454-.896 1.013-2.104.759-3.118-.202.307-.254.765-.344 1.109zM53.693 111.301c.05.039-3.725 4.692-4.004 5.074l-1.188 1.681c-.346.494-.121 1.231-.29 1.826-.236.832-1.815 1.662-1.267.345.21-.512.498-.989.8-1.451.368-.562.442-.707.341-1.377-.188-1.17-.652-2.435-.558-3.627.005-.08.308-.877.362-.535.05.333-.137.745-.114 1.104.05 1.229.411 2.429.51 3.653.487-.651 5.185-6.872 5.408-6.693zm-5.61 8.7c.169-.491.161-1.02.128-1.531-.453.652-.977 1.335-1.248 2.088-.279.74.977-.148 1.12-.557zM74.724 80.352c.172.172-3.797 3.4-4.156 3.68-.167.131-.985.923-1.239.72-.56-.35-.338-2.52-.346-3.117-.458 1.264-1.132 3.503-2.455 4.142-1.521.693-.248-3.007.156-2.85.008.004-1.475 4.055.211 2.347.527-.535.895-1.25 1.221-1.917.274-.562.863-1.491.863-2.117 0-1.775.04-3.585.308-5.343.073-.504.115-1.117.378-1.567.395-.547.691.573.714.837.128 1.513-.342 3.133-.765 4.569-.427 1.446-.905 3.304-.305 4.807.201.55 5.26-4.347 5.415-4.191zm-5.487-1.695c-.052.755-.098 1.511-.119 2.267.395-1.084.715-2.203.937-3.335.165-.837.553-2.357-.023-3.104-.294-.387-.373.407-.407.598-.221 1.175-.295 2.384-.388 3.574zM80.749 78.41c.251-.194.318.208.156.225-.286.2-.564.41-.846.618-.988.708-2.048 1.425-3.185 1.87-.441.172-.901.286-1.359.406-.395.11-.357.37-.559.753-.232.443-.548.96-1.063 1.096-1.304.18-.993-3.111.248-2.868.21.054-.762.854-.837 1.038-.292.692.141 2.362 1.065 1.438.431-.423.42-1.065.752-1.476.26-.321 1.281-.439 1.692-.571 1.529-.517 2.769-1.442 3.936-2.529zM87.981 76.115c.315.252-4.266 3.58-4.716 3.861-.523.334-1.403 1.089-2.065 1.067-.705-.191-.697-1.785-.732-2.321-.074.12-.176.175-.305.163.006.006.278-.762.275-.88-.02-.656-.007-1.312.004-1.968.023-1.424.207-2.863.528-4.25.142-.636.688-1.762.893-.479.227 1.4.063 2.887-.208 4.268-.135.681-.307 1.357-.571 2.001-.146.349-.532.814-.52 1.177.026.446.057 2.471.913 2.114 1.316-.589 2.528-1.515 3.666-2.389.2-.153 2.757-2.445 2.838-2.364zm-7.422.953c-.014.365-.023.73-.017 1.096.687-1.064.997-2.397 1.175-3.636.051-.353.384-3.78-.203-3.735-.7 0-.928 5.637-.955 6.275zM94.063 74.165c.194-.149.357.105.154.228-.304.152-.575.413-.846.617-.992.704-2.046 1.424-3.184 1.869-.441.172-.902.285-1.359.406-.394.114-.358.364-.561.752-.23.445-.547.956-1.061 1.098-1.322.181-.975-3.136.246-2.87.21.053-.759.855-.836 1.039-.296.709.123 2.325 1.064 1.439.426-.426.422-1.067.754-1.479.256-.317 1.28-.441 1.69-.57 1.501-.505 2.826-1.416 3.939-2.529zM104.374 70.872c.076-.081.162-.098.256-.05.134.143-3.965 3.615-4.383 3.94-.579.437-1.661 1.117-1.779-.035-.003-.23.406-2.049.336-2.091l.125.079c-.771.504-1.597.937-2.461 1.259-.245.092-3.095.861-3.021.414.025-.196 1.289-.148 1.443-.17.861-.113 1.709-.396 2.496-.757.101-.046 1.494-.808 1.488-.815.095.113-.129.82-.15.963-.059.396-.32 1.855.506 1.513.638-.208 1.197-.697 1.719-1.102 1.223-.965 2.282-2.096 3.425-3.148z"/><g fill="#FFF8ED"><path d="M20.755 97.466l-.126.051-.105.096-.112.108-.175.164-.292.27-.467.406c-.186.16-.423.353-.709.582-.283.225-.62.487-1.01.785-.393.3-.858.631-1.399.996-.25.172-.483.314-.718.459l.018.074c.24-.149.484-.305.739-.476.588-.398 1.09-.753 1.507-1.069l1.086-.82.758-.584.497-.379.295-.225.158-.108.071-.046.04-.028.071-.115-.024-.104-.103-.037zM14.569 96.342c.042-.04.062-.081.045-.126l-.056-.022-.01.006.021.142z"/></g><path fill="#3D5052" d="M83 39.343c-.64-.556-1.263-1.135-1.931-1.656-.642-.556-1.353-1.017-2.042-1.505-.358-.224-.737-.412-1.104-.62l-.554-.299-.59-.24c-.392-.163-.783-.331-1.192-.427-.408-.098-.8-.267-1.222-.304-.417-.053-.831-.148-1.25-.166l-1.26-.009-1.25.192c-.428.042-.801.239-1.204.35-.192.07-.407.122-.581.205l-.563.295c-.361.206-.792.361-1.095.609-.33.247-.628.576-1.098.71-.291.039-.454-.109-.651-.126-.192-.044-.355.028-.387.169-.104.459.471.386.806.775.126.207.171.421.23.619l.217.593c.272.808.657 1.555 1.097 2.271.247.34.455.713.734 1.027.285.307.565.63.855.926.641.561 1.312 1.071 2.066 1.455.37.204.75.387 1.149.531.388.171.794.288 1.201.404.814.23 1.653.357 2.494.447.421.014.847.071 1.264.051l1.271-.059c.851-.022 1.683-.192 2.523-.28l.073-.008.002.082c.012.361-.016.727.122 1.068.036.179.106.343.207.496.094.154.159.326.291.456l.356.41.414.355c.296.21.594.426.927.578.318.176.67.301 1.004.422.355.106.704.155 1.051.089.342-.058.619-.296.664-.637.078-.343-.124-.614-.409-.822-.284-.209-.619-.357-.957-.51-.354-.145-.668-.415-.891-.733-.227-.313-.385-.671-.466-1.052l-.04-.292-.006-.073.016-.097.069-.152c.171-.209.351-.26.526-.336.172-.071.356-.127.495-.208.133-.09.261-.224.405-.347l.232-.186c.025-.007.024-.046.155-.041l.097.05.111.083.443.334 1.774 1.336-.189.073.711-3.709.165.137-2.888 1.158-.157.063-.014-.187-.035-.473-.144-.462c-.136-.298-.296-.586-.484-.862l-.046-.067.038-.05.264-.343c.093-.108.22-.176.328-.265.232-.152.484-.279.749-.351.245-.103.561-.128.829-.086.272.032.535.089.796.136.261.045.522.085.777.077.252-.008.508-.075.655-.268.077-.089.118-.203.174-.333.026-.119.055-.231.03-.354-.033-.241-.2-.448-.4-.604-.413-.312-.931-.48-1.44-.611-.514-.129-1.046-.2-1.574-.181-.264-.004-.526.042-.786.087-.259.057-.511.134-.751.248-.231.12-.474.242-.66.43-.212.162-.357.385-.521.594l-.033.043-.006-.038.036-.14.058-.105.124-.205c.088-.137.162-.266.271-.403l-.025.128-.061.103-.124.205-.259.418-.006-.006zm.005-.029l.237-.396.121-.206.059-.103.077-.078-.253.393-.12.206-.056.104-.045.08-.039.005c.162-.215.308-.445.522-.614.188-.195.435-.323.67-.45.244-.119.501-.203.765-.264.264-.049.531-.1.803-.1.539-.025 1.078.039 1.603.163.521.126 1.049.286 1.498.615.218.165.419.398.463.692.032.143-.001.298-.034.436-.048.117-.097.257-.193.375-.184.245-.499.327-.771.338-.279.013-.551-.026-.815-.068-.266-.043-.527-.096-.786-.123-.262-.035-.492-.015-.746.088-.248.071-.481.194-.689.334-.096.082-.213.145-.291.24l-.222.295-.007-.117c.197.281.37.581.521.898l.163.505.041.54-.17-.124 2.89-1.154.209-.083-.043.22-.717 3.708-.036.188-.153-.116-1.772-1.339-.442-.335-.1-.08-.2.161c-.139.116-.267.255-.44.371-.184.104-.359.152-.528.223-.163.057-.344.156-.41.233-.093.105-.041.276-.016.455.072.343.219.679.427.965.201.289.466.518.799.659.334.153.684.305.997.536.312.202.604.642.485 1.048-.051.414-.443.743-.836.792-.386.074-.793.004-1.142-.104-.359-.133-.707-.262-1.036-.447-.339-.16-.645-.386-.947-.606l-.425-.373-.366-.431c-.135-.136-.204-.318-.3-.48-.103-.162-.175-.335-.212-.524-.14-.361-.109-.746-.116-1.125l.075.074c-.847.083-1.688.246-2.536.262l-1.272.049c-.431.017-.851-.043-1.276-.061-.846-.097-1.688-.231-2.506-.468-.408-.121-.82-.229-1.212-.399-.403-.141-.788-.322-1.164-.524-.765-.38-1.458-.896-2.099-1.447-.306-.305-.586-.623-.881-.934-.286-.316-.5-.691-.754-1.034-.453-.719-.855-1.492-1.132-2.29l-.225-.601c-.062-.206-.116-.416-.21-.566-.083-.134-.321-.205-.502-.294-.11-.046-.21-.123-.284-.235-.084-.144-.071-.251-.065-.354.038-.326.401-.419.611-.36.224.03.442.163.58.122.357-.103.673-.418 1.009-.683.359-.287.746-.42 1.118-.638l.565-.292c.209-.098.412-.141.618-.214.414-.111.815-.31 1.238-.347l1.268-.183 1.285.02c.427.022.847.123 1.27.18.428.042.827.216 1.241.32.419.103.807.274 1.197.44l.587.246.563.31c.369.213.751.406 1.109.635.693.494 1.396.978 2.026 1.549.653.536 1.258 1.124 1.882 1.691z"/><g stroke="#3D5052" stroke-width=".25" stroke-linecap="round" stroke-linejoin="round" fill="none"><path d="M84.672 41.048c.187-.074-.785-1.543-.654-1.596.282-.121.965.07 1.269.09.234.016.478.042.713.027.207-.013-.147-.485-.149-.484.52.209 1.042.424 1.577.587.609.186-.012-.703-.149-.963M82.877 43.762l-2.563-6.238 4.31 4.765-1.012-2.458M69.401 42.504c.331-.138-2.063-5.105-2.323-5.651.474-.195 2.004 2.718 2.195 3.032.458.752.909 1.509 1.386 2.249.209.324.512.985.891 1.152.265.116-.076-.833-.096-.883-.303-.751-.679-1.475-1.044-2.197-.135-.266-1.871-3.444-1.544-3.579.2-.085 2.479 3.637 2.664 3.914.234.349 2.529 4.181 2.95 4.008.441-.181-3.313-8.175-3.717-9.041.857 1.555 1.735 3.098 2.638 4.627.251.425 2.495 4.686 3.092 4.439.093-.038-3.673-8.954-4.064-9.881.559-.229 2.447 4.353 2.639 4.764.554 1.186 1.101 2.377 1.697 3.543.253.494.67 1.679 1.245 1.91.311.125-.192-1.225-.228-1.316-.441-1.152-.952-2.278-1.461-3.402-.157-.348-2.46-5.304-2.361-5.345.146-.06 2.557 4.485 2.736 4.801.221.39 2.639 5.054 3.063 4.879-.897-1.881-1.772-3.775-2.597-5.69-.43-.998-.916-2.021-1.177-3.081-.171-.693.224-.289.451.038 1.395 2.002 2.444 4.293 3.55 6.46.845 1.654 1.675 3.316 2.49 4.985l-4.368-10.627c.512-.207 3.409 5.402 3.673 5.869 1.159 2.051 2.298 4.113 3.42 6.184.104-.043-.421-.92-.385-.935"/></g><path fill="#3D5052" d="M63.609 35.375l-3.342-.995c-.837-.242-1.669-.503-2.279-.741-.612-.233-1.009-.42-1.009-.42l.008-.023s.431.083 1.063.254c.633.166 1.459.444 2.279.741l3.288 1.161-.008.023zM101.591 42.124l-6.565.36c-1.641.097-3.283.174-4.516.187-1.234.019-2.057-.001-2.057-.001l-.002-.025s.819-.088 2.05-.172c1.229-.09 2.872-.148 4.517-.188l6.572-.186.001.025zM99.334 45.726l-5.89-1.121c-1.474-.273-2.943-.565-4.036-.83-1.095-.258-1.818-.461-1.818-.461l.006-.025s.744.098 1.852.292c1.109.188 2.575.499 4.037.829l5.854 1.291-.005.025zM57.408 35.686l-1.971-.55c-.495-.131-.984-.28-1.337-.436-.354-.149-.581-.28-.581-.28l.008-.023s.26.027.634.115c.376.082.86.249 1.337.435l1.917.716-.007.023zM53.563 30.987l-1.972-.551c-.495-.132-.984-.281-1.336-.437-.355-.15-.581-.281-.581-.281l.008-.023s.26.027.635.115c.376.083.86.25 1.337.436l1.917.718-.008.023zM99.211 48.956l-5.28-2.051c-1.322-.507-2.638-1.031-3.606-1.467-.973-.43-1.607-.746-1.607-.746l.01-.023s.676.217 1.672.586c.998.364 2.307.905 3.607 1.465l5.215 2.213-.011.023zM95.299 50.268s-1.91-1.19-3.819-2.382c-.958-.59-1.907-1.195-2.593-1.688-.689-.488-1.132-.84-1.132-.84l.014-.021s.501.262 1.226.694c.729.428 1.667 1.05 2.594 1.688l3.725 2.527-.015.022z"/><path stroke="#3D5052" stroke-width=".25" stroke-linecap="round" stroke-linejoin="round" d="M19.343 29.395c-.717.65-1.952 1.02-2.22 2.055-.33 1.274.858 2.155 1.896 2.525 1.016.362 2.69.362 2.717-1.116.019-1.073-1.113-2.2-2.095-2.482M20.085 38.283c1.521-.309 2.652-.324 4.186-.115-.561-.929-2.109-1.314-2.499-2.344M20.272 37.197c1.492.427 2.504.931 3.771 1.822-.073-1.083-1.271-2.138-1.144-3.232M28.126 53.079c-1.151.047-1.394 1.184-2.283 1.664-.443-1.993-.824-4.15-1.896-5.921-.994-1.642-2.515-2.629-3.85-3.941-.395-.389-.292-.902-.261-1.41l.222-3.135c.109-1.847.505-4-.471-5.691M20.454 55.797c-.902-.703-2.097-.446-3.151-.497.417-.751 1.041-1.355 1.33-2.18.394-1.12.657-2.283.794-3.462.157-1.35.817-3.7.059-4.93M25.716 34.253c-.271-1.001-1.477-1.431-1.772-2.403-.398-1.312 1.584-1.02 2.11-.405-.237-1.55 3.133-1.486 2.623.198-.354 1.167-2.884.417-2.836 1.817M37.166 58.312M46.029 51.115c-.923-.321-1.69.541-.774 1.174.561.388 1.327.439 1.77 1.002-.266-.833.744-1.107.779-1.84.054-1.132-1.195-.401-1.645-.119" fill="none"/><path fill="#E6E0D6" d="M12.045 80.064l100.823-32.143-.232-.976-100.927 32.177.336.942zM14.051 91.551l101.989-32.515c-.114-.296-.226-.624-.339-.942l-101.74 32.435.09 1.022z"/></g><path opacity=".2" fill="#B3A895" d="M35.171 8.721l11.754-3.178 6.538 24.181-11.754 3.178z"/></svg>