<?xml version="1.0" encoding="utf-8"?>
<!-- Generator: Adobe Illustrator 16.0.0, SVG Export Plug-In . SVG Version: 6.00 Build 0)  -->
<!DOCTYPE svg PUBLIC "-//W3C//DTD SVG 1.1//EN" "http://www.w3.org/Graphics/SVG/1.1/DTD/svg11.dtd">
<svg version="1.1" id="Layer_1" xmlns="http://www.w3.org/2000/svg" xmlns:xlink="http://www.w3.org/1999/xlink" x="0px" y="0px"
	 width="132.443px" height="233.709px" viewBox="0 0 132.443 233.709" enable-background="new 0 0 132.443 233.709"
	 xml:space="preserve">
<g>
	<path fill="#C2B9A3" d="M0,0h132.443v34.613H0V0z"/>
	<path opacity="0.1" fill="#715B5D" enable-background="new    " d="M0,34.613h132.443v3.26H0V34.613z"/>
	<circle opacity="0.1" fill="#585B5D" enable-background="new    " cx="28.26" cy="19.859" r="4.015"/>
	<circle opacity="0.1" fill="#585B5D" enable-background="new    " cx="104.183" cy="19.859" r="4.015"/>
	<circle fill="#E8E3D7" cx="28.26" cy="17.329" r="4.015"/>
	<circle fill="#E8E3D7" cx="104.183" cy="17.329" r="4.015"/>
	<circle opacity="0.1" fill="#585B5D" enable-background="new    " cx="66.221" cy="19.859" r="4.015"/>
	<path fill="#766F58" d="M100.469,31.388H31.686c-15.729,0-28.598,12.433-28.598,27.63v1.743
		C4.08,46.074,15.958,35.012,31.686,35.012h68.782c15.729,0,27.496,11.062,28.599,25.749v-1.743
		C129.067,43.82,116.198,31.388,100.469,31.388z"/>
	<path fill="#EDDFBC" d="M129.163,62.244c0-15.752-12.889-28.643-28.641-28.643H31.634c-15.752,0-28.641,12.891-28.641,28.643
		v142.823c0,15.756,12.889,28.642,28.641,28.642h68.889c15.752,0,28.641-12.886,28.641-28.642V62.244z"/>
	<path fill="#D4C6A5" d="M100.469,27.618H31.686c-15.729,0-28.598,14.977-28.598,31.336v0.134c0-12.883,9.261-23.75,21.659-26.769
		c2.229-0.578,4.543-0.921,6.938-0.921h68.782c2.396,0,4.712,0.343,6.938,0.921c12.399,3.019,21.659,13.886,21.659,26.769v-0.134
		C129.067,42.595,116.198,27.618,100.469,27.618z"/>
	<path fill="#DFD1AF" d="M22.124,216.956V48.2c0-4.92,1.088-9.59,2.997-13.816h-0.124c-12.579,3.014-22.004,14.39-22.004,27.86
		v142.823c0,13.934,10.084,25.627,23.313,28.142v-0.019C23.646,228.362,22.124,222.83,22.124,216.956z M110.033,216.956V48.2
		c0-4.92-1.089-9.59-2.997-13.816h0.123c12.58,3.015,22.004,14.391,22.004,27.86v142.823c0,13.934-10.084,25.627-23.312,28.142
		v-0.019C108.51,228.362,110.033,222.83,110.033,216.956L110.033,216.956z"/>
	<path fill="#766F58" d="M110.033,63.116H22.124L2.993,67.578l19.131-1.435h87.909l19.13,1.435L110.033,63.116z"/>
	<path fill="#DFD1AF" d="M110.033,63.116H22.124L2.993,67.578l19.131-3.299h87.909l19.13,3.299L110.033,63.116z"/>
	<path fill="#ABA083" d="M13.897,82.486V69.869l2.121-4.222l-1.65,0.231l-2.062,3.991v12.617H13.897z"/>
	<path fill="#766F58" d="M15.362,82.486V69.869l2.385-4.619l-1.854,0.397l-2.121,4.222v12.617H15.362z"/>
	<path fill="#B8A172" d="M11.488,82.486h4.692v15.788h-4.692V82.486z"/>
	<path fill="#F8DDA7" d="M11.488,82.486h2.346v15.788h-2.346V82.486z"/>
	<path fill="#766F58" d="M12.306,98.274l-0.438,1.472l3.343-1.472H12.306z"/>
	<path fill="#69674D" d="M10.982,100.192l0.506,1.078l4.22-1.965l-0.496-1.031L10.982,100.192z"/>
	<path fill="#ABA083" d="M11.983,101.059l0.419,0.89l3.49-1.626l-0.411-0.854L11.983,101.059z"/>
	<path fill="#766F58" d="M12.925,101.701l2.051,1.389l0.031-2.379L12.925,101.701z"/>
	<path fill="#79755E" d="M110.033,145.856H22.124l-15.949,1.279l15.949,1.746h87.909l15.948-1.746L110.033,145.856z"/>
	<path fill="#DFD1AF" d="M6.175,147.136l15.949,1.746h87.909l15.948-1.746H6.175z"/>
	<path fill="#ABA083" d="M15.573,163.81v-12.617l1.914-4.022h-1.444l-2.061,4.022v12.617H15.573z"/>
	<path fill="#766F58" d="M17.038,163.81v-12.617l2.113-4.022H17.36l-1.913,4.022v12.617H17.038z"/>
	<path fill="#B8A172" d="M13.164,163.81h4.692v15.789h-4.692V163.81z"/>
	<path fill="#F8DDA7" d="M13.164,163.81h2.283v15.789h-2.283V163.81z"/>
	<path fill="#766F58" d="M13.982,179.599l-0.438,1.471l3.344-1.471H13.982z"/>
	<path fill="#69674D" d="M12.658,181.515l0.506,1.078l4.22-1.965l-0.495-1.029L12.658,181.515z"/>
	<path fill="#ABA083" d="M13.659,182.381l0.419,0.892l3.489-1.627l-0.41-0.852L13.659,182.381z"/>
	<path fill="#766F58" d="M14.602,183.024l2.048,1.389l0.033-2.381L14.602,183.024z M58.194,68.23h16.209v7.757H58.194V68.23z
		 M73.974,98.861c0,1.749-1.434,3.182-3.184,3.182h-8.984c-1.75,0-3.182-1.433-3.182-3.182v-7.756c0-1.751,1.432-3.184,3.182-3.184
		h8.984c1.75,0,3.184,1.433,3.184,3.184V98.861z"/>
	<path fill="#0D0D00" d="M66.474,89.96h-0.35l-6.364,0.904h13.077L66.474,89.96z M66.474,99.696h-0.35l-6.364-0.687h13.077
		L66.474,99.696z"/>
	<path fill="#ABA083" d="M61.973,75.987h8.651v14.877h-8.651V75.987z"/>
	<path fill="#F8DDA7" d="M65.686,75.987h1.226v14.877h-1.226V75.987z"/>
	<path fill="#766F58" d="M73.974,124.317c0,1.752-1.434,3.185-3.184,3.185h-8.984c-1.75,0-3.182-1.433-3.182-3.185v-7.755
		c0-1.748,1.432-3.182,3.182-3.182h8.984c1.75,0,3.184,1.434,3.184,3.182V124.317z"/>
	<path fill="#0D0D00" d="M66.474,115.678h-0.35l-6.364,0.905h13.077L66.474,115.678z M66.474,125.155h-0.35l-6.364-0.688h13.077
		L66.474,125.155z"/>
	<path fill="#766F58" d="M52.818,18.719c-0.619,0.396-1.107,0.823-1.46,1.285l-0.324,0.503c-1.032,2.388-0.995,4.195-1.032,7.111
		h2.178C52.035,25.846,52.131,21.662,52.818,18.719z"/>
	<path fill="#ABA083" d="M66.612,12.497c-10.005,0.479-15.21,3.395-15.579,8.01c1.403-2.658,6.912-4.337,15.579-4.614
		c8.667,0.277,14.175,1.956,15.58,4.614C81.823,15.892,76.617,12.977,66.612,12.497z"/>
	<path fill="#766F58" d="M80.407,18.719c0.618,0.396,1.107,0.823,1.461,1.285l0.324,0.503c1.031,2.388,0.994,4.195,1.031,7.111
		h-2.179C81.19,25.846,81.094,21.662,80.407,18.719z"/>
	<path fill="#DFD1AF" d="M94.443,225.548l-0.798-1.006c-0.806-1.023-2.056-1.682-3.458-1.682h-50.97
		c-1.401,0-2.653,0.656-3.458,1.682l-0.798,1.006l-5.984,8.161h71.45L94.443,225.548z"/>
	<path fill="#ABA083" d="M25.202,42.115l1.362-5.969l2.596-3.528l-1.727,0.028l-2.451,3.321l-1.361,5.968L25.202,42.115z"/>
	<path fill="#766F58" d="M26.657,42.279l1.362-5.966l2.897-3.853l-1.883,0.144l-2.596,3.529l-1.362,5.968L26.657,42.279z"/>
	<path fill="#B8A172" d="M22.806,41.841l4.661,0.528l-1.646,14.525l-4.662-0.528L22.806,41.841z"/>
	<path fill="#F8DDA7" d="M22.81,41.84l2.418,0.274L23.58,56.639l-2.418-0.274L22.81,41.84z"/>
	<path fill="#766F58" d="M21.974,56.459l-0.589,1.304l3.476-0.978L21.974,56.459z"/>
	<path fill="#69674D" d="M20.458,58.074l0.392,1.05l4.396-1.334l-0.385-1.005L20.458,58.074z"/>
	<path fill="#ABA083" d="M21.362,58.982l0.324,0.871l3.637-1.106l-0.319-0.829L21.362,58.982z"/>
	<path fill="#766F58" d="M22.232,59.684l1.89,1.505l0.281-2.184L22.232,59.684z"/>
	<path fill="#ABA083" d="M61.973,99.009h8.651v17.574h-8.651V99.009z"/>
	<path fill="#766F58" d="M73.974,143.878v-5.038c0-1.749-1.434-3.183-3.184-3.183h-8.984c-1.75,0-3.182,1.434-3.182,3.183v5.038
		H73.974z"/>
	<path fill="#0D0D00" d="M66.474,137.138h-0.35l-6.364,0.904h13.077L66.474,137.138z"/>
	<path fill="#F8DDA7" d="M65.686,99.009h1.226v17.574h-1.226V99.009z"/>
	<path fill="#ABA083" d="M61.973,124.468h8.651v13.574h-8.651V124.468z"/>
	<path fill="#F8DDA7" d="M65.686,124.468h1.226v13.574h-1.226V124.468z"/>
	<path fill="#766F58" d="M66.503,50.246c-0.446-0.45-1.18-0.45-1.63-0.003l-1.199,1.2c-0.448,0.45-1.185,0.45-1.634,0l-0.007-0.005
		c-0.45-0.449-0.438-1.174,0.022-1.615l2.049-2.084c1.014-1.018,2.101-1.067,3.145-0.024l2.068,2.115
		c0.46,0.438,0.47,1.164,0.021,1.612l-0.005,0.005c-0.449,0.451-1.186,0.448-1.633,0L66.503,50.246z"/>
	<path fill="#DFD1AF" d="M66.115,166.22l-35.77-1.963v44.086c0,1.389,1.134,2.516,2.533,2.516h65.587
		c1.399,0,2.533-1.127,2.533-2.516v-44.086L66.115,166.22z"/>
	<path fill="#F3E8C9" d="M66.108,166.09l-35.19-1.929v43.384c0,1.365,1.116,2.474,2.493,2.474h64.524
		c1.376,0,2.493-1.107,2.493-2.474v-43.384L66.108,166.09z"/>
	<path fill="#DFD1AF" d="M66.108,166.09l-35.191-1.929h69.512L66.108,166.09z"/>
	<path fill="#F8EFD4" d="M66.299,166.079v43.939h31.637c1.376,0,2.493-1.107,2.493-2.474v-43.384L66.299,166.079z"/>
	<circle fill="#E8E3D7" cx="66.221" cy="17.329" r="4.015"/>
</g>
</svg>
