<svg xmlns="http://www.w3.org/2000/svg" width="47.203" height="310.582" viewBox="0 0 47.203 310.582"><g opacity=".7"><path fill="#FFDFA1" d="M0 0h47.203v310.582h-47.203z"/><g fill="#746600"><path d="M29.529 218.281l-11.999.214-.019-1.044 11.063-.197-.104-5.811.936-.017.123 6.855zM29.538 209.905l-12 .214-.135-7.61.936-.017.117 6.585 4.443-.079-.115-6.459.936-.017.115 6.459 4.749-.085-.117-6.584.936-.017.135 7.61zM29.396 191.65l-2.929 1.24.113 6.351 2.971 1.135.021 1.188-12.087-4.698-.022-1.277 11.912-5.125.021 1.186zm-10.825 4.548l7.066 2.718-.101-5.667-6.965 2.949zM29.558 189.282l-12 .214-.068-3.832c-.065-3.724 2.609-6.111 5.901-6.17 3.328-.059 6.032 2.232 6.099 5.956l.068 3.832zm-6.149-8.708c-2.806.05-5.041 1.889-4.984 5.073l.051 2.807 10.128-.181-.05-2.807c-.057-3.166-2.338-4.943-5.145-4.892zM27.86 178.109l-.785-.651c.868-.789 1.709-2.064 1.678-3.791-.043-2.446-1.423-3.124-2.448-3.105-3.526.062-1.563 7.226-5.755 7.301-1.961.035-3.233-1.706-3.272-3.883-.031-1.781.573-3.159 1.619-4.096l.768.67c-1.028.882-1.475 2.113-1.45 3.463.028 1.602.968 2.79 2.263 2.767 3.076-.055 1.257-7.221 5.736-7.3 1.548-.027 3.419.965 3.477 4.203.034 1.978-.75 3.485-1.831 4.422zM29.534 163.468l-12 .214-.135-7.61.936-.017.117 6.585 4.443-.079-.115-6.459.936-.017.115 6.459 5.685-.102.018 1.026zM29.396 145.61l-2.929 1.24.113 6.351 2.971 1.135.021 1.188-12.087-4.698-.022-1.277 11.912-5.125.021 1.186zm-10.825 4.548l7.066 2.718-.101-5.667-6.965 2.949zM23.571 143.798c-3.688.065-6.254-2.57-6.314-5.971-.034-1.906.785-3.379 2.045-4.409l.573.854c-1.03.774-1.708 2.101-1.683 3.539.05 2.807 2.229 4.964 5.36 4.907 3.094-.055 5.231-2.288 5.182-5.095-.025-1.439-.75-2.74-1.808-3.477l.524-.892c1.332 1.056 2.185 2.444 2.219 4.352.061 3.401-2.409 6.127-6.098 6.192zM29.483 128.693l-11.063.197.069 3.922-.936.017-.158-8.887.936-.017.07 3.922 11.063-.197.019 1.043zM23.586 122.744c-3.508.062-6.247-2.192-6.31-5.719-.062-3.508 2.595-5.877 6.103-5.939s6.248 2.211 6.311 5.719c.062 3.526-2.595 5.876-6.104 5.939zm-.188-10.578c-3.041.054-5.238 1.965-5.187 4.843.051 2.896 2.314 4.71 5.355 4.655 3.022-.054 5.238-1.946 5.187-4.843-.051-2.879-2.333-4.709-5.355-4.655zM29.416 101.989l-4.905 3.452.048 2.645 4.965-.088.019 1.025-12 .214-.079-4.479c-.037-2.069 1.248-3.676 3.442-3.715 2.177-.039 3.41 1.469 3.514 3.267l4.976-3.562.02 1.241zm-8.491.133c-1.511.027-2.554 1.107-2.525 2.709l.061 3.364 5.163-.092-.061-3.364c-.029-1.602-1.127-2.644-2.638-2.617zM29.482 95.375l-5.127.091-6.787 4.891-.022-1.242 5.829-4.152-5.974-3.942-.021-1.242 6.957 4.646 5.127-.092.018 1.042z"/></g><path opacity=".1" fill-rule="evenodd" clip-rule="evenodd" fill="#112F35" d="M8.747 8.812h29.707v12.678h-29.707z"/><path opacity=".1" fill="#112F35" d="M23.601 0h23.603v310.582h-23.603z"/></g></svg>