<svg xmlns="http://www.w3.org/2000/svg" width="34.047" height="334.962" viewBox="0 0 34.047 334.962"><g opacity=".7"><path fill="#FFF9EE" d="M0 0h34.047v334.962h-34.047z"/><g fill="#A69138"><path d="M21.422 247.639l-10.258 3.062 10.359 2.694.021 1.151-11.939 3.65-.02-1.151 10.508-3.085-10.611-2.76-.018-.936 10.508-3.121-10.611-2.708-.021-1.151 12.061 3.204.021 1.151zM17.193 242.415c-2.518.045-4.582-1.683-4.625-4.093-.047-2.645 2.014-4.139 4.533-4.184l.25-.005.131 7.268c1.887-.123 3.43-1.41 3.393-3.461-.02-1.098-.451-2.098-1.256-2.821l.604-.497c.914.848 1.438 1.937 1.463 3.376.046 2.536-1.811 4.369-4.493 4.417zm-3.814-4.09c.035 2.052 1.854 3.045 3.365 3.09l-.111-6.314c-1.477.043-3.293 1.047-3.254 3.224zM21.529 203.922l-11.998.214-.02-1.044 11.064-.197-.104-5.811.936-.017.122 6.855zM21.434 190.058l-1.025.019c.859.759 1.273 1.723 1.295 2.929.025 1.493-.973 3.059-2.844 3.092-1.889.033-2.904-1.479-2.932-2.989-.021-1.205.355-2.202 1.188-2.973l-1.762.031c-1.295.023-1.979 1.079-1.955 2.356.02 1.098.412 1.937 1.324 2.712l-.637.533c-.988-.882-1.492-1.881-1.518-3.32-.031-1.763.789-3.182 2.732-3.216l6.117-.109.017.935zm-1.709.03l-1.906.034c-.799.626-1.178 1.604-1.158 2.648.023 1.421.959 2.358 2.199 2.336 1.225-.021 2.125-.991 2.1-2.413-.021-1.042-.433-2.007-1.235-2.605zM21.43 180.926l-5.881.105c-1.674.029-2.162.884-2.141 2.144.02 1.115.742 2.254 1.543 2.798l6.566-.117.018.936-8.689.154-.016-.936 1.312-.023c-.768-.616-1.562-1.844-1.586-3.103-.031-1.763.816-2.75 2.777-2.785l6.08-.108.017.935zM21.426 171.254l-1.385.024c.91.596 1.631 1.698 1.654 2.994.041 2.303-1.693 3.898-4.482 3.948-2.752.05-4.598-1.483-4.639-3.786-.021-1.241.588-2.35 1.566-3.051l-4.715.084-.016-.954 11.998-.214.019.955zm-2.176.038l-4.301.077c-.836.519-1.555 1.665-1.531 2.889.033 1.925 1.672 3.011 3.777 2.974s3.686-1.182 3.652-3.106c-.021-1.223-.761-2.344-1.597-2.834zM10.711 168.412c-.395.008-.707-.329-.713-.707-.008-.396.293-.725.688-.731.396-.008.727.311.732.706.008.377-.311.725-.707.732zm10.771-.444l-8.688.154-.018-.936 8.689-.154.017.936zM21.43 158.837l-5.881.105c-1.674.029-2.162.884-2.141 2.144.02 1.115.742 2.254 1.543 2.798l6.566-.117.018.936-8.689.154-.016-.936 1.312-.023c-.768-.616-1.562-1.844-1.586-3.103-.031-1.763.816-2.75 2.777-2.785l6.08-.108.017.935zM23.752 155.512l-.766-.526c.887-.771 1.195-1.604 1.172-2.918-.027-1.565-.844-2.937-2.805-2.901l-1.385.024c.91.596 1.668 1.698 1.691 2.993.041 2.303-1.676 3.899-4.465 3.949-2.752.049-4.58-1.484-4.621-3.787-.021-1.241.588-2.332 1.566-3.051l-1.404.024-.018-.953 8.619-.153c2.645-.048 3.629 1.734 3.666 3.84.029 1.475-.225 2.415-1.25 3.459zm-4.574-6.306l-4.229.075c-.836.519-1.553 1.683-1.531 2.889.033 1.925 1.654 3.012 3.76 2.974 2.105-.037 3.668-1.181 3.633-3.105-.022-1.206-.78-2.345-1.633-2.833zM21.539 141.787l-12 .214-.08-4.498c-.041-2.303 1.555-3.645 3.445-3.678 1.889-.034 3.531 1.269 3.572 3.553l.061 3.473 4.984-.089.018 1.025zm-8.617-6.883c-1.51.026-2.553 1.089-2.525 2.69l.061 3.364 5.145-.092-.059-3.364c-.03-1.601-1.128-2.625-2.622-2.598zM21.434 126.609l-1.025.019c.859.759 1.273 1.723 1.295 2.929.025 1.493-.973 3.059-2.844 3.092-1.889.033-2.904-1.479-2.932-2.989-.021-1.205.355-2.202 1.188-2.973l-1.762.031c-1.295.023-1.979 1.079-1.955 2.356.02 1.098.412 1.937 1.324 2.712l-.637.533c-.988-.882-1.492-1.881-1.518-3.32-.031-1.763.789-3.182 2.732-3.216l6.117-.109.017.935zm-1.709.03l-1.906.034c-.799.626-1.178 1.604-1.158 2.648.023 1.421.959 2.358 2.199 2.336 1.225-.021 2.125-.991 2.1-2.413-.021-1.042-.433-2.007-1.235-2.605zM23.752 123.284l-.766-.526c.887-.771 1.195-1.604 1.172-2.918-.027-1.565-.844-2.937-2.805-2.901l-1.385.024c.91.596 1.668 1.698 1.691 2.993.041 2.303-1.676 3.899-4.465 3.949-2.752.049-4.58-1.484-4.621-3.787-.021-1.241.588-2.332 1.566-3.051l-1.404.024-.018-.953 8.619-.153c2.645-.048 3.629 1.734 3.666 3.84.029 1.474-.225 2.415-1.25 3.459zm-4.574-6.307l-4.229.075c-.836.519-1.553 1.683-1.531 2.889.033 1.925 1.654 3.012 3.76 2.974 2.105-.037 3.668-1.181 3.633-3.105-.022-1.206-.78-2.345-1.633-2.833zM17.193 114.232c-2.518.045-4.582-1.683-4.625-4.093-.047-2.645 2.014-4.139 4.533-4.184l.25-.005.131 7.268c1.887-.123 3.43-1.41 3.393-3.461-.02-1.098-.451-2.098-1.256-2.821l.604-.497c.914.848 1.438 1.937 1.463 3.376.046 2.536-1.811 4.369-4.493 4.417zm-3.814-4.09c.035 2.052 1.854 3.045 3.365 3.09l-.111-6.314c-1.477.043-3.293 1.047-3.254 3.224zM20.367 104.827l-.693-.546c.691-.57 1.248-1.605 1.227-2.829-.025-1.457-.797-2.307-1.805-2.289-2.375.042-.928 5.505-4.059 5.561-1.33.024-2.43-1.09-2.465-3.051-.027-1.493.531-2.493 1.223-3.136l.674.511c-.674.516-1.125 1.459-1.105 2.61.025 1.35.723 2.146 1.621 2.131 2.178-.039.748-5.484 4.096-5.544 1.402-.024 2.574 1.034 2.611 3.211.025 1.403-.37 2.49-1.325 3.371z"/></g><path fill-rule="evenodd" clip-rule="evenodd" fill="#A69138" d="M11.744 213.257c-.918 1.949-.084 4.273 1.865 5.191.137.064.307.119.502.168-.195.049-.365.104-.502.168-1.949.916-2.783 3.242-1.865 5.189s3.24 2.783 5.189 1.865c1.947-.918 7.533-7.221 7.533-7.221l-.018-.002.018-.002s-5.586-6.305-7.533-7.221c-1.949-.916-4.271-.082-5.189 1.865z"/><path opacity=".1" fill-rule="evenodd" clip-rule="evenodd" fill="#112F35" d="M6.191 6.603h21.695v10.976h-21.695z"/><path opacity=".1" fill="#112F35" d="M17.023 0h17.023v334.962h-17.023z"/></g></svg>