<svg xmlns="http://www.w3.org/2000/svg" width="46.954" height="320.569" viewBox="0 0 46.954 320.569"><g opacity="1"><path fill="#B9DDBC" d="M0 0h46.954v320.569h-46.954z"/><g fill="#688F6B"><path d="M23.13 235.45c-3.705.065-6.254-2.588-6.314-5.971-.035-1.979.73-3.432 1.971-4.552l.571.764c-.992.863-1.634 2.242-1.606 3.771.05 2.807 2.229 4.964 5.36 4.907 3.094-.055 5.25-2.288 5.2-5.095-.029-1.602-.843-2.864-1.521-3.5l-2.878.051.08 4.533-.917.017-.1-5.559 4.192-.075c1.206 1.041 2.044 2.627 2.078 4.517.061 3.383-2.41 6.126-6.116 6.192zM29.052 222.72l-8.688.154-.017-.936 1.493-.026c-.985-.72-1.704-1.697-1.726-2.902l1.025-.019c-.033.163-.031.289-.027.469.016.881.828 2.055 1.591 2.437l6.332-.112.017.935zM24.747 218.164c-2.536.045-4.58-1.538-4.625-4.075-.046-2.572 1.939-4.228 4.477-4.272 2.536-.045 4.599 1.538 4.645 4.11.044 2.536-1.96 4.191-4.497 4.237zm-.131-7.341c-1.925.035-3.686 1.2-3.649 3.251.036 2.015 1.838 3.135 3.763 3.1 1.943-.034 3.703-1.218 3.668-3.232-.038-2.051-1.838-3.153-3.782-3.119zM28.983 200.462l-7.387 2.562 7.473 2.313.017.9-8.639 2.979-.019-1.007 7.335-2.435-7.419-2.315-.015-.81 7.332-2.578-7.417-2.171-.018-1.008 8.739 2.67.018.9zM31.621 191.849c.087-.199.135-.542.131-.758-.01-.576-.251-.968-1.085-1.312l-1.56-.656-8.695 3.845-.019-1.044 7.535-3.302-7.647-2.995-.019-1.061 10.676 4.309c1.105.448 1.641 1.176 1.659 2.184.005.306-.042.703-.109.938l-.867-.148zM24.747 183.974c-2.536.045-4.58-1.538-4.625-4.075-.046-2.572 1.939-4.228 4.477-4.272 2.536-.045 4.599 1.537 4.645 4.11.044 2.535-1.96 4.191-4.497 4.237zm-.131-7.34c-1.925.034-3.686 1.199-3.649 3.25.036 2.015 1.838 3.135 3.763 3.1 1.943-.034 3.703-1.217 3.668-3.232-.038-2.052-1.838-3.153-3.782-3.118zM28.982 167.854l-1.276.023c.804.688 1.526 1.844 1.549 3.104.031 1.763-.779 2.749-2.74 2.784l-6.116.108-.017-.936 5.9-.104c1.691-.03 2.144-.884 2.121-2.144-.02-1.115-.705-2.237-1.489-2.799l-6.62.118-.017-.936 8.688-.155.017.937zM29.052 164.587l-8.688.154-.017-.936 1.493-.026c-.985-.72-1.704-1.697-1.726-2.902l1.025-.019c-.033.163-.031.289-.027.469.016.881.828 2.055 1.591 2.437l6.332-.112.017.935zM29.092 155.393l-11.999.214-.017-.936 4.714-.084c-1.002-.685-1.651-1.771-1.674-2.994-.041-2.32 1.748-3.918 4.501-3.967 2.788-.05 4.579 1.502 4.62 3.805.023 1.295-.658 2.423-1.547 3.051l1.385-.024.017.935zm-.697-3.786c-.034-1.942-1.655-3.012-3.76-2.974-2.104.037-3.704 1.163-3.67 3.106.021 1.205.798 2.343 1.634 2.832l4.3-.076c.819-.517 1.517-1.682 1.496-2.888zM28.982 139.837l-1.276.023c.804.688 1.526 1.844 1.549 3.104.031 1.763-.779 2.749-2.74 2.784l-6.116.108-.017-.936 5.9-.104c1.691-.03 2.144-.884 2.121-2.144-.02-1.115-.705-2.237-1.489-2.799l-6.62.118-.017-.936 8.688-.155.017.937zM27.919 137.347l-.693-.546c.691-.57 1.249-1.605 1.227-2.829-.025-1.457-.797-2.307-1.804-2.289-2.375.042-.928 5.505-4.059 5.561-1.331.024-2.431-1.09-2.466-3.051-.026-1.493.532-2.493 1.223-3.136l.675.511c-.675.516-1.126 1.459-1.105 2.61.024 1.35.722 2.146 1.621 2.131 2.177-.039.748-5.484 4.095-5.544 1.403-.024 2.574 1.034 2.612 3.211.025 1.403-.37 2.49-1.326 3.371zM18.264 129.338c-.396.007-.707-.329-.714-.707-.007-.396.293-.725.688-.731.396-.008.726.311.732.706.008.377-.31.725-.706.732zm10.771-.443l-8.688.154-.017-.936 8.688-.154.017.936zM28.982 119.765l-5.882.105c-1.674.029-2.162.884-2.14 2.144.02 1.115.742 2.254 1.543 2.798l6.566-.117.017.936-8.688.154-.017-.936 1.312-.023c-.767-.616-1.562-1.844-1.585-3.103-.031-1.763.815-2.75 2.776-2.785l6.08-.108.018.935zM24.746 117.061c-2.519.045-4.583-1.683-4.626-4.093-.047-2.645 2.014-4.139 4.533-4.184l.251-.005.13 7.268c1.888-.123 3.43-1.41 3.394-3.461-.02-1.098-.451-2.098-1.256-2.821l.603-.497c.915.848 1.438 1.937 1.464 3.376.045 2.536-1.812 4.369-4.493 4.417zm-3.815-4.09c.036 2.052 1.854 3.045 3.366 3.09l-.112-6.314c-1.476.043-3.293 1.047-3.254 3.224zM27.919 107.655l-.693-.546c.691-.57 1.249-1.605 1.227-2.829-.025-1.457-.797-2.307-1.804-2.289-2.375.042-.928 5.505-4.059 5.561-1.331.024-2.431-1.09-2.466-3.051-.026-1.493.532-2.493 1.223-3.136l.675.511c-.675.516-1.126 1.459-1.105 2.61.024 1.35.722 2.146 1.621 2.131 2.177-.039.748-5.484 4.095-5.544 1.403-.024 2.574 1.034 2.612 3.211.025 1.404-.37 2.49-1.326 3.371zM27.919 99.98l-.693-.546c.691-.57 1.249-1.605 1.227-2.829-.025-1.457-.797-2.307-1.804-2.289-2.375.042-.928 5.505-4.059 5.561-1.331.024-2.431-1.09-2.466-3.051-.026-1.493.532-2.493 1.223-3.136l.675.511c-.675.516-1.126 1.459-1.105 2.61.024 1.35.722 2.146 1.621 2.131 2.177-.039.748-5.484 4.095-5.544 1.403-.024 2.574 1.034 2.612 3.211.025 1.404-.37 2.491-1.326 3.371z"/></g><path opacity=".1" fill="#112F35" d="M23.477 0h23.478v320.569h-23.478z"/><path opacity=".1" fill-rule="evenodd" clip-rule="evenodd" fill="#112F35" d="M6.672 6.831h33.609v11.969h-33.609z"/></g></svg>