<svg xmlns="http://www.w3.org/2000/svg" width="1039.729" height="727.76" viewBox="0 0 1039.729 727.76"><circle fill="#FFDFA1" cx="519.727" cy="270.445" r="30.948"/><path fill="#F2D499" d="M550.675 270.445c0-17.092-13.856-30.948-30.948-30.948s-30.948 13.856-30.948 30.948c0 7.255 2.503 13.921 6.684 19.197h48.529c4.18-5.276 6.683-11.942 6.683-19.197z"/><g fill="#FFF9EE"><path opacity=".1" d="M519.729 165.459l-379.729 562.301h-140z"/><path opacity=".15" d="M519.729 165.459l-379.729 562.301h140z"/><path opacity=".1" d="M519.729 165.459l-99.729 562.301h-140z"/><path opacity=".15" d="M420 727.76h99.729v-562.301"/><path opacity=".15" d="M520 165.459l379.729 562.301h140z"/><path opacity=".1" d="M520 165.459l379.729 562.301h-140z"/><path opacity=".15" d="M520 165.459l99.729 562.301h140z"/><path opacity=".1" d="M619.729 727.76h-99.729v-562.301"/></g><path fill="#FFF9EE" d="M519.727 0v202.54"/><path fill="#F0ECD8" d="M409.651 283.642l110.075-120.075 110.076 120.075zM409.651 283.642l110.075-120.075 110.076 120.075z"/><path fill="#FFF9EE" d="M409.651 283.642l110.075-120.075 80.076 120.075z"/></svg>