<svg xmlns="http://www.w3.org/2000/svg" width="595.38" height="373.233" viewBox="0 0 595.38 373.233"><path fill="#112F35" d="M595.38 9c0-4.95-4.05-9-9-9h-577.38c-4.95 0-9 4.05-9 9v364.233h595.38v-364.233z"/><path fill="#FFF9EE" d="M21.6 21.6h552.18v305.034h-552.18z"/><path fill="#B4B1A2" d="M21.6 21.6h552.18v1h-552.18z"/><path fill="#F49B6C" d="M149.479 87.544h94.71v94.71h-94.71z"/><path fill="#1C95CF" d="M251.296 87.544h94.71v94.71h-94.71z"/><path fill="#92C996" d="M353.113 87.544h94.71v94.71h-94.71z"/><path fill="#B58FC1" d="M454.931 87.544h94.71v94.71h-94.71z"/><path fill="#92C996" d="M149.479 189.616h94.71v94.71h-94.71z"/><path fill="#B58FC1" d="M251.296 189.616h94.71v94.71h-94.71z"/><path fill="#F49B6C" d="M353.113 189.616h94.71v94.71h-94.71z"/><path fill="#1C95CF" d="M454.931 189.616h94.71v94.71h-94.71z"/><path fill="#3D575F" d="M67.05 88.544h40.958v1h-40.958zM67.05 92.544h51.958v1h-51.958zM51.303 128.544h67.705v1h-67.705zM51.303 121.044h67.705v4h-67.705zM51.303 132.544h55.266v1h-55.266zM51.303 154.544h63.228v1h-63.228zM51.303 147.044h45.831v4h-45.831zM51.303 158.544h48.189v1h-48.189zM51.303 183.544h61.164v1h-61.164zM51.303 176.044h59.1v4h-59.1zM51.303 187.544h56.705v1h-56.705zM51.303 240.544h67.705v1h-67.705zM51.303 233.044h67.705v4h-67.705zM51.303 244.544h55.266v1h-55.266zM51.303 266.544h63.228v1h-63.228zM51.303 259.044h45.831v4h-45.831zM51.303 270.544h48.189v1h-48.189zM51.303 288.044h59.1v4h-59.1zM51.303 212.544h65.586v1h-65.586zM51.303 205.044h67.705v4h-67.705zM51.303 216.544h56.705v1h-56.705z"/><g fill="#3D575F"><path d="M522.772 54.962h26.868v2h-26.868zM475.369 54.962h42.247v2h-42.247zM457.368 54.962h12.845v2h-12.845zM421.809 54.962h30.404v2h-30.404zM408.729 54.962h7.925v2h-7.925zM376.772 54.962h26.868v2h-26.868zM329.369 54.962h42.247v2h-42.247zM311.368 54.962h12.845v2h-12.845zM275.809 54.962h30.404v2h-30.404zM262.729 54.962h7.925v2h-7.925z"/></g><g fill="#3D575F"><path d="M50.549 46.788c0-.72.46-1.121 1.08-1.121.618 0 1.078.401 1.078 1.121v7.106h2.56c.734 0 1.036.546 1.036 1.035.001.536-.403 1.059-1.036 1.059h-3.596c-.704 0-1.122-.46-1.122-1.18v-8.02zM68.884 44.517c-.402-.404-1.06-.405-1.463-.001l-1.075 1.075c-.403.403-1.062.403-1.465 0l-.005-.006c-.404-.402-.395-1.053.02-1.445l1.835-1.872c.91-.911 1.885-.956 2.822-.02l1.854 1.896c.412.392.421 1.043.019 1.444l-.003.006c-.403.402-1.063.401-1.465-.002l-1.074-1.075zM79.689 46.816c0-.69-.432-1.149-1.037-1.149-.603 0-1.034.459-1.034 1.149v2.034c-.547-.475-1.252-.718-1.971-.718-2.229 0-3.336 2.086-3.336 4.099 0 1.956 1.324 3.897 3.408 3.897.706 0 1.51-.482 1.9-1.116l.06.203c.114.431.489.746.988.746.608 0 1.023-.44 1.023-1.022l-.004-.094.004-.12v-7.909zm-3.697 7.188c-1.078 0-1.61-.896-1.61-1.859 0-.978.532-2.07 1.61-2.07 1.107 0 1.626.991 1.626 1.999 0 1.006-.491 1.93-1.626 1.93M68.783 48.133c-.952 0-1.876.274-2.278.803-.101-.459-.509-.803-.999-.803-.565 0-1.022.458-1.022 1.021l.004.099-.004.116v5.442c0 .689.432 1.15 1.034 1.15.604 0 1.036-.461 1.036-1.15v-3.314c0-.805.693-1.423 1.541-1.423.749 0 1.45.459 1.45 1.423v3.314c0 .689.432 1.15 1.034 1.15.605 0 1.037-.461 1.037-1.15v-3.889c0-1.755-1.208-2.789-2.833-2.789M63.664 49.154c0-.563-.459-1.021-1.024-1.021-.519 0-.945.387-1.01.886-.465-.602-1.185-.886-1.921-.886-1.898 0-3.423 1.739-3.423 4.012 0 2.331 1.481 3.984 3.423 3.984.769 0 1.401-.397 1.926-.996.082.479.475.84 1.006.84l.251-.027c.412-.062.604-.299.695-.58.05-.126.078-.267.078-.416l-.004-.078.004-.261v-5.039l-.006-.302.005-.116m-3.668 4.85c-1.122 0-1.639-.865-1.639-1.859 0-.991.503-2.07 1.639-2.07 1.094 0 1.597 1.079 1.597 2.07-.001.994-.518 1.859-1.597 1.859"/><path d="M82.34 52.745c.146 1.021.993 1.497 1.957 1.497 1.063 0 1.59-.835 2.138-.835.446 0 .849.446.849.892 0 .892-1.635 1.754-3.173 1.754-2.332 0-3.883-1.696-3.883-3.983 0-2.101 1.524-4.013 3.709-4.013 2.244 0 3.727 2.043 3.727 3.77 0 .617-.275.919-.907.919h-4.417zm3.251-1.381c-.115-.905-.691-1.581-1.655-1.581-.919 0-1.538.704-1.639 1.581h3.294zM88.17 49.18c0-.691.547-1.037 1.063-1.037.407 0 .728.198 1.01.863h.027c.389-.575.805-.863 1.452-.863.504 0 1.009.36 1.009 1.108 0 .676-.62.718-1.24 1.007-.617.287-1.248.56-1.248 1.38v3.178c0 .691-.433 1.152-1.038 1.152-.604 0-1.035-.461-1.035-1.152v-5.636z"/></g><path fill="#3D575F" d="M61.303 87.544l-5.001 5-4.999-5z"/><path stroke="#07202E" stroke-width=".25" stroke-miterlimit="10" fill="none" d="M134.433 81.202v212.37"/><path opacity=".3" fill="#FFF9EE" d="M576.417 17.649l12.088 1.467-2.183 17.984-12.088-1.467z"/><path opacity=".2" fill="#FFF9EE" d="M577.852 5.821l12.088 1.467-1.436 11.827-12.088-1.467z"/></svg>