<svg xmlns="http://www.w3.org/2000/svg" width="115.688" height="96.869" viewBox="0 0 115.688 96.869"><g opacity="1"><path opacity=".1" fill="#64594F" d="M60 0h55.688v96.869h-55.688z"/><path fill="#1E3739" d="M0 0h109.688v96.869h-109.688z"/><path fill="#3C5052" d="M54 0h55.688v96.869h-55.688z"/><g fill-rule="evenodd" clip-rule="evenodd"><path fill="#D8DCDC" d="M16.109 22.181c0-.307.243-.551.552-.551.308 0 .551.244.551.551 0 .309-.243.551-.551.551-.308 0-.552-.242-.552-.551zM51.934 42.574c-.308 0-.552-.244-.552-.551 0-.309.244-.551.552-.551s.551.242.551.551c-.001.307-.244.551-.551.551zM19.416 69.58c0 .309-.243.551-.551.551s-.551-.242-.551-.551.243-.551.551-.551.551.242.551.551zM33.613 79.113c0 .309-.243.551-.551.551s-.551-.242-.551-.551.243-.551.551-.551.551.242.551.551z"/><path fill="#F7F8F8" d="M99.331 39.267c.308 0 .551.242.551.551s-.243.551-.551.551-.551-.242-.551-.551.243-.551.551-.551z"/><path fill="#D8DCDC" d="M26.03 78.398c0 .307-.243.551-.552.551-.308 0-.551-.244-.551-.551 0-.309.243-.551.551-.551.309 0 .552.242.552.551zM51.063 79.113c0 .307-.243.551-.552.551-.308 0-.551-.244-.551-.551 0-.309.243-.551.551-.551.309 0 .552.242.552.551z"/><path fill="#F7F8F8" d="M105.063 73.437c.308 0 .551.244.551.551 0 .309-.243.553-.551.553-.309 0-.552-.244-.552-.553.001-.307.244-.551.552-.551z"/><path fill="#D8DCDC" d="M38.155 51.943c0 .309-.243.551-.552.551-.308 0-.551-.242-.551-.551s.243-.551.551-.551c.309 0 .552.242.552.551z"/><path fill="#F7F8F8" d="M81.694 20.529c.309 0 .552.242.552.551s-.243.551-.552.551c-.308 0-.551-.242-.551-.551s.244-.551.551-.551zM58.547 9.505c.308 0 .552.244.552.551 0 .309-.244.551-.552.551s-.551-.242-.551-.551c0-.306.243-.551.551-.551z"/><path fill="#D8DCDC" d="M31.541 42.023c0 .307-.243.551-.551.551s-.551-.244-.551-.551c0-.309.243-.551.551-.551s.551.242.551.551z"/><path fill="#F7F8F8" d="M71.774 27.142c.308 0 .551.242.551.551s-.243.551-.551.551-.551-.242-.551-.551.244-.551.551-.551z"/><path fill="#D8DCDC" d="M23.825 29.898c0-.309.243-.551.552-.551.308 0 .551.242.551.551 0 .307-.243.551-.551.551-.309 0-.552-.244-.552-.551z"/><path fill="#F7F8F8" d="M59.649 34.857c-.308 0-.551-.242-.551-.551 0-.307.243-.551.551-.551s.551.245.551.551c0 .309-.243.551-.551.551z"/><path fill="#D8DCDC" d="M11.7 61.863c0 .309-.243.553-.551.553s-.551-.244-.551-.553c0-.307.243-.551.551-.551s.551.244.551.551z"/><path fill="#F7F8F8" d="M91.615 46.982c.308 0 .551.244.551.553 0 .307-.243.551-.551.551s-.551-.244-.551-.551c0-.309.244-.553.551-.553z"/><path fill="#D8DCDC" d="M19.416 27.142c0-.605.496-1.102 1.103-1.102s1.103.496 1.103 1.102-.496 1.102-1.103 1.102-1.103-.496-1.103-1.102z"/><path fill="#F7F8F8" d="M56.894 39.267c-.606 0-1.103-.496-1.103-1.102 0-.607.496-1.104 1.103-1.104s1.103.496 1.103 1.104c-.001.606-.497 1.102-1.103 1.102z"/><path fill="#D8DCDC" d="M16.109 64.619c0 .607-.496 1.104-1.103 1.104-.605 0-1.102-.496-1.102-1.104 0-.605.496-1.102 1.102-1.102.607 0 1.103.496 1.103 1.102z"/><path fill="#F7F8F8" d="M94.371 42.574c.605 0 1.103.496 1.103 1.102 0 .607-.497 1.104-1.103 1.104s-1.103-.496-1.103-1.104c.001-.606.497-1.102 1.103-1.102z"/><path fill="#D8DCDC" d="M30.439 49.187c0 .605-.497 1.104-1.103 1.104s-1.103-.498-1.103-1.104.496-1.102 1.103-1.102c.606 0 1.103.497 1.103 1.102z"/><path fill="#F7F8F8" d="M78.939 28.244c.605 0 1.102.496 1.102 1.104 0 .605-.496 1.102-1.102 1.102-.606 0-1.103-.496-1.103-1.102.001-.608.497-1.104 1.103-1.104z"/><path fill="#D8DCDC" d="M29.337 67.925c0 .607-.496 1.104-1.103 1.104-.605 0-1.103-.496-1.103-1.104 0-.605.497-1.102 1.103-1.102.607.001 1.103.497 1.103 1.102z"/><path fill="#F7F8F8" d="M97.678 29.347c.606 0 1.103.496 1.103 1.102s-.496 1.102-1.103 1.102-1.103-.496-1.103-1.102.496-1.102 1.103-1.102zM59.512 69.562c0 .605-.496 1.102-1.102 1.102-.606 0-1.103-.496-1.103-1.102s.496-1.102 1.103-1.102c.606 0 1.102.497 1.102 1.102z"/><path fill="#D8DCDC" d="M43.716 71.765c0 .607-.496 1.104-1.102 1.104-.606 0-1.103-.496-1.103-1.104 0-.605.496-1.102 1.103-1.102.606.001 1.102.497 1.102 1.102z"/><path fill="#F7F8F8" d="M105.394 19.425c.606 0 1.103.496 1.103 1.104 0 .605-.496 1.102-1.103 1.102s-1.103-.496-1.103-1.102c0-.608.496-1.104 1.103-1.104z"/><path fill="#D8DCDC" d="M27.132 34.306c0-.307.244-.551.552-.551s.551.244.551.551c0 .309-.243.551-.551.551s-.552-.242-.552-.551z"/><path fill="#F7F8F8" d="M64.059 31.55c-.308 0-.552-.242-.552-.551 0-.307.244-.551.552-.551s.551.244.551.551c-.001.309-.244.551-.551.551z"/><path fill="#D8DCDC" d="M8.394 57.455c0 .309-.243.551-.551.551-.309 0-.552-.242-.552-.551s.243-.551.552-.551c.307 0 .551.242.551.551z"/><path fill="#F7F8F8" d="M87.206 50.291c.308 0 .551.242.551.551 0 .307-.243.551-.551.551s-.551-.244-.551-.551c0-.309.243-.551.551-.551z"/><path fill="#D8DCDC" d="M30.439 31c0-.914.738-1.652 1.653-1.652s1.653.738 1.653 1.652c0 .916-.738 1.654-1.653 1.654s-1.653-.738-1.653-1.654z"/><path fill="#F7F8F8" d="M80.593 56.904c-.915 0-1.653-.738-1.653-1.654 0-.914.738-1.652 1.653-1.652s1.653.738 1.653 1.652c0 .916-.738 1.654-1.653 1.654zM77.837 54.148c0-.916.738-1.654 1.653-1.654s-19.29-16.346-19.29-15.432c0 .916 17.637 18 17.637 17.086zM93.819 9.505c.915 0 1.654.738 1.654 1.654 0 .914-.739 1.652-1.654 1.652s-1.653-.738-1.653-1.652c0-.915.738-1.654 1.653-1.654z"/><path fill="#D8DCDC" d="M44.769 59.66c.915 0 1.653.738 1.653 1.652 0 .916-.738 1.654-1.653 1.654s-1.653-.738-1.653-1.654c-.001-.914.738-1.652 1.653-1.652z"/><path fill="#F7F8F8" d="M61.165 76.357c.915 0 1.653.738 1.653 1.654 0 .914-.738 1.652-1.653 1.652s-1.653-.738-1.653-1.652c0-.916.738-1.654 1.653-1.654zM77.837 76.744c.605 0 1.103.496 1.103 1.104 0 .605-.497 1.102-1.103 1.102s-1.103-.496-1.103-1.102c0-.608.496-1.104 1.103-1.104z"/><path fill="#D8DCDC" d="M41.462 42.023c0-.309.243-.551.551-.551s.552.242.552.551c0 .307-.244.551-.552.551s-.551-.244-.551-.551z"/><path fill="#F7F8F8" d="M71.774 17.222c-.308 0-.551-.244-.551-.553 0-.307.243-.551.551-.551s.551.244.551.551c0 .309-.243.553-.551.553zM79.49 64.619c.308 0 .551.244.551.551 0 .309-.243.553-.551.553s-.551-.244-.551-.553c0-.307.244-.551.551-.551zM71.774 67.925c.308 0 .551.244.551.553 0 .307-.243.551-.551.551s-.551-.244-.551-.551c.001-.309.244-.553.551-.553zM89.411 80.05c.308 0 .551.244.551.553 0 .307-.243.551-.551.551-.309 0-.552-.244-.552-.551 0-.309.244-.553.552-.553zM73.979 87.767c.309 0 .552.242.552.551s-.243.551-.552.551c-.308 0-.551-.242-.551-.551s.243-.551.551-.551z"/><path fill="#D8DCDC" d="M43.666 24.386c0-.309.243-.551.552-.551.308 0 .551.242.551.551s-.243.551-.551.551c-.309 0-.552-.242-.552-.551z"/><path fill="#F7F8F8" d="M97.127 66.824c.308 0 .551.244.551.551 0 .309-.243.551-.551.551-.309 0-.552-.242-.552-.551 0-.307.243-.551.552-.551zM73.979 58.005c.309 0 .552.244.552.551 0 .309-.243.551-.552.551-.308 0-.551-.242-.551-.551 0-.306.243-.551.551-.551zM57.468 48.101c.308 0 .551.244.551.553 0 .307-.243.551-.551.551s-.551-.244-.551-.551c0-.309.243-.553.551-.553z"/><path fill="#D8DCDC" d="M49.729 50.291c.309 0 .552.242.552.551 0 .307-.243.551-.552.551-.308 0-.551-.244-.551-.551 0-.309.243-.551.551-.551zM17.212 37.613c0-.307.243-.551.551-.551s.552.244.552.551c0 .309-.244.553-.552.553s-.551-.245-.551-.553zM18.314 54.148c0 .307-.244.551-.552.551s-.551-.244-.551-.551c0-.309.243-.551.551-.551s.552.242.552.551z"/><path fill="#F7F8F8" d="M83.899 40.369c.308 0 .551.244.551.551 0 .309-.243.553-.551.553s-.551-.244-.551-.553c.001-.307.244-.551.551-.551z"/><path fill="#D8DCDC" d="M33.746 26.591c0-.309.243-.551.551-.551s.552.242.552.551c0 .307-.244.551-.552.551s-.551-.244-.551-.551z"/><path fill="#F7F8F8" d="M56.343 24.937c-.309 0-.552-.242-.552-.551s.243-.551.552-.551c.308 0 .551.242.551.551s-.244.551-.551.551z"/><path fill="#D8DCDC" d="M1.78 65.169c0 .309-.243.553-.552.553-.308 0-.551-.244-.551-.553 0-.307.243-.551.551-.551.309.001.552.245.552.551z"/><path fill="#F7F8F8" d="M94.922 56.904c.308 0 .552.242.552.551s-.244.551-.552.551-.551-.242-.551-.551.243-.551.551-.551z"/><path fill="#D8DCDC" d="M37.053 33.205c0-.309.243-.551.551-.551.309 0 .552.242.552.551s-.243.551-.552.551c-.308-.001-.551-.243-.551-.551z"/><path fill="#F7F8F8" d="M62.956 21.63c-.308 0-.551-.242-.551-.551s.243-.551.551-.551.551.242.551.551-.243.551-.551.551z"/><path fill="#D8DCDC" d="M6.614 35.214c0 .309-.244.551-.552.551s-.551-.242-.551-.551c0-.307.243-.551.551-.551s.552.245.552.551z"/><path fill="#F7F8F8" d="M88.309 60.21c.308 0 .551.242.551.551s-.243.551-.551.551-.552-.242-.552-.551.244-.551.552-.551z"/><path fill="#D8DCDC" d="M26.03 25.488c0-.307.243-.551.551-.551s.551.244.551.551c0 .309-.243.553-.551.553s-.551-.245-.551-.553z"/><path fill="#F7F8F8" d="M55.24 32.654c-.308 0-.551-.244-.551-.551 0-.309.243-.553.551-.553s.551.244.551.553c0 .307-.243.551-.551.551z"/><path fill="#D8DCDC" d="M9.496 66.273c0 .307-.243.551-.552.551-.308 0-.551-.244-.551-.551 0-.309.243-.551.551-.551.309 0 .552.242.552.551z"/><path fill="#F7F8F8" d="M96.024 49.187c.308 0 .551.244.551.551 0 .309-.243.553-.551.553s-.551-.244-.551-.553c.001-.307.244-.551.551-.551z"/><path fill="#D8DCDC" d="M35.95 17.773c0-.309.243-.551.552-.551.308 0 .551.242.551.551 0 .307-.243.551-.551.551-.309 0-.552-.244-.552-.551zM47.524 22.732c-.308 0-.551-.242-.551-.551 0-.307.243-.551.551-.551s.551.244.551.551c0 .309-.243.551-.551.551zM7.716 50.646c0 .309-.243.553-.551.553s-.551-.244-.551-.553c0-.307.243-.551.551-.551s.551.244.551.551z"/><path fill="#F7F8F8" d="M103.74 59.107c.308 0 .551.244.551.553 0 .307-.243.551-.551.551s-.551-.244-.551-.551c0-.309.244-.553.551-.553z"/><path fill="#D8DCDC" d="M29.337 57.455c0 .309-.243.551-.551.551-.309 0-.552-.242-.552-.551s.243-.551.552-.551c.308 0 .551.242.551.551z"/><path fill="#F7F8F8" d="M87.206 29.347c.308 0 .551.242.551.551 0 .307-.243.551-.551.551s-.551-.244-.551-.551c0-.309.243-.551.551-.551z"/><path fill="#D8DCDC" d="M12.803 40.919c0-.307.243-.551.551-.551.309 0 .552.244.552.551 0 .309-.243.553-.552.553-.308 0-.551-.244-.551-.553z"/><path fill="#F7F8F8" d="M66.467 58.205c-.308 0-.551-.242-.551-.551s.243-.551.551-.551.552.242.552.551-.245.551-.552.551zM59.098 59.109c-.308 0-.551-.244-.551-.553 0-.307.243-.551.551-.551s.552.244.552.551c-.001.309-.245.553-.552.553z"/><path fill="#D8DCDC" d="M22.724 50.841c0 .307-.244.551-.552.551s-.551-.244-.551-.551c0-.309.243-.551.551-.551s.552.243.552.551z"/><path fill="#F7F8F8" d="M80.593 35.96c.308 0 .551.242.551.551s-.243.551-.551.551c-.309 0-.552-.242-.552-.551s.243-.551.552-.551z"/><path fill="#D8DCDC" d="M22.724 19.425c0-.605.496-1.102 1.102-1.102.606 0 1.103.496 1.103 1.102 0 .607-.496 1.104-1.103 1.104-.606 0-1.102-.496-1.102-1.104zM49.178 35.96c-.606 0-1.103-.496-1.103-1.104 0-.605.496-1.102 1.103-1.102s1.103.496 1.103 1.102c-.001.608-.497 1.104-1.103 1.104zM12.803 72.335c0 .605-.496 1.102-1.103 1.102-.605 0-1.102-.496-1.102-1.102s.496-1.104 1.102-1.104c.607.001 1.103.499 1.103 1.104z"/><path fill="#F7F8F8" d="M102.087 45.88c.605 0 1.103.496 1.103 1.102 0 .607-.497 1.104-1.103 1.104s-1.103-.496-1.103-1.104c0-.606.496-1.102 1.103-1.102z"/><path fill="#D8DCDC" d="M18.314 16.669c0-.307.243-.551.551-.551s.551.244.551.551c0 .309-.243.553-.551.553s-.551-.244-.551-.553zM46.422 40.369c-.308 0-.551-.242-.551-.551s.243-.551.551-.551.552.242.552.551-.245.551-.552.551zM17.212 75.091c0 .307-.243.551-.551.551-.309 0-.552-.244-.552-.551 0-.309.243-.551.552-.551.308.001.551.243.551.551z"/><path fill="#F7F8F8" d="M104.843 41.472c.308 0 .551.242.551.551 0 .307-.243.551-.551.551-.309 0-.552-.244-.552-.551 0-.309.243-.551.552-.551z"/><path fill="#D8DCDC" d="M16.109 29.898c0-.309.243-.551.552-.551.308 0 .551.242.551.551 0 .307-.243.551-.551.551-.308 0-.552-.244-.552-.551z"/><path fill="#F7F8F8" d="M59.649 42.574c-.308 0-.551-.244-.551-.551 0-.309.243-.551.551-.551s.551.242.551.551c0 .307-.243.551-.551.551z"/><path fill="#D8DCDC" d="M19.416 61.863c0 .309-.243.553-.551.553s-.551-.244-.551-.553c0-.307.243-.551.551-.551s.551.244.551.551z"/><path fill="#F7F8F8" d="M91.615 39.267c.308 0 .551.242.551.551s-.243.551-.551.551-.551-.242-.551-.551.244-.551.551-.551z"/><path fill="#D8DCDC" d="M23.825 37.613c0-.307.243-.551.552-.551.308 0 .551.244.551.551 0 .309-.243.553-.551.553-.309 0-.552-.245-.552-.553z"/><path fill="#F7F8F8" d="M67.365 34.857c-.308 0-.551-.242-.551-.551 0-.307.243-.551.551-.551s.551.244.551.551c0 .309-.243.551-.551.551z"/><path fill="#D8DCDC" d="M11.7 54.148c0 .307-.243.551-.551.551s-.551-.244-.551-.551c0-.309.243-.551.551-.551s.551.242.551.551z"/><path fill="#F7F8F8" d="M83.899 46.982c.308 0 .551.244.551.553 0 .307-.243.551-.551.551s-.551-.244-.551-.551c.001-.309.244-.553.551-.553z"/></g></g></svg>