<svg xmlns="http://www.w3.org/2000/svg" width="78.494" height="74.387" viewBox="0 0 78.494 74.387"><path opacity=".1" fill="#65594F" d="M69.333 45.755h.24v-.057c1.851-.165 3.303-1.716 3.303-3.61 0-1.893-1.452-3.445-3.303-3.61v-.016c-9.298-20.034-16.802-27.935-24.94-29.654v-4.958h-.007l.007-.14c0-2.05-1.661-3.71-3.709-3.71-2.049 0-3.709 1.66-3.709 3.71l.007.14h-.007v4.958c-8.139 1.72-15.642 9.62-24.941 29.654v.016c-1.851.165-3.303 1.718-3.303 3.61 0 1.895 1.452 3.445 3.303 3.61v.018c-5.453 1.562-12.205 28.642-7.914 28.642h72.775c4.259 0-2.368-26.705-7.802-28.603z"/><path fill="#BEDFC0" d="M41.633 3.71c0-2.05-1.661-3.71-3.709-3.71-2.049 0-3.709 1.66-3.709 3.71l.007.14h-.007v5.358h7.418v-5.358h-.007l.007-.14z"/><path fill="#FFF9EE" d="M66.574 38.462c-10.692-23.036-19.009-30.034-28.65-30.034-9.64 0-17.957 6.998-28.65 30.034h57.3z"/><path fill="#1C95CF" d="M66.574 38.478v-.016h-57.3v.016c-1.851.165-3.303 1.718-3.303 3.61 0 1.895 1.452 3.445 3.303 3.61v.057h57.299v-.057c1.851-.165 3.303-1.716 3.303-3.61 0-1.893-1.452-3.445-3.302-3.61z"/><path fill="#50A6CF" d="M5.973 42.107c.011 1.886 1.457 3.427 3.301 3.591v.057h57.299v-.057c1.844-.164 3.29-1.705 3.302-3.591h-63.902z"/><path fill="#1C95CF" d="M74.134 74.358h-72.774c-4.418 0 2.872-28.719 8.396-28.719h55.981c5.526.001 12.814 28.719 8.397 28.719z"/><path fill="#15709B" d="M8.294 46.251c.494-.393.984-.611 1.462-.611h55.981c.479 0 .969.219 1.463.611h-58.906zM75.197 73.337c-.218.648-.564 1.021-1.062 1.021h-72.775c-.497 0-.844-.373-1.063-1.021h74.9z"/><path fill="#1C8EC5" d="M67.202 46.249l-.001.002h-58.907c.494-.393 66.427 27.086 66.902 27.086l.007-.003c1.552-4.616-3.417-23.457-8.001-27.085z"/><path fill="#E7E2DA" d="M9.274 38.462h57.3l-.663-1.406s-56.414.926-56.637 1.406z"/></svg>