<svg xmlns="http://www.w3.org/2000/svg" width="99.25" height="117.872" viewBox="0 0 99.25 117.872"><path fill="#8ABE8F" d="M46.18 105.926c0 1.918 1.556 3.476 3.475 3.476 1.918 0 3.474-1.558 3.474-3.476l-.007-.131h.007v-13.854h-6.947v13.854h.006l-.008.131z"/><path fill="#BEDFC0" d="M44.015 104.786c0 3.113 2.524 5.639 5.64 5.639 3.115 0 5.64-2.524 5.64-5.639l-.011-.215h.011v-2.609h-11.279v2.609h.01l-.011.215z"/><path fill="#1C95CF" d="M85.876 29.188h-72.774c-4.42 0 2.871 28.719 8.396 28.719h55.982c5.524-.001 12.813-28.719 8.396-28.719zM85.876 29.188h-72.774c-4.42 0 2.871 28.719 8.396 28.719h55.982c5.524-.001 12.813-28.719 8.396-28.719z"/><path fill="#1C8EC5" d="M77.98 57.829c5.449-1.619 12.181-28.642 7.896-28.642h-72.774c-.476 0-.815.334-1.036.927l65.914 27.715z"/><path fill="#50A6CF" d="M77.975 57.921v-.015h-56.757000000000005v.015c-1.733.154-3.094 1.607-3.094 3.38 0 1.775 1.36 3.229 3.094 3.382v.053h56.757000000000005v-.053c1.732-.153 3.094-1.606 3.094-3.382-.001-1.773-1.361-3.226-3.094-3.38z"/><path fill="#1C95CF" d="M18.125 61.321c.011 1.766 1.367 3.208 3.094 3.361v.053h56.757999999999996v-.053c1.728-.153 3.082-1.596 3.092-3.361h-62.944zM22.237 66.502c-17.899 3.933-23.371 25.448-22.049 41.92.338 4.211 4.22 9.449 8.443 9.449s6.675-1.771 7.647-5.881c0 0 .979-4.078 1.846-11.297.624-5.189 7.82-14.562 14.797-15.57l.004-.002c-3.441-4.66-6.975-10.822-10.688-18.619z"/><path fill="#15709B" d="M22.246 66.521c-17.271 4.479-4.973 41.267-4.121 34.174.624-5.19 7.82-14.562 14.797-15.571h.004c-3.439-4.659-6.971-10.814-10.68-18.603z"/><path fill="#1C95CF" d="M76.96 66.502c17.899 3.933 23.372 25.447 22.05 41.92-.338 4.211-4.22 9.449-8.443 9.449s-6.674-1.771-7.646-5.881c0 0-.979-4.078-1.847-11.297-.623-5.189-7.819-14.562-14.796-15.57l-.006-.002c3.442-4.66 6.977-10.822 10.688-18.619z"/><path fill="#15709B" d="M76.953 66.521c17.271 4.479 4.973 41.267 4.12 34.174-.623-5.19-7.819-14.562-14.796-15.571h-.006c3.44-4.659 6.973-10.814 10.682-18.603z"/><path fill="#1C95CF" d="M49.604 101.804s-5.615 6.483-12.542 6.483c-6.926 0-9.448-2.902-9.448-6.483 0-3.583 2.521-6.485 9.448-6.485 6.927-.001 12.542 6.485 12.542 6.485zM49.704 101.804s5.614-6.485 12.542-6.485 9.449 2.902 9.449 6.485c0 3.581-2.521 6.483-9.449 6.483l-12.542-6.483z"/><path fill="#15709B" d="M62.246 107.179c6.564 0 9.172-2.608 9.428-5.931.014.185.021.367.021.556 0 3.581-2.521 6.483-9.449 6.483l-12.542-6.483s.185-.212.521-.556c1.541 1.569 6.337 5.931 12.021 5.931zM37.062 96.426c-6.564 0-9.172 2.609-9.428 5.932l-.021-.555c0-3.582 2.521-6.484 9.448-6.484 6.927 0 12.542 6.484 12.542 6.484s-.185.212-.521.555c-1.54-1.568-6.336-5.932-12.02-5.932z"/><path fill="#1C95CF" d="M77.986 64.562c-10.244 22.067-19.095 31.864-28.331 31.864s-18.088-9.797-28.332-31.864h56.663z"/><path fill="#15709B" d="M21.323 64.562h56.663c-.764 1.644-1.52 3.22-2.268 4.728l-54.395-4.728z"/><circle fill="#FBD7C4" cx="49.536" cy="9.868" r="9.868"/><path fill="#F49B6C" d="M38.242 29.188h22.561999999999998c-.238-2.531-1.537-6.099-3.445-8.948l-.233-.281.022-.018c-.601-.728-1.299-1.368-2.082-1.899l-.015.009-.011-.009c-1.575 1.067-3.473 1.692-5.519 1.694-2.046-.002-3.943-.627-5.519-1.694l-.012.009-.014-.009c-.782.531-1.481 1.172-2.081 1.899l.021.018-.231.281c-1.907 2.849-3.206 6.416-3.443 8.948z"/><path stroke="#F49B6C" stroke-miterlimit="10" d="M44.805 12.104c.726 1.909 2.567 3.269 4.73 3.269 2.164 0 4.005-1.359 4.729-3.269M44.805 8.23h2.475M51.875 8.23h2.475" fill="none"/><path fill="#15709B" d="M20.036 57.294c.494.393.984.612 1.462.612h55.982c.477 0 .967-.22 1.461-.612h-58.905zM86.939 30.208c-.222-.647-.565-1.021-1.062-1.021h-72.775c-.498 0-.845.373-1.063 1.021h74.9z"/><path opacity=".1" fill="#65594F" enable-background="new" d="M77.113 66.528c.279-.588.562-1.188.844-1.793h.07v-.053c1.732-.153 3.095-1.605 3.095-3.381 0-1.773-1.361-3.227-3.095-3.381v-.015h-.494c5.523 0 12.812-28.719 8.396-28.719h-25.072c-.219-2.326-1.34-5.521-3-8.236l-56.794 90.611c1.412 3.295 4.416 6.312 7.621 6.312 4.224 0 6.675-1.771 7.647-5.881 0 0 .979-4.078 1.846-11.298.624-5.19 7.82-14.562 14.797-15.571h.004l-.012-.017c4.516 6.117 8.874 9.647 13.268 10.849v2.793c-2.287-1.682-5.521-3.43-9.119-3.43-6.926 0-9.448 2.902-9.448 6.485 0 3.581 2.522 6.483 9.448 6.483 2.65 0 5.104-.951 7.13-2.123.616 2.446 2.825 4.26 5.463 4.26s4.847-1.812 5.462-4.258c2.025 1.172 4.479 2.121 7.129 2.121 6.928 0 9.449-2.902 9.449-6.483 0-3.583-2.521-6.485-9.449-6.485-3.597 0-6.83 1.747-9.117 3.43v-2.793c4.385-1.199 8.733-4.717 13.239-10.812 6.948 1.078 14.085 10.384 14.705 15.552.868 7.219 1.847 11.297 1.847 11.297.973 4.11 3.424 5.881 7.647 5.881 4.223 0 8.104-5.238 8.442-9.449 1.32-16.444-4.13-37.904-21.949-41.896z"/></svg>