<svg xmlns="http://www.w3.org/2000/svg" xmlns:xlink="http://www.w3.org/1999/xlink" width="88.425" height="44.212" viewBox="0 0 88.425 44.212"><path opacity=".1" fill="#65594F" d="M83.607.805h-73.655c-5.524 0-3.978 42.562.44 42.562h72.775c4.417 0 5.965-42.562.44-42.562z"/><defs><path id="a" d="M81.607.805h-73.655c-5.524 0-3.978 42.562.44 42.562h72.775c4.417 0 5.965-42.562.44-42.562z"/></defs><clipPath id="b"><use xlink:href="#a" overflow="visible"/></clipPath><g clip-path="url(#b)"><path fill="#FFF9EE" d="M14.736 0h14.738v14.737h-14.738z"/><path fill="#50A6CF" d="M0 0h14.736v14.737h-14.736z"/><path fill="#FFF9EE" d="M73.688 0h14.737v14.737h-14.737z"/><path fill="#50A6CF" d="M58.95 0h14.737v14.737h-14.737z"/><path fill="#FFF9EE" d="M14.736 29.474h14.738v14.738h-14.738z"/><path fill="#50A6CF" d="M0 29.474h14.736v14.738h-14.736z"/><path fill="#FFF9EE" d="M73.688 29.474h14.737v14.738h-14.737z"/><path fill="#50A6CF" d="M58.95 29.474h14.737v14.738h-14.737z"/><path fill="#FFF9EE" d="M58.95 14.737h14.737v14.736h-14.737z"/><path fill="#50A6CF" d="M73.688 14.737h14.737v14.736h-14.737z"/><path fill="#FFF9EE" d="M0 14.737h14.736v14.736h-14.736z"/><path fill="#50A6CF" d="M14.736 14.737h14.738v14.736h-14.738zM54.665 14.737c1.946 2.312 3.123 5.292 3.123 8.55 0 2.235-.558 4.338-1.532 6.187h2.694v-14.737h-4.285z"/><path fill="#FFF9EE" d="M44.213 0v10.013l.286-.015c4.081 0 7.729 1.844 10.166 4.739h4.285v-14.737h-14.737z"/><path fill="#50A6CF" d="M44.213 10.013v-10.013h-14.738v14.737h4.857c2.38-2.827 5.916-4.64 9.881-4.724z"/><path fill="#FFF9EE" d="M31.209 23.287c0-3.258 1.177-6.238 3.123-8.55h-4.857v14.736h3.267c-.975-1.848-1.533-3.951-1.533-6.186z"/><path fill="#50A6CF" d="M32.742 29.474h-3.267v14.738h14.738v-7.649c-4.983-.107-9.287-2.948-11.471-7.089z"/><path fill="#FFF9EE" d="M56.256 29.474c-2.227 4.222-6.652 7.104-11.757 7.104l-.286-.015v7.649h14.737v-14.738h-2.694z"/></g><path fill="#92C996" d="M44.499 4.512c-10.37 0-18.776 8.406-18.776 18.775 0 10.37 8.406 18.775 18.776 18.775 10.368 0 18.775-8.405 18.775-18.775 0-10.369-8.407-18.775-18.775-18.775zm0 32.065c-7.34 0-13.29-5.95-13.29-13.29 0-7.339 5.95-13.289 13.29-13.289 7.339 0 13.289 5.95 13.289 13.289 0 7.34-5.95 13.29-13.289 13.29z"/><path fill="#8ABE8F" d="M44.499 4.512c-10.37 0-18.776 8.406-18.776 18.775 0 10.37 8.406 18.775 18.776 18.775 10.368 0 18.775-8.405 18.775-18.775 0-10.369-8.407-18.775-18.775-18.775zm0 36.666c-9.882 0-17.892-8.009-17.892-17.891 0-9.881 8.01-17.891 17.892-17.891 9.881 0 17.891 8.01 17.891 17.891 0 9.882-8.01 17.891-17.891 17.891zM53.391 32.278c-2.285 2.26-5.426 3.655-8.892 3.655-3.468 0-6.608-1.396-8.893-3.655-2.529-2.278-4.177-5.515-4.375-9.138l-.004.146c0 7.33 5.94 13.271 13.271 13.271 7.329 0 13.271-5.941 13.271-13.271l-.004-.146c-.197 3.624-1.846 6.86-4.374 9.138z"/><path opacity=".1" fill="#64594F" d="M57.75 22.524c.014.254.038.505.038.763 0 7.34-5.95 13.29-13.289 13.29-7.34 0-13.29-5.95-13.29-13.29 0-.504.034-1 .088-1.489l-5.575-.153v21.723h37.552v-20.692l-5.524-.152z"/></svg>