<svg xmlns="http://www.w3.org/2000/svg" width="347.443" height="683.752" viewBox="0 0 347.443 683.752"><path fill="#EBFFFF" d="M0 0h343.726v367.65h-343.726z"/><g fill="#C3CDD0"><path d="M37.631 294.156l.015-.007h-.021l-.728-.806v-.563h.145v-.121h-18.49v.121h.145v.563l-.728.806h-.021l.015.007-.015.017h.05l.699.339v49.234h18.2v-49.234l.7-.339h.049zM55.883 299.294l.015-.007h-.022l-.727-.806v-.563h.145v-.122h-18.491v.122h.146v.563l-.728.806h-.021l.015.007-.015.017h.05l.699.34v44.095h18.2v-44.095l.699-.34h.05zM74.135 281.936l.014-.008h-.022l-.727-.805v-.564h.145v-.121h-18.49v.121h.145v.564l-.727.805h-.022l.015.008-.015.018h.05l.699.338v61.454h18.2v-61.454l.7-.338h.049zM92.386 307.354l.015-.007h-.022l-.727-.805v-.564h.145v-.121h-18.49v.121h.145v.564l-.728.805h-.021l.015.007-.015.02h.05l.699.336v36.036h18.2v-36.036l.7-.336h.049zM110.638 289.998l.015-.008h-.022l-.728-.806v-.563h.146v-.122h-18.49v.122h.145v.563l-.728.806h-.022l.016.008-.016.015h.05l.7.34v53.393h18.199v-53.393l.7-.34h.05zM128.889 294.156l.016-.007h-.022l-.728-.806v-.563h.146v-.121h-18.49v.121h.144v.563l-.727.806h-.022l.015.007-.015.017h.05l.699.339v49.234h18.2v-49.234l.699-.339h.051zM147.141 299.294l.016-.007h-.022l-.728-.806v-.563h.145v-.122h-18.49v.122h.145v.563l-.728.806h-.021l.015.007-.015.017h.049l.7.34v44.095h18.2v-44.095l.699-.34h.051zM165.393 281.936l.015-.008h-.022l-.727-.805v-.564h.144v-.121h-18.49v.121h.145v.564l-.727.805h-.022l.016.008-.016.018h.05l.699.338v61.454h18.201v-61.454l.699-.338h.05zM183.877 296.73l.016-.007h-.021l-.729-.806v-.563h.146v-.122h-18.491v.122h.146v.563l-.729.806h-.021l.015.007-.015.017h.051l.699.339v49.234h18.199v-49.234l.7-.339h.05zM202.129 301.869l.016-.008h-.022l-.728-.806v-.563h.146v-.121h-18.492v.121h.147v.563l-.729.806h-.021l.015.008-.015.016h.05l.7.34v44.095h18.199v-44.095l.699-.34h.051zM220.381 284.51l.015-.008h-.022l-.727-.805v-.564h.145v-.121h-18.491v.121h.146v.564l-.728.805h-.021l.014.008-.014.017h.05l.699.339v61.454h18.2v-61.454l.699-.339h.05zM238.632 309.929l.015-.007h-.022l-.727-.805v-.564h.145v-.122h-18.49v.122h.145v.564l-.727.805h-.022l.015.007-.015.018h.05l.699.338v36.035h18.2v-36.035l.7-.338h.049zM256.883 292.571l.016-.007h-.022l-.727-.806v-.563h.145v-.121h-18.49v.121h.145v.563l-.727.806h-.022l.014.007-.014.016h.049l.7.34v53.393h18.2v-53.393l.699-.34h.05zM275.135 296.73l.016-.007h-.022l-.727-.806v-.563h.145v-.122h-18.49v.122h.145v.563l-.728.806h-.022l.015.007-.015.017h.05l.7.339v49.234h18.2v-49.234l.699-.339h.05zM293.387 301.869l.016-.008h-.022l-.728-.806v-.563h.146v-.121h-18.491v.121h.146v.563l-.729.806h-.021l.015.008-.015.016h.05l.7.34v44.095h18.199v-44.095l.7-.34h.05zM311.639 284.51l.016-.008h-.023l-.727-.805v-.564h.145v-.121h-18.491v.121h.147v.564l-.729.805h-.021l.015.008-.015.017h.05l.7.339v61.454h18.199v-61.454l.699-.339h.051z"/></g><g fill="#D6E1E4"><path d="M138.174 316.8l.023-.01h-.033l-1.118-1.238v-.865h.224v-.187h-28.394v.187h.223v.865l-1.118 1.238h-.033l.023.01-.023.027h.076l1.075.52v75.605h27.947v-75.605l1.075-.52h.076zM166.202 324.691l.023-.012h-.033l-1.117-1.237v-.864h.222v-.188h-28.395v.188h.224v.864l-1.117 1.237h-.034l.024.012-.024.026h.077l1.074.521v67.714h27.949v-67.714l1.074-.521h.076zM194.229 298.036l.023-.012h-.034l-1.116-1.237v-.866h.223v-.186h-28.395v.186h.223v.866l-1.117 1.237h-.034l.024.012-.024.026h.077l1.074.52v94.37h27.949v-94.37l1.073-.52h.077zM222.256 337.069l.024-.011h-.033l-1.118-1.237v-.865h.223v-.187h-28.394v.187h.222v.865l-1.117 1.237h-.033l.023.011-.023.027h.077l1.073.52v55.336h27.949v-55.336l1.075-.52h.076zM250.284 310.414l.023-.012h-.033l-1.117-1.236v-.866h.222v-.186h-28.394v.186h.223v.866l-1.118 1.236h-.033l.024.012-.024.026h.077l1.074.52v81.992h27.949v-81.992l1.074-.52h.076zM278.311 316.8l.023-.01h-.033l-1.117-1.238v-.865h.224v-.187h-28.395v.187h.223v.865l-1.117 1.238h-.034l.023.01-.023.027h.077l1.074.52v75.605h27.948v-75.605l1.074-.52h.076zM306.338 324.691l.024-.012h-.033l-1.118-1.237v-.864h.224v-.188h-28.395v.188h.223v.864l-1.117 1.237h-.033l.023.012-.023.026h.077l1.073.521v67.714h27.948v-67.714l1.075-.521h.076zM334.367 298.036l.022-.012h-.033l-1.117-1.237v-.866h.222v-.186h-28.394v.186h.225v.866l-1.118 1.237h-.034l.024.012-.024.026h.077l1.075.52v94.37h27.947v-94.37l1.074-.52h.076z"/></g><g fill="#D6E1E4"><path d="M12.967 325.751l.009-.007h-.012l-.384-.899v-.628h.077v-.135h-9.751v.135h.076v.628l-.383.899h-.012l.008.007-.008.02h.026l.369.378v40.184h9.598v-40.184l.369-.378h.027zM33.312 306.394l.017-.008h-.024l-.811-.898v-.628h.161v-.136h-20.62v.136h.163v.628l-.812.898h-.024l.017.008-.017.02h.055l.781.378v59.541h20.296v-59.541l.779-.378h.056zM53.666 311.033l.017-.008h-.025l-.811-.899v-.628h.162v-.135h-20.62v.135h.162v.628l-.811.899h-.024l.016.008-.016.018h.055l.78.379v54.903h20.296v-54.903l.78-.379h.056zM74.019 316.763l.017-.009h-.024l-.811-.898v-.628h.162v-.136h-20.621v.136h.162v.628l-.811.898h-.024l.017.009-.017.019h.056l.779.378v49.173h20.297v-49.173l.779-.378h.056zM94.373 297.406l.017-.009h-.025l-.811-.898v-.628h.162v-.136h-20.62v.136h.162v.628l-.811.898h-.025l.017.009-.017.019h.056l.78.377v68.531h20.296v-68.531l.78-.377h.056z"/></g><path fill="#6E7F48" d="M83.411 437.754h90.313v1.608h-90.313z"/><path fill="#E0E8CD" d="M83.411 437.573h90.313v.301h-90.313z"/><path fill="#B4CA86" d="M83.411 439.363h90.313v45.599h-90.313z"/><path opacity=".1" d="M93.99 451.85h18.159v21.507h-18.159z"/><path fill="#FBF6EE" d="M95.437 473.357v-21.507h15.264v21.507h-15.264zm13.608-1.656v-18.193h-11.952v18.193h11.952z"/><path fill="#827B70" d="M109.572 472.227h-13.006v-19.247h13.005v19.247z"/><path fill="#D5EAEF" d="M109.045 471.701h-11.952v-18.193h11.952v18.193z"/><path stroke="#827B70" stroke-miterlimit="10" fill="none" d="M103.002 453.173v18.861"/><path opacity=".1" d="M110.174 472.83l-14.185-20.469 14.185.017v20.452zM110.701 475.118l-15.264-1.761h15.264z"/><path fill="#FBF6EE" d="M109.278 453.173h6.276v18.86h-6.276z"/><g fill="#BBB8B1"><path d="M114.902 455.174h-4.971l.51.114h3.95zM114.902 454.193h-4.971l.51.112h3.95zM114.902 459.102h-4.971l.51.113h3.95zM114.902 458.121h-4.971l.51.113h3.95zM114.902 457.139h-4.971l.51.113h3.95zM114.902 456.157h-4.971l.51.113h3.95zM114.902 461.067h-4.971l.51.113h3.95zM114.902 460.084h-4.971l.51.114h3.95zM114.902 463.031h-4.971l.51.113h3.95zM114.902 462.049h-4.971l.51.113h3.95zM114.902 464.995h-4.971l.51.113h3.95zM114.902 464.012h-4.971l.51.114h3.95zM114.902 466.959h-4.971l.51.113h3.95zM114.902 465.978h-4.971l.51.112h3.95zM114.902 469.905h-4.971l.51.113h3.95zM114.902 467.941h-4.971l.51.113h3.95zM114.902 470.887h-4.971l.51.113h3.95zM114.902 468.923h-4.971l.51.114h3.95z"/></g><path fill="#FBF6EE" d="M90.606 453.173h6.276v18.86h-6.276z"/><g fill="#BBB8B1"><path d="M96.229 455.174h-4.971l.511.114h3.95zM96.229 454.193h-4.971l.511.112h3.95zM96.229 459.102h-4.971l.511.113h3.95zM96.229 458.121h-4.971l.511.113h3.95zM96.229 457.139h-4.971l.511.113h3.95zM96.229 456.157h-4.971l.511.113h3.95zM96.229 461.067h-4.971l.511.113h3.95zM96.229 460.084h-4.971l.511.114h3.95zM96.229 463.031h-4.971l.511.113h3.95zM96.229 462.049h-4.971l.511.113h3.95zM96.229 464.995h-4.971l.511.113h3.95zM96.229 464.012h-4.971l.511.114h3.95zM96.229 466.959h-4.971l.511.113h3.95zM96.229 465.978h-4.971l.511.112h3.95zM96.229 469.905h-4.971l.511.113h3.95zM96.229 467.941h-4.971l.511.113h3.95zM96.229 470.887h-4.971l.511.113h3.95zM96.229 468.923h-4.971l.511.114h3.95z"/></g><path opacity=".1" d="M119.707 451.85h18.159v21.507h-18.159z"/><path fill="#FBF6EE" d="M121.154 473.357v-21.507h15.265v21.507h-15.265zm13.608-1.656v-18.193h-11.951v18.193h11.951z"/><path fill="#827B70" d="M122.283 452.98h13.006v19.247h-13.006v-19.247z"/><path fill="#D5EAEF" d="M122.811 453.507h11.951v18.193h-11.951v-18.193z"/><path stroke="#827B70" stroke-miterlimit="10" fill="none" d="M128.853 453.173v18.861"/><path opacity=".1" d="M121.681 452.377l14.185-.017-14.185 20.469v-20.452zM121.154 475.118l15.264-1.761h-15.264z"/><path fill="#FBF6EE" d="M122.392 453.173h6.276v18.86h-6.276z"/><g fill="#BBB8B1"><path d="M123.044 455.174h4.972l-.511.114h-3.95zM123.044 454.193h4.972l-.511.112h-3.95zM123.044 459.102h4.972l-.511.113h-3.95zM123.044 458.121h4.972l-.511.113h-3.95zM123.044 457.139h4.972l-.511.113h-3.95zM123.044 456.157h4.972l-.511.113h-3.95zM123.044 461.067h4.972l-.511.113h-3.95zM123.044 460.084h4.972l-.511.114h-3.95zM123.044 463.031h4.972l-.511.113h-3.95zM123.044 462.049h4.972l-.511.113h-3.95zM123.044 464.995h4.972l-.511.113h-3.95zM123.044 464.012h4.972l-.511.114h-3.95zM123.044 466.959h4.972l-.511.113h-3.95zM123.044 465.978h4.972l-.511.112h-3.95zM123.044 469.905h4.972l-.511.113h-3.95zM123.044 467.941h4.972l-.511.113h-3.95zM123.044 470.887h4.972l-.511.113h-3.95zM123.044 468.923h4.972l-.511.114h-3.95z"/></g><path fill="#FBF6EE" d="M134.983 453.173h6.275v18.86h-6.275z"/><g fill="#BBB8B1"><path d="M135.635 455.174h4.972l-.511.114h-3.95zM135.635 454.193h4.972l-.511.112h-3.95zM135.635 459.102h4.972l-.511.113h-3.95zM135.635 458.121h4.972l-.511.113h-3.95zM135.635 457.139h4.972l-.511.113h-3.95zM135.635 456.157h4.972l-.511.113h-3.95zM135.635 461.067h4.972l-.511.113h-3.95zM135.635 460.084h4.972l-.511.114h-3.95zM135.635 463.031h4.972l-.511.113h-3.95zM135.635 462.049h4.972l-.511.113h-3.95zM135.635 464.995h4.972l-.511.113h-3.95zM135.635 464.012h4.972l-.511.114h-3.95zM135.635 466.959h4.972l-.511.113h-3.95zM135.635 465.978h4.972l-.511.112h-3.95zM135.635 469.905h4.972l-.511.113h-3.95zM135.635 467.941h4.972l-.511.113h-3.95zM135.635 470.887h4.972l-.511.113h-3.95zM135.635 468.923h4.972l-.511.114h-3.95z"/></g><path opacity=".1" d="M145.438 451.85h18.158v21.507h-18.158z"/><path fill="#FBF6EE" d="M146.885 473.357v-21.507h15.264v21.507h-15.264zm13.608-1.656v-18.193h-11.951v18.193h11.951z"/><path fill="#827B70" d="M148.014 452.98h13.006v19.247h-13.006v-19.247z"/><path fill="#D5EAEF" d="M148.542 453.507h11.951v18.193h-11.951v-18.193z"/><path stroke="#827B70" stroke-miterlimit="10" fill="none" d="M154.583 453.173v18.861"/><path opacity=".1" d="M147.413 452.377l14.184-.017-14.184 20.469v-20.452zM146.885 475.118l15.264-1.761h-15.264z"/><path fill="#FBF6EE" d="M142.081 453.166h6.275v18.86h-6.275z"/><g fill="#BBB8B1"><path d="M142.732 455.167h4.972l-.511.112h-3.95zM142.732 454.184h4.972l-.511.113h-3.95zM142.732 459.094h4.972l-.511.114h-3.95zM142.732 458.112h4.972l-.511.114h-3.95zM142.732 457.13h4.972l-.511.114h-3.95zM142.732 456.149h4.972l-.511.112h-3.95zM142.732 461.059h4.972l-.511.112h-3.95zM142.732 460.077h4.972l-.511.112h-3.95zM142.732 463.023h4.972l-.511.113h-3.95zM142.732 462.041h4.972l-.511.112h-3.95zM142.732 464.987h4.972l-.511.113h-3.95zM142.732 464.004h4.972l-.511.114h-3.95zM142.732 466.951h4.972l-.511.113h-3.95zM142.732 465.969h4.972l-.511.113h-3.95zM142.732 469.897h4.972l-.511.113h-3.95zM142.732 467.933h4.972l-.511.112h-3.95zM142.732 470.879h4.972l-.511.113h-3.95zM142.732 468.915h4.972l-.511.113h-3.95z"/></g><path fill="#FBF6EE" d="M160.838 453.173h6.276v18.86h-6.276z"/><g fill="#BBB8B1"><path d="M161.491 455.174h4.971l-.51.114h-3.95zM161.491 454.193h4.971l-.51.112h-3.95zM161.491 459.102h4.971l-.51.113h-3.95zM161.491 458.121h4.971l-.51.113h-3.95zM161.491 457.139h4.971l-.51.113h-3.95zM161.491 456.157h4.971l-.51.113h-3.95zM161.491 461.067h4.971l-.51.113h-3.95zM161.491 460.084h4.971l-.51.114h-3.95zM161.491 463.031h4.971l-.51.113h-3.95zM161.491 462.049h4.971l-.51.113h-3.95zM161.491 464.995h4.971l-.51.113h-3.95zM161.491 464.012h4.971l-.51.114h-3.95zM161.491 466.959h4.971l-.51.113h-3.95zM161.491 465.978h4.971l-.51.112h-3.95zM161.491 469.905h4.971l-.51.113h-3.95zM161.491 467.941h4.971l-.51.113h-3.95zM161.491 470.887h4.971l-.51.113h-3.95zM161.491 468.923h4.971l-.51.114h-3.95z"/></g><path fill="#6E7F48" d="M83.411 485.033h90.313v1.608h-90.313z"/><path fill="#E0E8CD" d="M83.411 484.851h90.313v.302h-90.313z"/><path fill="#B4CA86" d="M83.411 486.641h90.313v45.599h-90.313z"/><path opacity=".1" d="M93.99 499.129h18.159v21.506h-18.159z"/><path fill="#FBF6EE" d="M95.437 520.635v-21.506h15.264v21.506h-15.264zm13.608-1.656v-18.193h-11.952v18.193h11.952z"/><path fill="#827B70" d="M109.572 519.506h-13.006v-19.248h13.005v19.248z"/><path fill="#D5EAEF" d="M109.045 518.979h-11.952v-18.193h11.952v18.193z"/><path stroke="#827B70" stroke-miterlimit="10" fill="none" d="M103.002 500.452v18.86"/><path opacity=".1" d="M110.174 520.108l-14.185-20.469 14.185.017v20.452zM110.701 522.396l-15.264-1.761h15.264z"/><path fill="#B4CA86" d="M83.411 533.388h90.313v46.881h-90.313z"/><path fill="#E0E8CD" d="M82.632 532.24h91.871v2.63h-91.871z"/><path fill="#6E7F48" d="M83.411 534.87h90.313v.552h-90.313z"/><path opacity=".1" d="M83.411 551.039h90.313v17.938h-90.313z"/><path opacity=".05" d="M83.411 568.977h90.313v3.282h-90.313zM83.411 547.695h90.313v3.344h-90.313z"/><path fill="#88815C" d="M118.807 544.81v32.139h19.522v-32.139h-19.522zm18.92 31.536h-18.318v-30.934h18.318v30.934zM128.336 545.413h.501v30.934h-.501z"/><path fill="#928861" d="M123.872 560.7h-4.463l.998-.787h2.469l.996.787zM119.409 545.413h4.463l-.997.787h-2.469l-.997-.787z"/><path fill="#CDA56D" d="M120.406 559.913h2.469v-13.713h-2.469v13.713z"/><path fill="#B99964" d="M122.875 559.913l.997.787v-15.287l-.997.787v13.713zM120.406 546.2l-.998-.787v15.287l.998-.787v-13.713z"/><path fill="#928861" d="M128.336 560.7h-4.464l.998-.787h2.469l.997.787zM123.872 545.413h4.464l-.883.787h-2.583l-.998-.787z"/><path fill="#CDA56D" d="M124.87 559.913h2.469v-13.713h-2.469v13.713z"/><path fill="#B99964" d="M127.338 559.913l.998.787v-15.287l-.998.787v13.713zM124.87 546.2l-.998-.787v15.287l.998-.787v-13.713z"/><path fill="#84805A" d="M123.872 560.7h-4.463l.998.807h2.469l.996-.807z"/><path fill="#928861" d="M119.409 576.346h4.463l-.997-.806h-2.469l-.997.806z"/><path fill="#CDA56D" d="M120.406 561.506h2.469v14.034h-2.469v-14.034z"/><path fill="#B99964" d="M122.875 561.506l.997-.807v15.646l-.997-.806v-14.033zM120.406 575.541l-.998.806v-15.647l.998.807v14.034z"/><path fill="#84805A" d="M128.336 560.7h-4.464l.998.807h2.469l.997-.807z"/><path fill="#928861" d="M123.872 576.346h4.464l-.883-.806h-2.583l-.998.806z"/><path fill="#CDA56D" d="M124.87 561.506h2.469v14.034h-2.469v-14.034z"/><path fill="#B99964" d="M127.338 561.506l.998-.807v15.646l-.998-.806v-14.033zM124.87 575.541l-.998.806v-15.647l.998.807v14.034z"/><path fill="#928861" d="M133.301 560.7h-4.463l.997-.787h2.469l.997.787zM128.837 545.413h4.463l-.998.787h-2.469l-.996-.787z"/><path fill="#CDA56D" d="M129.834 559.913h2.469v-13.713h-2.469v13.713z"/><path fill="#B99964" d="M132.303 559.913l.998.787v-15.287l-.998.787v13.713zM129.834 546.2l-.997-.787v15.287l.997-.787v-13.713z"/><path fill="#928861" d="M137.764 560.7h-4.463l.997-.787h2.469l.997.787zM133.301 545.413h4.463l-.883.787h-2.583l-.997-.787z"/><path fill="#CDA56D" d="M134.298 559.913h2.469v-13.713h-2.469v13.713z"/><path fill="#B99964" d="M136.767 559.913l.997.787v-15.287l-.997.787v13.713zM134.298 546.2l-.997-.787v15.287l.997-.787v-13.713z"/><path fill="#84805A" d="M133.301 560.7h-4.463l.997.807h2.469l.997-.807z"/><path fill="#928861" d="M128.837 576.346h4.463l-.998-.806h-2.469l-.996.806z"/><path fill="#CDA56D" d="M129.834 561.506h2.469v14.034h-2.469v-14.034z"/><path fill="#B99964" d="M132.303 561.506l.998-.807v15.646l-.998-.806v-14.033zM129.834 575.541l-.997.806v-15.647l.997.807v14.034z"/><path fill="#84805A" d="M137.764 560.7h-4.463l.997.807h2.469l.997-.807z"/><path fill="#928861" d="M133.301 576.346h4.463l-.883-.806h-2.583l-.997.806z"/><path fill="#CDA56D" d="M134.298 561.506h2.469v14.034h-2.469v-14.034z"/><path fill="#B99964" d="M136.767 561.506l.997-.807v15.646l-.997-.806v-14.033zM134.298 575.541l-.997.806v-15.647l.997.807v14.034z"/><path fill="#F1EDE6" d="M117.819 543.823h.987v33.126h-.987z"/><path fill="#FBF6EE" d="M116.832 542.835h.987v34.113h-.987z"/><path fill="#F1EDE6" d="M138.329 543.823h.987v33.126h-.987z"/><path fill="#FBF6EE" d="M139.316 542.835h.987v34.113h-.987zM115.554 576.949h26.026v3.32h-26.026z"/><path fill="#F1EDE6" d="M118.806 543.823h19.522v.987h-19.522z"/><path fill="#FBF6EE" d="M117.819 542.835h21.497v.987h-21.497z"/><path opacity=".1" d="M93.99 547.47h18.159v21.506h-18.159z"/><path fill="#FBF6EE" d="M95.437 568.976v-21.506h15.264v21.506h-15.264zm13.608-1.656v-18.193h-11.952v18.193h11.952z"/><path fill="#827B70" d="M109.572 567.847h-13.006v-19.248h13.005v19.248z"/><path fill="#D5EAEF" d="M109.045 567.32h-11.952v-18.193h11.952v18.193z"/><path stroke="#827B70" stroke-miterlimit="10" fill="none" d="M103.002 548.793v18.861"/><path opacity=".1" d="M110.174 568.449l-14.185-20.468 14.185.017v20.451zM110.701 570.738l-15.264-1.762h15.264z"/><path fill="#FBF6EE" d="M109.278 548.793h6.276v18.86h-6.276z"/><g fill="#BBB8B1"><path d="M114.902 550.794h-4.971l.51.113h3.95zM114.902 549.812h-4.971l.51.113h3.95zM114.902 554.722h-4.971l.51.113h3.95zM114.902 553.74h-4.971l.51.114h3.95zM114.902 552.758h-4.971l.51.114h3.95zM114.902 551.777h-4.971l.51.112h3.95zM114.902 556.687h-4.971l.51.112h3.95zM114.902 555.705h-4.971l.51.112h3.95zM114.902 558.651h-4.971l.51.113h3.95zM114.902 557.668h-4.971l.51.113h3.95zM114.902 560.615h-4.971l.51.113h3.95zM114.902 559.632h-4.971l.51.114h3.95zM114.902 562.579h-4.971l.51.113h3.95zM114.902 561.597h-4.971l.51.112h3.95zM114.902 565.525h-4.971l.51.113h3.95zM114.902 563.561h-4.971l.51.112h3.95zM114.902 566.507h-4.971l.51.113h3.95zM114.902 564.542h-4.971l.51.114h3.95z"/></g><path fill="#FBF6EE" d="M96.748 548.793h6.275v18.86h-6.275z"/><g fill="#BBB8B1"><path d="M102.371 550.794h-4.972l.512.113h3.949zM102.371 549.812h-4.972l.512.113h3.949zM102.371 554.722h-4.972l.512.113h3.949zM102.371 553.74h-4.972l.512.114h3.949zM102.371 552.758h-4.972l.512.114h3.949zM102.371 551.777h-4.972l.512.112h3.949zM102.371 556.687h-4.972l.512.112h3.949zM102.371 555.705h-4.972l.512.112h3.949zM102.371 558.651h-4.972l.512.113h3.949zM102.371 557.668h-4.972l.512.113h3.949zM102.371 560.615h-4.972l.512.113h3.949zM102.371 559.632h-4.972l.512.114h3.949zM102.371 562.579h-4.972l.512.113h3.949zM102.371 561.597h-4.972l.512.112h3.949zM102.371 565.525h-4.972l.512.113h3.949zM102.371 563.561h-4.972l.512.112h3.949zM102.371 566.507h-4.972l.512.113h3.949zM102.371 564.542h-4.972l.512.114h3.949z"/></g><path opacity=".1" d="M145.549 547.47h18.16v21.506h-18.16z"/><path fill="#FBF6EE" d="M146.997 568.976v-21.506h15.266v21.506h-15.266zm13.608-1.656v-18.193h-11.951v18.193h11.951z"/><path fill="#827B70" d="M161.132 567.847h-13.006v-19.248h13.006v19.248z"/><path fill="#D5EAEF" d="M160.605 567.32h-11.951v-18.193h11.951v18.193z"/><path stroke="#827B70" stroke-miterlimit="10" fill="none" d="M154.563 548.793v18.861"/><path opacity=".1" d="M161.735 568.449l-14.186-20.468 14.186.017v20.451zM162.262 570.738l-15.265-1.762h15.265z"/><path fill="#FBF6EE" d="M154.705 548.793h6.276v18.86h-6.276z"/><g fill="#BBB8B1"><path d="M160.329 550.794h-4.972l.511.113h3.949zM160.329 549.812h-4.972l.511.113h3.949zM160.329 554.722h-4.972l.511.113h3.949zM160.329 553.74h-4.972l.511.114h3.949zM160.329 552.758h-4.972l.511.114h3.949zM160.329 551.777h-4.972l.511.112h3.949zM160.329 556.687h-4.972l.511.112h3.949zM160.329 555.705h-4.972l.511.112h3.949zM160.329 558.651h-4.972l.511.113h3.949zM160.329 557.668h-4.972l.511.113h3.949zM160.329 560.615h-4.972l.511.113h3.949zM160.329 559.632h-4.972l.511.114h3.949zM160.329 562.579h-4.972l.511.113h3.949zM160.329 561.597h-4.972l.511.112h3.949zM160.329 565.525h-4.972l.511.113h3.949zM160.329 563.561h-4.972l.511.112h3.949zM160.329 566.507h-4.972l.511.113h3.949zM160.329 564.542h-4.972l.511.114h3.949z"/></g><path fill="#FBF6EE" d="M148.307 548.793h6.276v18.86h-6.276z"/><g fill="#BBB8B1"><path d="M153.931 550.794h-4.972l.512.113h3.949zM153.931 549.812h-4.972l.512.113h3.949zM153.931 554.722h-4.972l.512.113h3.949zM153.931 553.74h-4.972l.512.114h3.949zM153.931 552.758h-4.972l.512.114h3.949zM153.931 551.777h-4.972l.512.112h3.949zM153.931 556.687h-4.972l.512.112h3.949zM153.931 555.705h-4.972l.512.112h3.949zM153.931 558.651h-4.972l.512.113h3.949zM153.931 557.668h-4.972l.512.113h3.949zM153.931 560.615h-4.972l.512.113h3.949zM153.931 559.632h-4.972l.512.114h3.949zM153.931 562.579h-4.972l.512.113h3.949zM153.931 561.597h-4.972l.512.112h3.949zM153.931 565.525h-4.972l.512.113h3.949zM153.931 563.561h-4.972l.512.112h3.949zM153.931 566.507h-4.972l.512.113h3.949zM153.931 564.542h-4.972l.512.114h3.949z"/></g><path fill="#B4CA86" d="M83.411 316.676h90.313v26.49h-90.313z"/><path fill="#6E7F48" d="M83.411 309.762h90.313v3.087h-90.313z"/><path fill="#B4CA86" d="M82.69 309.159h91.756v.604h-91.756zM177.443 316.676h-97.751l3.719-4.118h90.313z"/><path fill="#6E7F48" d="M177.443 316.556h-97.751l3.719 1.803h90.313z"/><path fill="#BAB8B4" d="M106.057 322.254v19.39h45.021v-19.39h-45.021zm44.419 18.788h-43.816v-18.186h43.816v18.186z"/><path fill="#D5EAEF" d="M150.476 341.042h-43.816v-18.186h43.816v18.186z"/><path stroke="#BAB8B4" stroke-miterlimit="10" fill="none" d="M121.15 341.042v-18.186M136.024 341.042v-18.186"/><path opacity=".1" d="M151.079 341.644l-44.996-19.406 44.996.017v19.389z"/><path fill="#6E7F48" d="M83.411 341.193h90.313v2.053h-90.313z"/><path opacity=".1" d="M173.726 334.849h-90.315l.024 6.398h90.291z"/><path fill="#6E7F48" d="M83.411 343.198h90.313v1.607h-90.313z"/><path fill="#E0E8CD" d="M83.411 343.015h90.313v.302h-90.313z"/><path fill="#B4CA86" d="M83.411 344.805h90.313v45.6h-90.313z"/><path opacity=".1" d="M93.99 357.293h18.159v21.506h-18.159z"/><path fill="#FBF6EE" d="M95.437 378.799v-21.506h15.264v21.506h-15.264zm13.608-1.656v-18.193h-11.952v18.193h11.952z"/><path fill="#827B70" d="M109.572 377.67h-13.006v-19.248h13.005v19.248z"/><path fill="#D5EAEF" d="M109.045 377.143h-11.952v-18.193h11.952v18.193z"/><path stroke="#827B70" stroke-miterlimit="10" fill="none" d="M103.002 358.616v18.861"/><path opacity=".1" d="M110.174 378.272l-14.185-20.468 14.185.017v20.451zM110.701 380.561l-15.264-1.762h15.264z"/><path fill="#FBF6EE" d="M109.278 358.616h6.276v18.861h-6.276z"/><g fill="#BBB8B1"><path d="M114.902 360.618h-4.971l.51.112h3.95zM114.902 359.635h-4.971l.51.114h3.95zM114.902 364.545h-4.971l.51.114h3.95zM114.902 363.563h-4.971l.51.114h3.95zM114.902 362.582h-4.971l.51.113h3.95zM114.902 361.6h-4.971l.51.112h3.95zM114.902 366.51h-4.971l.51.113h3.95zM114.902 365.528h-4.971l.51.112h3.95zM114.902 368.474h-4.971l.51.113h3.95zM114.902 367.492h-4.971l.51.112h3.95zM114.902 370.438h-4.971l.51.113h3.95zM114.902 369.456h-4.971l.51.113h3.95zM114.902 372.402h-4.971l.51.113h3.95zM114.902 371.42h-4.971l.51.113h3.95zM114.902 375.348h-4.971l.51.113h3.95zM114.902 373.384h-4.971l.51.113h3.95zM114.902 376.331h-4.971l.51.112h3.95zM114.902 374.366h-4.971l.51.113h3.95z"/></g><path fill="#FBF6EE" d="M96.748 358.616h6.275v18.861h-6.275z"/><g fill="#BBB8B1"><path d="M102.371 360.618h-4.972l.512.112h3.949zM102.371 359.635h-4.972l.512.114h3.949zM102.371 364.545h-4.972l.512.114h3.949zM102.371 363.563h-4.972l.512.114h3.949zM102.371 362.582h-4.972l.512.113h3.949zM102.371 361.6h-4.972l.512.112h3.949zM102.371 366.51h-4.972l.512.113h3.949zM102.371 365.528h-4.972l.512.112h3.949zM102.371 368.474h-4.972l.512.113h3.949zM102.371 367.492h-4.972l.512.112h3.949zM102.371 370.438h-4.972l.512.113h3.949zM102.371 369.456h-4.972l.512.113h3.949zM102.371 372.402h-4.972l.512.113h3.949zM102.371 371.42h-4.972l.512.113h3.949zM102.371 375.348h-4.972l.512.113h3.949zM102.371 373.384h-4.972l.512.113h3.949zM102.371 376.331h-4.972l.512.112h3.949zM102.371 374.366h-4.972l.512.113h3.949z"/></g><path opacity=".1" d="M119.707 357.293h18.159v21.506h-18.159z"/><path fill="#FBF6EE" d="M121.154 378.799v-21.506h15.265v21.506h-15.265zm13.608-1.656v-18.193h-11.951v18.193h11.951z"/><path fill="#827B70" d="M122.283 358.422h13.006v19.248h-13.006v-19.248z"/><path fill="#D5EAEF" d="M122.811 358.95h11.951v18.193h-11.951v-18.193z"/><path stroke="#827B70" stroke-miterlimit="10" fill="none" d="M128.853 358.616v18.861"/><path opacity=".1" d="M121.681 357.821l14.185-.017-14.185 20.468v-20.451zM121.154 380.561l15.264-1.762h-15.264z"/><path fill="#FBF6EE" d="M122.392 358.616h6.276v18.861h-6.276z"/><g fill="#BBB8B1"><path d="M123.044 360.618h4.972l-.511.112h-3.95zM123.044 359.635h4.972l-.511.114h-3.95zM123.044 364.545h4.972l-.511.114h-3.95zM123.044 363.563h4.972l-.511.114h-3.95zM123.044 362.582h4.972l-.511.113h-3.95zM123.044 361.6h4.972l-.511.112h-3.95zM123.044 366.51h4.972l-.511.113h-3.95zM123.044 365.528h4.972l-.511.112h-3.95zM123.044 368.474h4.972l-.511.113h-3.95zM123.044 367.492h4.972l-.511.112h-3.95zM123.044 370.438h4.972l-.511.113h-3.95zM123.044 369.456h4.972l-.511.113h-3.95zM123.044 372.402h4.972l-.511.113h-3.95zM123.044 371.42h4.972l-.511.113h-3.95zM123.044 375.348h4.972l-.511.113h-3.95zM123.044 373.384h4.972l-.511.113h-3.95zM123.044 376.331h4.972l-.511.112h-3.95zM123.044 374.366h4.972l-.511.113h-3.95z"/></g><path fill="#FBF6EE" d="M128.832 358.616h6.276v18.861h-6.276z"/><g fill="#BBB8B1"><path d="M129.484 360.618h4.972l-.511.112h-3.95zM129.484 359.635h4.972l-.511.114h-3.95zM129.484 364.545h4.972l-.511.114h-3.95zM129.484 363.563h4.972l-.511.114h-3.95zM129.484 362.582h4.972l-.511.113h-3.95zM129.484 361.6h4.972l-.511.112h-3.95zM129.484 366.51h4.972l-.511.113h-3.95zM129.484 365.528h4.972l-.511.112h-3.95zM129.484 368.474h4.972l-.511.113h-3.95zM129.484 367.492h4.972l-.511.112h-3.95zM129.484 370.438h4.972l-.511.113h-3.95zM129.484 369.456h4.972l-.511.113h-3.95zM129.484 372.402h4.972l-.511.113h-3.95zM129.484 371.42h4.972l-.511.113h-3.95zM129.484 375.348h4.972l-.511.113h-3.95zM129.484 373.384h4.972l-.511.113h-3.95zM129.484 376.331h4.972l-.511.112h-3.95zM129.484 374.366h4.972l-.511.113h-3.95z"/></g><path opacity=".1" d="M145.438 357.293h18.158v21.506h-18.158z"/><path fill="#FBF6EE" d="M146.885 378.799v-21.506h15.264v21.506h-15.264zm13.608-1.656v-18.193h-11.951v18.193h11.951z"/><path fill="#827B70" d="M148.014 358.422h13.006v19.248h-13.006v-19.248z"/><path fill="#D5EAEF" d="M148.542 358.95h11.951v18.193h-11.951v-18.193z"/><path stroke="#827B70" stroke-miterlimit="10" fill="none" d="M154.583 358.616v18.861"/><path opacity=".1" d="M147.413 357.821l14.184-.017-14.184 20.468v-20.451zM146.885 380.561l15.264-1.762h-15.264z"/><path fill="#FBF6EE" d="M142.081 358.608h6.275v18.86h-6.275z"/><g fill="#BBB8B1"><path d="M142.732 360.609h4.972l-.511.113h-3.95zM142.732 359.627h4.972l-.511.113h-3.95zM142.732 364.537h4.972l-.511.113h-3.95zM142.732 363.555h4.972l-.511.113h-3.95zM142.732 362.574h4.972l-.511.112h-3.95zM142.732 361.591h4.972l-.511.114h-3.95zM142.732 366.501h4.972l-.511.114h-3.95zM142.732 365.519h4.972l-.511.113h-3.95zM142.732 368.465h4.972l-.511.114h-3.95zM142.732 367.484h4.972l-.511.112h-3.95zM142.732 370.429h4.972l-.511.113h-3.95zM142.732 369.447h4.972l-.511.114h-3.95zM142.732 372.394h4.972l-.511.112h-3.95zM142.732 371.413h4.972l-.511.112h-3.95zM142.732 375.339h4.972l-.511.114h-3.95zM142.732 373.375h4.972l-.511.114h-3.95zM142.732 376.322h4.972l-.511.113h-3.95zM142.732 374.358h4.972l-.511.113h-3.95z"/></g><path fill="#FBF6EE" d="M160.838 358.616h6.276v18.861h-6.276z"/><g fill="#BBB8B1"><path d="M161.491 360.618h4.971l-.51.112h-3.95zM161.491 359.635h4.971l-.51.114h-3.95zM161.491 364.545h4.971l-.51.114h-3.95zM161.491 363.563h4.971l-.51.114h-3.95zM161.491 362.582h4.971l-.51.113h-3.95zM161.491 361.6h4.971l-.51.112h-3.95zM161.491 366.51h4.971l-.51.113h-3.95zM161.491 365.528h4.971l-.51.112h-3.95zM161.491 368.474h4.971l-.51.113h-3.95zM161.491 367.492h4.971l-.51.112h-3.95zM161.491 370.438h4.971l-.51.113h-3.95zM161.491 369.456h4.971l-.51.113h-3.95zM161.491 372.402h4.971l-.51.113h-3.95zM161.491 371.42h4.971l-.51.113h-3.95zM161.491 375.348h4.971l-.51.113h-3.95zM161.491 373.384h4.971l-.51.113h-3.95zM161.491 376.331h4.971l-.51.112h-3.95zM161.491 374.366h4.971l-.51.113h-3.95z"/></g><path fill="#6E7F48" d="M83.411 390.476h90.313v1.608h-90.313z"/><path fill="#E0E8CD" d="M83.411 390.293h90.313v.302h-90.313z"/><path fill="#B4CA86" d="M83.411 392.084h90.313v45.599h-90.313z"/><path opacity=".1" d="M93.99 404.572h18.159v21.506h-18.159z"/><path fill="#FBF6EE" d="M95.437 426.078v-21.506h15.264v21.506h-15.264zm13.608-1.657v-18.193h-11.952v18.193h11.952z"/><path fill="#827B70" d="M109.572 424.949h-13.006v-19.247h13.005v19.247z"/><path fill="#D5EAEF" d="M109.045 424.421h-11.952v-18.193h11.952v18.193z"/><path stroke="#827B70" stroke-miterlimit="10" fill="none" d="M103.002 405.895v18.86"/><path opacity=".1" d="M110.174 425.551l-14.185-20.469 14.185.017v20.452zM110.701 427.839l-15.264-1.761h15.264z"/><path fill="#FBF6EE" d="M103.13 405.886h6.276v18.86h-6.276z"/><g fill="#BBB8B1"><path d="M108.754 407.888h-4.971l.51.112h3.95zM108.754 406.906h-4.971l.51.112h3.95zM108.754 411.816h-4.971l.51.112h3.95zM108.754 410.833h-4.971l.51.114h3.95zM108.754 409.852h-4.971l.51.113h3.95zM108.754 408.87h-4.971l.51.113h3.95zM108.754 413.78h-4.971l.51.113h3.95zM108.754 412.798h-4.971l.51.113h3.95zM108.754 415.745h-4.971l.51.112h3.95zM108.754 414.762h-4.971l.51.113h3.95zM108.754 417.708h-4.971l.51.114h3.95zM108.754 416.726h-4.971l.51.113h3.95zM108.754 419.672h-4.971l.51.114h3.95zM108.754 418.691h-4.971l.51.112h3.95zM108.754 422.619h-4.971l.51.113h3.95zM108.754 420.655h-4.971l.51.112h3.95zM108.754 423.6h-4.971l.51.113h3.95zM108.754 421.636h-4.971l.51.114h3.95z"/></g><path fill="#FBF6EE" d="M96.748 405.895h6.275v18.86h-6.275z"/><g fill="#BBB8B1"><path d="M102.371 407.896h-4.972l.512.112h3.949zM102.371 406.915h-4.972l.512.112h3.949zM102.371 411.824h-4.972l.512.113h3.949zM102.371 410.841h-4.972l.512.115h3.949zM102.371 409.86h-4.972l.512.113h3.949zM102.371 408.878h-4.972l.512.114h3.949zM102.371 413.789h-4.972l.512.113h3.949zM102.371 412.806h-4.972l.512.112h3.949zM102.371 415.752h-4.972l.512.114h3.949zM102.371 414.77h-4.972l.512.113h3.949zM102.371 417.716h-4.972l.512.114h3.949zM102.371 416.734h-4.972l.512.113h3.949zM102.371 419.68h-4.972l.512.113h3.949zM102.371 418.699h-4.972l.512.113h3.949zM102.371 422.626h-4.972l.512.114h3.949zM102.371 420.663h-4.972l.512.112h3.949zM102.371 423.609h-4.972l.512.113h3.949zM102.371 421.645h-4.972l.512.112h3.949z"/></g><path opacity=".1" d="M119.707 404.572h18.159v21.506h-18.159z"/><path fill="#FBF6EE" d="M121.154 426.078v-21.506h15.265v21.506h-15.265zm13.608-1.657v-18.193h-11.951v18.193h11.951z"/><path fill="#827B70" d="M122.283 405.702h13.006v19.247h-13.006v-19.247z"/><path fill="#D5EAEF" d="M122.811 406.228h11.951v18.193h-11.951v-18.193z"/><path stroke="#827B70" stroke-miterlimit="10" fill="none" d="M128.853 405.895v18.86"/><path opacity=".1" d="M121.681 405.099l14.185-.017-14.185 20.469v-20.452zM121.154 427.839l15.264-1.761h-15.264z"/><path fill="#FBF6EE" d="M116.278 405.886h6.276v18.86h-6.276z"/><g fill="#BBB8B1"><path d="M116.93 407.888h4.972l-.511.112h-3.95zM116.93 406.906h4.972l-.511.112h-3.95zM116.93 411.816h4.972l-.511.112h-3.95zM116.93 410.833h4.972l-.511.114h-3.95zM116.93 409.852h4.972l-.511.113h-3.95zM116.93 408.87h4.972l-.511.113h-3.95zM116.93 413.78h4.972l-.511.113h-3.95zM116.93 412.798h4.972l-.511.113h-3.95zM116.93 415.745h4.972l-.511.112h-3.95zM116.93 414.762h4.972l-.511.113h-3.95zM116.93 417.708h4.972l-.511.114h-3.95zM116.93 416.726h4.972l-.511.113h-3.95zM116.93 419.672h4.972l-.511.114h-3.95zM116.93 418.691h4.972l-.511.112h-3.95zM116.93 422.619h4.972l-.511.113h-3.95zM116.93 420.655h4.972l-.511.112h-3.95zM116.93 423.6h4.972l-.511.113h-3.95zM116.93 421.636h4.972l-.511.114h-3.95z"/></g><path fill="#FBF6EE" d="M134.983 405.895h6.275v18.86h-6.275z"/><g fill="#BBB8B1"><path d="M135.635 407.896h4.972l-.511.112h-3.95zM135.635 406.915h4.972l-.511.112h-3.95zM135.635 411.824h4.972l-.511.113h-3.95zM135.635 410.841h4.972l-.511.115h-3.95zM135.635 409.86h4.972l-.511.113h-3.95zM135.635 408.878h4.972l-.511.114h-3.95zM135.635 413.789h4.972l-.511.113h-3.95zM135.635 412.806h4.972l-.511.112h-3.95zM135.635 415.752h4.972l-.511.114h-3.95zM135.635 414.77h4.972l-.511.113h-3.95zM135.635 417.716h4.972l-.511.114h-3.95zM135.635 416.734h4.972l-.511.113h-3.95zM135.635 419.68h4.972l-.511.113h-3.95zM135.635 418.699h4.972l-.511.113h-3.95zM135.635 422.626h4.972l-.511.114h-3.95zM135.635 420.663h4.972l-.511.112h-3.95zM135.635 423.609h4.972l-.511.113h-3.95zM135.635 421.645h4.972l-.511.112h-3.95z"/></g><path opacity=".1" d="M145.438 404.572h18.158v21.506h-18.158z"/><path fill="#FBF6EE" d="M146.885 426.078v-21.506h15.264v21.506h-15.264zm13.608-1.657v-18.193h-11.951v18.193h11.951z"/><path fill="#827B70" d="M148.014 405.702h13.006v19.247h-13.006v-19.247z"/><path fill="#D5EAEF" d="M148.542 406.228h11.951v18.193h-11.951v-18.193z"/><path stroke="#827B70" stroke-miterlimit="10" fill="none" d="M154.583 405.895v18.86"/><path opacity=".1" d="M147.413 405.099l14.184-.017-14.184 20.469v-20.452zM146.885 427.839l15.264-1.761h-15.264z"/><path fill="#FBF6EE" d="M142.081 405.886h6.275v18.86h-6.275z"/><g fill="#BBB8B1"><path d="M142.732 407.888h4.972l-.511.112h-3.95zM142.732 406.906h4.972l-.511.112h-3.95zM142.732 411.816h4.972l-.511.112h-3.95zM142.732 410.833h4.972l-.511.114h-3.95zM142.732 409.852h4.972l-.511.113h-3.95zM142.732 408.87h4.972l-.511.113h-3.95zM142.732 413.78h4.972l-.511.113h-3.95zM142.732 412.798h4.972l-.511.113h-3.95zM142.732 415.745h4.972l-.511.112h-3.95zM142.732 414.762h4.972l-.511.113h-3.95zM142.732 417.708h4.972l-.511.114h-3.95zM142.732 416.726h4.972l-.511.113h-3.95zM142.732 419.672h4.972l-.511.114h-3.95zM142.732 418.691h4.972l-.511.112h-3.95zM142.732 422.619h4.972l-.511.113h-3.95zM142.732 420.655h4.972l-.511.112h-3.95zM142.732 423.6h4.972l-.511.113h-3.95zM142.732 421.636h4.972l-.511.114h-3.95z"/></g><path fill="#FBF6EE" d="M160.838 405.895h6.276v18.86h-6.276z"/><g fill="#BBB8B1"><path d="M161.491 407.896h4.971l-.51.112h-3.95zM161.491 406.915h4.971l-.51.112h-3.95zM161.491 411.824h4.971l-.51.113h-3.95zM161.491 410.841h4.971l-.51.115h-3.95zM161.491 409.86h4.971l-.51.113h-3.95zM161.491 408.878h4.971l-.51.114h-3.95zM161.491 413.789h4.971l-.51.113h-3.95zM161.491 412.806h4.971l-.51.112h-3.95zM161.491 415.752h4.971l-.51.114h-3.95zM161.491 414.77h4.971l-.51.113h-3.95zM161.491 417.716h4.971l-.51.114h-3.95zM161.491 416.734h4.971l-.51.113h-3.95zM161.491 419.68h4.971l-.51.113h-3.95zM161.491 418.699h4.971l-.51.113h-3.95zM161.491 422.626h4.971l-.51.114h-3.95zM161.491 420.663h4.971l-.51.112h-3.95zM161.491 423.609h4.971l-.51.113h-3.95zM161.491 421.645h4.971l-.51.112h-3.95z"/></g><path fill="#FBF6EE" d="M109.278 500.452h6.276v18.86h-6.276z"/><g fill="#BBB8B1"><path d="M114.902 502.454h-4.971l.51.112h3.95zM114.902 501.471h-4.971l.51.112h3.95zM114.902 506.381h-4.971l.51.113h3.95zM114.902 505.399h-4.971l.51.113h3.95zM114.902 504.417h-4.971l.51.114h3.95zM114.902 503.435h-4.971l.51.113h3.95zM114.902 508.345h-4.971l.51.113h3.95zM114.902 507.364h-4.971l.51.112h3.95zM114.902 510.31h-4.971l.51.112h3.95zM114.902 509.328h-4.971l.51.112h3.95zM114.902 512.274h-4.971l.51.113h3.95zM114.902 511.292h-4.971l.51.113h3.95zM114.902 514.238h-4.971l.51.113h3.95zM114.902 513.256h-4.971l.51.113h3.95zM114.902 517.184h-4.971l.51.113h3.95zM114.902 515.22h-4.971l.51.113h3.95zM114.902 518.166h-4.971l.51.113h3.95zM114.902 516.202h-4.971l.51.113h3.95z"/></g><path fill="#FBF6EE" d="M96.748 500.452h6.275v18.86h-6.275z"/><g fill="#BBB8B1"><path d="M102.371 502.454h-4.972l.512.112h3.949zM102.371 501.471h-4.972l.512.112h3.949zM102.371 506.381h-4.972l.512.113h3.949zM102.371 505.399h-4.972l.512.113h3.949zM102.371 504.417h-4.972l.512.114h3.949zM102.371 503.435h-4.972l.512.113h3.949zM102.371 508.345h-4.972l.512.113h3.949zM102.371 507.364h-4.972l.512.112h3.949zM102.371 510.31h-4.972l.512.112h3.949zM102.371 509.328h-4.972l.512.112h3.949zM102.371 512.274h-4.972l.512.113h3.949zM102.371 511.292h-4.972l.512.113h3.949zM102.371 514.238h-4.972l.512.113h3.949zM102.371 513.256h-4.972l.512.113h3.949zM102.371 517.184h-4.972l.512.113h3.949zM102.371 515.22h-4.972l.512.113h3.949zM102.371 518.166h-4.972l.512.113h3.949zM102.371 516.202h-4.972l.512.113h3.949z"/></g><path opacity=".1" d="M119.707 499.129h18.159v21.506h-18.159z"/><path fill="#FBF6EE" d="M121.154 520.635v-21.506h15.265v21.506h-15.265zm13.608-1.656v-18.193h-11.951v18.193h11.951z"/><path fill="#827B70" d="M122.283 500.258h13.006v19.248h-13.006v-19.248z"/><path fill="#D5EAEF" d="M122.811 500.786h11.951v18.193h-11.951v-18.193z"/><path stroke="#827B70" stroke-miterlimit="10" fill="none" d="M128.853 500.452v18.86"/><path opacity=".1" d="M121.681 499.656l14.185-.017-14.185 20.469v-20.452zM121.154 522.396l15.264-1.761h-15.264z"/><path fill="#FBF6EE" d="M122.392 500.452h6.276v18.86h-6.276z"/><g fill="#BBB8B1"><path d="M123.044 502.454h4.972l-.511.112h-3.95zM123.044 501.471h4.972l-.511.112h-3.95zM123.044 506.381h4.972l-.511.113h-3.95zM123.044 505.399h4.972l-.511.113h-3.95zM123.044 504.417h4.972l-.511.114h-3.95zM123.044 503.435h4.972l-.511.113h-3.95zM123.044 508.345h4.972l-.511.113h-3.95zM123.044 507.364h4.972l-.511.112h-3.95zM123.044 510.31h4.972l-.511.112h-3.95zM123.044 509.328h4.972l-.511.112h-3.95zM123.044 512.274h4.972l-.511.113h-3.95zM123.044 511.292h4.972l-.511.113h-3.95zM123.044 514.238h4.972l-.511.113h-3.95zM123.044 513.256h4.972l-.511.113h-3.95zM123.044 517.184h4.972l-.511.113h-3.95zM123.044 515.22h4.972l-.511.113h-3.95zM123.044 518.166h4.972l-.511.113h-3.95zM123.044 516.202h4.972l-.511.113h-3.95z"/></g><path fill="#FBF6EE" d="M128.832 500.452h6.276v18.86h-6.276z"/><g fill="#BBB8B1"><path d="M129.484 502.454h4.972l-.511.112h-3.95zM129.484 501.471h4.972l-.511.112h-3.95zM129.484 506.381h4.972l-.511.113h-3.95zM129.484 505.399h4.972l-.511.113h-3.95zM129.484 504.417h4.972l-.511.114h-3.95zM129.484 503.435h4.972l-.511.113h-3.95zM129.484 508.345h4.972l-.511.113h-3.95zM129.484 507.364h4.972l-.511.112h-3.95zM129.484 510.31h4.972l-.511.112h-3.95zM129.484 509.328h4.972l-.511.112h-3.95zM129.484 512.274h4.972l-.511.113h-3.95zM129.484 511.292h4.972l-.511.113h-3.95zM129.484 514.238h4.972l-.511.113h-3.95zM129.484 513.256h4.972l-.511.113h-3.95zM129.484 517.184h4.972l-.511.113h-3.95zM129.484 515.22h4.972l-.511.113h-3.95zM129.484 518.166h4.972l-.511.113h-3.95zM129.484 516.202h4.972l-.511.113h-3.95z"/></g><path opacity=".1" d="M145.438 499.129h18.158v21.506h-18.158z"/><path fill="#FBF6EE" d="M146.885 520.635v-21.506h15.264v21.506h-15.264zm13.608-1.656v-18.193h-11.951v18.193h11.951z"/><path fill="#827B70" d="M148.014 500.258h13.006v19.248h-13.006v-19.248z"/><path fill="#D5EAEF" d="M148.542 500.786h11.951v18.193h-11.951v-18.193z"/><path stroke="#827B70" stroke-miterlimit="10" fill="none" d="M154.583 500.452v18.86"/><path opacity=".1" d="M147.413 499.656l14.184-.017-14.184 20.469v-20.452zM146.885 522.396l15.264-1.761h-15.264z"/><path fill="#FBF6EE" d="M142.081 500.444h6.275v18.86h-6.275z"/><g fill="#BBB8B1"><path d="M142.732 502.445h4.972l-.511.113h-3.95zM142.732 501.463h4.972l-.511.113h-3.95zM142.732 506.373h4.972l-.511.113h-3.95zM142.732 505.391h4.972l-.511.113h-3.95zM142.732 504.409h4.972l-.511.113h-3.95zM142.732 503.427h4.972l-.511.114h-3.95zM142.732 508.337h4.972l-.511.114h-3.95zM142.732 507.355h4.972l-.511.113h-3.95zM142.732 510.301h4.972l-.511.114h-3.95zM142.732 509.319h4.972l-.511.113h-3.95zM142.732 512.265h4.972l-.511.113h-3.95zM142.732 511.283h4.972l-.511.113h-3.95zM142.732 514.229h4.972l-.511.113h-3.95zM142.732 513.248h4.972l-.511.113h-3.95zM142.732 517.175h4.972l-.511.114h-3.95zM142.732 515.211h4.972l-.511.113h-3.95zM142.732 518.158h4.972l-.511.113h-3.95zM142.732 516.194h4.972l-.511.112h-3.95z"/></g><path fill="#FBF6EE" d="M160.838 500.452h6.276v18.86h-6.276z"/><g fill="#BBB8B1"><path d="M161.491 502.454h4.971l-.51.112h-3.95zM161.491 501.471h4.971l-.51.112h-3.95zM161.491 506.381h4.971l-.51.113h-3.95zM161.491 505.399h4.971l-.51.113h-3.95zM161.491 504.417h4.971l-.51.114h-3.95zM161.491 503.435h4.971l-.51.113h-3.95zM161.491 508.345h4.971l-.51.113h-3.95zM161.491 507.364h4.971l-.51.112h-3.95zM161.491 510.31h4.971l-.51.112h-3.95zM161.491 509.328h4.971l-.51.112h-3.95zM161.491 512.274h4.971l-.51.113h-3.95zM161.491 511.292h4.971l-.51.113h-3.95zM161.491 514.238h4.971l-.51.113h-3.95zM161.491 513.256h4.971l-.51.113h-3.95zM161.491 517.184h4.971l-.51.113h-3.95zM161.491 515.22h4.971l-.51.113h-3.95zM161.491 518.166h4.971l-.51.113h-3.95zM161.491 516.202h4.971l-.51.113h-3.95z"/></g><path fill="#80826C" d="M253.411 457.754h90.313v1.608h-90.313z"/><path fill="#F2EBF1" d="M253.411 457.573h90.313v.301h-90.313z"/><path fill="#C6CDAA" d="M253.411 459.363h90.313v45.599h-90.313z"/><path opacity=".1" d="M263.99 471.85h18.159v21.507h-18.159z"/><path fill="#FBF6EE" d="M265.437 493.357v-21.507h15.265v21.507h-15.265zm13.608-1.656v-18.193h-11.952v18.193h11.952z"/><path fill="#827B70" d="M279.572 492.227h-13.005v-19.247h13.005v19.247z"/><path fill="#D5EAEF" d="M279.045 491.701h-11.952v-18.193h11.952v18.193z"/><path stroke="#827B70" stroke-miterlimit="10" fill="none" d="M273.002 473.173v18.861"/><path opacity=".1" d="M280.174 492.83l-14.186-20.469 14.186.017v20.452zM280.702 495.118l-15.265-1.761h15.265zM289.707 471.85h18.159v21.507h-18.159z"/><path fill="#FBF6EE" d="M291.154 493.357v-21.507h15.265v21.507h-15.265zm13.608-1.656v-18.193h-11.951v18.193h11.951z"/><path fill="#827B70" d="M292.284 472.98h13.006v19.247h-13.006v-19.247z"/><path fill="#D5EAEF" d="M292.811 473.507h11.951v18.193h-11.951v-18.193z"/><path stroke="#827B70" stroke-miterlimit="10" fill="none" d="M298.852 473.173v18.861"/><path opacity=".1" d="M291.681 472.377l14.185-.017-14.185 20.469v-20.452zM291.154 495.118l15.264-1.761h-15.264zM315.438 471.85h18.158v21.507h-18.158z"/><path fill="#FBF6EE" d="M316.885 493.357v-21.507h15.264v21.507h-15.264zm13.608-1.656v-18.193h-11.951v18.193h11.951z"/><path fill="#827B70" d="M318.014 472.98h13.006v19.247h-13.006v-19.247z"/><path fill="#D5EAEF" d="M318.542 473.507h11.951v18.193h-11.951v-18.193z"/><path stroke="#827B70" stroke-miterlimit="10" fill="none" d="M324.583 473.173v18.861"/><path opacity=".1" d="M317.413 472.377l14.184-.017-14.184 20.469v-20.452zM316.885 495.118l15.264-1.761h-15.264z"/><path fill="#80826C" d="M253.411 505.033h90.313v1.608h-90.313z"/><path fill="#F2EBF1" d="M253.411 504.851h90.313v.302h-90.313z"/><path fill="#C6CDAA" d="M253.411 506.641h90.313v45.599h-90.313z"/><path opacity=".1" d="M263.99 519.129h18.159v21.506h-18.159z"/><path fill="#FBF6EE" d="M265.437 540.635v-21.506h15.265v21.506h-15.265zm13.608-1.656v-18.193h-11.952v18.193h11.952z"/><path fill="#827B70" d="M279.572 539.506h-13.005v-19.248h13.005v19.248z"/><path fill="#D5EAEF" d="M279.045 538.979h-11.952v-18.193h11.952v18.193z"/><path stroke="#827B70" stroke-miterlimit="10" fill="none" d="M273.002 520.452v18.86"/><path opacity=".1" d="M280.174 540.108l-14.186-20.469 14.186.017v20.452zM280.702 542.396l-15.265-1.761h15.265z"/><path fill="#C6CDAA" d="M253.411 553.388h90.313v46.881h-90.313z"/><path fill="#F2EBF1" d="M252.632 552.24h91.871v2.63h-91.871z"/><path fill="#80826C" d="M253.411 554.87h90.313v.552h-90.313z"/><path opacity=".1" d="M253.411 571.039h90.313v17.938h-90.313z"/><path opacity=".05" d="M253.411 588.977h90.313v3.282h-90.313zM253.411 567.695h90.313v3.344h-90.313z"/><path fill="#88815C" d="M288.807 564.81v32.139h19.521v-32.139h-19.521zm18.92 31.536h-18.318v-30.934h18.318v30.934zM298.336 565.413h.501v30.934h-.501z"/><path fill="#928861" d="M293.872 580.7h-4.463l.998-.787h2.469l.996.787zM289.409 565.413h4.463l-.996.787h-2.469l-.998-.787z"/><path fill="#CDA56D" d="M290.407 579.913h2.469v-13.713h-2.469v13.713z"/><path fill="#B99964" d="M292.875 579.913l.996.787v-15.287l-.996.787v13.713zM290.407 566.2l-.998-.787v15.287l.998-.787v-13.713z"/><path fill="#928861" d="M298.336 580.7h-4.465l.998-.787h2.469l.998.787zM293.872 565.413h4.465l-.883.787h-2.584l-.998-.787z"/><path fill="#CDA56D" d="M294.87 579.913h2.469v-13.713h-2.469v13.713z"/><path fill="#B99964" d="M297.338 579.913l.998.787v-15.287l-.998.787v13.713zM294.87 566.2l-.998-.787v15.287l.998-.787v-13.713z"/><path fill="#84805A" d="M293.872 580.7h-4.463l.998.807h2.469l.996-.807z"/><path fill="#928861" d="M289.409 596.346h4.463l-.996-.806h-2.469l-.998.806z"/><path fill="#CDA56D" d="M290.407 581.506h2.469v14.034h-2.469v-14.034z"/><path fill="#B99964" d="M292.875 581.506l.996-.807v15.646l-.996-.806v-14.033zM290.407 595.541l-.998.806v-15.647l.998.807v14.034z"/><path fill="#84805A" d="M298.336 580.7h-4.465l.998.807h2.469l.998-.807z"/><path fill="#928861" d="M293.872 596.346h4.465l-.883-.806h-2.584l-.998.806z"/><path fill="#CDA56D" d="M294.87 581.506h2.469v14.034h-2.469v-14.034z"/><path fill="#B99964" d="M297.338 581.506l.998-.807v15.646l-.998-.806v-14.033zM294.87 595.541l-.998.806v-15.647l.998.807v14.034z"/><path fill="#928861" d="M303.301 580.7h-4.464l.997-.787h2.469l.998.787zM298.837 565.413h4.464l-.998.787h-2.469l-.997-.787z"/><path fill="#CDA56D" d="M299.834 579.913h2.469v-13.713h-2.469v13.713z"/><path fill="#B99964" d="M302.303 579.913l.998.787v-15.287l-.998.787v13.713zM299.834 566.2l-.997-.787v15.287l.997-.787v-13.713z"/><path fill="#928861" d="M307.764 580.7h-4.463l.996-.787h2.47l.997.787zM303.301 565.413h4.463l-.883.787h-2.584l-.996-.787z"/><path fill="#CDA56D" d="M304.297 579.913h2.47v-13.713h-2.47v13.713z"/><path fill="#B99964" d="M306.767 579.913l.997.787v-15.287l-.997.787v13.713zM304.297 566.2l-.996-.787v15.287l.996-.787v-13.713z"/><path fill="#84805A" d="M303.301 580.7h-4.464l.997.807h2.469l.998-.807z"/><path fill="#928861" d="M298.837 596.346h4.464l-.998-.806h-2.469l-.997.806z"/><path fill="#CDA56D" d="M299.834 581.506h2.469v14.034h-2.469v-14.034z"/><path fill="#B99964" d="M302.303 581.506l.998-.807v15.646l-.998-.806v-14.033zM299.834 595.541l-.997.806v-15.647l.997.807v14.034z"/><path fill="#84805A" d="M307.764 580.7h-4.463l.996.807h2.47l.997-.807z"/><path fill="#928861" d="M303.301 596.346h4.463l-.883-.806h-2.584l-.996.806z"/><path fill="#CDA56D" d="M304.297 581.506h2.47v14.034h-2.47v-14.034z"/><path fill="#B99964" d="M306.767 581.506l.997-.807v15.646l-.997-.806v-14.033zM304.297 595.541l-.996.806v-15.647l.996.807v14.034z"/><path fill="#F1EDE6" d="M287.819 563.823h.988v33.126h-.988z"/><path fill="#FBF6EE" d="M286.833 562.835h.986v34.113h-.986z"/><path fill="#F1EDE6" d="M308.329 563.823h.987v33.126h-.987z"/><path fill="#FBF6EE" d="M309.316 562.835h.987v34.113h-.987zM285.554 596.949h26.026v3.32h-26.026z"/><path fill="#F1EDE6" d="M288.807 563.823h19.521v.987h-19.521z"/><path fill="#FBF6EE" d="M287.819 562.835h21.497v.987h-21.497z"/><path opacity=".1" d="M263.99 567.47h18.159v21.506h-18.159z"/><path fill="#FBF6EE" d="M265.437 588.976v-21.506h15.265v21.506h-15.265zm13.608-1.656v-18.193h-11.952v18.193h11.952z"/><path fill="#827B70" d="M279.572 587.847h-13.005v-19.248h13.005v19.248z"/><path fill="#D5EAEF" d="M279.045 587.32h-11.952v-18.193h11.952v18.193z"/><path stroke="#827B70" stroke-miterlimit="10" fill="none" d="M273.002 568.793v18.861"/><path opacity=".1" d="M280.174 588.449l-14.186-20.468 14.186.017v20.451zM280.702 590.738l-15.265-1.762h15.265zM315.549 567.47h18.16v21.506h-18.16z"/><path fill="#FBF6EE" d="M316.997 588.976v-21.506h15.266v21.506h-15.266zm13.608-1.656v-18.193h-11.951v18.193h11.951z"/><path fill="#827B70" d="M331.132 587.847h-13.006v-19.248h13.006v19.248z"/><path fill="#D5EAEF" d="M330.605 587.32h-11.951v-18.193h11.951v18.193z"/><path stroke="#827B70" stroke-miterlimit="10" fill="none" d="M324.563 568.793v18.861"/><path opacity=".1" d="M331.735 588.449l-14.186-20.468 14.186.017v20.451zM332.262 590.738l-15.265-1.762h15.265z"/><path fill="#C6CDAA" d="M253.411 336.676h90.313v26.49h-90.313z"/><path fill="#80826C" d="M253.411 329.762h90.313v3.087h-90.313z"/><path fill="#C6CDAA" d="M252.69 329.159h91.756v.604h-91.756zM347.443 336.676h-97.751l3.719-4.118h90.313z"/><path fill="#80826C" d="M347.443 336.556h-97.751l3.719 1.803h90.313z"/><path fill="#CCBBD8" d="M286.057 342.254v19.39h25.021v-19.39h-25.021zm24.419 18.788h-23.816v-18.186h23.816v18.186z"/><path fill="#E7EDFF" d="M310.476 361.042h-23.816v-18.186h23.816v18.186z"/><path stroke="#CCBBD8" stroke-miterlimit="10" fill="none" d="M299.024 361.042v-18.186"/><path opacity=".1" fill="#120324" d="M311.079 361.644l-24.996-19.406 24.996.017v19.389z"/><path fill="#80826C" d="M253.411 361.193h90.313v2.053h-90.313z"/><path opacity=".1" fill="#120324" d="M343.726 354.849h-90.315l.024 6.398h90.291z"/><path fill="#80826C" d="M253.411 363.198h90.313v1.607h-90.313z"/><path fill="#F2EBF1" d="M253.411 363.015h90.313v.302h-90.313z"/><path fill="#C6CDAA" d="M253.411 364.805h90.313v45.6h-90.313z"/><path opacity=".1" d="M263.99 377.293h18.159v21.506h-18.159z"/><path fill="#FBF6EE" d="M265.437 398.799v-21.506h15.265v21.506h-15.265zm13.608-1.656v-18.193h-11.952v18.193h11.952z"/><path fill="#827B70" d="M279.572 397.67h-13.005v-19.248h13.005v19.248z"/><path fill="#D5EAEF" d="M279.045 397.143h-11.952v-18.193h11.952v18.193z"/><path stroke="#827B70" stroke-miterlimit="10" fill="none" d="M273.002 378.616v18.861"/><path opacity=".1" d="M280.174 398.272l-14.186-20.468 14.186.017v20.451zM280.702 400.561l-15.265-1.762h15.265zM289.707 377.293h18.159v21.506h-18.159z"/><path fill="#FBF6EE" d="M291.154 398.799v-21.506h15.265v21.506h-15.265zm13.608-1.656v-18.193h-11.951v18.193h11.951z"/><path fill="#827B70" d="M292.284 378.422h13.006v19.248h-13.006v-19.248z"/><path fill="#D5EAEF" d="M292.811 378.95h11.951v18.193h-11.951v-18.193z"/><path stroke="#827B70" stroke-miterlimit="10" fill="none" d="M298.852 378.616v18.861"/><path opacity=".1" d="M291.681 377.821l14.185-.017-14.185 20.468v-20.451zM291.154 400.561l15.264-1.762h-15.264zM315.438 377.293h18.158v21.506h-18.158z"/><path fill="#FBF6EE" d="M316.885 398.799v-21.506h15.264v21.506h-15.264zm13.608-1.656v-18.193h-11.951v18.193h11.951z"/><path fill="#827B70" d="M318.014 378.422h13.006v19.248h-13.006v-19.248z"/><path fill="#D5EAEF" d="M318.542 378.95h11.951v18.193h-11.951v-18.193z"/><path stroke="#827B70" stroke-miterlimit="10" fill="none" d="M324.583 378.616v18.861"/><path opacity=".1" d="M317.413 377.821l14.184-.017-14.184 20.468v-20.451zM316.885 400.561l15.264-1.762h-15.264z"/><path fill="#80826C" d="M253.411 410.476h90.313v1.608h-90.313z"/><path fill="#F2EBF1" d="M253.411 410.293h90.313v.302h-90.313z"/><path fill="#C6CDAA" d="M253.411 412.084h90.313v45.599h-90.313z"/><path opacity=".1" d="M263.99 424.572h18.159v21.506h-18.159z"/><path fill="#FBF6EE" d="M265.437 446.078v-21.506h15.265v21.506h-15.265zm13.608-1.657v-18.193h-11.952v18.193h11.952z"/><path fill="#827B70" d="M279.572 444.949h-13.005v-19.247h13.005v19.247z"/><path fill="#D5EAEF" d="M279.045 444.421h-11.952v-18.193h11.952v18.193z"/><path stroke="#827B70" stroke-miterlimit="10" fill="none" d="M273.002 425.895v18.86"/><path opacity=".1" d="M280.174 445.551l-14.186-20.469 14.186.017v20.452zM280.702 447.839l-15.265-1.761h15.265zM289.707 424.572h18.159v21.506h-18.159z"/><path fill="#FBF6EE" d="M291.154 446.078v-21.506h15.265v21.506h-15.265zm13.608-1.657v-18.193h-11.951v18.193h11.951z"/><path fill="#827B70" d="M292.284 425.702h13.006v19.247h-13.006v-19.247z"/><path fill="#D5EAEF" d="M292.811 426.228h11.951v18.193h-11.951v-18.193z"/><path stroke="#827B70" stroke-miterlimit="10" fill="none" d="M298.852 425.895v18.86"/><path opacity=".1" d="M291.681 425.099l14.185-.017-14.185 20.469v-20.452zM291.154 447.839l15.264-1.761h-15.264z"/><path fill="#FBF6EE" d="M286.278 425.886h6.275v18.86h-6.275z"/><g fill="#BBB8B1"><path d="M286.93 427.888h4.972l-.511.112h-3.95zM286.93 426.906h4.972l-.511.112h-3.95zM286.93 431.816h4.972l-.511.112h-3.95zM286.93 430.833h4.972l-.511.114h-3.95zM286.93 429.852h4.972l-.511.113h-3.95zM286.93 428.87h4.972l-.511.113h-3.95zM286.93 433.78h4.972l-.511.113h-3.95zM286.93 432.798h4.972l-.511.113h-3.95zM286.93 435.745h4.972l-.511.112h-3.95zM286.93 434.762h4.972l-.511.113h-3.95zM286.93 437.708h4.972l-.511.114h-3.95zM286.93 436.726h4.972l-.511.113h-3.95zM286.93 439.672h4.972l-.511.114h-3.95zM286.93 438.691h4.972l-.511.112h-3.95zM286.93 442.619h4.972l-.511.113h-3.95zM286.93 440.655h4.972l-.511.112h-3.95zM286.93 443.6h4.972l-.511.113h-3.95zM286.93 441.636h4.972l-.511.114h-3.95z"/></g><path opacity=".1" d="M315.438 424.572h18.158v21.506h-18.158z"/><path fill="#FBF6EE" d="M316.885 446.078v-21.506h15.264v21.506h-15.264zm13.608-1.657v-18.193h-11.951v18.193h11.951z"/><path fill="#827B70" d="M318.014 425.702h13.006v19.247h-13.006v-19.247z"/><path fill="#D5EAEF" d="M318.542 426.228h11.951v18.193h-11.951v-18.193z"/><path stroke="#827B70" stroke-miterlimit="10" fill="none" d="M324.583 425.895v18.86"/><path opacity=".1" d="M317.413 425.099l14.184-.017-14.184 20.469v-20.452zM316.885 447.839l15.264-1.761h-15.264zM289.707 519.129h18.159v21.506h-18.159z"/><path fill="#FBF6EE" d="M291.154 540.635v-21.506h15.265v21.506h-15.265zm13.608-1.656v-18.193h-11.951v18.193h11.951z"/><path fill="#827B70" d="M292.284 520.258h13.006v19.248h-13.006v-19.248z"/><path fill="#D5EAEF" d="M292.811 520.786h11.951v18.193h-11.951v-18.193z"/><path stroke="#827B70" stroke-miterlimit="10" fill="none" d="M298.852 520.452v18.86"/><path opacity=".1" d="M291.681 519.656l14.185-.017-14.185 20.469v-20.452zM291.154 542.396l15.264-1.761h-15.264zM315.438 519.129h18.158v21.506h-18.158z"/><path fill="#FBF6EE" d="M316.885 540.635v-21.506h15.264v21.506h-15.264zm13.608-1.656v-18.193h-11.951v18.193h11.951z"/><path fill="#827B70" d="M318.014 520.258h13.006v19.248h-13.006v-19.248z"/><path fill="#D5EAEF" d="M318.542 520.786h11.951v18.193h-11.951v-18.193z"/><path stroke="#827B70" stroke-miterlimit="10" fill="none" d="M324.583 520.452v18.86"/><path opacity=".1" d="M317.413 519.656l14.184-.017-14.184 20.469v-20.452zM316.885 542.396l15.264-1.761h-15.264z"/><circle fill="#FFEFB3" cx="262.356" cy="63.627" r="21.934"/><path fill="#F49A6C" d="M173.719 486.641h79.688v46.88h-79.688z"/><path fill="#B77552" d="M173.719 485.033h79.688v1.608h-79.688z"/><path fill="#F8C5A7" d="M173.719 484.851h79.688v.302h-79.688z"/><path opacity=".1" d="M173.719 504.292h79.688v17.938h-79.688z"/><path opacity=".05" d="M173.719 522.23h79.688v3.282h-79.688zM173.719 500.948h79.688v3.344h-79.688z"/><path fill="#BAB8B4" d="M185.741 504.437v17.796h13.147v-17.796h-13.147zm12.545 17.193h-11.943v-16.59h11.943v16.59z"/><path fill="#D5EAEF" d="M198.286 521.63h-11.943v-16.59h11.943v16.59z"/><path fill="#FBF6EE" d="M183.766 501.062h17.096v3.375h-17.096z"/><path fill="#F1EDE6" d="M200.862 501.062l-17.096 3.375h17.096z"/><path opacity=".1" d="M198.888 522.233l-13.122-17.812 13.122.017v17.795z"/><path fill="#FBF6EE" d="M183.766 522.23h17.096v3.375h-17.096z"/><path opacity=".1" d="M199.149 527.367l-13.67-1.762h13.67z"/><path fill="#F1EDE6" d="M200.862 522.23h-17.096v3.375z"/><path stroke="#BAB8B4" stroke-miterlimit="10" fill="none" d="M190.123 505.04v16.59M194.373 505.04v16.59M186.327 516.256h12.014M186.327 509.484h12.014"/><path fill="#BAB8B4" d="M206.989 504.437v17.796h13.148v-17.796h-13.148zm12.546 17.193h-11.943v-16.59h11.943v16.59z"/><path fill="#D5EAEF" d="M219.535 521.63h-11.943v-16.59h11.943v16.59z"/><path fill="#FBF6EE" d="M205.014 501.062h17.098v3.375h-17.098z"/><path fill="#F1EDE6" d="M222.112 501.062l-17.098 3.375h17.098z"/><path opacity=".1" d="M220.137 522.233l-13.123-17.812 13.123.017v17.795z"/><path fill="#FBF6EE" d="M205.014 522.23h17.098v3.375h-17.098z"/><path opacity=".1" d="M220.397 527.367l-13.668-1.762h13.668z"/><path fill="#F1EDE6" d="M222.112 522.23h-17.098v3.375z"/><path stroke="#BAB8B4" stroke-miterlimit="10" fill="none" d="M211.372 505.04v16.59M215.622 505.04v16.59M207.575 516.256h12.015M207.575 509.484h12.015"/><path fill="#BAB8B4" d="M228.238 504.437v17.796h13.147v-17.796h-13.147zm12.546 17.193h-11.944v-16.59h11.943v16.59z"/><path fill="#D5EAEF" d="M240.784 521.63h-11.944v-16.59h11.943v16.59z"/><path fill="#FBF6EE" d="M226.263 501.062h17.097v3.375h-17.097z"/><path fill="#F1EDE6" d="M243.36 501.062l-17.097 3.375h17.097z"/><path opacity=".1" d="M241.385 522.233l-13.122-17.812 13.122.017v17.795z"/><path fill="#FBF6EE" d="M226.263 522.23h17.097v3.375h-17.097z"/><path opacity=".1" d="M241.646 527.367l-13.669-1.762h13.669z"/><path fill="#F1EDE6" d="M243.36 522.23h-17.097v3.375z"/><path stroke="#BAB8B4" stroke-miterlimit="10" fill="none" d="M232.621 505.04v16.59M236.87 505.04v16.59M228.824 516.256h12.014M228.824 509.484h12.014"/><text transform="translate(197.213 496.071)" opacity=".1" font-family="'ProximaNova-Extrabld'" font-size="4.781">RESTAURANTE</text><text transform="translate(197.213 495.54)" fill="#F1EDE6" font-family="'ProximaNova-Extrabld'" font-size="4.781">RESTAURANTE</text><path fill="#F49A6C" d="M173.719 533.388h79.688v46.881h-79.688z"/><path fill="#F7C2A6" d="M172.94 532.24h81.246v2.63h-81.246z"/><path fill="#B77552" d="M173.719 534.87h79.688v.552h-79.688z"/><path opacity=".1" d="M173.719 551.039h79.688v17.938h-79.688z"/><path opacity=".05" d="M173.719 568.977h79.688v3.282h-79.688zM173.719 547.695h79.688v3.344h-79.688z"/><path fill="#BAB8B4" d="M185.741 551.184v17.796h13.147v-17.796h-13.147zm12.545 17.194h-11.943v-16.592h11.943v16.592z"/><path fill="#D5EAEF" d="M198.286 568.378h-11.943v-16.592h11.943v16.592z"/><path fill="#FBF6EE" d="M183.766 547.809h17.096v3.375h-17.096z"/><path fill="#F1EDE6" d="M200.862 547.809l-17.096 3.375h17.096z"/><path opacity=".1" d="M198.888 568.98l-13.122-17.812 13.122.017v17.795z"/><path fill="#FBF6EE" d="M183.766 568.977h17.096v3.375h-17.096z"/><path opacity=".1" d="M199.149 574.114l-13.67-1.762h13.67z"/><path fill="#F1EDE6" d="M200.862 568.977h-17.096v3.375z"/><path stroke="#BAB8B4" stroke-miterlimit="10" fill="none" d="M190.123 551.787v16.591M194.373 551.787v16.591M186.327 563.004h12.014M186.327 556.231h12.014"/><path fill="#AE795D" d="M203.801 544.81v32.139h19.523v-32.139h-19.523zm18.92 31.536h-18.317v-30.934h18.317v30.934zM213.436 545.413h.268v30.934h-.268z"/><path fill="#B88061" d="M213.436 576.346h-9.032l2.019-1.594h4.995l2.018 1.594zM204.404 545.413h9.032l-2.019 1.593h-4.995l-2.018-1.593z"/><path fill="#F49A6C" d="M206.422 574.752h4.995v-27.747h-4.995v27.747z"/><path fill="#DE8E64" d="M211.417 574.752l2.019 1.594v-30.934l-2.019 1.593v27.747zM206.422 547.005l-2.019-1.593v30.934l2.019-1.594v-27.747z"/><path fill="#B88061" d="M222.727 576.346h-9.031l2.018-1.594h4.996l2.017 1.594zM213.696 545.413h9.031l-1.786 1.593h-5.228l-2.017-1.593z"/><path fill="#F49A6C" d="M215.713 574.752h4.996v-27.747h-4.996v27.747z"/><path fill="#DE8E64" d="M220.709 574.752l2.018 1.594v-30.934l-2.018 1.593v27.747zM215.713 547.005l-2.018-1.593v30.934l2.018-1.594v-27.747z"/><path fill="#FBF6EE" d="M201.827 541.435h23.472v3.375h-23.472z"/><path fill="#F1EDE6" d="M225.298 541.435l-23.471 3.375h23.471z"/><path fill="#FBF6EE" d="M201.827 576.946h23.472v3.375h-23.472z"/><path fill="#F1EDE6" d="M225.298 576.946h-23.471v3.375z"/><path fill="#BAB8B4" d="M228.238 551.184v17.796h13.147v-17.796h-13.147zm12.546 17.194h-11.944v-16.592h11.943v16.592z"/><path fill="#D5EAEF" d="M240.784 568.378h-11.944v-16.592h11.943v16.592z"/><path fill="#FBF6EE" d="M226.263 547.809h17.097v3.375h-17.097z"/><path fill="#F1EDE6" d="M243.36 547.809l-17.097 3.375h17.097z"/><path opacity=".1" d="M241.385 568.98l-13.122-17.812 13.122.017v17.795z"/><path fill="#FBF6EE" d="M226.263 568.977h17.097v3.375h-17.097z"/><path opacity=".1" d="M241.646 574.114l-13.669-1.762h13.669z"/><path fill="#F1EDE6" d="M243.36 568.977h-17.097v3.375z"/><path stroke="#BAB8B4" stroke-miterlimit="10" fill="none" d="M232.621 551.787v16.591M236.87 551.787v16.591M228.824 563.004h12.014M228.824 556.231h12.014"/><path fill="#F49A6C" d="M173.719 443.297h79.688v41.567h-79.688z"/><path fill="#B77552" d="M173.719 441.689h79.688v1.608h-79.688z"/><path fill="#F8C5A7" d="M173.719 441.506h79.688v.302h-79.688z"/><path opacity=".1" d="M173.719 455.635h79.688v17.938h-79.688z"/><path opacity=".05" d="M173.719 473.574h79.688v3.282h-79.688zM173.719 452.291h79.688v3.345h-79.688z"/><path fill="#BAB8B4" d="M185.741 455.781v17.796h13.147v-17.796h-13.147zm12.545 17.193h-11.943v-16.591h11.943v16.591z"/><path fill="#D5EAEF" d="M198.286 472.974h-11.943v-16.591h11.943v16.591z"/><path fill="#FBF6EE" d="M183.766 452.406h17.096v3.375h-17.096z"/><path fill="#F1EDE6" d="M200.862 452.406l-17.096 3.375h17.096z"/><path opacity=".1" d="M198.888 473.577l-13.122-17.812 13.122.017v17.795z"/><path fill="#FBF6EE" d="M183.766 473.574h17.096v3.375h-17.096z"/><path opacity=".1" d="M199.149 478.709l-13.67-1.76h13.67z"/><path fill="#F1EDE6" d="M200.862 473.574h-17.096v3.375z"/><path stroke="#BAB8B4" stroke-miterlimit="10" fill="none" d="M186.327 460.828h12.014"/><path fill="#BAB8B4" d="M206.989 455.781v17.796h13.148v-17.796h-13.148zm12.546 17.193h-11.943v-16.591h11.943v16.591z"/><path fill="#D5EAEF" d="M219.535 472.974h-11.943v-16.591h11.943v16.591z"/><path fill="#FBF6EE" d="M205.014 452.406h17.098v3.375h-17.098z"/><path fill="#F1EDE6" d="M222.112 452.406l-17.098 3.375h17.098z"/><path opacity=".1" d="M220.137 473.577l-13.123-17.812 13.123.017v17.795z"/><path fill="#FBF6EE" d="M205.014 473.574h17.098v3.375h-17.098z"/><path opacity=".1" d="M220.397 478.709l-13.668-1.76h13.668z"/><path fill="#F1EDE6" d="M222.112 473.574h-17.098v3.375z"/><path stroke="#BAB8B4" stroke-miterlimit="10" fill="none" d="M207.575 460.828h12.015"/><path fill="#BAB8B4" d="M228.238 455.781v17.796h13.147v-17.796h-13.147zm12.546 17.193h-11.944v-16.591h11.943v16.591z"/><path fill="#D5EAEF" d="M240.784 472.974h-11.944v-16.591h11.943v16.591z"/><path fill="#FBF6EE" d="M226.263 452.406h17.097v3.375h-17.097z"/><path fill="#F1EDE6" d="M243.36 452.406l-17.097 3.375h17.097z"/><path opacity=".1" d="M241.385 473.577l-13.122-17.812 13.122.017v17.795z"/><path fill="#FBF6EE" d="M226.263 473.574h17.097v3.375h-17.097z"/><path opacity=".1" d="M241.646 478.709l-13.669-1.76h13.669z"/><path fill="#F1EDE6" d="M243.36 473.574h-17.097v3.375z"/><path stroke="#BAB8B4" stroke-miterlimit="10" fill="none" d="M228.824 460.828h12.014"/><path fill="#F49A6C" d="M173.719 400.078h79.688v41.568h-79.688zM173.719 373.517h79.688v26.489h-79.688z"/><path fill="#B77552" d="M173.719 366.603h79.688v3.087h-79.688z"/><path fill="#F49A6C" d="M172.998 366h81.131v.604h-81.131zM257.125 373.517h-87.125l3.719-4.119h79.688z"/><path fill="#B77552" d="M257.125 373.397h-87.125l3.719 1.802h79.688z"/><path opacity=".1" d="M173.719 412.416h79.688v17.938h-79.688z"/><path opacity=".05" d="M173.719 430.354h79.688v3.282h-79.688zM173.719 409.072h79.688v3.344h-79.688z"/><path fill="#BAB8B4" d="M185.741 412.561v17.796h13.147v-17.796h-13.147zm12.545 17.194h-11.943v-16.592h11.943v16.592z"/><path fill="#D5EAEF" d="M198.286 429.755h-11.943v-16.592h11.943v16.592z"/><path fill="#FBF6EE" d="M183.766 409.186h17.096v3.375h-17.096z"/><path fill="#F1EDE6" d="M200.862 409.186l-17.096 3.375h17.096z"/><path opacity=".1" d="M198.888 430.357l-13.122-17.812 13.122.017v17.795z"/><path fill="#FBF6EE" d="M183.766 430.354h17.096v3.375h-17.096z"/><path opacity=".1" d="M199.149 435.491l-13.67-1.762h13.67z"/><path fill="#F1EDE6" d="M200.862 430.354h-17.096v3.375z"/><path stroke="#BAB8B4" stroke-miterlimit="10" fill="none" d="M186.327 417.608h12.014"/><path fill="#BAB8B4" d="M206.989 412.561v17.796h13.148v-17.796h-13.148zm12.546 17.194h-11.943v-16.592h11.943v16.592z"/><path fill="#D5EAEF" d="M219.535 429.755h-11.943v-16.592h11.943v16.592z"/><path fill="#FBF6EE" d="M205.014 409.186h17.098v3.375h-17.098z"/><path fill="#F1EDE6" d="M222.112 409.186l-17.098 3.375h17.098z"/><path opacity=".1" d="M220.137 430.357l-13.123-17.812 13.123.017v17.795z"/><path fill="#FBF6EE" d="M205.014 430.354h17.098v3.375h-17.098z"/><path opacity=".1" d="M220.397 435.491l-13.668-1.762h13.668z"/><path fill="#F1EDE6" d="M222.112 430.354h-17.098v3.375z"/><path stroke="#BAB8B4" stroke-miterlimit="10" fill="none" d="M207.575 417.608h12.015"/><path fill="#BAB8B4" d="M228.238 412.561v17.796h13.147v-17.796h-13.147zm12.546 17.194h-11.944v-16.592h11.943v16.592z"/><path fill="#D5EAEF" d="M240.784 429.755h-11.944v-16.592h11.943v16.592z"/><path fill="#FBF6EE" d="M226.263 409.186h17.097v3.375h-17.097z"/><path fill="#F1EDE6" d="M243.36 409.186l-17.097 3.375h17.097z"/><path opacity=".1" d="M241.385 430.357l-13.122-17.812 13.122.017v17.795z"/><path fill="#FBF6EE" d="M226.263 430.354h17.097v3.375h-17.097z"/><path opacity=".1" d="M241.646 435.491l-13.669-1.762h13.669z"/><path fill="#F1EDE6" d="M243.36 430.354h-17.097v3.375z"/><path stroke="#BAB8B4" stroke-miterlimit="10" fill="none" d="M228.824 417.608h12.014"/><path fill="#BAB8B4" d="M206.989 379.094v19.39h13.148v-19.39h-13.148zm12.546 18.788h-11.943v-18.186h11.943v18.186z"/><path fill="#D5EAEF" d="M219.535 397.882h-11.943v-18.186h11.943v18.186z"/><path stroke="#BAB8B4" stroke-miterlimit="10" fill="none" d="M213.583 397.882v-18.185"/><path opacity=".1" d="M220.137 398.484l-13.123-19.406 13.123.017v19.389z"/><path fill="#BAB8B4" d="M185.741 382.813v15.671h13.147v-15.671h-13.147zm12.545 15.069h-11.943v-14.467h11.943v14.467z"/><path fill="#D5EAEF" d="M198.286 397.882h-11.943v-14.467h11.943v14.467z"/><path stroke="#BAB8B4" stroke-miterlimit="10" fill="none" d="M198.888 387.992h-13.108"/><path opacity=".1" d="M198.888 398.484l-13.122-15.688 13.122.017v15.671z"/><path fill="#BAB8B4" d="M228.238 382.813v15.671h13.147v-15.671h-13.147zm12.546 15.069h-11.944v-14.467h11.943v14.467z"/><path fill="#D5EAEF" d="M240.784 397.882h-11.944v-14.467h11.943v14.467z"/><path stroke="#BAB8B4" stroke-miterlimit="10" fill="none" d="M241.385 387.992h-13.108"/><path opacity=".1" d="M241.385 398.484l-13.122-15.688 13.122.017v15.671z"/><path fill="#B77552" d="M173.719 398.034h79.688v2.053h-79.688z"/><path opacity=".1" d="M253.409 391.69h-79.69l.024 6.397h79.666z"/><path fill="#F49A9A" d="M3.719 466.641h79.688v66.88h-79.688z"/><path fill="#B77580" d="M3.719 465.033h79.688v1.608h-79.688z"/><path fill="#F8C5D5" d="M3.719 464.851h79.688v.302h-79.688z"/><path opacity=".1" d="M3.719 504.292h79.688v17.938h-79.688z"/><path opacity=".05" d="M3.719 522.23h79.688v3.282h-79.688zM3.719 500.948h79.688v3.344h-79.688z"/><path fill="#BAB8B4" d="M15.74 504.437v17.796h13.148v-17.796h-13.148zm12.546 17.193h-11.944v-16.59h11.943v16.59z"/><path fill="#D5EAEF" d="M28.286 521.63h-11.944v-16.59h11.943v16.59z"/><path fill="#FBF6EE" d="M13.766 501.062h17.097v3.375h-17.097z"/><path fill="#F1EDE6" d="M30.862 501.062l-17.096 3.375h17.096z"/><path opacity=".1" d="M28.888 522.233l-13.122-17.813 13.123.017v17.796z"/><path fill="#FBF6EE" d="M13.766 522.23h17.097v3.375h-17.097z"/><path opacity=".1" d="M29.148 527.367l-13.669-1.762h13.669z"/><path fill="#F1EDE6" d="M30.862 522.23h-17.096v3.375z"/><path stroke="#BAB8B4" stroke-miterlimit="10" fill="none" d="M20.123 505.04v16.59M24.373 505.04v16.59M16.326 516.256h12.015M16.326 509.484h12.015"/><path fill="#BAB8B4" d="M36.989 504.437v17.796h13.147v-17.796h-13.147zm12.546 17.193h-11.944v-16.59h11.943v16.59z"/><path fill="#D5EAEF" d="M49.535 521.63h-11.944v-16.59h11.943v16.59z"/><path fill="#FBF6EE" d="M35.015 501.062h17.097v3.375h-17.097z"/><path fill="#F1EDE6" d="M52.111 501.062l-17.096 3.375h17.096z"/><path opacity=".1" d="M50.137 522.233l-13.122-17.813 13.122.017v17.796z"/><path fill="#FBF6EE" d="M35.015 522.23h17.097v3.375h-17.097z"/><path opacity=".1" d="M50.397 527.367l-13.668-1.762h13.668z"/><path fill="#F1EDE6" d="M52.111 522.23h-17.096v3.375z"/><path stroke="#BAB8B4" stroke-miterlimit="10" fill="none" d="M41.372 505.04v16.59M45.622 505.04v16.59M37.575 516.256h12.015M37.575 509.484h12.015"/><path fill="#BAB8B4" d="M58.238 504.437v17.796h13.148v-17.796h-13.148zm12.545 17.193h-11.943v-16.59h11.943v16.59z"/><path fill="#D5EAEF" d="M70.783 521.63h-11.943v-16.59h11.943v16.59z"/><path fill="#FBF6EE" d="M56.263 501.062h17.097v3.375h-17.097z"/><path fill="#F1EDE6" d="M73.36 501.062l-17.097 3.375h17.097z"/><path opacity=".1" d="M71.386 522.233l-13.123-17.813 13.123.017v17.796z"/><path fill="#FBF6EE" d="M56.263 522.23h17.097v3.375h-17.097z"/><path opacity=".1" d="M71.646 527.367l-13.669-1.762h13.669z"/><path fill="#F1EDE6" d="M73.36 522.23h-17.097v3.375z"/><path stroke="#BAB8B4" stroke-miterlimit="10" fill="none" d="M62.621 505.04v16.59M66.87 505.04v16.59M58.824 516.256h12.015M58.824 509.484h12.015"/><text transform="translate(27.214 496.071)" opacity=".1" font-family="'ProximaNova-Extrabld'" font-size="4.781">RESTAURANTE</text><text transform="translate(27.214 495.54)" fill="#F1EDE6" font-family="'ProximaNova-Extrabld'" font-size="4.781">RESTAURANTE</text><path fill="#F49A9A" d="M3.719 533.388h79.688v46.881h-79.688z"/><path fill="#F7C2D4" d="M2.939 532.24h81.247v2.63h-81.247z"/><path fill="#B77580" d="M3.719 534.87h79.688v.552h-79.688z"/><path opacity=".1" d="M3.719 551.039h79.688v17.938h-79.688z"/><path opacity=".05" d="M3.719 568.977h79.688v3.282h-79.688zM3.719 547.695h79.688v3.344h-79.688z"/><path fill="#BAB8B4" d="M15.74 551.184v17.796h13.148v-17.796h-13.148zm12.546 17.194h-11.944v-16.592h11.943v16.592z"/><path fill="#D5EAEF" d="M28.286 568.378h-11.944v-16.592h11.943v16.592z"/><path fill="#FBF6EE" d="M13.766 547.809h17.097v3.375h-17.097z"/><path fill="#F1EDE6" d="M30.862 547.809l-17.096 3.375h17.096z"/><path opacity=".1" d="M28.888 568.98l-13.123-17.812 13.123.017v17.795z"/><path fill="#FBF6EE" d="M13.766 568.977h17.097v3.375h-17.097z"/><path opacity=".1" d="M29.148 574.114l-13.669-1.762h13.669z"/><path fill="#F1EDE6" d="M30.862 568.977h-17.096v3.375z"/><path stroke="#BAB8B4" stroke-miterlimit="10" fill="none" d="M20.123 551.787v16.591M24.373 551.787v16.591M16.326 563.004h12.015M16.326 556.231h12.015"/><path fill="#AE795D" d="M33.802 544.81v32.139h19.522v-32.139h-19.522zm18.92 31.536h-18.318v-30.934h18.318v30.934zM43.436 545.413h.268v30.934h-.268z"/><path fill="#B88061" d="M43.436 576.346h-9.032l2.019-1.594h4.995l2.018 1.594zM34.404 545.413h9.032l-2.019 1.593h-4.995l-2.018-1.593z"/><path fill="#F49A6C" d="M36.422 574.752h4.995v-27.747h-4.995v27.747z"/><path fill="#DE8E64" d="M41.417 574.752l2.019 1.594v-30.934l-2.019 1.593v27.747zM36.422 547.005l-2.019-1.593v30.934l2.019-1.594v-27.747z"/><path fill="#B88061" d="M52.728 576.346h-9.032l2.018-1.594h4.995l2.019 1.594zM43.696 545.413h9.032l-1.787 1.593h-5.227l-2.018-1.593z"/><path fill="#F49A6C" d="M45.714 574.752h4.995v-27.747h-4.995v27.747z"/><path fill="#DE8E64" d="M50.709 574.752l2.019 1.594v-30.934l-2.019 1.593v27.747zM45.714 547.005l-2.018-1.593v30.934l2.018-1.594v-27.747z"/><path fill="#FBF6EE" d="M31.827 541.435h23.471v3.375h-23.471z"/><path fill="#F1EDE6" d="M55.298 541.435l-23.471 3.375h23.471z"/><path fill="#FBF6EE" d="M31.827 576.946h23.471v3.375h-23.471z"/><path fill="#F1EDE6" d="M55.298 576.946h-23.471v3.375z"/><path fill="#BAB8B4" d="M58.238 551.184v17.796h13.148v-17.796h-13.148zm12.545 17.194h-11.943v-16.592h11.943v16.592z"/><path fill="#D5EAEF" d="M70.783 568.378h-11.943v-16.592h11.943v16.592z"/><path fill="#FBF6EE" d="M56.263 547.809h17.097v3.375h-17.097z"/><path fill="#F1EDE6" d="M73.36 547.809l-17.097 3.375h17.097z"/><path opacity=".1" d="M71.386 568.98l-13.123-17.812 13.123.017v17.795z"/><path fill="#FBF6EE" d="M56.263 568.977h17.097v3.375h-17.097z"/><path opacity=".1" d="M71.646 574.114l-13.669-1.762h13.669z"/><path fill="#F1EDE6" d="M73.36 568.977h-17.097v3.375z"/><path stroke="#BAB8B4" stroke-miterlimit="10" fill="none" d="M62.621 551.787v16.591M66.87 551.787v16.591M58.824 563.004h12.015M58.824 556.231h12.015"/><path fill="#F49A9A" d="M3.719 423.297h79.688v41.567h-79.688z"/><path fill="#B77580" d="M3.719 421.689h79.688v1.608h-79.688z"/><path fill="#F8C5D5" d="M3.719 421.506h79.688v.302h-79.688z"/><path opacity=".1" d="M3.719 435.635h79.688v17.938h-79.688z"/><path opacity=".05" d="M3.719 453.574h79.688v3.282h-79.688zM3.719 432.291h79.688v3.345h-79.688z"/><path fill="#BAB8B4" d="M15.74 435.781v17.796h13.148v-17.796h-13.148zm12.546 17.193h-11.944v-16.591h11.943v16.591z"/><path fill="#D5EAEF" d="M28.286 452.974h-11.944v-16.591h11.943v16.591z"/><path fill="#FBF6EE" d="M13.766 432.406h17.097v3.375h-17.097z"/><path fill="#F1EDE6" d="M30.862 432.406l-17.096 3.375h17.096z"/><path opacity=".1" d="M28.888 453.577l-13.123-17.812 13.123.017v17.795z"/><path fill="#FBF6EE" d="M13.766 453.574h17.097v3.375h-17.097z"/><path opacity=".1" d="M29.148 458.709l-13.669-1.76h13.669z"/><path fill="#F1EDE6" d="M30.862 453.574h-17.096v3.375z"/><path stroke="#BAB8B4" stroke-miterlimit="10" fill="none" d="M16.326 440.828h12.015"/><path fill="#BAB8B4" d="M36.989 435.781v17.796h13.147v-17.796h-13.147zm12.546 17.193h-11.944v-16.591h11.943v16.591z"/><path fill="#D5EAEF" d="M49.535 452.974h-11.944v-16.591h11.943v16.591z"/><path fill="#FBF6EE" d="M35.015 432.406h17.097v3.375h-17.097z"/><path fill="#F1EDE6" d="M52.111 432.406l-17.096 3.375h17.096z"/><path opacity=".1" d="M50.137 453.577l-13.122-17.812 13.122.017v17.795z"/><path fill="#FBF6EE" d="M35.015 453.574h17.097v3.375h-17.097z"/><path opacity=".1" d="M50.397 458.709l-13.668-1.76h13.668z"/><path fill="#F1EDE6" d="M52.111 453.574h-17.096v3.375z"/><path stroke="#BAB8B4" stroke-miterlimit="10" fill="none" d="M37.575 440.828h12.015"/><path fill="#BAB8B4" d="M58.238 435.781v17.796h13.148v-17.796h-13.148zm12.545 17.193h-11.943v-16.591h11.943v16.591z"/><path fill="#D5EAEF" d="M70.783 452.974h-11.943v-16.591h11.943v16.591z"/><path fill="#FBF6EE" d="M56.263 432.406h17.097v3.375h-17.097z"/><path fill="#F1EDE6" d="M73.36 432.406l-17.097 3.375h17.097z"/><path opacity=".1" d="M71.386 453.577l-13.123-17.812 13.123.017v17.795z"/><path fill="#FBF6EE" d="M56.263 453.574h17.097v3.375h-17.097z"/><path opacity=".1" d="M71.646 458.709l-13.669-1.76h13.669z"/><path fill="#F1EDE6" d="M73.36 453.574h-17.097v3.375z"/><path stroke="#BAB8B4" stroke-miterlimit="10" fill="none" d="M58.824 440.828h12.015"/><path fill="#F49A9A" d="M3.719 380.078h79.688v41.568h-79.688zM3.719 353.517h79.688v26.489h-79.688z"/><path fill="#B77580" d="M3.719 346.603h79.688v3.087h-79.688z"/><path fill="#F49A9A" d="M2.998 346h81.131v.604h-81.131zM87.126 353.517h-87.126l3.719-4.119h79.688z"/><path fill="#B77580" d="M87.126 353.397h-87.126l3.719 1.802h79.688z"/><path opacity=".1" d="M3.719 392.416h79.688v17.938h-79.688z"/><path opacity=".05" d="M3.719 410.354h79.688v3.282h-79.688zM3.719 389.072h79.688v3.344h-79.688z"/><path fill="#BAB8B4" d="M15.74 392.561v17.796h13.148v-17.796h-13.148zm12.546 17.194h-11.944v-16.592h11.943v16.592z"/><path fill="#D5EAEF" d="M28.286 409.755h-11.944v-16.592h11.943v16.592z"/><path fill="#FBF6EE" d="M13.766 389.186h17.097v3.375h-17.097z"/><path fill="#F1EDE6" d="M30.862 389.186l-17.096 3.375h17.096z"/><path opacity=".1" d="M28.888 410.357l-13.123-17.812 13.123.017v17.795z"/><path fill="#FBF6EE" d="M13.766 410.354h17.097v3.375h-17.097z"/><path opacity=".1" d="M29.148 415.491l-13.669-1.762h13.669z"/><path fill="#F1EDE6" d="M30.862 410.354h-17.096v3.375z"/><path stroke="#BAB8B4" stroke-miterlimit="10" fill="none" d="M16.326 397.608h12.015"/><path fill="#BAB8B4" d="M36.989 392.561v17.796h13.147v-17.796h-13.147zm12.546 17.194h-11.944v-16.592h11.943v16.592z"/><path fill="#D5EAEF" d="M49.535 409.755h-11.944v-16.592h11.943v16.592z"/><path fill="#FBF6EE" d="M35.015 389.186h17.097v3.375h-17.097z"/><path fill="#F1EDE6" d="M52.111 389.186l-17.096 3.375h17.096z"/><path opacity=".1" d="M50.137 410.357l-13.122-17.812 13.122.017v17.795z"/><path fill="#FBF6EE" d="M35.015 410.354h17.097v3.375h-17.097z"/><path opacity=".1" d="M50.397 415.491l-13.668-1.762h13.668z"/><path fill="#F1EDE6" d="M52.111 410.354h-17.096v3.375z"/><path stroke="#BAB8B4" stroke-miterlimit="10" fill="none" d="M37.575 397.608h12.015"/><path fill="#BAB8B4" d="M58.238 392.561v17.796h13.148v-17.796h-13.148zm12.545 17.194h-11.943v-16.592h11.943v16.592z"/><path fill="#D5EAEF" d="M70.783 409.755h-11.943v-16.592h11.943v16.592z"/><path fill="#FBF6EE" d="M56.263 389.186h17.097v3.375h-17.097z"/><path fill="#F1EDE6" d="M73.36 389.186l-17.097 3.375h17.097z"/><path opacity=".1" d="M71.386 410.357l-13.123-17.812 13.123.017v17.795z"/><path fill="#FBF6EE" d="M56.263 410.354h17.097v3.375h-17.097z"/><path opacity=".1" d="M71.646 415.491l-13.669-1.762h13.669z"/><path fill="#F1EDE6" d="M73.36 410.354h-17.097v3.375z"/><path stroke="#BAB8B4" stroke-miterlimit="10" fill="none" d="M58.824 397.608h12.015"/><path fill="#BAB8B4" d="M36.989 359.094v19.39h13.147v-19.39h-13.147zm12.546 18.788h-11.944v-18.186h11.943v18.186z"/><path fill="#D5EAEF" d="M49.535 377.882h-11.944v-18.186h11.943v18.186z"/><path stroke="#BAB8B4" stroke-miterlimit="10" fill="none" d="M43.583 377.882v-18.185"/><path opacity=".1" d="M50.137 378.484l-13.122-19.406 13.122.017v19.389z"/><path fill="#BAB8B4" d="M15.74 362.813v15.671h13.148v-15.671h-13.148zm12.546 15.069h-11.944v-14.467h11.943v14.467z"/><path fill="#D5EAEF" d="M28.286 377.882h-11.944v-14.467h11.943v14.467z"/><path stroke="#BAB8B4" stroke-miterlimit="10" fill="none" d="M28.888 367.992h-13.109"/><path opacity=".1" d="M28.888 378.484l-13.123-15.688 13.123.017v15.671z"/><path fill="#BAB8B4" d="M58.238 362.813v15.671h13.148v-15.671h-13.148zm12.545 15.069h-11.943v-14.467h11.943v14.467z"/><path fill="#D5EAEF" d="M70.783 377.882h-11.943v-14.467h11.943v14.467z"/><path stroke="#BAB8B4" stroke-miterlimit="10" fill="none" d="M71.386 367.992h-13.109"/><path opacity=".1" d="M71.386 378.484l-13.123-15.688 13.123.017v15.671z"/><path fill="#B77580" d="M3.719 378.034h79.688v2.053h-79.688z"/><path opacity=".1" d="M83.409 371.69h-79.69l.023 6.397h79.667z"/><path fill="none" d="M26.293 0h302.168v436.752h-302.168z"/><path fill-rule="evenodd" clip-rule="evenodd" fill="#E6C697" d="M36.734 407.517l6.582 29.235h23.981l6.583-29.235z"/><path fill-rule="evenodd" clip-rule="evenodd" fill="#F3D09E" d="M33.571 395.483h43.472v12.034h-43.472z"/><path fill-rule="evenodd" clip-rule="evenodd" fill="#D9BB8F" d="M72.725 412.65l1.154-5.133h-37.145l1.156 5.133z"/><path fill-rule="evenodd" clip-rule="evenodd" fill="#6D5F3B" d="M54.173 356.937h1.134v38.546h-1.134z"/><g fill-rule="evenodd" clip-rule="evenodd" fill="#78A67D"><path d="M67.505 384.004s-7.333 1.238-9.575-.005c-2.241-1.244-3.049-4.067-1.806-6.308 1.243-2.241 4.066-3.05 6.307-1.806 2.242 1.243 5.074 8.119 5.074 8.119M74.575 376.496s-6.87 2.849-9.333 2.14c-2.462-.71-3.883-3.28-3.173-5.742.709-2.463 3.279-3.883 5.742-3.174 2.462.709 6.764 6.776 6.764 6.776M79.079 367.021s-5.812 4.64-8.375 4.64-4.639-2.077-4.639-4.64 2.076-4.639 4.639-4.639l8.375 4.639M73.538 355.096s-2.471 7.014-4.645 8.372c-2.174 1.357-5.035.696-6.392-1.477-1.358-2.174-.698-5.034 1.477-6.394 2.173-1.356 9.56-.501 9.56-.501M67.746 348.716s-2.299 7.073-4.438 8.483-5.017.818-6.427-1.321c-1.41-2.139-.819-5.015 1.32-6.425 2.139-1.411 9.545-.737 9.545-.737M42.115 384.004s7.333 1.238 9.575-.005c2.241-1.244 3.049-4.067 1.806-6.308-1.243-2.241-4.066-3.05-6.307-1.806-2.242 1.243-5.074 8.119-5.074 8.119M35.045 376.496s6.87 2.849 9.333 2.14c2.462-.71 3.883-3.28 3.173-5.742-.709-2.463-3.279-3.883-5.742-3.174-2.462.709-6.764 6.776-6.764 6.776M30.542 367.021s5.812 4.64 8.375 4.64 4.639-2.077 4.639-4.64-2.076-4.639-4.639-4.639l-8.375 4.639M36.083 355.096s2.471 7.014 4.645 8.372c2.174 1.357 5.035.696 6.392-1.477 1.358-2.174.698-5.034-1.477-6.394-2.174-1.356-9.56-.501-9.56-.501M41.874 348.716s2.299 7.073 4.438 8.483 5.017.818 6.427-1.321c1.41-2.139.819-5.015-1.32-6.425-2.139-1.411-9.545-.737-9.545-.737M54.095 341.816s4.694 5.769 4.717 8.332c.024 2.562-2.034 4.657-4.597 4.682-2.562.023-4.657-2.032-4.681-4.596-.024-2.563 4.561-8.418 4.561-8.418"/><ellipse cx="55.052" cy="366.74" rx="13.178" ry="13.479"/></g><path fill="#FFF8ED" d="M83.804 580.153h5.347v5.348h-5.347z"/><path fill="#EAE7DE" d="M88.926 580.153h5.348v5.348h-5.348z"/><path fill="#FFF8ED" d="M94.048 580.153h5.347v5.348h-5.347z"/><path fill="#EAE7DE" d="M99.169 580.153h5.348v5.348h-5.348z"/><path fill="#FFF8ED" d="M104.292 580.153h5.347v5.348h-5.347z"/><path fill="#EAE7DE" d="M109.413 580.153h5.347v5.348h-5.347z"/><path fill="#FFF8ED" d="M114.535 580.153h5.348v5.348h-5.348z"/><path fill="#EAE7DE" d="M119.657 580.153h5.347v5.348h-5.347z"/><path fill="#FFF8ED" d="M124.778 580.153h5.348v5.348h-5.348z"/><path fill="#EAE7DE" d="M129.9 580.153h5.347v5.348h-5.347z"/><path fill="#FFF8ED" d="M135.022 580.153h5.348v5.348h-5.348z"/><path fill="#EAE7DE" d="M140.143 580.153h5.348v5.348h-5.348z"/><path fill="#FFF8ED" d="M145.265 580.153h5.348v5.348h-5.348z"/><path fill="#EAE7DE" d="M150.387 580.153h5.347v5.348h-5.347z"/><path fill="#FFF8ED" d="M155.509 580.153h5.348v5.348h-5.348z"/><path fill="#EAE7DE" d="M160.63 580.153h5.348v5.348h-5.348z"/><path fill="#FFF8ED" d="M165.752 580.153h5.348v5.348h-5.348z"/><path fill="#EAE7DE" d="M170.874 580.153h5.348v5.348h-5.348z"/><path fill="#FFF8ED" d="M175.997 580.153h5.347v5.348h-5.347z"/><path fill="#EAE7DE" d="M181.118 580.153h5.348v5.348h-5.348z"/><path fill="#FFF8ED" d="M186.24 580.153h5.348v5.348h-5.348z"/><path fill="#EAE7DE" d="M191.361 580.153h5.348v5.348h-5.348z"/><path fill="#FFF8ED" d="M196.483 580.153h5.348v5.348h-5.348z"/><path fill="#EAE7DE" d="M201.605 580.153h5.348v5.348h-5.348z"/><path fill="#FFF8ED" d="M206.727 580.153h5.348v5.348h-5.348z"/><path fill="#EAE7DE" d="M211.848 580.153h5.349v5.348h-5.349z"/><path fill="#FFF8ED" d="M216.97 580.153h5.348v5.348h-5.348z"/><path fill="#EAE7DE" d="M222.092 580.153h5.348v5.348h-5.348z"/><path fill="#FFF8ED" d="M227.214 580.153h5.347v5.348h-5.347z"/><path fill="#EAE7DE" d="M232.335 580.153h5.349v5.348h-5.349z"/><path fill="#FFF8ED" d="M237.458 580.153h5.348v5.348h-5.348z"/><path fill="#EAE7DE" d="M242.579 580.153h5.349v5.348h-5.349z"/><path fill="#FFF8ED" d="M88.926 585.275h5.348v5.347h-5.348z"/><path fill="#EAE7DE" d="M94.048 585.275h5.347v5.347h-5.347z"/><path fill="#FFF8ED" d="M99.169 585.275h5.348v5.347h-5.348z"/><path fill="#EAE7DE" d="M104.292 585.275h5.347v5.347h-5.347z"/><path fill="#FFF8ED" d="M109.413 585.275h5.347v5.347h-5.347z"/><path fill="#EAE7DE" d="M114.535 585.275h5.348v5.347h-5.348z"/><path fill="#FFF8ED" d="M119.657 585.275h5.347v5.347h-5.347z"/><path fill="#EAE7DE" d="M124.778 585.275h5.348v5.347h-5.348z"/><path fill="#FFF8ED" d="M129.9 585.275h5.347v5.347h-5.347z"/><path fill="#EAE7DE" d="M135.022 585.275h5.348v5.347h-5.348z"/><path fill="#FFF8ED" d="M140.143 585.275h5.348v5.347h-5.348z"/><path fill="#EAE7DE" d="M145.265 585.275h5.348v5.347h-5.348z"/><path fill="#FFF8ED" d="M150.387 585.275h5.347v5.347h-5.347z"/><path fill="#EAE7DE" d="M155.509 585.275h5.348v5.347h-5.348z"/><path fill="#FFF8ED" d="M160.63 585.275h5.348v5.347h-5.348z"/><path fill="#EAE7DE" d="M165.752 585.275h5.348v5.347h-5.348z"/><path fill="#FFF8ED" d="M170.874 585.275h5.348v5.347h-5.348z"/><path fill="#EAE7DE" d="M175.997 585.275h5.347v5.347h-5.347z"/><path fill="#FFF8ED" d="M181.118 585.275h5.348v5.347h-5.348z"/><path fill="#EAE7DE" d="M186.24 585.275h5.348v5.347h-5.348z"/><path fill="#FFF8ED" d="M191.361 585.275h5.348v5.347h-5.348z"/><path fill="#EAE7DE" d="M196.483 585.275h5.348v5.347h-5.348z"/><path fill="#FFF8ED" d="M201.605 585.275h5.348v5.347h-5.348z"/><path fill="#EAE7DE" d="M206.727 585.275h5.348v5.347h-5.348z"/><path fill="#FFF8ED" d="M211.848 585.275h5.349v5.347h-5.349z"/><path fill="#EAE7DE" d="M216.97 585.275h5.348v5.347h-5.348z"/><path fill="#FFF8ED" d="M222.092 585.275h5.348v5.347h-5.348z"/><path fill="#EAE7DE" d="M227.214 585.275h5.347v5.347h-5.347z"/><path fill="#FFF8ED" d="M232.335 585.275h5.349v5.347h-5.349z"/><path fill="#EAE7DE" d="M237.458 585.275h5.348v5.347h-5.348z"/><path fill="#FFF8ED" d="M242.579 585.275h5.349v5.347h-5.349z"/><path fill="#EAE7DE" d="M83.804 585.275h5.347v5.347h-5.347z"/><path fill="#DBD1C1" d="M3.719 590.622h340.005v75.943h-340.005z"/><path fill="#B77552" d="M183.664 582.773h64.329l-1.244-2.633h-64.163zM186.895 590.668h64.831l-1.244-2.631h-64.595v.171z"/><path fill="#9FABAD" d="M285.175 642.276l34.73 11.268-.079.244-34.73-11.268zM285.289 642.341l21.467 29.523-.208.151-21.467-29.523zM306.487 612.775l.208.151-21.387 29.581-.208-.151zM285.16 642.347l.078.244-34.772 11.128-.078-.244zM285.109 642.373l.207.151-21.543 29.467-.207-.151zM285.283 642.392l.031 36.512h-.256l-.031-36.512zM285.282 605.916l.031 36.511h-.256l-.031-36.511zM319.855 630.931l.079.243-34.721 11.294-.079-.243zM250.478 631.018l34.716 11.279-.079.243-34.716-11.279z"/><path fill="#102F35" d="M155.993 600.022c-23.122 0-41.865 18.744-41.865 41.864 0 23.123 18.743 41.866 41.865 41.866 23.122 0 41.864-18.743 41.864-41.866 0-23.12-18.742-41.864-41.864-41.864zm0 80.462c-21.317 0-38.598-17.28-38.598-38.598 0-21.315 17.281-38.597 38.598-38.597 21.316 0 38.597 17.281 38.597 38.597-.001 21.318-17.281 38.598-38.597 38.598z"/><path fill="#9FABAD" d="M156.303 642.345l21.467 29.523-.207.151-21.467-29.523zM177.548 612.806l.207.15-21.452 29.534-.207-.15zM156.144 642.257l.079.244-34.734 11.253-.079-.244zM156.094 642.323l.208.151-21.51 29.489-.208-.151zM156.303 642.392l.032 36.512h-.256l-.032-36.512zM190.88 630.937l.079.243-34.719 11.293-.079-.243zM134.835 612.786l21.461 29.537-.207.15-21.461-29.537zM121.49 631.015l34.717 11.279-.079.243-34.717-11.279zM155.993 604.819c-20.472 0-37.068 16.596-37.068 37.067 0 20.473 16.597 37.068 37.068 37.068s37.067-16.596 37.067-37.068c0-20.471-16.596-37.067-37.067-37.067zm0 72.99c-19.84 0-35.922-16.083-35.922-35.923 0-19.838 16.082-35.921 35.922-35.921 19.839 0 35.922 16.083 35.922 35.921 0 19.84-16.083 35.923-35.922 35.923z"/><path fill="#F4F6F6" d="M155.993 678.809c-20.36 0-36.923-16.563-36.923-36.923 0-20.358 16.563-36.923 36.923-36.923 20.359 0 36.922 16.564 36.922 36.923 0 20.36-16.563 36.923-36.922 36.923zm0-73.55c-20.197 0-36.628 16.432-36.628 36.627 0 20.198 16.431 36.629 36.628 36.629 20.196 0 36.628-16.431 36.628-36.629 0-20.195-16.432-36.627-36.628-36.627z"/><path fill="#102F35" d="M156.176 642.391v36.512M156.176 642.391l34.73-11.267"/><path fill="#B77552" d="M285.41 637.276c-2.789 0-5.051 2.26-5.051 5.051 0 2.787 2.262 5.05 5.051 5.05s5.051-2.263 5.051-5.05c-.001-2.791-2.262-5.051-5.051-5.051zm0 8.699c-2.016 0-3.65-1.635-3.65-3.648 0-2.018 1.635-3.652 3.65-3.652s3.65 1.635 3.65 3.652c0 2.013-1.635 3.648-3.65 3.648z"/><path fill="#F49A6C" d="M285.41 637.276c-2.789 0-5.051 2.26-5.051 5.051 0 2.787 2.262 5.05 5.051 5.05s5.051-2.263 5.051-5.05c-.001-2.791-2.262-5.051-5.051-5.051zm0 9.35c-2.375 0-4.301-1.926-4.301-4.3 0-2.376 1.926-4.303 4.301-4.303 2.376 0 4.302 1.927 4.302 4.303-.001 2.375-1.926 4.3-4.302 4.3z"/><path fill="#102F35" d="M285.156 642.391l-21.466-29.522"/><path fill="#F49A6C" d="M210.471 659.908c6.783 0 12.282-5.498 12.282-12.282 0-6.783-5.499-12.281-12.282-12.281h-54.518c-3.972 0-7.191 3.219-7.191 7.191 0 3.971 3.217 6.866 7.191 7.189l54.518 10.183z"/><path fill="#DE8E64" d="M148.762 642.536c0 3.971 3.217 6.866 7.191 7.189l54.518 10.183c6.783 0 12.282-5.498 12.282-12.282l-73.991-5.09z"/><path fill="#EDBDA1" d="M213.942 628.914l-1.577 6.576c.403.062.8.144 1.189.245l1.636-6.821h-1.248z"/><path fill="#B18D7A" d="M213.942 628.914l-1.577 6.576 2.825-6.576z"/><path fill="#F8C5A7" d="M218.332 627.785c0 .624-.505 1.129-1.127 1.129h-5.276c-.623 0-1.127-.505-1.127-1.129v-.764c0-.623.504-1.127 1.127-1.127h5.276c.622 0 1.127.504 1.127 1.127v.764z"/><path fill="#B18D7A" d="M217.205 625.894h-5.276c-.623 0-1.127.504-1.127 1.127v.376c0-.622.504-1.127 1.127-1.127h5.276c.622 0 1.127.505 1.127 1.127v-.376c0-.623-.505-1.127-1.127-1.127z"/><path fill="#B77552" d="M205.175 635.344l-24.579-60.068c-.834.315-1.696.535-2.601.598l24.336 59.471h2.844z"/><path fill="#F49A6C" d="M179.888 577.22l23.783 58.124h1.504l-23.952-58.535z"/><path fill="#B77552" d="M205.175 635.344l-3.061-7.722.218 7.722z"/><path fill="#F49A6C" d="M247.282 581.269l-.533-1.129h-64.163l.462 1.129zM251.014 589.166l-.532-1.129h-64.595v.171l.393.958z"/><circle fill="#F8C5A7" cx="156.43" cy="642.327" r="1.901"/><circle stroke="#F8C5A7" stroke-miterlimit="10" cx="156.431" cy="642.327" r="3.251" fill="none"/><circle stroke="#F8C5A7" stroke-miterlimit="10" cx="156.431" cy="642.327" r="3.251" fill="none"/><path fill="#DE8E64" d="M149.076 640.434h-28.974c-.02.482-.031.967-.031 1.452h28.726c.043-.499.137-.985.279-1.452z"/><path fill="#F49A6C" d="M217.864 637.819l37.673-39.09-1.202-2.545-38.796 40.255c.828.375 1.607.837 2.325 1.38z"/><path fill="#B77552" d="M217.455 637.524l2.571-5.803-4.501 4.712c.68.306 1.324.671 1.93 1.091zM254.914 597.41l-38.178 39.652c.388.23.762.48 1.119.75l37.664-39.124-.605-1.278z"/><path fill="#102F35" d="M190.991 570.935c2.116.146 3.328-2.565.341-2.926-6.282-.761-13.896 1.169-25.083-2.097-.893-.26-1.796.761-1.683 1.683.244 1.974 2.603 1.416 3.196 2.131 11.088 13.397 16.12.717 23.229 1.209zM252.667 569.136h-20.322v3.014h20.322c1.337.01 2.438 1.148 2.438 2.487 0 1.143-.788 2.1-1.849 2.362l1.024 2.897c2.251-.69 3.888-2.782 3.888-5.26-.001-3.037-2.463-5.5-5.501-5.5z"/><path fill="#9FABAD" d="M252.667 569.136h-20.322v.427h20.322c2.799 0 5.501 2.276 5.501 5.074-.001-3.038-2.463-5.501-5.501-5.501z"/><path fill="#DE8E64" d="M115.878 624.731l32.921 17.084c.045-.462.138-.909.267-1.342l-32.65-16.942c-.185.397-.365.796-.538 1.2zM112.34 641.886h36.379c.057-.499.177-.985.356-1.452h-36.708c-.016.483-.027.967-.027 1.452z"/><path fill="#B77552" d="M149.076 640.434l-.974.727-1.955-.727-1.615 1.452h4.264c.044-.499.138-.985.28-1.452z"/><path stroke="#F8C5A7" stroke-miterlimit="10" d="M198.189 647.625c0-3.555 1.512-6.755 3.925-8.997h-41.938c.967 1.025 1.563 2.396 1.563 3.907 0 1.818-.861 3.437-2.201 4.49l40.5 7.08c-1.171-1.881-1.849-4.101-1.849-6.48zM161.646 646.312c.749-1.104 1.159-2.411 1.159-3.776 0-.991-.219-1.958-.633-2.841h37.567c-1.683 2.28-2.617 5.067-2.617 7.931 0 1.747.341 3.465.997 5.062l-36.473-6.376z" fill="none"/><path fill="#F8C5A7" d="M216.734 648.496c.48-3.461-1.936-6.653-5.394-7.133-3.459-.48-6.652 1.935-7.132 5.394-.48 3.46 1.935 6.651 5.393 7.132 3.46.479 6.652-1.935 7.133-5.393zm-.849-.119c-.415 2.991-3.176 5.079-6.165 4.663-2.99-.415-5.079-3.176-4.665-6.167.416-2.991 3.177-5.079 6.167-4.664 2.99.416 5.079 3.177 4.663 6.168zM219.934 648.94c.725-5.229-2.924-10.053-8.151-10.778-5.226-.725-10.05 2.924-10.775 8.15-.726 5.228 2.925 10.052 8.15 10.777 5.226.725 10.051-2.924 10.776-8.149zm-.884-.124c-.656 4.739-5.032 8.047-9.77 7.389-4.739-.657-8.048-5.03-7.39-9.769.657-4.74 5.032-8.048 9.77-7.391 4.74.659 8.048 5.032 7.39 9.771z"/><path fill="#EDBDA1" d="M205.016 647.34c-.155 2.954 2.069 5.508 5.035 5.736 2.992.23 5.606-1.995 5.864-4.981l.854.06c-.291 3.461-3.318 6.042-6.785 5.774-3.434-.265-6.009-3.227-5.822-6.647l.854.058zM201.827 647.119c-.276 4.703 3.263 8.78 7.979 9.144 4.762.367 8.92-3.188 9.3-7.945l.89.062c-.414 5.252-5.004 9.178-10.258 8.772-5.205-.4-9.111-4.901-8.801-10.094l.89.061z"/><path fill="#F49A6C" d="M155.993 591.624h-22.656v1.756h22.656v-.001c5.45 0 10.664 1.004 15.474 2.829l.737-1.597c-5.036-1.928-10.499-2.987-16.211-2.987z"/><path fill="#B77552" d="M156.131 592.228l-22.795.001v1.15h22.656v-.001c5.45 0 10.664 1.004 15.474 2.829l.523-1.132c-4.938-1.837-10.279-2.847-15.858-2.847z"/><path fill="#EDBDA1" d="M210.448 649.547l-3.583 14.939h.606l3.549-14.801z"/><path fill="#F8C5A7" d="M210.272 666.377c0 .623-.506 1.128-1.129 1.128h-5.274c-.624 0-1.129-.505-1.129-1.128v-.763c0-.623.505-1.129 1.129-1.129h5.274c.623 0 1.129.506 1.129 1.129v.763z"/><path fill="#B18D7A" d="M203.869 664.863h5.274c.623 0 1.129.506 1.129 1.128v-.376c0-.623-.506-1.129-1.129-1.129h-5.274c-.624 0-1.129.506-1.129 1.129v.376c0-.622.505-1.128 1.129-1.128z"/><path fill="#B77552" d="M149.066 640.473l-32.65-16.942-.259.563-.278.637.638.33.282-.635 32.114 16.667c.042-.21.093-.417.153-.62zM149.076 640.434h-36.708l-.017.683h-.001v.77h.679v-.726h35.691c.056-.251.176-.494.356-.727z"/><path fill="#A86C4D" d="M189.51 611.302c-8.297-9.088-20.241-14.79-33.518-14.79-25.06 0-45.375 20.315-45.375 45.374h1.755c0-24.09 19.529-43.62 43.62-43.62 12.692 0 24.118 5.422 32.09 14.074l1.428-1.038z"/><path fill="#DE8E64" d="M155.993 597.483c12.953 0 24.609 5.548 32.726 14.396l.792-.576c-8.297-9.088-20.241-14.79-33.518-14.79-25.06 0-45.375 20.315-45.375 45.374h.972c-.001-24.523 19.879-44.404 44.403-44.404z"/><path fill="#A86C4D" d="M152.463 597.873v-1.215l.815-.066v1.12z"/><path fill="#DE8E64" d="M153.278 593.379v42.473c.302-.314.422-.407.748-.57v-41.902h-.748z"/><path fill="#B77552" d="M153.278 632.107v3.745c.556-.22.808-.284 1.41-.397l-1.41-3.348zM154.688 635.461v-42.082h-.662v42.232c.217-.059.437-.11.662-.15zM153.278 593.379h.838v.838h-.838z"/><path fill="#A86C4D" d="M145.06 599.01l-.268-1.104.91-.221.173 1.17z"/><path fill="#DE8E64" d="M145.06 593.379l6.476 43.48c.542-.393.66-.484 1.258-.777l-6.376-42.703h-1.358z"/><path fill="#B77552" d="M151.536 636.86c.542-.393.66-.484 1.258-.777l-1.791-2.807.533 3.584zM152.793 636.083l-6.376-42.703h-.638l-.007-.05-.713.05.125.838h.714v-.005l6.293 42.192c.159-.097.331-.189.602-.322z"/><path fill="#DE8E64" d="M180.266 581.421l-24.945 53.954c.21-.018.42-.031.633-.031h2.231l23.419-50.652-1.338-3.271z"/><path fill="#B77552" d="M180.266 581.421l-.787 1.703.573 1.572-23.394 50.648h1.527l23.409-50.677z"/><path fill="#A86C4D" d="M170.231 598.791l-.389 1.015 1.632.565.451-.979z"/><path fill="#B77552" d="M155.954 635.344h2.231l-.888-4.25-1.977 4.281c.211-.017.421-.031.634-.031z"/><circle fill="#F8C5A7" cx="210.471" cy="647.625" r="2.571"/><path fill="#EDBDA1" d="M213.025 647.896c-.146 1.378-1.36 2.399-2.752 2.293-1.378-.106-2.414-1.279-2.369-2.647l5.121.354z"/><path fill="#B18D7A" d="M208.497 647.582l-.593-.04c-.038 1.161.706 2.182 1.776 2.528l-3.457 14.416h1.248l.523-2.186-.859 1.062 3.157-13.174.133-.55c-1-.238-1.756-1.055-1.928-2.056z"/><path fill="#102F35" d="M284.972 600.022c-23.122 0-41.865 18.744-41.865 41.864 0 23.123 18.743 41.866 41.865 41.866 23.121 0 41.864-18.743 41.864-41.866 0-23.12-18.743-41.864-41.864-41.864zm0 80.462c-21.317 0-38.598-17.28-38.598-38.598 0-21.315 17.28-38.597 38.598-38.597 21.315 0 38.597 17.281 38.597 38.597 0 21.318-17.281 38.598-38.597 38.598z"/><path fill="#9FABAD" d="M284.972 604.819c-20.472 0-37.067 16.596-37.067 37.067 0 20.473 16.596 37.068 37.067 37.068s37.066-16.596 37.066-37.068c.001-20.471-16.594-37.067-37.066-37.067zm0 72.99c-19.839 0-35.922-16.083-35.922-35.923 0-19.838 16.083-35.921 35.922-35.921 19.838 0 35.922 16.083 35.922 35.921 0 19.84-16.084 35.923-35.922 35.923z"/><path fill="#F4F6F6" d="M284.972 678.809c-20.359 0-36.923-16.563-36.923-36.923 0-20.358 16.563-36.923 36.923-36.923s36.924 16.564 36.924 36.923c0 20.36-16.564 36.923-36.924 36.923zm0-73.55c-20.198 0-36.628 16.432-36.628 36.627 0 20.198 16.43 36.629 36.628 36.629 20.196 0 36.627-16.431 36.627-36.629 0-20.195-16.431-36.627-36.627-36.627z"/><path fill="#DE8E64" d="M280.729 640.434h-39.383c-.016.483-.027.967-.027 1.452h39.062c.045-.509.163-.996.348-1.452z"/><path fill="#A86C4D" d="M330.367 641.855c0-25.06-20.315-45.375-45.376-45.375-13.276 0-25.221 5.701-33.518 14.791l.007.004c-7.38 8.07-11.883 18.815-11.883 30.611h1.756c0-24.09 19.528-43.62 43.619-43.62 12.691 0 24.118 5.422 32.088 14.074l.028-.02c7.153 7.77 11.522 18.141 11.522 29.534h1.757z"/><path fill="#DE8E64" d="M330.367 641.855c0-25.06-20.315-45.375-45.376-45.375-13.276 0-25.221 5.701-33.518 14.791l.007.004c-7.38 8.07-11.883 18.815-11.883 30.611h.972c0-24.522 19.88-44.403 44.403-44.403 12.952 0 24.608 5.548 32.725 14.396l.03-.021c7.244 7.901 11.667 18.432 11.667 29.997h.973z"/><path fill="#B77552" d="M280.729 640.434h-39.383l-.017.683h-.001v.77h.679v-.726h38.493c.058-.25.134-.493.229-.727z"/><path fill="#F49A6C" d="M263.543 612.805l21.863 29.673 1.311-.62-21.987-29.842-.402-.852-18.446-39.014h-1.561l18.812 39.786z"/><circle fill="#F49A6C" cx="285.41" cy="642.327" r="1.891"/><path fill="#B77552" d="M286.101 643.051c-1.044 0-1.891-.846-1.891-1.89l.03-.312-.03.027.004-.015-20.671-28.057-.41-.869-18.812-39.786h-1.351l19.381 40.989v.001l21.211 28.79h.001c-.026.128-.044.259-.044.396 0 1.042.847 1.889 1.891 1.889.938 0 1.711-.684 1.859-1.579-.323.257-.725.416-1.168.416z"/><path fill="#FFF8ED" d="M11.77 580.041h5.347v5.348h-5.347z"/><path fill="#EAE7DE" d="M16.891 580.041h5.348v5.348h-5.348z"/><path fill="#FFF8ED" d="M22.013 580.041h5.347v5.348h-5.347z"/><path fill="#EAE7DE" d="M27.135 580.041h5.348v5.348h-5.348z"/><path fill="#FFF8ED" d="M32.257 580.041h5.348v5.348h-5.348z"/><path fill="#EAE7DE" d="M37.378 580.041h5.348v5.348h-5.348z"/><path fill="#FFF8ED" d="M42.5 580.041h5.348v5.348h-5.348z"/><path fill="#EAE7DE" d="M47.622 580.041h5.348v5.348h-5.348z"/><path fill="#FFF8ED" d="M52.743 580.041h5.348v5.348h-5.348z"/><path fill="#EAE7DE" d="M57.866 580.041h5.346v5.348h-5.346z"/><path fill="#FFF8ED" d="M62.987 580.041h5.348v5.348h-5.348z"/><path fill="#EAE7DE" d="M68.108 580.041h5.348v5.348h-5.348z"/><path fill="#FFF8ED" d="M73.23 580.041h5.348v5.348h-5.348z"/><path fill="#EAE7DE" d="M78.353 580.041h5.347v5.348h-5.347z"/><path fill="#FFF8ED" d="M16.891 585.163h5.348v5.347h-5.348z"/><path fill="#EAE7DE" d="M22.013 585.163h5.347v5.347h-5.347z"/><path fill="#FFF8ED" d="M27.135 585.163h5.348v5.347h-5.348z"/><path fill="#EAE7DE" d="M32.257 585.163h5.348v5.347h-5.348z"/><path fill="#FFF8ED" d="M37.378 585.163h5.348v5.347h-5.348z"/><path fill="#EAE7DE" d="M42.5 585.163h5.348v5.347h-5.348z"/><path fill="#FFF8ED" d="M47.622 585.163h5.348v5.347h-5.348z"/><path fill="#EAE7DE" d="M52.743 585.163h5.348v5.347h-5.348z"/><path fill="#FFF8ED" d="M57.866 585.163h5.346v5.347h-5.346z"/><path fill="#EAE7DE" d="M62.987 585.163h5.348v5.347h-5.348z"/><path fill="#FFF8ED" d="M68.108 585.163h5.348v5.347h-5.348z"/><path fill="#EAE7DE" d="M73.23 585.163h5.348v5.347h-5.348z"/><path fill="#FFF8ED" d="M78.353 585.163h5.347v5.347h-5.347z"/><path fill="#EAE7DE" d="M11.77 585.163h5.347v5.347h-5.347z"/><path fill="#FFF8ED" d="M1.3 579.928h5.347v5.348h-5.347z"/><path fill="#EAE7DE" d="M6.422 579.928h5.348v5.348h-5.348z"/><path fill="#FFF8ED" d="M6.422 585.05h5.348v5.347h-5.348z"/><path fill="#EAE7DE" d="M1.3 585.05h5.347v5.347h-5.347z"/></svg>