<svg xmlns="http://www.w3.org/2000/svg" xmlns:xlink="http://www.w3.org/1999/xlink" width="342.09" height="507.744" viewBox="667.91 135.377 342.09 507.744" enable-background="new 667.91 135.377 342.09 507.744"><g opacity=".1"><defs><path id="a" d="M667.91 151.377h342.09v491.744h-342.09z"/></defs><clipPath id="b"><use xlink:href="#a" overflow="visible"/></clipPath><path clip-path="url(#b)" fill="#65594F" d="M667.91 151.377h342.09v491.744h-342.09z"/></g><path fill="#E6C697" d="M698.312 572.413l6.583 29.235h23.98l6.583-29.235z"/><path fill="#F3D09E" d="M695.148 560.379h43.473v12.034h-43.473z"/><path fill="#D9BB8F" d="M734.302 577.546l1.155-5.133h-37.145l1.155 5.133z"/><path fill="#6D5F3B" d="M715.751 521.833h1.134v38.546h-1.134z"/><path opacity=".3" fill="#96CDD8" enable-background="new" d="M887.493 165.896h84.748v186.506h-84.748zM796.33 165.896h84.748v186.506h-84.748zM705.166 165.896h84.748v186.506h-84.748zM887.493 359.455h84.748v119.772h-84.748zM796.33 359.455h84.748v119.772h-84.748zM705.166 359.455h84.748v119.772h-84.748z"/><path fill="#E6E1D8" d="M687.871 149.323v207.641h302.169v-207.641h-302.169zm102.043 203.079h-84.748v-186.506h84.748v186.506zm91.164 0h-84.748v-186.506h84.748v186.506zm91.163 0h-84.748v-186.506h84.748v186.506z"/><g opacity=".1"><defs><path id="c" d="M705.167 165.896h84.748v2.27h-84.748z"/></defs><clipPath id="d"><use xlink:href="#c" overflow="visible"/></clipPath><path clip-path="url(#d)" d="M705.166 165.896h84.748v2.27h-84.748z"/></g><g opacity=".1"><defs><path id="e" d="M787.645 168.166h2.27v174.903h-2.27z"/></defs><clipPath id="f"><use xlink:href="#e" overflow="visible"/></clipPath><path clip-path="url(#f)" d="M787.645 168.166h2.27v174.903h-2.27z"/></g><g opacity=".1"><defs><path id="g" d="M878.807 168.166h2.271v174.903h-2.271z"/></defs><clipPath id="h"><use xlink:href="#g" overflow="visible"/></clipPath><path clip-path="url(#h)" d="M878.807 168.166h2.271v174.903h-2.271z"/></g><g opacity=".1"><defs><path id="i" d="M969.971 168.166h2.271v174.903h-2.271z"/></defs><clipPath id="j"><use xlink:href="#i" overflow="visible"/></clipPath><path clip-path="url(#j)" d="M969.971 168.166h2.271v174.903h-2.271z"/></g><g opacity=".1"><defs><path id="k" d="M796.33 165.896h84.748v2.27h-84.748z"/></defs><clipPath id="l"><use xlink:href="#k" overflow="visible"/></clipPath><path clip-path="url(#l)" d="M796.33 165.896h84.748v2.27h-84.748z"/></g><g opacity=".1"><defs><path id="m" d="M887.493 165.896h84.748v2.27h-84.748z"/></defs><clipPath id="n"><use xlink:href="#m" overflow="visible"/></clipPath><path clip-path="url(#n)" d="M887.493 165.896h84.748v2.27h-84.748z"/></g><g opacity=".05"><defs><path id="o" d="M687.87 149.323h302.17v193.943h-302.17z"/></defs><clipPath id="p"><use xlink:href="#o" overflow="visible"/></clipPath><path clip-path="url(#p)" d="M990.039 343.269h-302.168l302.168-193.946z"/></g><path fill="#FFF8ED" d="M687.87 601.648l-13.905 13.906v-480.137l13.905 13.905z"/><path fill="#F0EBE2" d="M687.87 601.648l-3.495 3.496.001-459.315 3.494 3.493z"/><path fill="#FFF8ED" d="M990.039 601.648l13.906 13.906v-480.177l-13.906 13.945z"/><path fill="#F0EBE2" d="M990.039 601.648l3.494 3.496v-459.355l-3.494 3.533zM687.662 601.649l-13.696 13.905h329.978l-13.905-13.906z"/><path fill="#DAD5CE" d="M687.662 601.649l-3.287 3.495h309.158l-3.494-3.496z"/><path fill="#F0EBE2" d="M687.662 149.282l-13.696-13.904h329.978l-13.905 13.905z"/><path fill="#DAD5CE" d="M687.662 149.282l-3.287-3.494h309.158l-3.494 3.495z"/><path fill="#FFF8ED" d="M687.871 343.121v152.675h302.169v-152.675h-302.169zm102.043 136.108h-84.748v-119.774h84.748v119.774zm91.164 0h-84.748v-119.774h84.748v119.774zm91.163 0h-84.748v-119.774h84.748v119.774z"/><g opacity=".1"><defs><path id="q" d="M705.167 359.675h84.748v2.271h-84.748z"/></defs><clipPath id="r"><use xlink:href="#q" overflow="visible"/></clipPath><path clip-path="url(#r)" d="M705.166 359.675h84.748v2.271h-84.748z"/></g><g opacity=".1"><defs><path id="s" d="M787.645 361.945h2.27v117.282h-2.27z"/></defs><clipPath id="t"><use xlink:href="#s" overflow="visible"/></clipPath><path clip-path="url(#t)" d="M787.645 361.945h2.27v117.282h-2.27z"/></g><g opacity=".1"><defs><path id="u" d="M878.807 361.945h2.271v117.282h-2.271z"/></defs><clipPath id="v"><use xlink:href="#u" overflow="visible"/></clipPath><path clip-path="url(#v)" d="M878.807 361.945h2.271v117.282h-2.271z"/></g><g opacity=".1"><defs><path id="w" d="M969.971 361.945h2.271v117.282h-2.271z"/></defs><clipPath id="x"><use xlink:href="#w" overflow="visible"/></clipPath><path clip-path="url(#x)" d="M969.971 361.945h2.271v117.282h-2.271z"/></g><path fill="#E6E1D8" d="M687.871 493.525h302.169v2.271h-302.169z"/><g opacity=".1"><defs><path id="y" d="M796.33 359.675h84.748v2.271h-84.748z"/></defs><clipPath id="z"><use xlink:href="#y" overflow="visible"/></clipPath><path clip-path="url(#z)" d="M796.33 359.675h84.748v2.271h-84.748z"/></g><g opacity=".1"><defs><path id="A" d="M887.493 359.675h84.748v2.271h-84.748z"/></defs><clipPath id="B"><use xlink:href="#A" overflow="visible"/></clipPath><path clip-path="url(#B)" d="M887.493 359.675h84.748v2.271h-84.748z"/></g><g fill="#78A67D"><path d="M729.083 548.9s-7.333 1.237-9.575-.006c-2.241-1.243-3.049-4.066-1.806-6.308s4.065-3.05 6.307-1.806c2.241 1.244 5.074 8.12 5.074 8.12M736.152 541.392s-6.87 2.85-9.333 2.141c-2.462-.71-3.884-3.28-3.173-5.742.709-2.463 3.278-3.883 5.741-3.174 2.465.708 6.765 6.775 6.765 6.775M740.656 531.917s-5.812 4.64-8.375 4.64c-2.563 0-4.639-2.076-4.639-4.64s2.075-4.639 4.639-4.639c2.563 0 8.375 4.639 8.375 4.639M735.115 519.992s-2.471 7.014-4.646 8.372c-2.174 1.356-5.034.695-6.392-1.478-1.358-2.174-.698-5.033 1.477-6.394 2.175-1.355 9.561-.5 9.561-.5M729.324 513.612s-2.299 7.072-4.438 8.482c-2.139 1.41-5.017.818-6.427-1.32-1.41-2.14-.819-5.016 1.32-6.426 2.139-1.41 9.545-.736 9.545-.736M703.692 548.9s7.333 1.237 9.575-.006c2.24-1.243 3.049-4.066 1.806-6.308s-4.066-3.05-6.308-1.806c-2.24 1.244-5.073 8.12-5.073 8.12M696.623 541.392s6.87 2.85 9.333 2.141c2.462-.71 3.883-3.28 3.173-5.742-.709-2.463-3.279-3.883-5.742-3.174l-6.764 6.775M692.119 531.917s5.812 4.64 8.375 4.64c2.562 0 4.639-2.076 4.639-4.64s-2.076-4.639-4.639-4.639-8.375 4.639-8.375 4.639M697.66 519.992s2.471 7.014 4.645 8.372c2.174 1.356 5.035.695 6.393-1.478 1.357-2.174.697-5.033-1.478-6.394-2.173-1.355-9.56-.5-9.56-.5M703.452 513.612s2.299 7.072 4.438 8.482c2.14 1.41 5.018.818 6.428-1.32 1.409-2.14.818-5.016-1.32-6.426-2.141-1.41-9.546-.736-9.546-.736M715.672 506.712s4.694 5.77 4.717 8.332c.024 2.562-2.033 4.657-4.597 4.682-2.562.023-4.657-2.031-4.681-4.596-.024-2.563 4.561-8.418 4.561-8.418"/><ellipse cx="716.63" cy="531.636" rx="13.178" ry="13.479"/></g><path opacity=".3" fill="#96CDD8" enable-background="new" d="M687.525 495.796h302.514v105.854h-302.514z"/></svg>