<svg viewBox="0 0 121 20" style="background-color:#ffffff00" xmlns="http://www.w3.org/2000/svg" width="121" height="20"><path d="M73.445 13.061c1.897 0 3.317-.612 3.301-2.163-.032-3.095-7.776-1.691-7.777-7.187-.001-3.241 2.972-4.076 5.732-4.079 1.127-.002 2.235.181 3.12.442.428.126.623.244.623.728l-.001 2.564h-2.105v-.761c0-.689-.974-.801-1.543-.803-1.231-.004-3.104.165-3.122 1.858-.03 2.953 7.777 1.695 7.777 7.195 0 3.021-2.263 4.376-6.161 4.376-1.292 0-2.715-.268-3.932-.727-.352-.132-.518-.281-.518-.654v-3.239h2.317v1.576c0 .697 1.624.874 2.288.874zm17.732.095c-1.074 1.313-3.138 1.898-4.73 1.898-8.376 0-7.86-11.148-.846-11.136 2.031.003 3.866 1.195 3.866 3.477 0 2.896-3.505 4.34-6.154 3.745.534 1.042 1.647 1.758 3.532 1.749 1.908 0 3.508-1.014 4.332-2.512v-4.117c0-.27-.235-.541-.545-.541h-.269v-1.623h1.895c.836 0 1.48.612 1.602 1.363.932-.941 2.082-1.363 3.394-1.363 1.577 0 2.578 1.043 2.579 2.603v5.491c0 .54.449.864.864.864.215 0 .413-.041.589-.113v-1.866h2.046l.001 1.409c0 .574 1.235.631 1.621.627.961-.008 2.168-.243 2.168-1.213 0-2.207-5.725-1.57-5.765-4.845-.032-2.731 2.672-3.136 4.499-3.136 1.328 0 2.689.189 3.041.347.189.085.321.27.321.493v2.07h-1.797v-.269c0-.67-.922-.691-1.395-.691-.688 0-1.966.052-1.966 1 0 1.68 5.803 1.027 5.763 4.94-.025 2.566-2.705 3.245-4.804 3.245-1.084 0-2.277-.127-3.298-.512l-.078-.031c-.526.339-1.151.536-1.817.536-1.47 0-2.697-1.002-2.698-2.533l-.002-5.17c-.001-1.795-3.246-1.255-3.246 1.034v6.541h-2.165c-.301 0-.54-.239-.54-.541v-1.222zm29.672.556l-.65-1.916c-.844.684-1.932 1.094-3.145 1.094-1.886.009-2.999-.707-3.532-1.749 2.648.595 6.154-.849 6.154-3.745 0-2.283-1.835-3.474-3.866-3.478-7.014-.012-7.53 11.136.846 11.136 1.553 0 3.005-.495 4.194-1.342zm-3.77-6.359c-.038 1.449-1.762 2.024-2.977 2.025-.327.001-.683-.055-.967-.133-.026-2.153 1.407-3.111 2.553-3.114.771-.001 1.412.43 1.392 1.221zm-30.207 0c.02-.792-.621-1.223-1.392-1.221-1.146.002-2.58.961-2.553 3.114.284.078.641.133.967.133 1.215-.002 2.939-.576 2.978-2.025zm-70.564 7.565h-2.038c-1.01 0-1.376-.43-1.462-1.461l-.495-7.342-.021-2.096-3.418 10.9h-2.017l-3.418-10.9-.021 2.096-.495 7.342c-.086 1.032-.452 1.461-1.462 1.461h-2.038v-1.626h.317c.301 0 .452-.172.473-.473l1.045-13.05h3.061l3.224 9.776.321 1.238.32-1.238 3.225-9.776h3.061l1.045 13.05c.022.301.172.473.473.473h.317v1.626zm45.503-8.799l-.034 4.482c-.008 1.036-1.007 2.243-2.066 2.243-1.297 0-1.829-1.165-1.844-2.585-.02-1.918 1.09-4.183 3.312-4.188.206-.001.417.016.632.048zm-27.327 5.084l.002 1.308c.003 1.532 1.224 2.535 2.699 2.535.864 0 1.805-.376 2.375-.982.122-.129.228-.257.322-.382.483.9 1.397 1.334 2.397 1.334.99 0 1.932-.435 2.563-1.196v.526c0 .302.24.541.541.541h2.164v-6.541c0-2.288 3.246-2.829 3.246-1.034l.001 5.17c0 1.53 1.232 2.533 2.699 2.533 1.099 0 2.053-.506 2.699-1.368.612.816 1.517 1.36 2.747 1.36 1.5 0 2.608-.946 2.912-1.696v1.157c0 1.993-1.266 2.902-2.698 2.927-.7.012-1.441-.161-2.094-.491l-.62 1.83c3.726 2.019 8.075.067 8.075-4.642v-9.316c0-.325-.249-.476-.374-.516-.866-.28-1.712-.363-2.571-.366-4.288-.013-6.358 3.35-6.372 6.378-.003.741.114 1.494.36 2.176-.266.34-.68.574-1.195.574-.416 0-.864-.325-.864-.864v-5.491c0-1.559-1.001-2.603-2.579-2.603-1.312 0-2.461.421-3.393 1.362-.122-.751-.766-1.362-1.602-1.362h-1.895v1.623h.269c.309 0 .544.27.544.541v5.162c0 .826-.643 1.632-1.632 1.632-.445 0-.926-.348-.926-.925v-7.485c0-.301-.24-.541-.541-.541h-2.979v1.624h.27c.309 0 .545.271.545.541l.001 5.289c0 .772-.6 1.525-1.525 1.525-.416 0-.865-.325-.865-.865v-1.628c-.001-1.122-.759-2.067-1.793-2.35.767-.568 1.335-1.334 1.335-2.481v-1.083c0-.302-.24-.542-.541-.542h-2.898v1.593h.269c.31 0 .546.271.546.542 0 1.183-.834 1.901-1.814 2.377l-1.049.51v-8.818c0-.302-.24-.541-.54-.541h-2.979v1.623h.269c.309 0 .545.271.545.542v9.59c0 .771-.6 1.524-1.524 1.524-.416 0-.864-.325-.864-.864v-4.689c0-2.972-2.347-3.587-4.827-3.59-.747-.001-2.628.06-3.271.347-.19.085-.321.269-.321.493v2.07h1.797v-.269c0-.246.17-.445.375-.516.271-.094.998-.175 1.605-.175 1.346.001 1.948.607 1.942 1.635l-.002.537h-.385c-2.025 0-6.343.415-6.343 3.686 0 2.135 1.738 3.329 3.643 3.329 2.122 0 3.008-1.464 3.189-1.811.349 1.177 1.398 1.811 2.593 1.811.861 0 1.804-.367 2.394-1.003v.883h2.165c.3 0 .54-.239.54-.541v-2.318c0-1.095 1.035-1.939 2.154-1.939.598 0 1.082.485 1.083 1.083zm-15.081.381c0-1.486 2.198-1.675 3.58-1.675h.468v.251c0 1.298-1.013 2.806-2.436 2.806-1.089 0-1.612-.67-1.612-1.382zm21.357-12.057c.921 0 1.667.747 1.667 1.667s-.746 1.667-1.667 1.667c-.92 0-1.666-.747-1.666-1.667s.746-1.667 1.666-1.667z" fill="#ffffff"/></svg>