<?xml version="1.0" encoding="utf-8"?>
<!-- Generator: Adobe Illustrator 16.0.0, SVG Export Plug-In . SVG Version: 6.00 Build 0)  -->
<!DOCTYPE svg PUBLIC "-//W3C//DTD SVG 1.1//EN" "http://www.w3.org/Graphics/SVG/1.1/DTD/svg11.dtd">
<svg version="1.1" id="Layer_1" xmlns="http://www.w3.org/2000/svg" xmlns:xlink="http://www.w3.org/1999/xlink" x="0px" y="0px"
	 width="458.147px" height="403.07px" viewBox="0 0 458.147 403.07" enable-background="new 0 0 458.147 403.07"
	 xml:space="preserve">
<g>
	<circle fill-rule="evenodd" clip-rule="evenodd" fill="#F39A6B" cx="160.001" cy="158.07" r="4"/>
	<polygon fill-rule="evenodd" clip-rule="evenodd" fill="#F39A6B" points="160.001,152.07 158.001,155.07 158.001,163.07 
		162.001,166.07 169.001,162.07 167.001,158.07 	"/>
	<g>
		<path opacity="0.1" fill-rule="evenodd" clip-rule="evenodd" fill="#64584E" d="M226.917,78.205l8.884-1.245l-9.97-73.97
			L82.901,24.01l9.98,72.97l10.709-1.5l60.411,15.59l-1-5l-52.2-11.6l48.9-6.85l26.3,133.45h10l-23.399-111.349L226.917,78.205z
			 M219.677,79.218l-47.937,25.631l0.051,1.018l-4.071-19.371L219.677,79.218z"/>
		<rect x="98.711" y="16.09" fill-rule="evenodd" clip-rule="evenodd" fill="none" width="119.53" height="88.58"/>
		
			<text transform="matrix(1 0 0 1 98.7107 63.6895)" opacity="0.1" fill="#64584E" font-family="'MyriadPro-Regular'" font-size="50">404!</text>
	</g>
	<g>
		<polygon fill-rule="evenodd" clip-rule="evenodd" fill="#F8CA9E" points="183.001,218.07 156.001,81.07 164.001,80.07 
			193.001,218.07 		"/>
		<polygon fill-rule="evenodd" clip-rule="evenodd" fill="#C1A183" points="99.001,92.07 106.001,91.07 160.001,103.07 
			161.001,108.07 		"/>
		<polygon fill-rule="evenodd" clip-rule="evenodd" fill="#C1A183" points="224.01,75.15 217.031,76.03 168.741,101.85 
			169.001,107.07 		"/>
		<polygon fill-rule="evenodd" clip-rule="evenodd" fill="#FFF8ED" points="79.901,21.01 222.831,0 232.801,73.96 89.881,93.98 		
			"/>
		<polygon opacity="0.2" fill-rule="evenodd" clip-rule="evenodd" fill="#DED9D0" points="80.001,21.07 223.001,0.07 90.001,94.07 
					"/>
		<g>
			<path fill="#F39A6B" d="M125.149,68.01l-1.147-6.804l-15.729,2.652l-0.931-5.522l9.6-22.764l9.664-1.629l3.358,19.92l4.24-0.715
				l1.039,6.164l-4.24,0.715l1.147,6.804L125.149,68.01z M120.652,41.335l-6.564,15.203l8.875-1.496L120.652,41.335z"/>
			<path fill="#F39A6B" d="M136.529,49.206c-1.43-8.481,1.332-17.668,10.75-19.256c9.418-1.587,15.039,6.187,16.468,14.668
				s-1.323,17.717-10.741,19.305C143.589,65.51,137.959,57.687,136.529,49.206z M156.597,45.822
				c-1.022-6.065-3.538-10.458-8.271-9.66c-4.684,0.79-5.669,5.773-4.647,11.838c1.022,6.065,3.596,10.499,8.28,9.709
				S157.62,51.887,156.597,45.822z"/>
			<path fill="#F39A6B" d="M185.151,57.895l-1.147-6.805l-15.729,2.652l-0.931-5.522l9.6-22.764l9.664-1.629l3.358,19.92l4.24-0.715
				l1.039,6.164l-4.24,0.715l1.147,6.804L185.151,57.895z M180.654,31.22l-6.564,15.203l8.875-1.497L180.654,31.22z"/>
			<path fill="#F39A6B" d="M199.408,51.941c-0.366-2.169,1.102-4.293,3.271-4.659c2.169-0.366,4.301,1.151,4.667,3.32
				c0.357,2.12-1.159,4.252-3.329,4.618C201.848,55.586,199.766,54.062,199.408,51.941z M199.361,44.444l-4.768-21.964l7.544-1.272
				l2.747,22.306L199.361,44.444z"/>
		</g>
	</g>
	<path opacity="0.1" fill="#64584E" d="M450.201,304.48h-78.66h-7.79h-78.67c-12.38,0-8.91,95.33,0.99,95.33h77.38h8.38h77.38
		C459.121,399.81,462.581,304.48,450.201,304.48z"/>
	<g>
		<defs>
			<path id="SVGID_1_" d="M445.721,304.48h-78.67h-7.79h-78.66c-12.38,0-8.92,95.33,0.99,95.33h77.38h8.38h77.38
				C454.631,399.81,458.101,304.48,445.721,304.48z"/>
		</defs>
		<clipPath id="SVGID_2_">
			<use xlink:href="#SVGID_1_"  overflow="visible"/>
		</clipPath>
		<g clip-path="url(#SVGID_2_)">
			<rect x="295.811" y="302.68" fill="#FFF8ED" width="33.04" height="33.01"/>
			<rect x="262.771" y="302.68" fill="#4FA5CE" width="33.04" height="33.01"/>
			<rect x="361.891" y="302.68" fill="#FFF8ED" width="33.04" height="33.01"/>
			<rect x="328.851" y="302.68" fill="#4FA5CE" width="33.04" height="33.01"/>
			<rect x="427.961" y="302.68" fill="#FFF8ED" width="33.04" height="33.01"/>
			<rect x="394.931" y="302.68" fill="#4FA5CE" width="33.03" height="33.01"/>
			<rect x="295.811" y="368.69" fill="#FFF8ED" width="33.04" height="33.01"/>
			<rect x="262.771" y="368.69" fill="#4FA5CE" width="33.04" height="33.01"/>
			<rect x="361.891" y="368.69" fill="#FFF8ED" width="33.04" height="33.01"/>
			<rect x="328.851" y="368.69" fill="#4FA5CE" width="33.04" height="33.01"/>
			<rect x="427.961" y="368.69" fill="#FFF8ED" width="33.04" height="33.01"/>
			<rect x="394.931" y="368.69" fill="#4FA5CE" width="33.03" height="33.01"/>
			<rect x="394.931" y="335.69" fill="#FFF8ED" width="33.03" height="33"/>
			<rect x="427.961" y="335.69" fill="#4FA5CE" width="33.04" height="33"/>
			<rect x="328.851" y="335.69" fill="#FFF8ED" width="33.04" height="33"/>
			<rect x="361.891" y="335.69" fill="#4FA5CE" width="33.04" height="33"/>
			<rect x="262.771" y="335.69" fill="#FFF8ED" width="33.04" height="33"/>
			<rect x="295.811" y="335.69" fill="#4FA5CE" width="33.04" height="33"/>
		</g>
	</g>
	<polygon opacity="0.1" fill="#63584E" points="404.621,399.81 320.441,399.81 320.441,351.16 404.621,353.47 	"/>
	<path fill-rule="evenodd" clip-rule="evenodd" fill="#91C895" d="M362.531,384.6c-16.45,0-29.79-13.33-29.79-29.77
		c0-16.43,13.34-29.76,29.79-29.76c16.45,0,29.79,13.33,29.79,29.76C392.321,371.27,378.981,384.6,362.531,384.6z M362.531,312.78
		c-23.25,0-42.09,18.83-42.09,42.05c0,23.23,18.84,42.06,42.09,42.06c23.24,0,42.09-18.83,42.09-42.06
		C404.621,331.61,385.771,312.78,362.531,312.78z"/>
	<path fill-rule="evenodd" clip-rule="evenodd" fill="#89BD8E" d="M362.531,394.9c-22.15,0-40.11-17.93-40.11-40.07
		c0-22.13,17.96-40.07,40.11-40.07c22.15,0,40.11,17.94,40.11,40.07C402.641,376.97,384.681,394.9,362.531,394.9z M362.531,312.78
		c-23.25,0-42.09,18.83-42.09,42.05c0,23.23,18.84,42.06,42.09,42.06c23.24,0,42.09-18.83,42.09-42.06
		C404.621,331.61,385.771,312.78,362.531,312.78z"/>
	<path fill="#FFF8ED" d="M362.531,384.6c-16.45,0-29.79-13.33-29.79-29.77c0-16.43,13.34-29.76,29.79-29.76
		c16.45,0,29.79,13.33,29.79,29.76C392.321,371.27,378.981,384.6,362.531,384.6z"/>
	<path fill="#89BD8E" d="M382.461,374.97c-5.12,5.06-12.16,8.19-19.93,8.19s-14.81-3.13-19.94-8.19c-5.67-5.1-9.36-12.35-9.8-20.46
		l-0.01,0.32c0,16.42,13.31,29.73,29.75,29.73c16.43,0,29.75-13.31,29.75-29.73l-0.01-0.32
		C391.831,362.62,388.131,369.87,382.461,374.97z"/>
	<g>
		<g>
			<path opacity="0.1" fill="#64584E" d="M288.151,204.44h-77.39h-8.37h-77.39c-9.9,0,6.44,64.32,18.82,64.32h58.57h8.37h58.56
				C281.711,268.76,298.051,204.44,288.151,204.44z"/>
			<path opacity="0.1" fill="#64584E" d="M145.481,288.02c-40.12,8.8-52.39,56.99-49.43,93.89c0.76,9.43,9.46,21.16,18.93,21.16
				s14.96-3.97,17.15-13.17c0,0,2.19-9.14,4.13-25.3c1.4-11.63,17.53-32.62,33.17-34.88h0.01
				C161.731,319.28,153.811,305.48,145.481,288.02z"/>
			<path opacity="0.1" fill="#64584E" d="M268.161,288.02c40.12,8.8,52.39,56.99,49.43,93.89c-0.76,9.43-9.46,21.16-18.93,21.16
				c-9.47,0-14.96-3.97-17.14-13.17c0,0-2.2-9.14-4.14-25.3c-1.4-11.63-17.53-32.62-33.17-34.88h-0.01
				C251.911,319.28,259.841,305.48,268.161,288.02z"/>
			<path opacity="0.1" fill="#64584E" d="M178.721,355.04c-14.72,0-20.56,5.84-21.14,13.28c-0.03-0.41-0.04-0.82-0.04-1.24
				c0-8.02,5.65-14.52,21.18-14.52c15.52,0,28.11,14.52,28.11,14.52s-0.41,0.47-1.16,1.24
				C202.211,364.81,191.461,355.04,178.721,355.04z"/>
			<path opacity="0.1" fill="#64584E" d="M228.801,161.17c0,12.21-9.91,22.1-22.12,22.1c-12.22,0-22.12-9.89-22.12-22.1
				s9.9-22.1,22.12-22.1C218.891,139.07,228.801,148.96,228.801,161.17z"/>
			<path opacity="0.1" fill="#64584E" d="M181.361,204.44h21.03h8.37h21.18c-0.53-5.67-3.44-13.66-7.72-20.04
				c-0.17-0.22-0.35-0.42-0.53-0.63l0.06-0.04c-1.35-1.63-2.92-3.06-4.67-4.25l-0.03,0.02l-0.03-0.02
				c-3.53,2.39-7.78,3.79-12.37,3.79c-4.59,0-8.84-1.4-12.37-3.79l-0.03,0.02l-0.03-0.02c-1.75,1.19-3.32,2.62-4.66,4.25l0.05,0.04
				c-0.18,0.21-0.36,0.41-0.52,0.63C184.801,190.78,181.891,198.77,181.361,204.44z"/>
			
				<path opacity="0.1" fill="#64584E" stroke="#F39A6B" stroke-width="2" stroke-linecap="round" stroke-linejoin="round" stroke-miterlimit="10" d="
				M196.071,172.5c1.63-4.27,5.76-5.32,10.61-5.32c4.85,0,8.98,1.05,10.6,5.32"/>
			
				<line opacity="0.1" fill="#64584E" stroke="#F39A6B" stroke-width="2" stroke-linecap="round" stroke-linejoin="round" stroke-miterlimit="10" x1="197.001" y1="157.07" x2="202.001" y2="156.07"/>
			
				<line opacity="0.1" fill="#64584E" stroke="#F39A6B" stroke-width="2" stroke-linecap="round" stroke-linejoin="round" stroke-miterlimit="10" x1="211.001" y1="156.07" x2="217.001" y2="157.07"/>
			<path opacity="0.1" fill="#64584E" d="M140.551,267.39c1.1,0.88,2.2,1.37,3.27,1.37h58.57h8.37h58.56c1.07,0,2.17-0.49,3.28-1.37
				H140.551z"/>
		</g>
		<polygon opacity="0.1" fill-rule="evenodd" clip-rule="evenodd" fill="#64584E" points="184.001,196.07 164.001,168.07 
			173.001,164.07 193.001,185.07 		"/>
		<polygon opacity="0.1" fill-rule="evenodd" clip-rule="evenodd" fill="#64584E" points="172.001,163.07 163.001,156.07 
			197.001,134.07 200.001,138.07 		"/>
		<path opacity="0.1" fill-rule="evenodd" clip-rule="evenodd" fill="#64584E" d="M198.881,135.07c0,3.38,6.87,2.5,6.87,2.5
			s4.37,1,4.63-2c0.24-3-3.78-2.02-7.38-2.5C201.121,132.82,198.881,131.69,198.881,135.07z"/>
	</g>
	<g>
		<g>
			<path fill="#89BD8E" d="M195.161,373.32c0,4.29,3.48,7.78,7.79,7.78c4.3,0,7.78-3.49,7.78-7.78c0-0.1-0.01-0.2-0.01-0.3h0.01
				v-31.03h-15.57v31.03h0.01C195.171,373.12,195.161,373.22,195.161,373.32z"/>
			<path fill="#BDDEBF" d="M190.301,370.76c0,6.97,5.66,12.63,12.65,12.63c6.98,0,12.64-5.66,12.64-12.63
				c0-0.17-0.02-0.32-0.03-0.48h0.03v-5.84h-25.28v5.84h0.02C190.321,370.44,190.301,370.59,190.301,370.76z"/>
			<path fill="#1B94CE" d="M284.151,201.44h-77.39h-8.37h-77.39c-9.9,0,6.44,64.32,18.82,64.32h58.57h8.37h58.56
				C277.711,265.76,294.051,201.44,284.151,201.44z"/>
			<path fill="#1B94CE" d="M284.151,201.44h-77.39h-8.37h-77.39c-9.9,0,6.44,64.32,18.82,64.32h58.57h8.37h58.56
				C277.711,265.76,294.051,201.44,284.151,201.44z"/>
			<path fill="#1B8DC4" d="M266.451,265.59c12.21-3.63,27.3-64.15,17.7-64.15h-77.39h-8.37h-77.39c-1.06,0-1.82,0.75-2.32,2.08
				L266.451,265.59z"/>
			<path fill="#4FA5CE" d="M266.431,265.8v-0.04h-60.15h-67.08v0.04c-3.89,0.34-6.94,3.6-6.94,7.57c0,3.97,3.05,7.23,6.94,7.57v0.12
				h67.08h60.15v-0.12c3.89-0.34,6.94-3.6,6.94-7.57C273.371,269.4,270.321,266.14,266.431,265.8z"/>
			<path fill="#1B94CE" d="M132.26,273.41c0.03,3.96,3.07,7.19,6.94,7.53v0.12h67.08h60.15v-0.12c3.88-0.34,6.91-3.57,6.94-7.53
				H132.26z"/>
			<path fill="#1B94CE" d="M141.481,285.02c-40.12,8.8-52.39,56.99-49.43,93.89c0.76,9.43,9.46,21.16,18.93,21.16
				s14.96-3.97,17.15-13.17c0,0,2.19-9.14,4.13-25.3c1.4-11.63,17.53-32.62,33.17-34.88h0.01
				C157.731,316.28,149.811,302.48,141.481,285.02z"/>
			<path fill="#146F9A" d="M141.501,285.06c-38.71,10.03-11.15,92.42-9.24,76.54c1.4-11.63,17.53-32.62,33.17-34.88h0.01
				C157.731,316.29,149.821,302.5,141.501,285.06z"/>
			<path fill="#1B94CE" d="M264.161,285.02c40.12,8.8,52.39,56.99,49.43,93.89c-0.76,9.43-9.46,21.16-18.93,21.16
				c-9.47,0-14.96-3.97-17.14-13.17c0,0-2.2-9.14-4.14-25.3c-1.4-11.63-17.53-32.62-33.17-34.88h-0.01
				C247.911,316.28,255.841,302.48,264.161,285.02z"/>
			<path fill="#146F9A" d="M264.141,285.06c38.72,10.03,11.15,92.42,9.24,76.54c-1.4-11.63-17.53-32.62-33.17-34.88h-0.01
				C247.911,316.29,255.831,302.5,264.141,285.06z"/>
			<path fill="#1B94CE" d="M202.831,364.08c0,0-12.59,14.52-28.11,14.52c-15.53,0-21.18-6.5-21.18-14.52
				c0-8.02,5.65-14.52,21.18-14.52C190.241,349.56,202.831,364.08,202.831,364.08z"/>
			<path fill="#1B94CE" d="M203.061,364.08c0,0,12.58-14.52,28.11-14.52c15.53,0,21.18,6.5,21.18,14.52
				c0,8.02-5.65,14.52-21.18,14.52C215.641,378.6,203.061,364.08,203.061,364.08z"/>
			<path fill="#146F9A" d="M231.171,376.12c14.72,0,20.56-5.84,21.14-13.28c0.03,0.41,0.04,0.82,0.04,1.24
				c0,8.02-5.65,14.52-21.18,14.52c-15.53,0-28.11-14.52-28.11-14.52s0.41-0.47,1.16-1.24
				C207.681,366.35,218.431,376.12,231.171,376.12z"/>
			<path fill="#146F9A" d="M174.721,352.04c-14.72,0-20.56,5.84-21.14,13.28c-0.03-0.41-0.04-0.82-0.04-1.24
				c0-8.02,5.65-14.52,21.18-14.52c15.52,0,28.11,14.52,28.11,14.52s-0.41,0.47-1.16,1.24
				C198.211,361.81,187.461,352.04,174.721,352.04z"/>
			<path fill="#1B94CE" d="M266.461,280.67c-22.97,49.43-42.81,71.37-63.51,71.37c-20.71,0-40.55-21.94-63.52-71.37H266.461z"/>
			<path fill="#146F9A" d="M139.431,280.67h127.03c-1.71,3.68-3.41,7.21-5.08,10.59L139.431,280.67z"/>
			<path fill="#FAD6C3" d="M224.801,158.17c0,12.21-9.91,22.1-22.12,22.1c-12.22,0-22.12-9.89-22.12-22.1s9.9-22.1,22.12-22.1
				C214.891,136.07,224.801,145.96,224.801,158.17z"/>
			<path fill="#F39A6B" d="M177.361,201.44h21.03h8.37h21.18c-0.53-5.67-3.44-13.66-7.72-20.04c-0.17-0.22-0.35-0.42-0.53-0.63
				l0.06-0.04c-1.35-1.63-2.92-3.06-4.67-4.25l-0.03,0.02l-0.03-0.02c-3.53,2.39-7.78,3.79-12.37,3.79c-4.59,0-8.84-1.4-12.37-3.79
				l-0.03,0.02l-0.03-0.02c-1.75,1.19-3.32,2.62-4.66,4.25l0.05,0.04c-0.18,0.21-0.36,0.41-0.52,0.63
				C180.801,187.78,177.891,195.77,177.361,201.44z"/>
			<path fill="none" stroke="#F39A6B" stroke-width="2" stroke-linecap="round" stroke-linejoin="round" stroke-miterlimit="10" d="
				M192.071,169.5c1.63-4.27,5.76-5.32,10.61-5.32c4.85,0,8.98,1.05,10.6,5.32"/>
			
				<line fill="none" stroke="#F39A6B" stroke-width="2" stroke-linecap="round" stroke-linejoin="round" stroke-miterlimit="10" x1="193.001" y1="154.07" x2="198.001" y2="153.07"/>
			
				<line fill="none" stroke="#F39A6B" stroke-width="2" stroke-linecap="round" stroke-linejoin="round" stroke-miterlimit="10" x1="207.001" y1="153.07" x2="213.001" y2="154.07"/>
			<path fill="#146F9A" d="M136.551,264.39c1.1,0.88,2.2,1.37,3.27,1.37h58.57h8.37h58.56c1.07,0,2.17-0.49,3.28-1.37H136.551z"/>
			<path fill="#146F9A" d="M286.531,203.73c-0.5-1.45-1.27-2.29-2.38-2.29h-77.39h-8.37h-77.39c-1.11,0-1.89,0.84-2.38,2.29H286.531
				z"/>
		</g>
		<polygon fill-rule="evenodd" clip-rule="evenodd" fill="#F39A6B" points="180.001,193.07 160.001,165.07 169.001,161.07 
			189.001,182.07 		"/>
		<polygon fill-rule="evenodd" clip-rule="evenodd" fill="#F39A6B" points="168.001,160.07 159.001,153.07 193.001,131.07 
			196.001,135.07 		"/>
		<path fill-rule="evenodd" clip-rule="evenodd" fill="#FAD6C3" d="M194.881,132.07c0,3.38,6.87,2.5,6.87,2.5s4.37,1,4.63-2
			c0.24-3-3.78-2.02-7.38-2.5C197.121,129.82,194.881,128.69,194.881,132.07z"/>
	</g>
	<g>
		<path opacity="0.1" fill="#64584E" d="M268.369,288.127c0.63-1.333,1.265-2.685,1.908-4.067h0.153v-0.12
			c3.89-0.34,6.94-3.6,6.94-7.57c0-3.97-3.05-7.23-6.94-7.57v-0.04h-60.15h-67.08v0.04c-3.89,0.34-6.94,3.6-6.94,7.57
			c0,3.97,3.05,7.23,6.94,7.57v0.12h0.414c0.631,1.354,1.259,2.688,1.885,4c-1.752,0.454-3.365,1.061-4.854,1.796
			c-14.237-23.663-27.019-34.193-40.584-37.057v-11.11h-0.02c0.01-0.1,0.02-0.21,0.02-0.31c0-4.59-3.73-8.31-8.32-8.31
			c-4.59,0-8.31,3.72-8.31,8.31c0,0.1,0.01,0.21,0.01,0.31h-0.01v11.11c-18.25,3.85-35.07,21.54-55.91,66.41v0.04
			c-4.15,0.37-7.41,3.85-7.41,8.08c0,4.25,3.26,7.72,7.41,8.09v0.04c-12.23,3.5-27.37,64.15-17.75,64.15h77.39h8.37h77.39
			c3.47,0,3.715-7.896,2.04-18.153c1.185,0.092,2.434,0.143,3.76,0.143c5.936,0,11.439-2.125,15.978-4.749
			c1.383,5.475,6.333,9.539,12.252,9.539c5.91,0,10.858-4.062,12.241-9.537c4.537,2.622,10.041,4.747,15.979,4.747
			c15.53,0,21.18-6.5,21.18-14.52c0-8.02-5.65-14.52-21.18-14.52c-8.058,0-15.315,3.908-20.44,7.67v-5.91
			c11.019-2.131,20.44-9.295,30.795-24.362c15.217,3.195,30.494,23.337,31.855,34.642
			C279.287,380.448,306.744,298.429,268.369,288.127z M162.08,318.839c0.131,0.208,0.261,0.411,0.391,0.618
			C162.341,319.25,162.211,319.048,162.08,318.839z M146.261,289.638c0.285,0.592,0.57,1.188,0.854,1.771
			C146.832,290.826,146.546,290.23,146.261,289.638z M148.092,293.392c0.233,0.472,0.466,0.945,0.698,1.411
			C148.557,294.337,148.324,293.864,148.092,293.392z M149.786,296.785c0.219,0.434,0.438,0.866,0.657,1.294
			C150.224,297.651,150.005,297.219,149.786,296.785z M151.464,300.064c0.2,0.385,0.398,0.764,0.597,1.145
			C151.862,300.829,151.663,300.449,151.464,300.064z M153.128,303.237c0.138,0.26,0.276,0.514,0.414,0.771
			C153.404,303.75,153.266,303.497,153.128,303.237z M157.322,310.853c0.167,0.292,0.334,0.588,0.5,0.877
			C157.656,311.44,157.489,311.145,157.322,310.853z M158.878,313.543c0.185,0.314,0.369,0.628,0.553,0.938
			C159.247,314.171,159.063,313.857,158.878,313.543z M160.477,316.229c0.177,0.292,0.353,0.58,0.529,0.868
			C160.83,316.809,160.654,316.521,160.477,316.229z M199.161,360.232c-5.126-3.762-12.386-7.672-20.44-7.672
			c-4.546,0-8.239,0.561-11.198,1.549c-3.491-9.084-7.626-16.428-11.534-18.313c0.212-0.156,0.423-0.314,0.637-0.466
			c2.064-0.354,3.864-1.479,5.083-3.075c2.542-1.269,5.139-2.162,7.723-2.536h0.01c-0.064-0.087-0.129-0.179-0.193-0.267
			c10.185,13.846,20.007,21.823,29.914,24.529V360.232z M166.217,325.173c0.137,0.201,0.274,0.404,0.411,0.603
			C166.491,325.578,166.354,325.374,166.217,325.173z M167.699,327.305c0.166,0.234,0.331,0.468,0.497,0.699
			C168.03,327.773,167.865,327.54,167.699,327.305z"/>
		<path fill="#BDDEBF" d="M93.331,241.38c0-4.59-3.72-8.31-8.31-8.31c-4.6,0-8.32,3.72-8.32,8.31c0,0.1,0.02,0.21,0.02,0.31h-0.02
			v12h16.63v-12h-0.01C93.321,241.59,93.331,241.48,93.331,241.38z"/>
		<path fill="#FFF8ED" d="M149.241,319.21c-23.97-51.59-42.61-67.26-64.22-67.26s-40.26,15.67-64.23,67.26H149.241z"/>
		<path fill="#1B94CE" d="M149.241,319.25v-0.04h-64.22h-64.23v0.04c-4.15,0.37-7.4,3.85-7.4,8.08c0,4.25,3.25,7.72,7.4,8.09v0.13
			h64.23h64.22v-0.13c4.15-0.37,7.41-3.84,7.41-8.09C156.651,323.1,153.391,319.62,149.241,319.25z"/>
		<path fill="#4FA5CE" d="M13.391,327.38c0.02,4.22,3.27,7.67,7.4,8.04v0.13h64.23h64.22v-0.13c4.14-0.37,7.38-3.82,7.4-8.04H13.391
			z"/>
		<path fill="#1B94CE" d="M166.191,399.61h-77.38h-8.38H3.051c-9.91,0,6.44-64.32,18.82-64.32h58.56h8.38h58.56
			C159.751,335.29,176.091,399.61,166.191,399.61z"/>
		<path fill="#146F9A" d="M18.591,336.66c1.11-0.88,2.21-1.37,3.28-1.37h58.56h8.38h58.56c1.07,0,2.17,0.49,3.28,1.37H18.591z"/>
		<path fill="#146F9A" d="M168.571,397.32c-0.49,1.46-1.26,2.29-2.38,2.29h-77.38h-8.38H3.051c-1.12,0-1.89-0.83-2.39-2.29H168.571z
			"/>
		<path fill="#1B8DC4" d="M150.651,336.65l-132.06,0.01c1.11-0.88,148.92,60.66,149.98,60.66h0.02
			C172.071,386.98,160.931,344.78,150.651,336.65z"/>
		<path fill="#E6E1D9" d="M20.791,319.21h128.45c-0.5-1.07-0.99-2.1-1.48-3.15C147.76,316.06,21.291,318.14,20.791,319.21z"/>
	</g>
</g>
</svg>
