<svg xmlns="http://www.w3.org/2000/svg" width="109.24" height="96.913" viewBox="0 0 109.24 96.913"><path fill="#E9CB9D" d="M91.761 65.923c0 1-3.586 2-3.586 0s3.586-2 3.586 0z"/><path fill="#D7BC92" d="M90.813 64.715c.63 1.512-1.321 2.46-2.525 1.889.434 1.036 1.842 1.299 2.738.728 1.055-.672.889-2.103-.213-2.617.069.164.561.262 0 0z"/><path fill="#E9CB9D" d="M99.402 67.923c.002 1-4.547 3-4.549 0 .001-2 4.549-2 4.549 0z"/><path fill="#D7BC92" d="M98.2 66.434c.803 1.927-1.675 3.112-3.202 2.399.543 1.297 2.293 1.638 3.431.949 1.37-.829 1.196-2.681-.229-3.348.088.211.712.333 0 0z"/><path fill="#E9CB9D" d="M99.811 80.923c.002 1-5.629 3-5.634 0 0-4 5.634-4 5.634 0z"/><path fill="#D7BC92" d="M98.321 78.329c.999 2.381-2.075 3.851-3.965 2.971.704 1.68 3.027 2.06 4.431 1.056 1.54-1.103 1.198-3.25-.466-4.027.11.261.883.412 0 0z"/><path fill="#E9CB9D" d="M81.811 75.923c.002 1-5.629 3-5.634 0 0-4 5.634-4 5.634 0z"/><path fill="#D7BC92" d="M80.321 73.329c.999 2.381-2.075 3.851-3.965 2.971.704 1.68 3.027 2.06 4.431 1.056 1.54-1.103 1.198-3.25-.466-4.027.11.261.883.412 0 0z"/><path fill="#E9CB9D" d="M81.811 94.923c.002 1-5.629 3-5.634 0 0-4 5.634-4 5.634 0z"/><path fill="#D7BC92" d="M80.321 92.329c.999 2.381-2.075 3.851-3.965 2.971.704 1.68 3.027 2.06 4.431 1.056 1.54-1.103 1.198-3.25-.466-4.027.11.261.883.412 0 0z"/><path fill="#E9CB9D" d="M81.811 57.923c.002 1-5.629 3-5.634 0 0-4 5.634-4 5.634 0z"/><path fill="#D7BC92" d="M80.321 55.329c.999 2.381-2.075 3.851-3.965 2.971.704 1.68 3.027 2.06 4.431 1.056 1.54-1.103 1.198-3.25-.466-4.027.11.261.883.412 0 0z"/><path fill="#E9CB9D" d="M71.173 44.923c.005 2-4.579 3-4.584 0 0-2 4.584-2 4.584 0z"/><path fill="#D7BC92" d="M69.962 43.616c.805 1.941-1.686 3.136-3.227 2.417.548 1.306 2.31 1.65 3.457.957 1.38-.835 1.205-2.704-.23-3.374.088.212.718.335 0 0z"/><path fill="#E9CB9D" d="M109.24 81.923c.002 0-2.622 1-2.624 0 0-2 2.624-2 2.624 0z"/><path fill="#D7BC92" d="M108.546 80.766c.47 1.111-.966 1.783-1.846 1.385.849 2.018 3.906-.424 1.846-1.385.051.12.41.191 0 0z"/><path fill="#E9CB9D" d="M19.24 55.923c.001 0-2.623 1-2.624 0 .001-2 2.624-2 2.624 0z"/><path fill="#D7BC92" d="M18.546 54.766c.474 1.11-.969 1.782-1.846 1.385.849 2.019 3.906-.425 1.846-1.385.051.12.411.191 0 0z"/><path fill="#E9CB9D" d="M29.24 51.923c.001 0-2.623 1-2.624 0 .001-2 2.624-2 2.624 0z"/><path fill="#D7BC92" d="M28.546 50.766c.474 1.11-.969 1.782-1.846 1.385.849 2.019 3.906-.425 1.846-1.385.051.12.411.191 0 0z"/><path fill="#E9CB9D" d="M43.24 51.923c.001 0-2.623 1-2.624 0 .001-2 2.624-2 2.624 0z"/><path fill="#D7BC92" d="M42.546 50.766c.474 1.11-.969 1.782-1.846 1.385.849 2.019 3.906-.425 1.846-1.385.051.12.411.191 0 0z"/><path fill="#E9CB9D" d="M102.021 75.923c.005 1-2.621 2-2.621 0-.001-1 2.621-1 2.621 0z"/><path fill="#D7BC92" d="M101.329 75.032c.468 1.107-.969 1.791-1.848 1.384.857 2.02 3.9-.427 1.848-1.384.051.12.41.192 0 0z"/><path fill="#E9CB9D" d="M105.825 68.923c0 1-2.623 2-2.623 0 0-1 2.623-1 2.623 0z"/><path fill="#D7BC92" d="M105.132 68.001c.462 1.102-.966 1.8-1.847 1.383.839 2.019 3.909-.416 1.847-1.383.051.121.41.192 0 0z"/><path fill="#E9CB9D" d="M95.621 57.923c0 1-2.623 1-2.623 0 0-2 2.623-2 2.623 0z"/><path fill="#D7BC92" d="M94.927 56.571c.458 1.102-.962 1.803-1.846 1.384.841 2.02 3.908-.416 1.846-1.384.051.122.41.193 0 0z"/><path fill="#E9CB9D" d="M5.772 8.587c0 3.289-5.772 3.292-5.772.003 0-3.28 5.772-3.282 5.772-.003z"/><path fill="#D7BC92" d="M4.245 6.396c1.027 2.428-2.134 3.963-4.064 3.044.721 1.724 3.104 2.112 4.542 1.082 1.579-1.132 1.228-3.327-.478-4.126.112.267.903.423 0 0z"/><path fill="#E9CB9D" d="M18.079 1.679c0 2.211-3.879 2.213-3.879.002 0-2.205 3.879-2.207 3.879-.002z"/><path fill="#D7BC92" d="M17.052.206c.688 1.633-1.433 2.665-2.731 2.046.491 1.175 2.129 1.426 3.091.699 1.026-.775.765-2.219-.36-2.745.076.18.608.284 0 0z"/><path fill="#E9CB9D" d="M42.079 37.679c0 2.211-3.879 2.213-3.879.002 0-2.205 3.879-2.207 3.879-.002z"/><path fill="#D7BC92" d="M41.052 36.206c.688 1.633-1.433 2.665-2.731 2.046.491 1.175 2.129 1.426 3.091.699 1.026-.775.765-2.219-.36-2.745.076.18.608.284 0 0z"/><path fill="#E9CB9D" d="M33.079 64.679c0 2.211-3.879 2.213-3.879.002 0-2.205 3.879-2.207 3.879-.002z"/><path fill="#D7BC92" d="M32.052 63.206c.688 1.633-1.433 2.665-2.731 2.046.491 1.175 2.129 1.426 3.091.699 1.026-.775.765-2.22-.36-2.745.076.18.608.284 0 0z"/><path fill="#E9CB9D" d="M20.771 20.258c0 3.662-6.425 3.665-6.425.003-.001-3.651 6.425-3.653 6.425-.003z"/><path fill="#D7BC92" d="M19.07 17.819c1.144 2.706-2.375 4.41-4.523 3.389.769 1.84 3.256 2.318 4.864 1.331 1.922-1.181 1.664-3.782-.341-4.72.125.297 1.006.471 0 0z"/><path fill="#E9CB9D" d="M102.771 36.258c0 3.662-6.426 3.665-6.426.003 0-3.651 6.426-3.654 6.426-.003z"/><path fill="#D7BC92" d="M101.069 33.819c1.148 2.708-2.377 4.406-4.523 3.389.769 1.84 3.257 2.318 4.864 1.331 1.924-1.181 1.665-3.782-.341-4.72.126.297 1.007.471 0 0z"/></svg>