<svg xmlns="http://www.w3.org/2000/svg" width="194.844" height="188.021" viewBox="0 0 194.844 188.021"><path fill="#F0E7D9" d="M7.441 94.321l93.7-93.7 93.7 93.7-93.7 93.7z"/><path fill="#FFF9EE" d="M0 93.702l93.7-93.7 93.7 93.7-93.7 93.7z"/><path stroke="#2DA1C5" stroke-miterlimit="10" fill="none" d="M98.042 183.061l-88.74-88.74 89.36-89.359"/><path stroke="#F48679" stroke-miterlimit="10" fill="none" d="M98.972 181.51l-87.189-87.189 88.119-88.119"/><path opacity=".1" fill="#64594F" d="M148.091 14.81c-3.129-.856-6.349-1.609-9.634-1.609h-.002c-.709 0-1.42-.212-2.135-.243l-.225-.062c-.737-.031-1.478-.079-2.223-.079-13.486 0-25.986 5.028-36.27 13.614-.759-.076-1.521-.154-2.287-.218l-.351-.033c-1.053-.086-2.109-.163-3.173-.219-2.105 1.986-4.125 4.131-6.046 6.43-6.46 7.74-11.43 16.773-14.748 26.602-.37.116-.737.235-1.102.358l-.006.003c-.6.203-1.191.416-1.777.638l-.393.15c-.577.224-1.147.453-1.708.692-2.652 8.897-4.035 18.351-4.035 28.046 0 9.871 1.435 19.491 4.183 28.528.561.237 1.13.465 1.705.686l.388.148c.585.218 1.174.43 1.773.63l.022.008c.366.122.736.24 1.107.356 3.316 9.647 8.234 18.516 14.591 26.132 2.05 2.457 4.212 4.733 6.469 6.831 1.055-.061 2.104-.14 3.148-.228l.382-.033c.772-.066 1.542-.142 2.308-.225 10.197 8.36 22.531 13.253 35.82 13.253.748 0 1.49-.02 2.23-.051l.203-.292c.719-.032 1.434-.422 2.147-.422h.002c3.286 0 6.507-.576 9.635-1.432-8.388-2.99-15.946-9.214-22.073-17.974 1.345-.527 2.669-1.011 3.969-1.589-5.672-7.896-10.083-17.965-12.749-29.296 1.305-.82 2.551-1.675 3.718-2.598-1.562-7.202-2.384-14.789-2.384-22.444 0-7.528.798-14.992 2.31-22.085-1.17-.923-2.422-1.789-3.729-2.608 2.62-11.328 6.984-21.442 12.608-29.378-1.301-.574-2.626-1.07-3.97-1.594 6.166-8.93 13.809-15.367 22.302-18.393z"/><path fill="#D7BC92" d="M104.925 88.001c0-36.165 16.196-66.434 37.904-74.172-4.571-1.252-9.33-1.914-14.218-1.914-35.076 0-63.51 34.063-63.511 76.086.001 42.021 28.435 76.087 63.511 76.088 4.887-.001 9.647-.665 14.218-1.917-21.707-7.735-37.903-38.005-37.904-74.171z"/><path fill="#ECD4AF" d="M74.323 88.001c0-40.151 25.961-73.037 58.871-75.885-1.515-.128-3.042-.201-4.583-.201-35.076 0-63.51 34.063-63.511 76.086.001 42.021 28.435 76.087 63.511 76.088 1.542-.001 3.069-.075 4.583-.203-32.91-2.848-58.871-35.734-58.871-75.885z"/><path fill="#DFC297" d="M124.724 142.399c-9.612-13.382-15.607-33.098-15.607-54.398 0-21.133 5.901-40.704 15.381-54.078-11.241-4.973-24.152-8.107-37.968-8.842-2.105 1.984-4.125 4.131-6.046 6.432-12.624 15.123-19.576 35.184-19.576 56.488 0 21.303 6.953 41.364 19.576 56.488 2.05 2.457 4.212 4.734 6.469 6.831 13.751-.781 26.593-3.94 37.771-8.921z"/><path fill="#F0DCC0" d="M87.61 144.487c-12.624-15.122-19.576-35.184-19.576-56.486 0-21.304 6.953-41.365 19.576-56.488 1.75-2.097 3.585-4.055 5.488-5.889-2.166-.24-4.354-.425-6.568-.543-2.105 1.984-4.125 4.131-6.046 6.432-12.624 15.123-19.576 35.184-19.576 56.488 0 21.303 6.953 41.364 19.576 56.488 2.05 2.457 4.212 4.734 6.469 6.831 2.206-.126 4.384-.317 6.539-.563-2.044-1.942-4.011-4.028-5.882-6.27z"/><path fill="#E9CB9D" d="M60.898 116.528c6.538 2.785 14.129 4.382 22.228 4.382 12.866 0 24.454-4.025 32.568-10.458-1.562-7.2-2.384-14.795-2.384-22.451 0-7.529.798-14.997 2.311-22.092-8.111-6.396-19.667-10.397-32.494-10.397-8.16 0-15.804 1.62-22.376 4.445-2.652 8.895-4.034 18.35-4.034 28.044-.001 9.871 1.433 19.491 4.181 28.527z"/><path fill="#F0DCC0" d="M64.261 87.968c0-10.584 2.078-20.92 4.458-30.694-2.792.702-5.459 1.604-7.97 2.684-2.652 8.895-4.034 18.35-4.034 28.044 0 9.871 1.434 19.491 4.183 28.527 2.505 1.067 5.167 1.959 7.95 2.652-2.463-9.928-4.587-20.441-4.587-31.213z"/><ellipse fill="#E9CB9D" cx="138.118" cy="56.366" rx="1.332" ry="1.156"/><path fill="#D7BC92" d="M138.746 55.354c.051.122.084.253.084.391 0 .639-.596 1.156-1.332 1.156-.229 0-.439-.055-.627-.144.186.443.672.764 1.247.764.735 0 1.332-.518 1.331-1.156 0-.439-.287-.816-.703-1.011z"/><ellipse fill="#E9CB9D" cx="143.438" cy="57.917" rx="1.689" ry="1.465"/><path fill="#D7BC92" d="M144.232 56.632c.066.156.107.321.107.497.001.81-.756 1.465-1.689 1.465-.289 0-.558-.069-.796-.18.236.562.853.968 1.583.968.934 0 1.689-.656 1.689-1.466.001-.559-.364-1.037-.894-1.284z"/><ellipse fill="#E9CB9D" cx="140.241" cy="62.258" rx=".974" ry=".845"/><path fill="#D7BC92" d="M140.699 61.517c.039.09.062.185.062.287 0 .467-.436.845-.975.845-.166 0-.321-.04-.459-.103.137.324.492.557.912.557.539 0 .976-.378.975-.845.001-.323-.209-.599-.515-.741z"/><ellipse fill="#E9CB9D" cx="144.582" cy="61.637" rx=".974" ry=".845"/><path fill="#D7BC92" d="M145.041 60.896c.038.089.062.186.062.286.001.468-.436.846-.974.846-.166 0-.322-.04-.459-.104.137.323.491.557.912.557.538 0 .975-.378.974-.845 0-.321-.21-.597-.515-.74z"/><ellipse fill="#E9CB9D" cx="148.924" cy="58.536" rx=".975" ry=".846"/><path fill="#D7BC92" d="M149.383 57.796c.037.09.061.186.061.287 0 .467-.436.844-.973.844-.168 0-.322-.038-.46-.104.136.326.491.559.913.559.538 0 .975-.379.975-.847-.001-.321-.211-.597-.516-.739z"/></svg>