<?xml version="1.0" encoding="utf-8"?>
<!-- Generator: Adobe Illustrator 17.1.0, SVG Export Plug-In . SVG Version: 6.00 Build 0)  -->
<!DOCTYPE svg PUBLIC "-//W3C//DTD SVG 1.1//EN" "http://www.w3.org/Graphics/SVG/1.1/DTD/svg11.dtd">
<svg version="1.1" id="Layer_1" xmlns="http://www.w3.org/2000/svg" xmlns:xlink="http://www.w3.org/1999/xlink" x="0px" y="0px"
	 viewBox="0 0 77.7 77.4" enable-background="new 0 0 77.7 77.4" xml:space="preserve">
<path opacity="0.1" fill="#64594F" enable-background="new    " d="M31.7,77.4l15-7.1l-7.5-0.6L31.7,77.4z M46.7,70.3l10.2,1.2
	l6.5-3.4l-23.7,1.6L46.7,70.3z M69.9,27.6l-8.8-4.3v0v0l-9-4.3l-6-1.5l1.6-6.7l-0.9-2.7L44.5,10l-4.7-4l-8,3L33,5L22.4,6.3L5,36
	l1.4,3.4l1.5,3.8h0l0,0l1.2,3.1l3.1,8.2l3.5,9h0l0,0l1.8,4.6v0.9l2.9,1.6l4.4-1.8l2.4-1l6.3-5.8L30.3,68l1.4,9.4l3.7-3.9l4.8-5.1
	l-1,1.3l19.4-1.3l0,0l0,0l4.8-0.3l3.4-13.2l-1.4,0.6l4.5-2.1l5.5-8.5l2.3-16.5C77.7,28.2,69.9,27.6,69.9,27.6z"/>
<path fill="#FFFFDB" d="M17.4,1.3L0,31l22.1-12.3L28,0L17.4,1.3z"/>
<path fill="#F2E99F" d="M1.4,34.4L0,31l22.1-12.3l-6.2,22.6l-3.5-8L1.4,34.4z"/>
<path fill="#E6CD81" d="M33.1,10.6L23.5,14l-1.5,4.7l-6.2,22.6l2.3,5.4l10.3,0.6v-1.2l2.7-9.4l-8.9-1.9l5.5-7.2L32,14l5.4-2.4
	L33.1,10.6z"/>
<path fill="#FFFFDB" d="M1.4,34.4l11,28.7V33.2L1.4,34.4z"/>
<path fill="#FFF5BD" d="M18.2,46.7l-5.8-13.4v30.7l2.9,1.6L18.2,46.7z"/>
<path fill="#F0F1CF" d="M28.6,56.9h17.8l9.1-4.2l-26.9-6.6L28.6,56.9z"/>
<path fill="#FFF5BD" d="M28.6,46.1v-4.7l2.7-4.8l17,6.4h13.1l9.1-3.4l-5.5,8.5l-9.5,4.5L28.6,46.1z"/>
<path fill="#F0F1CF" d="M26.7,72.4L25.3,63l3.3-6.1l1.8,11.6L26.7,72.4z M46.4,56.9H28.6l1.8,11.6l8.1-8.4L46.4,56.9z"/>
<path fill="#FFF5BD" d="M28.6,56.9l1.8,11.6l8.1-8.4L28.6,56.9z"/>
<path fill="#E6CD81" d="M47.1,18.5l-1.8,9.1l-14,9.1l17,6.4h13.1l9.1-3.4l-4.5-14.1L47.1,18.5z"/>
<path fill="#FFF5BD" d="M70.4,39.7l-4.5-14.1l-18.8-7.1l-1.8,9.1L70.4,39.7"/>
<path fill="#FFFFDB" d="M22.3,34.8l5.5-7.2l19.2-9.1l-1.8,9.1l-14,9.1L22.3,34.8z"/>
<path fill="#F2D96F" d="M26.7,72.4l15-7.1l-7.5-0.6L26.7,72.4z"/>
<path fill="#F0F1CF" d="M61.8,49.8L58.4,63l-24.2,1.6L38,60L61.8,49.8z"/>
<path fill="#FFFFDB" d="M41.7,65.3l10.2,1.2l6.5-3.4l-23.7,1.6L41.7,65.3z"/>
<path fill="#FFFFDB" d="M70.4,39.7l2.3-16.5l-6.8,2.4L70.4,39.7z"/>
<path fill="#F0F1CF" d="M27.9,27.6L32,14l5.4-2.4l9.6,2.4v4.5L27.9,27.6z"/>
<path fill="#F2E99F" d="M47.1,14v4.5l18.8,7.1l6.8-2.4l-7.8-0.6L47.1,14z"/>
<path fill="#F0F1CF" d="M15.3,65.6l6.9-2.9l6.3-9.6v-5.8l-10.3-0.6L15.3,65.6z"/>
<path fill="#F2D96F" d="M22.2,62.7l6.3-9.6v3.9L22.2,62.7z"/>
<path fill="#FFF5BD" d="M26.7,4l8-3l-1.6,9.6L23.5,14L26.7,4z"/>
<path fill="#F2E99F" d="M34.7,1l4.7,4l-6.4,5.7L34.7,1z"/>
<path fill="#FFF5BD" d="M39.5,4.9l2.3-1.8l0.9,2.7l-1.6,6.7l-3.6-0.9l-4.4-1L39.5,4.9z"/>
<g display="none">
	<path display="inline" fill="none" stroke="#D2CDC5" stroke-width="0.5" stroke-miterlimit="10" d="M22.3,0.7l-5.1,20.7 M12.4,9.7
		l-4.9,17 M12.4,33.2l2.2-10.4 M2.9,38.1l9.6-1.5L18,48.1 M4.1,41.3l8.4,2.7l4.8,9.1h11.3 M7.2,49.4l5.2,2.1l4,7l8,0.8 M10.7,58.4
		l1.1,1.6l4,2.7l4,1 M38.8,22l0.5,9.4 M29.6,26.7l0.8,9.7 M30.9,17.7l5.4,5.5 M36.3,12.5l6.4,8 M28.6,3.3l5,1.5 M24.6,10.6l3.9,1.6
		 M25.7,65.3l4-0.5 M30,65.6l2.7-4.5l6.8-4.1 M41.7,58.6v2.6l3.4,2.5 M48.5,55.7v3.6l5.1,4.1 M56.1,52.5v5.4l2.4,5.2 M31.1,56.9
		l3.7-3.9l3.1-13.9 M42.6,56.9l8.4-5.3l-0.8-4.4l1.7-4.2 M57.2,51.5l2.3-8.4 M64.5,41.9l4.2-7.4 M45.3,27.6l-7.4,11.4 M64.5,25.1
		l-5,7.6l-5,9.7 M56.1,18.3l1.2,4.5L51.1,30l-5.9,12l-1.6,4.2v3.7l-1.8,7.1 M47.1,14l2.4,4.7l-2.9,2.5"/>
</g>
</svg>
