<?xml version="1.0" encoding="utf-8"?>
<!-- Generator: Adobe Illustrator 17.1.0, SVG Export Plug-In . SVG Version: 6.00 Build 0)  -->
<!DOCTYPE svg PUBLIC "-//W3C//DTD SVG 1.1//EN" "http://www.w3.org/Graphics/SVG/1.1/DTD/svg11.dtd">
<svg version="1.1" xmlns="http://www.w3.org/2000/svg" xmlns:xlink="http://www.w3.org/1999/xlink" x="0px" y="0px"
	 viewBox="127.6 204.7 133.8 75.2" enable-background="new 127.6 204.7 133.8 75.2" xml:space="preserve">
<g id="Layer_1" display="none">
	<path display="inline" opacity="0.1" fill="#64594F" enable-background="new    " d="M388.4,79.2L94.1,12.1L0,417.9L295.5,485
		L388.4,79.2z"/>
	<path display="inline" fill="#BCBAB4" d="M385.8,78.5L97.2,11.6L88.8,0l289.8,67.2L385.8,78.5z"/>
	<path display="inline" fill="#D2CEC7" d="M385.8,78.5L97.1,11.7L17.7,349.9l289.8,67.2L385.8,78.5z"/>
	<path display="inline" fill="#E6E2D9" d="M381.9,81.9l-1.2-5.4L1.2,401.6l0.7,7.4l289.8,67.2L381.9,81.9z"/>
	<path display="inline" fill="#FFF9EE" d="M373.8,106.4L85.3,39.1L1.2,401.6L291,468.8L373.8,106.4z"/>
	<path display="inline" fill="#FFF5E6" d="M373.8,106.4L85.3,39.1L291,468.8L373.8,106.4z"/>
	<path display="inline" fill="#CEAA87" d="M373.8,106.4L85.3,39.1l6.9-29.9l288.6,67.2L373.8,106.4z"/>
	<path display="inline" fill="#806449" d="M85.3,39.1l288.6,67.2l-0.3,1.2L85,40.3L85.3,39.1z"/>
	<path display="inline" fill="none" stroke="#E7E1D7" stroke-miterlimit="10" d="M108.4,100.1l220.3,51.1 M105.6,112.3l220.3,51.1
		 M102.8,124.5L323,175.6 M99.9,136.7l220.3,51.1 M97.1,148.9L317.3,200 M94.3,161.1l220.3,51.1 M91.4,173.3l220.3,51.1 M88.6,185.5
		l220.3,51.1 M85.8,197.7L306,248.8 M82.9,209.9L303.2,261 M80.1,222.1l220.3,51.1 M77.3,234.3l220.3,51.1 M74.4,246.6l220.3,51.1
		 M71.6,258.8l220.3,51.1 M68.8,271L289,322.1 M65.9,283.2l220.3,51.1 M63.1,295.4l220.3,51.1 M60.3,307.6l220.3,51.1 M57.5,319.8
		l220.3,51.1 M54.6,332l220.3,51.1 M51.8,344.2L272,395.3 M49,356.4l220.3,51.1"/>
	<g display="inline">
		<path fill="#3C5052" d="M109.6,123.6c-0.2,0-0.2-0.3,0-0.3c0.4,0,0.8-0.3,1.2-0.5c0.8-0.5,1.4-1.2,1.9-2l0.2,0.2
			c-0.5,0.7-1,1.4-1.5,2.1c-0.3,0.6-0.6,1.3-0.9,1.9c0,0.1-0.4,1.2-0.6,0.8c-0.3-0.6,2.9-4.8,2.7-5l0.2,0.1
			C112,122,110.9,123.3,109.6,123.6z M115.3,119.5c0.3,0.4,0.1,1.5,0,2c-0.2,0.9-0.5,1.7-1,2.4c-0.5,0.8-1.1,1.4-1.8,2
			c-0.5,0.4-1.3,1.3-2,1.4c-0.4,0,0.1-0.4,0.2-0.4c0.4-0.3,0.9-0.4,1.3-0.7c0.7-0.5,1.4-1.1,1.9-1.9c0.6-0.8,1.1-1.8,1.3-2.8
			C115.4,121.2,115.6,119.8,115.3,119.5z M136,128.6c0.5-0.2,0.3,0.2,0,0.3c-0.5,0.2-1.1,0.5-1.6,0.7c-1.1,0.4-2.3,0.8-3.5,0.4
			c-1.4-0.4-2.5-0.9-4-1c-0.4,0-2.1,0.1-2.4-0.2c-0.2-0.3,0.4-0.7,0.6-0.9c0.7-0.9,1.3-1.8,1.8-2.8c0.5-0.9,1-1.8,1.4-2.8
			c0.2-0.4,0.4-0.7,0.5-1.1c0,0,0.5-1.1,0.6-0.6c0,0.5-0.7,1.5-1,1.9c-0.6,1.1-1.2,2.2-1.8,3.2c-0.2,0.2-2.1,2.8-2.1,2.9l0-0.1
			c2.2,0,4,0.2,6,1.1C132.5,130.7,134.3,129.5,136,128.6L136,128.6z M143.1,130.2c0.3,0,0.2,0.3,0,0.3c-0.5,0-0.9,0.1-1.4,0.1
			c-1.2,0.1-2.5,0.2-3.7,0c-0.5-0.1-1-0.2-1.5-0.4c-0.4-0.1-0.5,0.1-0.9,0.4c-0.5,0.3-1,0.6-1.6,0.4l0,0c-0.6-0.3-0.3-1.3-0.1-1.7
			c0.2-0.4,0.6-0.7,1-0.8c0.1,0,0.9-0.2,0.9,0.1c0,0.2-0.4,0.1-0.5,0.1c-0.5,0-0.9,0.2-1.2,0.6c-0.5,0.8-0.5,2,0.7,1.5l1.3-0.9
			c0.4-0.1,1.2,0.2,1.6,0.3C139.5,130.7,141.3,130.6,143.1,130.2L143.1,130.2z M154.5,132.8c0.4-0.1,0.2,0.3-0.1,0.3
			c-0.5,0.1-1.1,0.2-1.6,0.3c-1.3,0.2-2.6,0.5-3.8,0.7c-0.5,0.1-2.9,0.4-2.2-0.8c0.1-0.3,1.6-1.8,1.5-1.9l0.1,0.1
			c-2,0.1-4.1-0.2-5.8-1.2c-0.3-0.2-0.2-0.5,0.1-0.3c0.4,0.3,0.9,0.5,1.3,0.7c1.2,0.5,2.6,0.7,3.9,0.7c0.6,0,0.6-0.1,0.2,0.4
			c-0.6,0.7-2,2.1-0.2,2.2C150.2,134,152.3,133.3,154.5,132.8L154.5,132.8z M154,132.7c0.4,0,0,0.3-0.2,0.3c-0.5,0-1.3,0.1-1.5,0.6
			c-0.4,1.3,1.6,2,2.6,2.2c1.3,0.3,2.5,0.2,3.8-0.1c0.6-0.1,1.2-0.3,1.8-0.6c0.3-0.1,1-0.6,1.3-0.5c0.5,0.1-0.6,0.5-0.6,0.5
			c-0.6,0.2-1.2,0.4-1.8,0.6c-1.2,0.3-2.4,0.4-3.6,0.4c-1.1,0-2.6-0.4-3.3-1.4C151.5,133.5,152.9,132.7,154,132.7L154,132.7z
			 M177.7,138.2c0.1,0.4-4,1.1-4.4,1.2c-0.9,0.1-1.9,0.4-2.6-0.3c-0.5-0.5-0.7-1.3-0.7-2c-1.2,0.5-2.3,1.1-3.5,1.2
			c-1.9,0.2-2-1.4-1.7-2.9c-1.6,0.6-3.4,1.4-5.2,1.5c-1.5,0.1,1.4-2.7,1.6-2.5c0.2,0.2-1.8,1.9-1.9,2.3c0.7,0.4,2.5-0.4,3.2-0.6
			c0.2-0.1,2.3-0.7,2.3-0.8c0.3,0.6-0.7,2.5,0.6,2.8c1.2,0.3,2.7-0.4,3.8-0.9c0.2-0.1,0.8-0.5,0.9-0.3l0.1,0.1
			c-0.1-0.1,0.1,1.2,0.2,1.4c0.4,0.9,1.1,1.1,2,1C172.9,139.4,177.6,138.1,177.7,138.2L177.7,138.2z M197.3,142.8
			c0.1,0.2-6,0.8-6.5,0.8c-1.4,0.1-3.2,0.2-4.4-0.5c-0.6-0.3-0.8-0.9-0.5-1.6c0.1-0.1,0.7-1.4,0.9-1.1c0.2,0.2-1.2,1.5-0.7,2.2
			c0.7,1,2.7,0.9,3.8,0.9c1.4,0,2.8-0.1,4.2-0.3C194.4,143.1,197.2,142.5,197.3,142.8L197.3,142.8z M189.5,137.9
			c-0.2,0-1.5-0.1-1.4-0.4c0-0.3,0.9,0.1,1.1,0.1c0.2,0,3,0.5,3,0.5C192.1,138.4,189.8,137.9,189.5,137.9z M196.2,142.9
			c0-0.1,0.3-0.4,0.4-0.3c0.2,0.1-3.1,4.2-3.4,4.5c-1,1.3-2.4,2.9-2.8,4.5l-0.1,0c0.5-0.2,0.8-1,1.1-1.3c0.7-0.9,1.4-1.7,2.1-2.5
			c1.1-1.2,2.3-2.4,3.8-3.2c0.8-0.5,3.1-1.6,4-0.6c0.4,0.3-0.8,1.2-1,1.3c-0.4,0.3-0.8,0.6-1.2,1c0,0-0.5,0.2-0.3,0.1
			c0.2-0.2,1.9,0.1,2.2,0.1c0.9,0,1.9,0,2.8-0.2c0.4,0,4.4-1,4.5-0.8c0.1,0.3-4.2,1-4.6,1c-1,0.1-2,0.1-3,0.1c-0.2,0-1.8,0-1.9-0.2
			c-0.3-0.4,4.3-2.5,1.4-2.6c-2.7-0.1-5.1,2.7-6.8,4.5c-1,1.1-1.9,2.4-3,3.4c-0.5,0.5,0.2-1,0.2-1.1
			C192.3,147.9,194.3,145.3,196.2,142.9L196.2,142.9z M214.2,146.7c0,0.1-5.8,2.2-6.3,2.4c-0.7,0.3-1.3,0.6-2,0.9
			c-0.8,0.3-0.8,0.8-1.3,1.4c-0.4,0.5-1,0.9-1.7,0.8c-0.4-0.1-0.5-0.3-0.2-0.6c0.8-0.8,2.4-1,2.8-2.1c0.5-1.2,0.8-2.6,1.5-3.7
			c0.1-0.1,0.9-0.8,0.7-0.5c-0.2,0.3-0.5,0.6-0.7,1c-0.6,1.2-1,2.5-1.5,3.7C206.3,149.6,214.1,146.4,214.2,146.7z M204.1,151.7
			c0.4-0.4,0.7-0.9,1-1.4c-0.8,0.4-1.7,0.7-2.3,1.3c-0.2,0.2-0.2,0.3,0.1,0.4C203.3,152.2,203.8,152,204.1,151.7L204.1,151.7z
			 M222.8,148.7c0.3-0.1,0.3,0.2,0.1,0.3c-0.3,0-0.7,0.2-1,0.3c-1,0.3-2.1,0.6-3.1,0.7c-0.9,0.1-2.3,0.2-2.4-1
			c-0.1-0.5,0.2-0.8,0.3-1.3l0.2,0.2c-0.1-0.1-0.6,0.4-0.8,0.5c-0.7,0.5-1.6,0.9-2.5,0.9c-0.7,0-1.7-0.3-1.5-1.2
			c0.2-0.4,0.7-1.6,1.3-1.6c0.4-0.1-0.6,0.9-0.6,1c-0.6,0.7-0.8,1.6,0.4,1.7c0.9,0.1,1.8-0.3,2.6-0.7c0.2-0.1,0.8-0.8,1-0.6
			c0,0-0.2,0.7-0.2,0.8c-0.1,1,0.7,1.3,1.5,1.3C219.7,150,221.3,149.3,222.8,148.7L222.8,148.7z M238.9,152.4
			c0.1,0.3-3.8,1.1-4.1,1.1c-0.8,0.1-2,0.4-2.7-0.1c-0.6-0.4-0.9-1.4-0.9-2.1c-1.1,0.5-2.3,1.1-3.5,1.2c-1.9,0.2-2.1-1.4-1.7-2.9
			c-1.6,0.6-3.4,1.3-5.2,1.5c-1.5,0.1,1.4-2.7,1.6-2.5c0.2,0.2-1.8,1.9-1.9,2.3c0.7,0.4,2.5-0.4,3.2-0.6c0.2-0.1,2.2-0.8,2.3-0.8
			c0.2,0.6-0.6,2.2,0.4,2.8c1,0.5,2.8-0.3,3.7-0.7c0.4-0.1,0.9-0.5,1.2-0.4c0,0,0,0.1,0,0.1c-0.1-0.1,0.1,1.2,0.2,1.4
			c0.4,0.9,1.1,1.1,2,1C234.1,153.6,238.8,152.3,238.9,152.4L238.9,152.4z M257,156.6c0.1,0.2-5.4,1.1-5.9,1.1
			c-0.2,0-1.5,0.3-1.6-0.1c-0.1-0.9,1-2.3,1.4-3c-0.8,0.6-1.6,1.2-2.4,1.7c-0.6,0.4-1.6,1-2.4,0.7c-1.4-0.5,1.7-2.8,1.9-2.5
			c0.1,0.1-3.2,2.5-1.5,2.4c1.6-0.1,3.3-1.6,4.5-2.6c1.1-1.6,2-3.4,3.3-4.9c0.3-0.4,0.8-1.1,1.3-1.3c0.7-0.2,0.1,1.2,0,1.4
			c-1.6,2.9-5.2,4.4-6.1,7.9c-0.3,0.6,2.3,0,2.6,0C252.6,157.4,257,156.4,257,156.6L257,156.6z M252.8,152c-0.5,0.7-0.9,1.4-1.4,2
			c1-0.8,1.9-1.7,2.7-2.6c0.6-0.7,1.8-1.9,1.7-2.9c0-0.5-0.6,0.2-0.7,0.3C254.3,149.9,253.6,151,252.8,152L252.8,152z M263.7,158.2
			c0.3,0,0.2,0.3,0,0.3c-0.5,0-0.9,0.1-1.4,0.1c-1.2,0.1-2.5,0.2-3.7,0c-0.5-0.1-1-0.2-1.5-0.4c-0.4-0.1-0.5,0.1-0.9,0.4
			c-0.5,0.3-1,0.6-1.6,0.4c-0.6-0.2-0.3-1.1-0.1-1.6c0.2-0.4,1.4-1.5,2-1c0.2,0.2-0.2,0.2-0.3,0.2c-0.5,0-0.9,0.1-1.3,0.5
			c-0.5,0.6-0.8,2,0.4,1.7c0.6-0.1,1-0.8,1.5-1c0.4-0.1,1.2,0.2,1.6,0.3C260.1,158.7,261.9,158.6,263.7,158.2L263.7,158.2z
			 M271.7,160.1c0.2,0.4-5.8,1-6.3,1c-0.9,0-1.8,0.1-2.7-0.1c-0.7-0.2,0.4-2.3,0.5-2.6c-0.1,0.1-0.3,0.1-0.4,0c0,0,0.7-0.6,0.7-0.7
			c0.3-0.6,0.7-1.2,1.1-1.8c0.7-1.1,1.5-2.2,2.4-3.2c0.3-0.3,2-2.1,1.6-0.6c-0.5,1.4-1.4,2.7-2.4,3.7c-0.5,0.6-1,1.1-1.6,1.6
			c-0.4,0.3-1.2,0.6-1.4,1c-0.2,0.4-1.3,2.4-0.3,2.5c1.6,0.2,3.2,0,4.7-0.2C268,160.6,271.7,159.9,271.7,160.1z M264.3,156.8
			c-0.2,0.3-0.4,0.7-0.6,1c1.1-0.5,1.9-1.4,2.7-2.3c0.8-0.9,2.4-2.7,2.3-3.9c0-0.3-0.6,0.2-0.6,0.3c-0.4,0.4-0.8,0.9-1.2,1.4
			C266,154.4,265.1,155.6,264.3,156.8L264.3,156.8z M278.5,161.6c0.3,0,0.2,0.3,0,0.3c-0.5,0-0.9,0.1-1.4,0.1
			c-1.2,0.1-2.5,0.2-3.7,0c-0.5-0.1-1-0.2-1.5-0.4c-0.4-0.1-0.5,0.1-0.9,0.4c-0.5,0.3-1,0.6-1.6,0.4l0,0c-0.6-0.3-0.3-1.3-0.1-1.7
			c0.2-0.4,0.6-0.7,1-0.8c0.1,0,0.9-0.2,0.9,0.1c0,0.2-0.4,0.1-0.5,0.1c-0.5,0-1,0.2-1.2,0.6c-0.5,0.8-0.5,2,0.7,1.5
			c0.5-0.2,0.9-0.7,1.3-0.9c0.4-0.1,1.2,0.2,1.6,0.3C274.9,162.1,276.7,162,278.5,161.6L278.5,161.6z M289.9,164.3
			c0.5-0.1,0.1,0.3-0.2,0.3c-0.6,0.1-1.2,0.2-1.7,0.3c-1.3,0.2-2.5,0.5-3.8,0.7c-0.8,0.1-2.5,0.3-1.9-1c0.1-0.2,1.5-1.7,1.5-1.8
			l0.1,0.1c-2,0.1-4.1-0.1-5.8-1.2c-0.3-0.2-0.2-0.5,0.1-0.3c0.4,0.3,0.9,0.5,1.3,0.7c1.2,0.5,2.6,0.7,3.9,0.7
			c0.6,0,0.6-0.1,0.2,0.4c-0.6,0.7-2,2.1-0.2,2.2C285.6,165.4,287.7,164.7,289.9,164.3L289.9,164.3z M107.7,152.4
			c0.2,0,0.4,0.2,0.1,0.3c-0.2,0.1-0.5-0.1-0.7-0.2c-0.8-0.4-1.4-1.1-2.1-1.7c-0.1-0.1-1.6-1.4-1.7-1.2c-0.3,0.1,0.4,0.4,0.5,0.4
			c0.5,0,1-0.2,1.4-0.4c1.3-0.6,3.2-1.7,3.4-3.3c0.2-1.3-1-1.2-1.9-0.8c-0.5,0.2-0.9,0.5-1.3,0.8c-0.2,0.2-0.5,0.5-0.8,0.6
			c-0.4,0.1,0.9-0.8,1-0.9c0.7-0.4,1.7-1,2.5-0.8c1.9,0.7-0.7,3.3-1.4,3.8c-0.7,0.5-1.4,1-2.3,1.2c-0.3,0.1-1.2,0.3-1.3-0.2
			c-0.1-0.3,0-0.5,0.3-0.4C105,150.2,106.1,152.3,107.7,152.4L107.7,152.4z M111.8,144.4c0.3,0.4,0.1,1.5,0,2
			c-0.2,0.9-0.5,1.7-1,2.4c-0.5,0.8-1.1,1.4-1.8,2c-0.5,0.4-1.3,1.3-2,1.4c-0.4,0,0.1-0.4,0.2-0.4c0.4-0.3,0.9-0.4,1.3-0.7
			c0.7-0.5,1.4-1.1,1.9-1.9c0.6-0.8,1.1-1.8,1.3-2.8C111.8,146.1,112.1,144.7,111.8,144.4L111.8,144.4z M131.6,153.2
			c0.3,0.2-0.8,0.5-0.9,0.5c-0.7,0.1-1.4,0.2-2.1,0.2c-0.8,0-1.6-0.1-2.4-0.1c-0.4,0-0.8,0-1.1,0c0,0.3,0,0.6-0.2,0.9
			c-0.6,1.2-3.1,1.5-3.8,0.3c-0.7-1.1,3.3-1.3,3.8-1.3c-0.1-1.5-0.9-2.9-1.4-4.3c-0.6-1.5-1.6-3.9,1-3.7c1.3,0.1,3.3,0.5,4.2,1.6
			c1.1,1.4-1.8,3.2-1.9,3c0-0.1,1.7-1.4,1.8-1.7c0.6-1.1-0.6-1.8-1.4-2.1c-1-0.4-2.3-0.9-3.4-0.6c-1.3,0.3-0.7,1.9-0.4,2.7
			c0.4,1.1,0.9,2,1.3,3.1c0.2,0.4,0.4,0.9,0.5,1.3c0.1,0.3,0.1,0.5,0.1,0.8c0.3,0,0.7,0,1,0c1.1,0,2.1,0.1,3.2,0
			c0.5,0,0.9-0.1,1.4-0.2C130.7,153.4,131.4,153,131.6,153.2L131.6,153.2z M124.4,154.8c0.3-0.3,0.4-0.7,0.3-1.1
			c-0.9,0-3.1,0-3.7,0.9c-0.3,0.6,1.1,0.8,1.4,0.9C123.1,155.5,123.9,155.4,124.4,154.8z M141.3,155.5c0.1,0.3-6.3,0.8-6.8,0.8
			c-1.3,0-3.2,0.2-4.3-0.7c-0.5-0.5-0.4-1.1-0.1-1.7c0-0.1,0.9-1.2,0.8-0.7c0,0.2-0.5,0.6-0.6,0.7c-0.3,0.5-0.5,1.1,0.1,1.6
			c1,0.8,2.7,0.7,3.9,0.7C134.8,156.2,141.2,155.4,141.3,155.5z M133.5,150.6c-0.2,0-1.5-0.1-1.4-0.4c0-0.3,0.9,0.1,1.1,0.1
			c0.2,0,3,0.5,3,0.5C136.1,151.1,133.8,150.6,133.5,150.6L133.5,150.6z M148.5,157.2c0.1,0.4-3.3,0.4-3.6,0.4
			c-0.9,0-1.8-0.1-2.6-0.2c-0.5-0.1-1-0.2-1.5-0.3c-0.4,0.6-0.4,0.6-0.2,1.3c0.1,0.3,0.6,1.3,0.2,1.6c-0.5,0.3-1.1-0.8-1.1-1.1
			c-0.1-0.3,0.1-0.6,0.3-0.9c0.2-0.3,0.1-0.5-0.1-0.8c0,0-0.2-0.4-0.2-0.3l0-0.1l0.1-0.1c0.6,0.3,0.8,0.3,1.2-0.2
			c0.5-0.6,1.2-1.3,1.6-2c-0.2,0.1-2.2,1.3-2.3,0.9c-0.1-0.2,1.5-0.8,1.6-0.8c0.7-0.3,1.2-0.6,1.7-1.2c0.3-0.3,1.7-2.3,2.2-2.1
			c0.6,0.2-1.7,2.3-1.9,2.5c-0.6,0.4-1.1,0.8-1.5,1.3c-0.5,0.6-1,1.3-1.5,2c1.3,0.3,2.6,0.4,3.9,0.4
			C145.1,157.5,148.5,157.1,148.5,157.2L148.5,157.2z M140.2,157.4l0.1,0.2l0.3-0.5l-0.7-0.2L140.2,157.4L140.2,157.4z M140.6,158.7
			c-0.1-0.2-0.2-0.5-0.3-0.7c-0.3,0.6-0.4,1,0.1,1.6C141,160.2,140.7,159,140.6,158.7L140.6,158.7z M144.8,152.2
			c-0.5,0.5-1,1.1-1.5,1.6c0.9-0.6,2.2-1.4,2.4-2.5C145.4,151.6,145.1,152,144.8,152.2L144.8,152.2z M157.5,159.3
			c0.4-0.2,0.2,0.2-0.1,0.3c-0.6,0.2-1.1,0.6-1.6,1c-0.1,0.1-1,1.1-0.6,1c0.6,0,1.2-0.3,1.8-0.5c0.6-0.3,0.7,0.1,1.2,0.5
			c1,0.8,2.3,1.6,3.7,1.3c1.3-0.3,2.5-0.9,3.7-1.5c0.1-0.1,0.3-0.1,0.3,0.1c-0.1,0.1-0.3,0.2-0.5,0.3c-0.6,0.3-1.1,0.5-1.7,0.7
			c-2.3,0.9-4.6,0.6-6.4-1.3l0.1,0c-0.3,0.1-2.7,0.9-2.5,0.3C155.5,160.5,156.6,159.7,157.5,159.3L157.5,159.3z M174.6,163.2
			c0.2,0.5-4.8,1.4-5.2,1.4c-0.8,0-2.4-0.1-2.8-1c-0.2-0.5,1.2-1,1.5-1.2c-1.2,0.3-2.4,0.5-3.5,0.9c-0.3,0.1-0.9,0.5-1.1,0.2
			c-0.2-0.3,2.9-4.2,3.2-4.7c0.3-0.4,3.5-4.8,3.8-4.5c0.1,0.1-3.3,4.2-3.7,4.6c-1.2,1.5-2.3,3-3.2,4.6c0.6-0.3,6-1.8,6-1.8l0.1,0.3
			c0,0.2-4.7,1.1-2.5,2.1c1.2,0.6,2.6,0.4,3.8,0.1C171.5,164.2,174.6,163.1,174.6,163.2L174.6,163.2z M184.4,165.5
			c0.1,0.2-6,0.8-6.5,0.8c-1.4,0.1-3.2,0.2-4.4-0.5c-0.6-0.3-0.8-0.9-0.5-1.6c0.1-0.1,0.7-1.4,0.9-1.1c0.2,0.2-1.2,1.5-0.7,2.2
			c0.7,1,2.7,0.9,3.8,0.9c1.4,0,2.8-0.1,4.2-0.3C181.5,165.9,184.3,165.3,184.4,165.5z M176.6,160.6c-0.2,0-1.5-0.1-1.4-0.4
			c0-0.3,0.9,0.1,1.1,0.1c0.2,0,3,0.5,3,0.5C179.2,161.1,176.9,160.6,176.6,160.6z M200.1,169.2c0.1,0.3-3.8,1.1-4.1,1.1
			c-0.8,0.1-2,0.4-2.7-0.1c-0.6-0.4-0.9-1.4-0.9-2.1c-1.1,0.5-2.3,1.1-3.5,1.2c-1.9,0.2-2-1.4-1.7-2.9c-1.6,0.6-3.4,1.4-5.2,1.5
			c-1.5,0.1,1.4-2.7,1.6-2.5c0.2,0.2-1.8,1.9-1.9,2.3c0.7,0.4,2.6-0.4,3.2-0.6c0.2-0.1,2.3-0.7,2.3-0.8c0.3,0.6-0.7,2.5,0.6,2.8
			c1.2,0.3,2.7-0.4,3.8-0.9c0.2-0.1,0.8-0.5,0.9-0.3c0,0,0,0.1,0.1,0.1c-0.1,0,0.1,1.2,0.2,1.4c0.4,0.9,1.1,1.1,2,1
			C195.3,170.3,200.1,169.1,200.1,169.2L200.1,169.2z M199.3,168.9c0.3,0,0.2,0.3-0.1,0.3c-0.5-0.1-1.2,0-1.5,0.5
			c-0.8,1.2,1.4,2.1,2.2,2.3c1.2,0.3,2.5,0.3,3.7,0.1c0.4-0.1,3.4-1.2,3.5-1.1c0.2,0.3-2.4,1-2.7,1c-1.2,0.3-2.5,0.5-3.8,0.4
			c-1.1-0.1-2.6-0.6-3.1-1.6C197,169.5,198.3,168.9,199.3,168.9L199.3,168.9z M214.5,172.5c0.1,0.4-3.3,0.4-3.6,0.4
			c-0.9,0-1.8-0.1-2.6-0.2c-0.5-0.1-1-0.2-1.5-0.3c-0.4,0.6-0.4,0.6-0.2,1.3c0.1,0.3,0.6,1.3,0.2,1.6c-0.5,0.3-1.1-0.8-1.1-1.1
			c-0.1-0.3,0.1-0.6,0.3-0.9c0.2-0.3,0.1-0.5-0.1-0.8c0,0-0.2-0.4-0.2-0.3l0-0.1l0.1-0.1c0.6,0.3,0.8,0.3,1.2-0.2
			c0.5-0.7,1.2-1.3,1.6-2c-0.2,0.1-2.2,1.3-2.4,0.9c-0.1-0.2,1.5-0.8,1.6-0.8c0.7-0.3,1.2-0.6,1.7-1.2c0.3-0.3,1.7-2.3,2.2-2.1
			c0.6,0.2-1.7,2.3-1.9,2.5c-0.6,0.4-1.1,0.8-1.6,1.3c-0.5,0.6-1,1.3-1.5,2c1.3,0.3,2.6,0.4,3.9,0.4
			C211.1,172.8,214.5,172.4,214.5,172.5L214.5,172.5z M206.2,172.7l0.1,0.2l0.3-0.5c-0.2-0.1-0.5-0.1-0.7-0.2L206.2,172.7
			L206.2,172.7z M206.6,174c-0.1-0.2-0.2-0.5-0.3-0.7c-0.3,0.6-0.4,1,0.1,1.6C207,175.5,206.7,174.3,206.6,174z M210.8,167.6
			c-0.5,0.5-1,1.1-1.5,1.6c0.9-0.6,2.2-1.4,2.4-2.5C211.4,166.9,211.1,167.3,210.8,167.6L210.8,167.6z M220.3,173.8
			c0.1,0.2-2.3,0.9-2.6,1c-1.3,0.5-2.7,1-4,1.5l-1.7,0.8c-0.8,0.3-0.8,0.8-1.3,1.4c-0.4,0.5-1,0.9-1.7,0.8c-0.4-0.1-0.5-0.3-0.2-0.6
			c0.8-0.8,2.4-1,2.8-2.1c0.5-1.2,0.8-2.6,1.5-3.7c0.1-0.1,0.9-0.8,0.7-0.5c-0.1,0.3-0.5,0.6-0.7,1c-0.6,1.2-1,2.5-1.6,3.7
			C212.4,176.7,220.1,173.5,220.3,173.8L220.3,173.8z M210.2,178.8c0.4-0.4,0.7-0.9,1-1.4c-0.8,0.4-1.6,0.7-2.3,1.3
			c-0.2,0.2-0.2,0.3,0.1,0.4C209.4,179.3,209.8,179.1,210.2,178.8L210.2,178.8z M96,174c-0.3-0.3,0-0.4,0.3-0.1
			c0.2,0.3,0.5,0.6,0.7,0.9c0.7,0.7,1.6,1.5,2.6,1.5c1.1,0,1.7-1.2,1.8-2.1c0-1.1-1.2-1-1.9-1l0,0l0-0.2c1.2-0.1,4.1-0.7,3.4-2.6
			c-0.3-0.8-1.7-0.1-2.2,0.1c-0.4,0.2-0.7,0.4-1.1,0.6c0,0-1,0.6-0.7,0.2c0.3-0.5,1.5-0.8,2-1c0.7-0.3,2.2-0.7,2.2,0.5
			c0,1.8-2.3,2.1-3.6,2.4l0-0.1c0-0.1,1.6,0.1,1.7,0.3c0.9,0.6,0.2,2-0.3,2.6C99.4,177.4,96.9,175.3,96,174L96,174z M106.2,168.9
			c0.3,0.4,0.1,1.5,0,2c-0.2,0.9-0.5,1.7-1,2.4c-0.5,0.8-1.1,1.4-1.8,2c-0.5,0.4-1.3,1.3-2,1.4c-0.4,0,0.1-0.4,0.2-0.4
			c0.4-0.3,0.9-0.4,1.3-0.7c0.7-0.5,1.4-1.1,1.9-1.9c0.6-0.8,1.1-1.8,1.3-2.8C106.3,170.6,106.5,169.1,106.2,168.9L106.2,168.9z
			 M129.2,178.4c0.1,0.4-7.1,1.7-7.1,1.6l0-0.2c0,0,1-0.2,1-0.2c0.5-0.1,1.3-0.4,1.6-0.9c0.7-1.2-2.4-0.8-2.6-1.2
			c0.1,0.1,3.7-2.6,4-2.9c0.4-0.3,2-1.5,1.5-2.1c-0.4-0.2-0.9-0.2-1.4-0.2c-2.1,0.2-4.2,1.4-6,2.4c-1,0.6-2,1.2-3,1.8
			c-0.4,0.3-1.7,0.9-1.8,1.3l0,0c-0.1,0-0.2,0-0.1-0.1l0,0c0.2,0.1,0.9-1,1-1c0.7-0.8,1.4-1.7,2-2.5c0.3-0.4,3.3-4.6,3.5-4.4
			c0.3,0.2-5.2,6.9-5.7,7.4c2.8-2,6.2-4.3,9.6-5c0.5-0.1,2-0.3,2.3,0.4c0.2,0.6-0.8,1.5-1.2,1.8c-1.4,1.2-2.9,2.2-4.4,3.1
			c0.7,0,1.4,0,2,0.2c1.3,0.5-0.2,1.6-0.8,1.8C123.8,179.6,129.2,178.3,129.2,178.4L129.2,178.4z M136.9,180.2c0.2,0.4-5.8,1-6.3,1
			c-0.9,0-1.8,0.1-2.7-0.1c-0.7-0.2,0.4-2.3,0.5-2.6c-0.1,0.1-0.3,0.1-0.4,0c0,0,0.7-0.6,0.7-0.7c0.3-0.6,0.7-1.2,1.1-1.8
			c0.7-1.1,1.5-2.2,2.4-3.2c0.3-0.3,2-2.1,1.6-0.6c-0.4,1.4-1.5,2.7-2.4,3.7c-0.5,0.6-1,1.1-1.6,1.6c-0.4,0.3-1.2,0.6-1.4,1
			c-0.2,0.4-1.3,2.4-0.3,2.5c1.6,0.2,3.2,0,4.7-0.2C133.2,180.8,136.9,180.1,136.9,180.2L136.9,180.2z M129.5,177
			c-0.2,0.3-0.4,0.7-0.6,1c1.1-0.5,1.9-1.4,2.7-2.3c0.8-0.9,2.4-2.7,2.3-3.9c0-0.3-0.6,0.2-0.6,0.3c-0.4,0.4-0.8,0.9-1.2,1.4
			C131.2,174.6,130.3,175.8,129.5,177L129.5,177z M136.1,180c0.4-0.2,0.2,0.2-0.1,0.3c-0.6,0.2-1.1,0.6-1.6,1c-0.1,0.1-1,1.1-0.6,1
			c0.6,0,1.3-0.3,1.8-0.5c0.6-0.3,0.7,0,1.2,0.5c1,0.8,2.3,1.6,3.7,1.3c1.3-0.3,2.6-0.9,3.7-1.5c0.1-0.1,0.4-0.1,0.3,0.1
			c-0.1,0.1-0.3,0.2-0.5,0.3c-0.6,0.3-1.1,0.5-1.7,0.7c-2.3,0.9-4.6,0.6-6.4-1.3l0.1,0c-0.3,0.1-2.7,0.9-2.5,0.3
			C134,181.2,135.2,180.5,136.1,180L136.1,180z M162,186.1c0.2,0.4-3.8,1-4.1,1c-1.3,0.1-2.6-0.1-3.9,0l0-0.2c0,0.1,0.5,0,0.5,0
			c0.7-0.1,1.6-0.4,2.1-1c0.3-0.4,0.2-1.2-0.4-1.1c-0.8,0.1-1.5,0.6-2.2,1c-0.2,0.1-2.1,1.3-1.8,0.7c0.6-1.4,1.7-2.7,2.6-4
			c1.1-1.4,2.2-3,3.5-4.2c0.1-0.1,1-0.9,1-0.2c0,0.8-0.7,1.6-1.1,2.2c-1,1.2-2.1,2.4-3.3,3.4c-0.6,0.5-1.1,0.8-1.6,1.4
			c-0.3,0.5-0.7,0.9-0.9,1.5c1.3-0.5,2.4-1.4,3.7-1.8c0.5-0.1,0.9,0.2,0.8,0.8c-0.2,0.9-1.3,1.2-2,1.4c1.4,0,2.8,0,4.1-0.2
			C159.2,186.7,161.9,185.9,162,186.1L162,186.1z M157.3,179.6c-1.1,1.4-2.1,2.8-3.1,4.2c1.6-1,3-2.3,4.1-3.7
			c0.1-0.2,1.5-2.1,0.9-2.2C158.5,177.8,157.5,179.2,157.3,179.6z M169.8,187.8c0.2,0.4-5.8,1-6.3,1c-0.9,0-1.8,0.1-2.7-0.1
			c-0.7-0.2,0.4-2.3,0.5-2.6c-0.1,0.1-0.3,0.1-0.4,0c0,0,0.7-0.6,0.7-0.7c0.3-0.6,0.7-1.2,1.1-1.8c0.7-1.1,1.5-2.2,2.4-3.2
			c0.3-0.3,2-2.1,1.6-0.6c-0.4,1.4-1.5,2.7-2.4,3.7c-0.5,0.6-1,1.1-1.6,1.6c-0.4,0.3-1.2,0.6-1.4,1c-0.2,0.4-1.3,2.4-0.3,2.5
			c1.6,0.2,3.2,0,4.7-0.2C166.1,188.4,169.7,187.7,169.8,187.8L169.8,187.8z M162.3,184.6c-0.2,0.3-0.4,0.7-0.6,1
			c1.1-0.5,1.9-1.4,2.7-2.3c0.8-0.9,2.4-2.7,2.3-3.9c0-0.3-0.6,0.2-0.6,0.3c-0.4,0.4-0.8,0.9-1.2,1.4
			C164,182.2,163.1,183.4,162.3,184.6z M168.9,187.6c0.4-0.2,0.2,0.2-0.1,0.3c-0.6,0.2-1.1,0.6-1.6,1c-0.1,0.1-1,1-0.6,1
			c0.6,0,1.3-0.3,1.8-0.5c0.6-0.3,0.7,0.1,1.2,0.5c1,0.8,2.3,1.6,3.7,1.3c1.3-0.3,2.5-0.9,3.7-1.5c0.1-0.1,0.4-0.1,0.3,0.1
			c-0.1,0.1-0.3,0.2-0.5,0.3c-0.6,0.3-1.1,0.5-1.7,0.7c-2.4,0.9-4.6,0.6-6.4-1.3l0.1,0c-0.3,0.1-2.7,0.9-2.5,0.3
			C166.8,188.8,168,188.1,168.9,187.6L168.9,187.6z M194.8,193.7c0.2,0.4-3.8,1-4.1,1c-1.3,0.1-2.6-0.1-3.9,0l0-0.2
			c0,0.3,2.3-0.6,2.6-1c0.3-0.4,0.2-1.2-0.4-1.1c-0.8,0.1-1.5,0.6-2.2,1c-0.2,0.1-2.1,1.3-1.8,0.7c0.6-1.4,1.7-2.7,2.6-4
			c1.1-1.4,2.2-3,3.5-4.2c0.1-0.1,1-0.9,1-0.2c0,0.8-0.7,1.6-1.1,2.2c-1,1.2-2.1,2.4-3.3,3.4c-0.6,0.5-1.1,0.8-1.6,1.4
			c-0.3,0.5-0.7,0.9-0.9,1.5c1.3-0.5,2.4-1.4,3.7-1.8c0.5-0.1,0.9,0.2,0.8,0.8c-0.2,0.9-1.3,1.2-2,1.4c1.4,0,2.8,0,4.1-0.2
			C192,194.3,194.8,193.5,194.8,193.7L194.8,193.7z M190.1,187.2c-1.1,1.4-2.1,2.8-3.1,4.2c1.6-1,3-2.3,4.1-3.7
			c0.1-0.2,1.5-2.1,0.9-2.2C191.3,185.4,190.4,186.8,190.1,187.2z M202.6,195.4c0.2,0.4-5.8,1-6.3,1c-0.9,0-1.8,0.1-2.7-0.1
			c-0.7-0.2,0.4-2.3,0.5-2.6c-0.1,0.1-0.3,0.1-0.4,0c0,0,0.7-0.6,0.7-0.7c0.3-0.6,0.7-1.2,1.1-1.8c0.7-1.1,1.5-2.2,2.4-3.2
			c0.3-0.3,2-2.1,1.6-0.6c-0.4,1.4-1.5,2.7-2.4,3.7c-0.5,0.6-1,1.1-1.6,1.6c-0.4,0.3-1.2,0.6-1.4,1c-0.2,0.4-1.3,2.3-0.3,2.5
			c1.6,0.2,3.2,0,4.7-0.2C198.9,196,202.6,195.3,202.6,195.4L202.6,195.4z M195.1,192.2c-0.2,0.3-0.4,0.7-0.6,1
			c1.1-0.5,1.9-1.4,2.7-2.3c0.8-0.9,2.4-2.7,2.3-3.9c0-0.3-0.6,0.2-0.6,0.3c-0.4,0.4-0.8,0.9-1.2,1.4
			C196.8,189.8,195.9,191,195.1,192.2L195.1,192.2z M201.7,195.3c0.4-0.2,0.2,0.2-0.1,0.3c-0.6,0.2-1.1,0.6-1.6,1
			c-0.1,0.1-1,1.1-0.6,1c0.6,0,1.2-0.3,1.8-0.5c0.6-0.3,0.7,0,1.2,0.5c1,0.9,2.3,1.6,3.7,1.3c1.3-0.3,2.6-0.9,3.7-1.5
			c0.1-0.1,0.4-0.1,0.3,0.1c-0.1,0.1-0.3,0.2-0.5,0.3c-0.6,0.3-1.1,0.5-1.7,0.7c-2.4,0.9-4.6,0.6-6.4-1.3l0.1,0
			c-0.3,0.1-2.7,0.9-2.5,0.3C199.7,196.5,200.9,195.7,201.7,195.3L201.7,195.3z M219.1,199.6c0-0.1,0.3-0.4,0.4-0.3
			c0.2,0.1-3.1,4.2-3.4,4.5c-1,1.4-2.2,2.8-2.8,4.5l-0.1,0c0.5-0.3,0.8-0.9,1.1-1.3c0.7-0.9,1.4-1.7,2.1-2.5
			c1.1-1.2,2.3-2.4,3.8-3.2c0.8-0.5,3.1-1.6,4-0.6c0.4,0.3-0.8,1.2-1,1.3c-0.4,0.3-0.8,0.6-1.2,1c0,0-0.4,0.2-0.3,0.1
			c0.2-0.2,1.9,0.1,2.2,0.1c0.9,0,1.9,0,2.8-0.2c0.4,0,4.4-1,4.5-0.8c0.1,0.4-4.2,1-4.6,1c-1,0.1-2,0.1-3,0.1
			c-0.4,0-1.7,0.1-1.9-0.2c-0.3-0.4,4.3-2.5,1.4-2.6c-2.7-0.1-5.1,2.7-6.8,4.5c-1,1.1-1.8,2.4-3,3.4c-0.5,0.5,0.2-1,0.2-1.1
			C215.2,204.6,217.2,202,219.1,199.6z M230.5,201.9c0.4,0,0,0.3-0.2,0.3c-0.5,0-1.3,0.1-1.5,0.6c-0.4,1.4,1.6,2,2.6,2.2
			c1.3,0.3,2.5,0.2,3.8-0.1c0.7-0.2,1.4-0.4,2-0.7c0.1,0,1.3-0.7,1.2-0.3c-0.1,0.3-0.9,0.4-1.1,0.4c-0.6,0.2-1.2,0.4-1.8,0.5
			c-1.2,0.3-2.5,0.4-3.7,0.3c-1-0.1-2.8-0.7-3-1.8C228.4,202.2,229.6,201.9,230.5,201.9L230.5,201.9z M237.4,203.9
			c0-0.1,0.3-0.4,0.4-0.3c0.2,0.1-3.1,4.2-3.4,4.5c-1,1.4-2.2,2.8-2.8,4.5l-0.1,0c0.5-0.2,0.8-1,1.1-1.3c0.7-0.9,1.4-1.7,2.1-2.5
			c1.1-1.2,2.3-2.4,3.8-3.2c0.8-0.5,3.1-1.6,4-0.6c0.4,0.3-0.8,1.2-1,1.3c-0.4,0.3-0.8,0.6-1.2,1c0.1,0-0.5,0.2-0.3,0.1
			c0.2-0.2,1.9,0.1,2.2,0.1c0.9,0,1.9,0,2.8-0.2c0.4,0,4.4-1,4.5-0.8c0.1,0.3-4.2,1-4.6,1c-1,0.1-2,0.1-3,0.1
			c-0.4,0-1.7,0.1-1.9-0.2c-0.2-0.5,4.5-2.8,1.1-2.6c-2.7,0.1-5,2.9-6.7,4.7c-0.9,1-1.7,2.3-2.8,3.2c-0.5,0.5,0.2-1,0.2-1.1
			C233.5,208.8,235.5,206.3,237.4,203.9L237.4,203.9z M259.3,208.6c0.1,0.2-6.3,0.8-6.8,0.8c-1.3,0-3.2,0.2-4.3-0.7
			c-0.5-0.5-0.4-1.1-0.1-1.7c0-0.1,0.9-1.2,0.8-0.7c0,0.2-0.5,0.6-0.6,0.7c-0.3,0.5-0.5,1.1,0.1,1.6c1,0.8,2.7,0.7,3.9,0.7
			C252.8,209.3,259.3,208.5,259.3,208.6L259.3,208.6z M251.5,203.7c-0.2,0-1.5-0.1-1.4-0.4c0-0.3,0.9,0.1,1.1,0.1c0.2,0,3,0.5,3,0.5
			C254.1,204.2,251.8,203.7,251.5,203.7L251.5,203.7z M266.5,210.3c0.1,0.4-3.3,0.4-3.6,0.4c-0.9,0-1.8-0.1-2.6-0.2
			c-0.5-0.1-1-0.2-1.5-0.3c-0.4,0.6-0.4,0.6-0.2,1.3c0.1,0.3,0.6,1.3,0.2,1.6c-0.5,0.3-1.1-0.8-1.1-1.1c-0.1-0.3,0.1-0.6,0.3-0.9
			c0.2-0.3,0-0.5-0.1-0.8c0,0-0.2-0.4-0.2-0.3l0-0.1l0.1-0.1c0.6,0.3,0.8,0.3,1.2-0.2c0.5-0.7,1.2-1.3,1.6-2
			c-0.2,0.1-2.2,1.3-2.3,0.9c-0.1-0.2,1.5-0.8,1.6-0.8c0.7-0.3,1.2-0.6,1.7-1.2c0.2-0.3,1.7-2.3,2.2-2.1c0.6,0.1-1.7,2.3-1.9,2.5
			c-0.6,0.4-1.1,0.8-1.5,1.3c-0.5,0.6-1,1.3-1.5,2c1.3,0.3,2.6,0.4,3.9,0.4C263.1,210.6,266.5,210.2,266.5,210.3L266.5,210.3z
			 M258.2,210.5l0.1,0.2c0.1-0.2,0.2-0.3,0.3-0.5c-0.2-0.1-0.5-0.1-0.7-0.2L258.2,210.5L258.2,210.5z M258.6,211.8
			c-0.1-0.2-0.2-0.5-0.3-0.7c-0.3,0.6-0.4,1,0.1,1.6C259,213.3,258.7,212.1,258.6,211.8z M262.8,205.3c-0.5,0.5-1,1.1-1.5,1.6
			c0.9-0.6,2.2-1.4,2.4-2.5C263.4,204.7,263.1,205.1,262.8,205.3z M273.2,211.8c0.3,0,0.2,0.3,0,0.3c-0.5,0-0.9,0.1-1.4,0.1
			c-1.2,0.1-2.5,0.2-3.7,0c-0.5-0.1-1-0.2-1.5-0.4c-0.4-0.1-0.5,0.1-0.9,0.4c-0.5,0.3-1,0.6-1.6,0.4c-0.6-0.2-0.3-1.1-0.1-1.6
			c0.2-0.4,1.4-1.5,2-1c0.2,0.2-0.2,0.2-0.3,0.2c-0.5,0-0.9,0.1-1.3,0.5c-0.5,0.6-0.8,2,0.4,1.7c0.6-0.1,1-0.8,1.5-1
			c0.4-0.1,1.2,0.2,1.6,0.3C269.7,212.4,271.4,212.2,273.2,211.8L273.2,211.8z"/>
	</g>
	<g display="inline">
		<path fill="none" stroke="#D5CEB2" stroke-miterlimit="10" d="M286.1,421.1"/>
	</g>
	<path display="inline" fill="none" stroke="#EE4866" stroke-miterlimit="10" d="M356.5,85.4"/>
	<path display="inline" fill="#FFF9EE" d="M370.1,101.1L81.5,34.1L88.8,0l289.8,67.2L370.1,101.1z"/>
	<path display="inline" fill="#E6E2D9" d="M370.1,101.1l-288.6-67l3.5,6.4l289.8,67.2L370.1,101.1z"/>
	<path display="inline" fill="#3C5052" d="M203.4,338.3c1.6-3,2.7-6.1,3.5-9.4c0.4-1.6,0.7-3.3,0.8-4.9c0.1-0.8,0.1-1.7,0.1-2.5
		c0-0.8,0-1.7-0.1-2.5l-0.1-1.2c-0.1-0.4-0.1-0.8-0.2-1.2c-0.1-0.4-0.2-0.8-0.3-1.2c-0.1-0.4-0.2-0.8-0.4-1.2
		c-0.2-0.8-0.6-1.6-0.9-2.3c-0.4-0.7-0.8-1.5-1.2-2.2c-0.4-0.7-1-1.4-1.5-2c-0.6-0.6-1.1-1.3-1.7-1.8c-0.6-0.6-1.2-1.1-1.9-1.6
		c-0.6-0.5-1.4-0.9-2.1-1.4l0,0v-0.1l0-1.2l0.1,0.1h-0.1l0-0.1l0-0.1l0-0.1l0-0.2l-0.1-0.1l-0.1-0.1l-0.2-0.2l-0.3-0.1l-0.1,0l0-0.1
		l0,0l0.1,0.1l-0.1,0l0.1-0.1v0l0,0.1l-0.1,0l-0.3,0.1l-0.2,0.2L196,301l-0.1,0.3l0,0l0,0l0,0l0,0v0l0-0.1l0,1.2v0l0,0
		c-0.7,0.5-1.4,0.9-2,1.5c-0.6,0.5-1.3,1-1.9,1.6c-0.3,0.3-0.6,0.6-0.9,0.9l-0.8,0.9c-0.3,0.3-0.5,0.6-0.8,1c-0.2,0.3-0.5,0.7-0.7,1
		l-0.7,1.1c-0.2,0.4-0.4,0.7-0.6,1.1c-0.2,0.4-0.4,0.8-0.5,1.1c-0.2,0.4-0.3,0.8-0.5,1.2c-0.1,0.4-0.3,0.8-0.4,1.2l-0.3,1.2
		c-0.2,0.8-0.3,1.6-0.4,2.5c-0.1,0.4-0.1,0.8-0.1,1.3c0,0.4-0.1,0.8,0,1.3c0,0.8,0,1.7,0.1,2.5c0.1,0.8,0.2,1.7,0.4,2.5
		c0.2,0.8,0.3,1.6,0.6,2.5c0.4,1.6,1,3.2,1.6,4.8c0.6,1.6,1.4,3.1,2.2,4.5l0,0.1l-0.1,0l-0.8,0.2c-0.3,0.1-0.5,0.2-0.8,0.4
		c-0.5,0.3-0.9,0.6-1.3,1c-0.4,0.4-0.7,0.8-1,1.3c-0.3,0.5-0.5,1-0.7,1.5c-0.4,1-0.6,2.1-0.7,3.3c-0.1,0.6-0.1,1.1-0.1,1.7
		c0,0.5,0,1.1,0.2,1.6c0.2,0.5,0.6,0.9,1,1.2c0.1,0.1,0.2,0.1,0.4,0.2l0.4,0.1c0.3,0,0.6,0,0.8-0.1c0.5-0.2,0.8-0.6,1-1.2
		c0.1-0.5,0.2-1.1,0.3-1.6c0.1-0.5,0.2-1.1,0.3-1.7c0.2-0.5,0.5-1.1,0.8-1.5c0.2-0.2,0.4-0.5,0.6-0.6c0.2-0.2,0.4-0.4,0.6-0.6
		c0.4-0.4,1-0.6,1.6-0.7l0.1,0l0,0.1l0.7,0.8c0.2,0.3,0.5,0.5,0.7,0.7c0.2,0.3,0.6,0.4,0.8,0.6c0.1,0.1,0.3,0.2,0.5,0.2l0.5,0.2
		l0.1,0v0.1l0,0.7v0.2l-0.2-0.1c-0.2-0.1-0.4-0.3-0.5-0.3c-0.2-0.1-0.4-0.2-0.6-0.3c-0.2-0.1-0.4-0.2-0.6-0.2c-0.2,0-0.4-0.1-0.6,0
		c-0.2,0-0.4,0-0.6,0.1c-0.2,0-0.4,0.1-0.6,0.2l-0.3,0.2l-0.2,0.2l-0.2,0.3l-0.1,0.3l0,0.3l0,0.3c0.1,0.2,0.1,0.4,0.3,0.5
		c0.1,0.2,0.3,0.3,0.5,0.4c0.2,0.1,0.4,0.1,0.6,0.2c0.2,0.1,0.4,0,0.6,0.1c0.2,0,0.4,0,0.6,0c0.4-0.1,0.8-0.2,1.2-0.5l0.1-0.1
		l0.1,0.1l0.2,0.4l0.3,0.3l0.3,0.2l0.4,0.1l0.1,0l0,0.1l0,0l-0.1-0.1h0.1l-0.1,0.1l0,0l0-0.1l0.1,0l0.4-0.1l0.3-0.2l0.3-0.3l0.2-0.4
		l0.1-0.1l0.1,0.1c0.4,0.2,0.8,0.4,1.2,0.5c0.2,0,0.4,0.1,0.6,0c0.2,0,0.4,0,0.6-0.1c0.2,0,0.4-0.1,0.6-0.2c0.2-0.1,0.4-0.2,0.5-0.4
		c0.1-0.1,0.2-0.3,0.3-0.5c0-0.2,0-0.4,0-0.6l-0.1-0.3l-0.2-0.3l-0.2-0.2l-0.3-0.2c-0.2-0.1-0.4-0.2-0.6-0.2c-0.2,0-0.4-0.1-0.6-0.1
		c-0.2,0-0.4,0-0.6,0c-0.2,0-0.4,0.1-0.6,0.2c-0.2,0-0.4,0.2-0.6,0.3c-0.2,0.1-0.4,0.2-0.5,0.3l-0.2,0.1l0-0.2l0-0.7l0-0.1l0.1,0
		l0.5-0.2l0.2-0.1l0.2-0.1c0.3-0.2,0.6-0.4,0.8-0.6c0.2-0.3,0.5-0.5,0.7-0.7l0.7-0.8l0-0.1l0.1,0c0.6,0.1,1.1,0.4,1.5,0.7
		c0.2,0.2,0.4,0.4,0.6,0.6c0.2,0.2,0.4,0.4,0.6,0.6c0.4,0.4,0.6,1,0.8,1.5c0.2,0.6,0.2,1.1,0.3,1.7c0.1,0.5,0.2,1.1,0.3,1.7
		c0.1,0.5,0.5,1,1,1.2c0.2,0.1,0.5,0.1,0.8,0.1c0.1,0,0.3,0,0.4-0.1c0.1-0.1,0.2-0.1,0.4-0.2c0.5-0.3,0.8-0.7,1-1.2
		c0.2-0.5,0.2-1.1,0.3-1.6c0-0.6,0-1.1-0.1-1.7c-0.1-1.1-0.3-2.2-0.7-3.3c-0.2-0.5-0.4-1-0.7-1.5c-0.3-0.5-0.6-0.9-1-1.3
		c-0.4-0.4-0.8-0.7-1.3-1c-0.2-0.1-0.5-0.2-0.8-0.4L203.4,338.3L203.4,338.3L203.4,338.3z M203.4,338.3l0.8,0.2
		c0.3,0.1,0.5,0.2,0.8,0.4c0.5,0.3,0.9,0.6,1.3,1c0.4,0.4,0.7,0.8,1,1.3c0.3,0.5,0.5,1,0.7,1.5c0.4,1.1,0.6,2.2,0.7,3.3
		c0.1,0.6,0.1,1.1,0.1,1.7c0,0.5,0,1.1-0.2,1.7c-0.2,0.5-0.6,1-1.1,1.3c-0.5,0.3-1.1,0.3-1.7,0.1c-0.6-0.2-1-0.7-1.1-1.3
		c-0.1-0.6-0.2-1.1-0.3-1.7c-0.1-0.5-0.2-1.1-0.3-1.6c-0.2-0.5-0.5-1-0.8-1.4c-0.2-0.2-0.3-0.4-0.5-0.6c-0.2-0.2-0.4-0.4-0.6-0.5
		c-0.4-0.4-0.9-0.6-1.5-0.7l0.1,0l-0.7,0.8c-0.2,0.3-0.5,0.5-0.8,0.8c-0.2,0.3-0.6,0.4-0.9,0.6l-0.2,0.1l-0.3,0.1l-0.5,0.2l0.1-0.1
		l0,0.7l-0.2-0.1c0.2-0.1,0.4-0.3,0.6-0.4c0.2-0.1,0.4-0.2,0.6-0.3c0.2-0.1,0.4-0.2,0.7-0.2c0.2,0,0.5-0.1,0.7,0
		c0.2,0,0.5,0,0.7,0.1c0.2,0,0.4,0.1,0.7,0.2l0.3,0.2l0.3,0.3l0.2,0.3l0.1,0.4c0,0.2,0,0.5,0,0.7c-0.1,0.2-0.2,0.5-0.3,0.6
		c-0.2,0.2-0.4,0.3-0.6,0.4c-0.2,0.1-0.4,0.2-0.7,0.2c-0.2,0.1-0.4,0.1-0.7,0.1c-0.2,0-0.5,0-0.7,0c-0.5-0.1-0.9-0.3-1.3-0.5
		l0.2-0.1l-0.2,0.4l-0.3,0.4l-0.4,0.2l-0.5,0.1l0.1-0.1l0,0l0,0.2l-0.1,0l-0.1,0l-0.1,0l0-0.2l0,0l0.1,0.1l-0.5-0.1l-0.4-0.2
		l-0.3-0.4l-0.2-0.4l0.2,0.1c-0.4,0.2-0.8,0.4-1.3,0.5c-0.2,0-0.4,0.1-0.7,0c-0.2,0-0.5,0-0.7-0.1c-0.2,0-0.4-0.1-0.7-0.2
		c-0.2-0.1-0.4-0.2-0.6-0.4c-0.2-0.2-0.3-0.4-0.3-0.6c0-0.2-0.1-0.5,0-0.7l0.1-0.3l0.2-0.3l0.3-0.3l0.3-0.2c0.2-0.1,0.4-0.2,0.7-0.2
		c0.2-0.1,0.5-0.1,0.7-0.1c0.2,0,0.5,0,0.7,0c0.2,0,0.4,0.1,0.7,0.2c0.2,0.1,0.4,0.2,0.6,0.3c0.2,0.1,0.4,0.2,0.6,0.4l-0.2,0.1
		l0-0.7l0.1,0.1l-0.5-0.2c-0.2-0.1-0.3-0.1-0.5-0.2c-0.3-0.2-0.6-0.4-0.9-0.6c-0.3-0.3-0.5-0.5-0.8-0.8l-0.7-0.8l0.1,0
		c-0.5,0.1-1,0.3-1.5,0.7c-0.2,0.2-0.4,0.3-0.6,0.5c-0.2,0.2-0.4,0.4-0.5,0.6c-0.3,0.4-0.6,0.9-0.8,1.4c-0.2,0.5-0.2,1.1-0.3,1.6
		c-0.1,0.6-0.2,1.1-0.3,1.7c-0.1,0.6-0.5,1.1-1.1,1.3c-0.3,0.1-0.6,0.1-0.9,0.1c-0.3,0-0.6-0.1-0.8-0.3c-0.5-0.3-0.9-0.8-1.1-1.3
		c-0.3-0.6-0.2-1.1-0.3-1.7c0-0.6,0-1.1,0.1-1.7c0.1-1.1,0.3-2.2,0.7-3.3c0.2-0.5,0.4-1,0.7-1.5c0.3-0.5,0.6-0.9,1-1.3
		c0.4-0.4,0.9-0.7,1.3-1c0.2-0.1,0.5-0.2,0.8-0.4l0.8-0.2l-0.1,0.1c-0.9-1.4-1.6-3-2.2-4.5c-0.6-1.6-1.2-3.2-1.6-4.8
		c-0.2-0.8-0.4-1.6-0.5-2.5c-0.1-0.8-0.3-1.7-0.3-2.5c-0.1-0.8-0.1-1.7-0.1-2.5c0-0.4,0-0.8,0-1.3c0-0.4,0-0.8,0.1-1.3
		c0.1-0.8,0.2-1.7,0.4-2.5l0.3-1.2c0.1-0.4,0.3-0.8,0.4-1.2c0.1-0.4,0.3-0.8,0.5-1.2c0.2-0.4,0.3-0.8,0.5-1.1
		c0.2-0.4,0.4-0.8,0.6-1.1l0.7-1.1c0.2-0.4,0.5-0.7,0.7-1c0.3-0.3,0.5-0.7,0.8-1l0.8-1c0.3-0.3,0.6-0.6,0.9-0.9
		c0.6-0.6,1.3-1.1,1.9-1.7c0.7-0.5,1.4-1,2-1.5l0,0.1l0-1.2v0l0,0l0,0l0,0.1l0,0l0,0l0.1-0.4l0.2-0.3l0.3-0.2l0.4-0.1l-0.1,0.1l0,0
		l0-0.1l0.1,0l0.1,0l0.1,0l0,0.1l0,0l-0.1-0.1l0.4,0.1l0.3,0.2l0.1,0.2l0.1,0.2l0,0.2l0,0.1l0,0.1l-0.1-0.1h0l0.1,0l0,0.1l0,1.2
		l0-0.1c0.7,0.5,1.4,0.9,2.1,1.4c0.7,0.5,1.3,1,1.9,1.6c0.6,0.6,1.2,1.2,1.7,1.8c0.5,0.7,1.1,1.3,1.5,2c0.5,0.7,0.8,1.5,1.2,2.2
		c0.3,0.8,0.7,1.5,0.9,2.4c0.1,0.4,0.3,0.8,0.3,1.2c0.1,0.4,0.2,0.8,0.3,1.2c0.1,0.4,0.1,0.8,0.2,1.2l0.1,1.3
		c0.1,0.8,0.1,1.7,0.1,2.5c0,0.8-0.1,1.7-0.1,2.5c-0.2,1.7-0.5,3.3-0.9,5C206.2,332.2,205,335.3,203.4,338.3L203.4,338.3z"/>
	<g display="inline">
		<path fill="none" stroke="#3C5052" stroke-width="0.25" stroke-linecap="round" stroke-linejoin="round" d="M191.7,346.2
			L191.7,346.2c0,0,1.9,1.4,1.9,1.4c0.1,0.1,3.6-2.2,3.6-2.1c0,0-1.3,2.4-1.3,2.4c0,0,2.9-1.7,2.9-1.7l1,2l0.2-0.1 M193.6,342.5
			l8.1-4.7c0.1,0.1-7.5,6.4-7.5,6.5c0,0.1,7.9-4.6,7.9-4.6c0,0,0.4,2.9,0.5,3c0,0.1,1.6-1,1.6-0.9c0,0-0.5,2.5-0.5,2.5
			c0,0.1,1.2-0.7,1.2-0.7c0,0-0.4,2.9-0.4,2.9c0,0,1.2-0.8,1.2-0.7c0,0-1.2,2.3-1.1,2.4c0,0.1,0.6-0.4,0.7-0.4l0.2,2.7
			c0,0,0.7-0.4,0.7-0.4 M191,309.5c0,0,5.4-3.2,5.4-3.1c0.1,0.1-7.4,6-7.4,6.2c0.1,0.1,8-4.8,8.1-4.7c0.1,0.1-9.4,8.3-9.3,8.4
			c0.1,0.1,11.4-6.8,11.5-6.7c0.1,0.2-12.8,9.9-12.7,10.1c0.1,0.2,14.2-8.5,14.3-8.3c0.1,0.2-14.9,10.8-14.8,11
			c0.1,0.2,15.9-9.4,16-9.2c0.1,0.1-15.1,11.1-15,11.2c0.1,0.2,15.7-9.3,15.8-9.1c0.1,0.1-15.8,10.9-15.7,11.1
			c0.1,0.1,16.2-9.5,16.3-9.4c0.1,0.1-17,12.1-16.9,12.3c0.1,0.2,18.4-10.8,18.5-10.7c0.1,0.2-17.9,12.2-17.8,12.3
			c0.1,0.2,17-10.1,17.1-9.9c0.1,0.1-16.2,12.4-16.2,12.5c0.1,0.1,17.2-10.2,17.3-10c0.1,0.2-16.1,12-16,12.2
			c0.1,0.1,15.4-9.2,15.5-9c0.1,0.1-14.5,10.4-14.4,10.6c0.1,0.2,13.4-8,13.5-7.8c0.1,0.2-17.5,12.5-17.4,12.7
			c0.1,0.2,17-10,17.1-9.8c0.1,0.2-17.9,13.2-17.8,13.4c0.2,0.3,15.9-9.5,16-9.3c0.1,0.2-15.9,10.9-15.8,11c0,0.1,2.1-1.3,2.2-1.2
			c0,0-1.8,3.1-1.8,3.1l0.2-0.1"/>
	</g>
	<path display="inline" fill="#3C5052" d="M203.6,318.3l0,0.4c0,0.2,0,0.6-0.2,1c-0.1,0.2-0.1,0.5-0.2,0.7l-0.4,0.8
		c-0.2,0.3-0.4,0.5-0.6,0.8c-0.2,0.2-0.5,0.5-0.8,0.7c-0.7,0.4-1.4,0.8-2.3,0.8c-0.9,0.1-1.8-0.1-2.7-0.4c-0.9-0.4-1.6-1.1-2.2-1.9
		c-0.6-0.9-0.9-1.9-0.9-2.9c0-1,0.3-2.1,0.8-2.9c0.6-0.8,1.4-1.5,2.3-1.9c0.9-0.3,1.9-0.6,2.8-0.4c0.4,0,0.9,0.2,1.3,0.3
		c0.4,0.1,0.7,0.4,1.1,0.6c0.3,0.3,0.6,0.5,0.8,0.7c0.2,0.3,0.4,0.5,0.6,0.8l0.4,0.8c0.1,0.3,0.2,0.5,0.2,0.7c0.2,0.4,0.1,0.8,0.2,1
		L203.6,318.3L203.6,318.3z M203.6,318.3l0-0.4c-0.1-0.2,0-0.6-0.2-1c-0.1-0.2-0.1-0.4-0.2-0.7l-0.4-0.8c-0.2-0.3-0.4-0.5-0.6-0.8
		c-0.3-0.2-0.5-0.4-0.8-0.7c-0.7-0.4-1.4-0.7-2.3-0.8c-0.9-0.1-1.8,0.1-2.6,0.4c-0.9,0.4-1.6,1-2.2,1.8c-0.5,0.8-0.8,1.8-0.9,2.8
		c0,1,0.3,2,0.8,2.8c0.6,0.8,1.4,1.5,2.2,1.8c0.2,0.1,0.4,0.1,0.7,0.2c0.2,0.1,0.4,0.1,0.7,0.1l0.7,0.1c0.2,0,0.4,0,0.6-0.1
		c0.9-0.1,1.6-0.4,2.3-0.8c0.3-0.2,0.6-0.4,0.8-0.7c0.2-0.3,0.4-0.5,0.6-0.8l0.4-0.8c0.1-0.2,0.2-0.5,0.2-0.7c0.2-0.4,0.1-0.8,0.2-1
		L203.6,318.3L203.6,318.3z M201.6,329.6l0,0.2c0,0.1,0,0.3-0.1,0.5l-0.1,0.4l-0.2,0.4l-0.3,0.4c-0.1,0.1-0.3,0.3-0.4,0.4
		c-0.3,0.2-0.7,0.4-1.2,0.4c-0.5,0.1-0.9,0-1.4-0.2c-0.4-0.2-0.8-0.6-1.1-1c-0.3-0.4-0.4-0.9-0.5-1.4c0-0.5,0.1-1,0.4-1.5
		c0.3-0.4,0.7-0.8,1.1-1c0.5-0.2,0.9-0.3,1.4-0.2c0.4,0,0.9,0.2,1.2,0.4c0.1,0.1,0.3,0.2,0.4,0.4l0.3,0.4l0.2,0.4l0.1,0.4
		c0.1,0.2,0.1,0.4,0.1,0.5L201.6,329.6L201.6,329.6z M201.6,329.6l0-0.2c0-0.1,0-0.3-0.1-0.5c0-0.2-0.2-0.4-0.3-0.7l-0.3-0.4
		l-0.4-0.3c-0.3-0.2-0.7-0.3-1.1-0.4c-0.4-0.1-0.8,0-1.3,0.2c-0.4,0.2-0.8,0.5-1.1,0.9c-0.3,0.4-0.4,0.9-0.5,1.4
		c0,0.5,0.1,1,0.4,1.4c0.3,0.4,0.7,0.7,1.1,0.9c0.4,0.1,0.9,0.2,1.3,0.1c0.4,0,0.8-0.2,1.1-0.4l0.4-0.3l0.3-0.4
		c0.2-0.3,0.3-0.5,0.3-0.7c0.1-0.2,0.1-0.4,0.1-0.5L201.6,329.6L201.6,329.6z M204.5,350.9c0,0,12.5,0,25-0.1c6.3,0,12.5,0,17.2,0
		l7.8,0.1v0l-7.8,0.1c-4.7,0.1-10.9,0-17.2,0C217.1,350.9,204.5,350.9,204.5,350.9L204.5,350.9z M182.1,353.3c0,0,8.5,0,16.9-0.1
		c4.2,0,8.5,0,11.6,0c3.2,0,5.3,0.1,5.3,0.1v0c0,0-2.1,0.1-5.3,0.1c-3.2,0.1-7.4,0-11.6,0C190.6,353.4,182.1,353.4,182.1,353.3
		L182.1,353.3z M190.2,357.5c0,0,8.5,0,16.9-0.1c4.2,0,8.5,0,11.6,0c3.2,0,5.3,0.1,5.3,0.1v0c0,0-2.1,0.1-5.3,0.1
		c-3.2,0.1-7.4,0-11.6,0C198.7,357.6,190.2,357.5,190.2,357.5L190.2,357.5z M287.5,123c-0.4-1.7-1-3.3-1.8-4.9c-0.8-1.5-1.8-3-3-4.2
		c-0.3-0.3-0.6-0.6-1-0.9c-0.3-0.3-0.7-0.5-1.1-0.7c-0.4-0.2-0.7-0.4-1.1-0.6c-0.4-0.2-0.8-0.3-1.2-0.4c-0.4-0.1-0.8-0.2-1.2-0.3
		c-0.4-0.1-0.8-0.1-1.3-0.1c-0.4,0-0.9,0-1.3,0c-0.4,0-0.9,0.1-1.3,0.1l-0.1,0l0,0l-0.4-0.5l0.1,0h0l-0.1,0l0-0.1l0,0l0,0
		c-0.1-0.1-0.4-0.2-0.5-0.1l-0.1,0l0-0.1l0,0h0.1l0,0l0,0l0,0l0-0.1l0,0l0,0.1l0,0c-0.1,0.1-0.1,0.4,0,0.5l0,0l0,0l0.1,0.1h-0.2
		l0.1-0.1l0.4,0.5l0,0l0,0c-0.2,0.8-0.4,1.7-0.5,2.5c-0.1,0.4-0.1,0.9-0.1,1.3s0,0.9,0.1,1.3c0.1,0.4,0.1,0.9,0.2,1.3
		c0.1,0.4,0.2,0.8,0.4,1.2c0.2,0.4,0.3,0.8,0.5,1.2c0.2,0.4,0.4,0.8,0.7,1.1c1,1.4,2.3,2.6,3.7,3.6c0.7,0.5,1.5,0.9,2.2,1.3
		c0.8,0.4,1.6,0.7,2.4,1l0.1,0l-0.1,0.1c-0.2,0.2-0.3,0.5-0.4,0.7c-0.1,0.3-0.2,0.5-0.2,0.8c0,0.6,0.1,1.1,0.3,1.7
		c0.2,0.5,0.5,1,0.8,1.5c0.2,0.2,0.3,0.5,0.5,0.7c0.2,0.2,0.4,0.4,0.6,0.5c0.2,0.1,0.5,0.2,0.8,0.1c0.1,0,0.2-0.1,0.3-0.1
		c0.1-0.1,0.2-0.2,0.3-0.3c0.1-0.2,0.1-0.5,0-0.7c-0.1-0.2-0.3-0.5-0.4-0.7c-0.1-0.2-0.3-0.5-0.4-0.8c-0.1-0.3-0.2-0.6-0.2-0.9
		c0-0.6,0-1.2,0.4-1.7l0-0.1l0.1,0c0.7,0.2,1.5,0.2,2.1,0l0.1-0.1l0,0.1l1.2,3l-0.2,0l2.7-3.1l0.1,0.2l-3.3-0.5l-0.2,0l0.1-0.2
		c0.4-0.6,0.4-1.3,0.4-2.1l0-0.1l0.1,0c0.6-0.3,1.2-0.3,1.8-0.2c0.3,0.1,0.6,0.2,0.8,0.3c0.3,0.2,0.4,0.4,0.7,0.6
		c0.2,0.2,0.4,0.4,0.7,0.5c0.2,0.2,0.5,0.2,0.7,0.1c0.2-0.1,0.5-0.3,0.6-0.5c0.1-0.3,0.1-0.6,0-0.8c-0.1-0.3-0.3-0.5-0.4-0.7
		c-0.2-0.2-0.4-0.4-0.6-0.6c-0.4-0.4-0.9-0.8-1.4-1c-0.5-0.3-1-0.5-1.6-0.5c-0.3,0-0.6,0-0.9,0C288,122.8,287.7,122.9,287.5,123
		L287.5,123L287.5,123L287.5,123z M287.5,123c0.3-0.1,0.5-0.2,0.8-0.3c0.3-0.1,0.6-0.1,0.9,0c0.6,0,1.1,0.3,1.7,0.5
		c0.5,0.3,1,0.6,1.4,1c0.2,0.2,0.4,0.4,0.6,0.6c0.2,0.2,0.4,0.4,0.5,0.8c0.1,0.3,0.1,0.6,0,0.9c-0.1,0.3-0.4,0.5-0.6,0.6
		c-0.3,0.1-0.7,0-0.9-0.1c-0.3-0.2-0.5-0.4-0.7-0.6c-0.2-0.2-0.4-0.4-0.7-0.5c-0.2-0.1-0.5-0.2-0.8-0.3c-0.5-0.1-1.2-0.1-1.6,0.1
		l0.1-0.1c0,0.7,0,1.5-0.4,2.2l-0.1-0.2l3.3,0.5l0.2,0l-0.2,0.2l-2.7,3.1l-0.1,0.1l-0.1-0.2l-1.2-3l0.2,0.1c-0.7,0.3-1.5,0.2-2.2,0
		l0.1,0c-0.3,0.4-0.4,1-0.4,1.6c0,0.3,0.1,0.6,0.2,0.8c0.1,0.2,0.3,0.5,0.4,0.7c0.2,0.3,0.3,0.5,0.4,0.8c0.1,0.3,0.2,0.7,0,0.9
		c-0.1,0.1-0.2,0.3-0.3,0.4c-0.1,0.1-0.3,0.2-0.5,0.2c-0.3,0-0.6,0-0.9-0.2c-0.3-0.1-0.5-0.4-0.7-0.6c-0.2-0.2-0.4-0.5-0.5-0.7
		c-0.3-0.5-0.6-1-0.8-1.6c-0.2-0.6-0.3-1.2-0.3-1.8c0-0.3,0.1-0.6,0.2-0.9c0.1-0.3,0.3-0.5,0.4-0.8l0,0.1c-0.8-0.3-1.6-0.7-2.4-1.1
		c-0.8-0.4-1.5-0.9-2.2-1.4c-1.4-1-2.7-2.2-3.7-3.7c-1-1.4-1.6-3.1-1.8-4.8c0-0.4-0.1-0.9-0.1-1.3c0-0.4,0-0.9,0.1-1.3
		c0.1-0.9,0.3-1.7,0.5-2.6l0,0.1l-0.4-0.5l-0.1-0.1l0.2,0h0l0,0.1l0,0l0,0l0,0c-0.2-0.2-0.2-0.5,0-0.7l0,0.1l0,0l0-0.1l0,0l0,0l0,0
		l0,0l0.1-0.1l0.1,0.1l0,0l-0.1,0c0.2-0.2,0.6-0.1,0.7,0.1l0,0l0,0l-0.1,0h0l0.1,0l0,0.1l0.4,0.5l-0.1,0c0.4,0,0.9-0.1,1.3-0.1
		c0.4,0,0.9,0,1.3,0c0.4,0,0.9,0.1,1.3,0.1c0.4,0.1,0.9,0.2,1.3,0.3c0.4,0.1,0.8,0.3,1.2,0.5c0.4,0.2,0.8,0.4,1.1,0.6
		c0.4,0.2,0.7,0.5,1.1,0.8c0.3,0.3,0.7,0.6,1,0.9c1.2,1.2,2.2,2.7,3,4.3C286.6,119.7,287.1,121.3,287.5,123L287.5,123z"/>
	<g display="inline">
		<path fill="none" stroke="#3C5052" stroke-width="0.25" stroke-linecap="round" stroke-linejoin="round" d="M288.1,125.5
			c0.2,0,0.1-1.9,0.3-1.9c0,0,1.7,1.2,1.8,1.2c0.1,0,0.1-0.6,0.1-0.6c0,0,1.2,1.6,1.4,1.6c0.1,0,0.2-1.2,0.2-1.2 M284.9,127.1
			l1.1-7.2l1.4,6.8l0.4-2.9 M273,118.4c0.4,0.1,1-6.6,1-6.6c0.6,0.1,0.1,8.4,0.6,8.5c0.7,0.1,0.6-7.8,1.1-7.7
			c0.1,0,0.4,10.4,0.8,10.5c0.5,0.1,1.5-10.5,1.5-10.5s-0.4,11.5,0.3,11.6c0.1,0,1.7-11.5,1.7-11.5c0.8,0.1-1.3,12.5-0.4,12.7
			c0.6,0.1,1.5-11.7,1.7-11.7c0.1,0-0.4,12.2,0,12.2c0,0,1-10.8,1.6-10.7c0.7,0.1-0.5,14.7-0.5,14.7l1.8-12.3
			c0.5,0.1-0.1,15.2-0.1,15.2c0.1,0,0.1-1.1,0.2-1.1"/>
	</g>
	<path display="inline" fill="#3C5052" d="M271.6,108.6l-2.6-2.8c-0.6-0.7-1.3-1.4-1.7-2c-0.4-0.6-0.7-0.9-0.7-0.9l0,0
		c0,0,0.4,0.3,0.8,0.8c0.5,0.5,1.1,1.2,1.7,2L271.6,108.6L271.6,108.6L271.6,108.6z M303.2,135.9l-6.3-3.3c-1.6-0.8-3.2-1.7-4.3-2.3
		c-1.2-0.7-1.9-1.1-1.9-1.1l0,0c0,0,0.8,0.4,2,1c1.2,0.6,2.8,1.5,4.3,2.3L303.2,135.9L303.2,135.9L303.2,135.9z M299.1,138l-4.9-4.3
		c-1.2-1.1-2.4-2.2-3.3-3c-0.9-0.8-1.4-1.4-1.4-1.4l0,0c0,0,0.6,0.5,1.6,1.3c0.9,0.8,2.1,1.9,3.3,3L299.1,138L299.1,138z
		 M265.6,105.4l-1.5-1.6c-0.4-0.4-0.8-0.8-1-1.1c-0.2-0.3-0.4-0.6-0.4-0.6l0,0c0,0,0.2,0.2,0.5,0.5c0.3,0.3,0.7,0.7,1,1.1
		L265.6,105.4C265.7,105.4,265.6,105.4,265.6,105.4z M264.7,98.9l-1.5-1.6c-0.4-0.4-0.8-0.8-1-1.1c-0.2-0.3-0.4-0.6-0.4-0.6l0,0
		c0,0,0.2,0.2,0.5,0.5c0.3,0.3,0.7,0.7,1,1.1L264.7,98.9L264.7,98.9L264.7,98.9z M297.2,141l-3.8-4.8c-0.9-1.2-1.9-2.4-2.5-3.4
		c-0.7-0.9-1.1-1.6-1.1-1.6l0,0c0,0,0.5,0.6,1.2,1.5c0.7,0.9,1.6,2.1,2.6,3.4C295.4,138.5,297.3,140.9,297.2,141L297.2,141z
		 M292.9,140l-2.2-4.3c-0.6-1.1-1.1-2.2-1.5-3c-0.4-0.8-0.6-1.4-0.6-1.4l0,0c0,0,0.3,0.5,0.8,1.3c0.4,0.8,1,1.9,1.5,3L292.9,140
		L292.9,140L292.9,140z"/>
	<path display="inline" fill="none" stroke="#3C5052" stroke-width="0.25" stroke-linecap="round" stroke-linejoin="round" d="
		M233.6,78.5c-1.4,0.3-3.6-0.4-3.7,2.1c-0.1,1.1,1.7,3.5,3.1,3.1c2-0.5,1.2-3.3,0.4-4.1 M229.4,87.2c2.4,0.8,2,0.7,4,2.2
		c0-0.5-1.1-3-1-3.6 M230.2,86.2c1.8,1.9,1.5,1.5,2.5,3.8c0.2-0.5,0.4-3.2,0.7-3.6 M228.7,105.4c-1.2-0.7-1.9,0.3-3.1,0.3
		c0.6-1.8,1.1-3.4,1.4-5.2c0.3-2.2-0.2-4.2-1-6.2c-0.5-1.5-0.6-1.3,0.2-2.4c0.5-0.8,1.1-1.5,1.6-2.3c1.1-1.8,3-3.9,3.1-6.1
		 M220,103.7c-0.5-1.2-1.7-1.6-2.7-2.2c0.8-0.5,1.6-0.6,2.4-1.3c1.2-1,2.2-2.1,3.1-3.4c0.7-1,2.3-2.8,2.3-3.9 M236.9,86.5
		c0.3-1.2-1.1-3.2,0.1-3.8c0.7-0.3,1.6,0.5,1.7,1.3c0.5-1.3,3.1-0.1,2.6,1.2c-0.7,1.8-3.2-0.8-3.9,0.6 M246.5,113.5
		c-0.3-0.4-0.8-0.5-1.4-0.4c-0.6,1.2,0.9,1.8,1.1,3c0.2-1.1,1.6-0.6,1.8-1.5c0.3-0.9-0.9-0.9-1.6-0.8"/>
</g>
<g id="Layer_2" display="none">
	<g id="Intuos_Pro" display="inline">
		<path opacity="0.1" d="M384.6,293.8c0,0,0-0.1,0-0.1c0,0,0-0.1,0-0.1c0,0,0-0.1,0-0.1c0,0,0-0.1,0-0.1c0,0,0-0.1,0-0.1
			c0,0,0-0.1,0-0.1c0,0,0-0.1,0-0.1c0,0,0-0.1,0-0.1c0,0,0-0.1,0-0.1c0,0,0-0.1,0-0.1c0,0,0-0.1,0-0.1c0,0,0-0.1,0-0.1
			c0,0,0-0.1,0-0.1c0,0,0-0.1,0-0.1c0,0,0-0.1,0-0.1c0,0,0-0.1,0-0.1c0,0,0-0.1,0-0.1c0,0,0-0.1,0-0.1c0,0,0-0.1,0-0.1
			c0,0,0-0.1,0-0.1c0,0,0-0.1,0-0.1c0,0,0-0.1,0-0.1c0,0,0-0.1,0-0.1c0,0,0-0.1,0-0.1c0,0,0-0.1,0-0.1c0,0,0-0.1,0-0.1
			c0,0,0-0.1,0-0.1c0,0,0-0.1,0-0.1c0,0,0-0.1,0-0.1c0,0,0-0.1,0-0.1c0,0,0-0.1,0-0.1c0,0,0-0.1,0-0.1c0,0,0-0.1,0-0.1
			c0,0,0-0.1,0-0.1c0,0,0-0.1,0-0.1c0,0,0-0.1,0-0.1c0,0,0-0.1,0-0.1c0,0,0-0.1,0-0.1c0,0,0-0.1,0-0.1c0,0,0-0.1,0-0.1
			c0,0,0-0.1,0-0.1c0,0,0-0.1,0-0.1c0,0,0-0.1,0-0.1c0,0,0-0.1,0-0.1c0,0,0-0.1,0-0.1c0,0,0-0.1,0-0.1c0,0,0-0.1,0-0.1
			c0,0,0-0.1,0-0.1c0,0,0-0.1,0-0.1c0,0,0-0.1,0-0.1c0.1-3.5-1-7-3.6-9.7l-212-228.2c-5-5.4-13.5-5.7-18.9-0.7L8.2,181.7
			c-2.7,2.5-5.5,7.2-5.7,10.7c0,0,0,0.1,0,0.1c0,0,0,0.1,0,0.1c0,0,0,0.1,0,0.1c0,0,0,0.1,0,0.1c0,0,0,0.1,0,0.1c0,0,0,0.1,0,0.1
			c0,0,0,0.1,0,0.1c0,0,0,0.1,0,0.1c0,0,0,0.1,0,0.1c0,0,0,0.1,0,0.1c0,0,0,0.1,0,0.1c0,0,0,0.1,0,0.1c0,0,0,0.1,0,0.1
			c0,0,0,0.1,0,0.1c0,0,0,0.1,0,0.1c0,0,0,0.1,0,0.1c0,0,0,0.1,0,0.1c0,0,0,0.1,0,0.1c0,0,0,0.1,0,0.1c0,0,0,0.1,0,0.1
			c0,0,0,0.1,0,0.1c0,0,0,0.1,0,0.1c0,0,0,0.1,0,0.1c0,0,0,0.1,0,0.1c0,0,0,0.1,0,0.1c0,0,0,0.1,0,0.1c0,0,0,0.1,0,0.1
			c0,0,0,0.1,0,0.1c0,0,0,0.1,0,0.1c0,0,0,0.1,0,0.1c0,0,0,0.1,0,0.1c0,0,0,0.1,0,0.1c0,0,0,0.1,0,0.1c0,0,0,0.1,0,0.1
			c0,0,0,0.1,0,0.1c0,0,0,0.1,0,0.1c0,0,0,0.1,0,0.1c0,0,0,0.1,0,0.1c0,0,0,0.1,0,0.1c0,0,0,0.1,0,0.1c0,0,0,0.1,0,0.1
			c0,0,0,0.1,0,0.1c0,0,0,0.1,0,0.1c0,0,0,0.1,0,0.1c0,0,0,0.1,0,0.1c0,0,0,0.1,0,0.1c0,0,0,0.1,0,0.1c0,0,0,0.1,0,0.1
			c0,0,0,0.1,0,0.1c0,0,0,0.1,0,0.1c-0.1,3.5,1,7,3.6,9.7l212,228.2c5,5.4,13.5,5.7,18.9,0.7l143.6-133.3
			C383.1,300.6,384.5,297.2,384.6,293.8z"/>
		<g>
			<g>
				<path fill="#373A41" d="M238.2,429.7c-5.4,5-13.9,4.7-18.9-0.7L7.3,200.8c-5-5.4-4.7-13.9,0.7-18.9L151.5,48.5
					c5.4-5,13.9-4.7,18.9,0.7l212,228.2c5,5.4,4.7,13.9-0.7,18.9L238.2,429.7z"/>
			</g>
		</g>
		
			<rect x="81.7" y="163.7" transform="matrix(0.6806 0.7327 -0.7327 0.6806 248.2341 -70.7645)" fill="#202126" width="247.2" height="171.1"/>
		<g>
			
				<rect x="133" y="78.3" transform="matrix(0.6806 0.7327 -0.7327 0.6806 109.8335 -94.2823)" fill="#2D3036" width="60.1" height="1"/>
			
				<rect x="132.5" y="79.1" transform="matrix(0.6806 0.7327 -0.7327 0.6806 109.9918 -93.8308)" opacity="3.000000e-002" fill="#FFFFFF" width="60.1" height="0.2"/>
		</g>
		<g>
			
				<rect x="8.3" y="194.2" transform="matrix(-0.6806 -0.7327 0.7327 -0.6806 -78.1538 355.2354)" fill="#2D3036" width="60.1" height="1"/>
			
				<rect x="8.7" y="194.1" transform="matrix(-0.6806 -0.7327 0.7327 -0.6806 -77.1183 354.8722)" opacity="3.000000e-002" fill="#FFFFFF" width="60.1" height="0.2"/>
		</g>
		<g>
			<g>
				<g>
					<path fill="#2D3036" d="M143.8,89.6c-1.1-1.2-1-3,0.1-4.1l4.2-3.9c1.2-1.1,3-1,4.1,0.1l7.3,7.8c1.1,1.2,1,3-0.1,4.1l-4.2,3.9
						c-1.2,1.1-3,1-4.1-0.1L143.8,89.6z"/>
					<path fill="#3A3D45" d="M154.5,96.9c-0.8,0.7-2,0.7-2.7-0.1l-7.3-7.8c-0.7-0.8-0.7-2,0.1-2.7l4.2-3.9c0.8-0.7,2-0.7,2.7,0.1
						l7.3,7.8c0.7,0.8,0.7,2-0.1,2.7L154.5,96.9z"/>
				</g>
				<g>
					<path fill="#2D3036" d="M115.8,115.6c-1.1-1.2-1-3,0.1-4.1l4.2-3.9c1.2-1.1,3-1,4.1,0.1l7.3,7.8c1.1,1.2,1,3-0.1,4.1l-4.2,3.9
						c-1.2,1.1-3,1-4.1-0.1L115.8,115.6z"/>
					<path fill="#3A3D45" d="M126.5,122.9c-0.8,0.7-2,0.7-2.7-0.1l-7.3-7.8c-0.7-0.8-0.7-2,0.1-2.7l4.2-3.9c0.8-0.7,2-0.7,2.7,0.1
						l7.3,7.8c0.7,0.8,0.7,2-0.1,2.7L126.5,122.9z"/>
				</g>
				<g>
					<path fill="#2D3036" d="M134.5,98.3c-1.1-1.2-1-3,0.1-4.1l4.2-3.9c1.2-1.1,3-1,4.1,0.1l7.3,7.8c1.1,1.2,1,3-0.1,4.1l-4.2,3.9
						c-1.2,1.1-3,1-4.1-0.1L134.5,98.3z"/>
					<path fill="#3A3D45" d="M145.2,105.6c-0.8,0.7-2,0.7-2.7-0.1l-7.3-7.8c-0.7-0.8-0.7-2,0.1-2.7l4.2-3.9c0.8-0.7,2-0.7,2.7,0.1
						l7.3,7.8c0.7,0.8,0.7,2-0.1,2.7L145.2,105.6z"/>
				</g>
				<g>
					<path fill="#2D3036" d="M125.2,106.9c-1.1-1.2-1-3,0.1-4.1l4.2-3.9c1.2-1.1,3-1,4.1,0.1l7.3,7.8c1.1,1.2,1,3-0.1,4.1l-4.2,3.9
						c-1.2,1.1-3,1-4.1-0.1L125.2,106.9z"/>
					<path fill="#3A3D45" d="M135.9,114.2c-0.8,0.7-2,0.7-2.7-0.1l-7.3-7.8c-0.7-0.8-0.7-2,0.1-2.7l4.2-3.9c0.8-0.7,2-0.7,2.7,0.1
						l7.3,7.8c0.7,0.8,0.7,2-0.1,2.7L135.9,114.2z"/>
				</g>
				<circle opacity="0.1" cx="132.6" cy="107.3" r="1"/>
				<circle fill="#41444D" cx="133" cy="107" r="1"/>
				<path opacity="0.1" d="M143.8,99.4l-2.5-2.7c-0.4-0.4-1-0.4-1.4-0.1c-0.4,0.4-0.4,1-0.1,1.4l2.5,2.7c0.4,0.4,1,0.4,1.4,0.1
					S144.2,99.8,143.8,99.4z"/>
				<path fill="#41444D" d="M144.1,99.1l-2.5-2.7c-0.4-0.4-1-0.4-1.4-0.1c-0.4,0.4-0.4,1-0.1,1.4l2.5,2.7c0.4,0.4,1,0.4,1.4,0.1
					C144.5,100.1,144.5,99.5,144.1,99.1z"/>
				<path opacity="3.000000e-002" fill="#FFFFFF" d="M133.7,107.7C133.7,107.7,133.6,107.8,133.7,107.7c0.2-0.3,0.2-0.9-0.1-1.3
					c-0.4-0.4-0.9-0.4-1.3-0.1c0,0,0-0.1,0.1-0.1c0.4-0.4,1-0.4,1.4,0.1C134.1,106.7,134.1,107.3,133.7,107.7z"/>
				<path opacity="3.000000e-002" fill="#FFFFFF" d="M144.1,100.5C144.1,100.6,144,100.6,144.1,100.5c0.2-0.3,0.2-0.9-0.1-1.3
					l-2.5-2.7c-0.4-0.4-0.9-0.4-1.3-0.1c0,0,0.1-0.1,0.1-0.1c0.4-0.4,1-0.4,1.4,0.1l2.5,2.7C144.5,99.5,144.5,100.1,144.1,100.5z"/>
			</g>
			<g>
				<g>
					<path fill="#2D3036" d="M56.8,185c1.1,1.2,1,3-0.1,4.1l-4.2,3.9c-1.2,1.1-3,1-4.1-0.1l-7.3-7.8c-1.1-1.2-1-3,0.1-4.1l4.2-3.9
						c1.2-1.1,3-1,4.1,0.1L56.8,185z"/>
					<path fill="#3A3D45" d="M46.1,177.7c0.8-0.7,2-0.7,2.7,0.1l7.3,7.8c0.7,0.8,0.7,2-0.1,2.7l-4.2,3.9c-0.8,0.7-2,0.7-2.7-0.1
						l-7.3-7.8c-0.7-0.8-0.7-2,0.1-2.7L46.1,177.7z"/>
				</g>
				<g>
					<path fill="#2D3036" d="M84.8,159c1.1,1.2,1,3-0.1,4.1l-4.2,3.9c-1.2,1.1-3,1-4.1-0.1l-7.3-7.8c-1.1-1.2-1-3,0.1-4.1l4.2-3.9
						c1.2-1.1,3-1,4.1,0.1L84.8,159z"/>
					<path fill="#3A3D45" d="M74.1,151.7c0.8-0.7,2-0.7,2.7,0.1l7.3,7.8c0.7,0.8,0.7,2-0.1,2.7l-4.2,3.9c-0.8,0.7-2,0.7-2.7-0.1
						l-7.3-7.8c-0.7-0.8-0.7-2,0.1-2.7L74.1,151.7z"/>
				</g>
				<g>
					<path fill="#2D3036" d="M66.2,176.4c1.1,1.2,1,3-0.1,4.1l-4.2,3.9c-1.2,1.1-3,1-4.1-0.1l-7.3-7.8c-1.1-1.2-1-3,0.1-4.1l4.2-3.9
						c1.2-1.1,3-1,4.1,0.1L66.2,176.4z"/>
					<path fill="#3A3D45" d="M55.5,169.1c0.8-0.7,2-0.7,2.7,0.1l7.3,7.8c0.7,0.8,0.7,2-0.1,2.7l-4.2,3.9c-0.8,0.7-2,0.7-2.7-0.1
						l-7.3-7.8c-0.7-0.8-0.7-2,0.1-2.7L55.5,169.1z"/>
				</g>
				<g>
					<path fill="#2D3036" d="M75.5,167.7c1.1,1.2,1,3-0.1,4.1l-4.2,3.9c-1.2,1.1-3,1-4.1-0.1l-7.3-7.8c-1.1-1.2-1-3,0.1-4.1l4.2-3.9
						c1.2-1.1,3-1,4.1,0.1L75.5,167.7z"/>
					<path fill="#3A3D45" d="M64.8,160.4c0.8-0.7,2-0.7,2.7,0.1l7.3,7.8c0.7,0.8,0.7,2-0.1,2.7l-4.2,3.9c-0.8,0.7-2,0.7-2.7-0.1
						l-7.3-7.8c-0.7-0.8-0.7-2,0.1-2.7L64.8,160.4z"/>
				</g>
				<circle opacity="0.1" cx="67.7" cy="167.7" r="1"/>
				<circle fill="#41444D" cx="68" cy="167.3" r="1"/>
				<path opacity="0.1" d="M60.5,176.8l-2.5-2.7c-0.4-0.4-1-0.4-1.4-0.1c-0.4,0.4-0.4,1-0.1,1.4l2.5,2.7c0.4,0.4,1,0.4,1.4,0.1
					C60.8,177.9,60.8,177.2,60.5,176.8z"/>
				<path fill="#41444D" d="M60.8,176.5l-2.5-2.7c-0.4-0.4-1-0.4-1.4-0.1c-0.4,0.4-0.4,1-0.1,1.4l2.5,2.7c0.4,0.4,1,0.4,1.4,0.1
					C61.2,177.5,61.2,176.9,60.8,176.5z"/>
				<path opacity="3.000000e-002" fill="#FFFFFF" d="M68.7,168.1C68.7,168.1,68.6,168.1,68.7,168.1c0.2-0.3,0.2-0.9-0.1-1.3
					c-0.4-0.4-0.9-0.4-1.3-0.1c0,0,0-0.1,0.1-0.1c0.4-0.4,1-0.4,1.4,0.1C69.1,167.1,69.1,167.7,68.7,168.1z"/>
				<path opacity="3.000000e-002" fill="#FFFFFF" d="M60.8,177.9C60.7,177.9,60.7,178,60.8,177.9c0.2-0.3,0.2-0.9-0.1-1.3l-2.5-2.7
					c-0.4-0.4-0.9-0.4-1.3-0.1c0,0,0.1-0.1,0.1-0.1c0.4-0.4,1-0.4,1.4,0.1l2.5,2.7C61.2,176.9,61.2,177.5,60.8,177.9z"/>
			</g>
		</g>
		<g>
			<polygon fill="#E5E6EA" points="174.3,125.2 171,121.7 168.9,123.6 169.2,124 171,122.3 173.9,125.5 			"/>
			<polygon fill="#E5E6EA" points="82.6,210.3 79.3,206.8 81.4,204.9 81.8,205.2 80,206.9 82.9,210 			"/>
			<polygon fill="#E5E6EA" points="212.3,350 215.5,353.5 217.7,351.5 217.3,351.2 215.6,352.8 212.6,349.7 			"/>
			<polygon fill="#E5E6EA" points="304,264.8 307.2,268.3 305.1,270.3 304.8,269.9 306.6,268.3 303.6,265.1 			"/>
		</g>
		<g>
			<circle fill="#2D3036" cx="100.3" cy="137.3" r="18.1"/>
			<path opacity="0.1" d="M93.3,143.8c-3.6-3.9-3.4-9.9,0.5-13.5c3.9-3.6,9.9-3.4,13.5,0.5c3.6,3.9,3.4,9.9-0.5,13.5
				C103,147.9,96.9,147.7,93.3,143.8z"/>
			<circle fill="#373A41" cx="100.3" cy="137.3" r="8.6"/>
			<path opacity="3.000000e-002" fill="#FFFFFF" d="M106.2,143.6c-0.1,0.1-0.1,0.1-0.2,0.2c3.3-3.2,3.5-8.6,0.3-12
				c-3.2-3.4-8.5-3.7-12-0.6c0.1-0.1,0.1-0.1,0.2-0.2c3.5-3.2,8.9-3,12.2,0.4C109.9,134.9,109.7,140.4,106.2,143.6z"/>
		</g>
	</g>
</g>
<g id="Layer_3">
	<g id="Pen">
		<path opacity="0.2" d="M149.7,209.4C149.7,209.4,149.7,209.4,149.7,209.4C149.7,209.4,149.7,209.4,149.7,209.4c-0.1,0-0.1,0-0.1,0
			c0,0-0.1,0-0.1,0c0,0,0,0,0,0c0,0-0.1,0-0.1,0c0,0,0,0,0,0c0,0-0.1,0-0.1,0c0,0,0,0,0,0c0,0-0.1,0-0.1,0c0,0,0,0-0.1,0
			c0,0-0.1,0-0.1,0c0,0,0,0-0.1,0c0,0-0.1,0-0.1,0c0,0,0,0-0.1,0c0,0-0.1,0-0.1,0c0,0-0.1,0-0.1,0c0,0,0,0-0.1,0c-0.1,0-0.1,0-0.2,0
			c0,0,0,0-0.1,0c0,0-0.1,0-0.1,0c0,0-0.1,0-0.1,0c0,0-0.1,0-0.2,0c0,0-0.1,0-0.1,0c-0.1,0-0.1,0-0.2,0c0,0-0.1,0-0.1,0
			c-0.1,0-0.1,0-0.2,0c0,0-0.1,0-0.1,0c-0.1,0-0.1,0-0.2,0c0,0-0.1,0-0.1,0c-0.1,0-0.1,0-0.2,0c0,0-0.1,0-0.1,0c-0.1,0-0.2,0-0.2,0
			c0,0,0,0-0.1,0c-0.1,0-0.2,0-0.3,0c0,0,0,0,0,0c-0.1,0-0.2,0-0.3-0.1l0,0c-0.6-0.1-1.2-0.2-1.9-0.3c0,0,0,0,0,0
			c-0.1,0-0.3,0-0.4-0.1c0,0,0,0,0,0c-0.1,0-0.3,0-0.4-0.1c0,0,0,0,0,0c-0.1,0-0.3,0-0.4-0.1c0,0,0,0-0.1,0c-0.1,0-0.3,0-0.4-0.1
			c0,0,0,0,0,0c-0.2,0-0.3,0-0.5-0.1c0,0,0,0,0,0c-1.1-0.1-2.2-0.3-3.5-0.4c0,0,0,0,0,0c-0.2,0-0.4,0-0.6-0.1c0,0-0.1,0-0.1,0
			c-0.2,0-0.4,0-0.6-0.1c0,0-0.1,0-0.1,0c-0.2,0-0.4,0-0.6-0.1c0,0-0.1,0-0.1,0c-0.2,0-0.4,0-0.6-0.1c-0.1,0-0.1,0-0.2,0
			c-0.2,0-0.4,0-0.6-0.1c-0.1,0-0.1,0-0.2,0c-0.2,0-0.4,0-0.6-0.1c-0.1,0-0.1,0-0.2,0c-0.2,0-0.4,0-0.6-0.1c-0.1,0-0.1,0-0.2,0
			c-0.2,0-0.4,0-0.7-0.1c-0.1,0-0.1,0-0.2,0c-0.3,0-0.6-0.1-0.8-0.1c-0.1,0-0.3,0.3-0.6,0.8l-1.5-0.8c-0.3-0.1-0.6-0.1-0.8,0.1
			c0,0-0.1,0.1-0.1,0.2l0,0l0,0c-0.2,0.3-0.1,0.8,0.3,0.9l1.5,0.8c-0.3,0.5-0.4,1-0.3,1c2,2.4,3.7,4.5,5.1,6.1l0,0c0,0,0,0,0,0
			c0.1,0.1,0.1,0.1,0.2,0.2c0,0,0.1,0.1,0.1,0.1l0,0c0.4,0.5,0.8,0.9,1.2,1.3c0,0,0,0,0.1,0.1c0.1,0.1,0.2,0.2,0.2,0.3
			c0,0,0.1,0.1,0.1,0.1c0.1,0.1,0.1,0.2,0.2,0.2c0,0,0.1,0.1,0.1,0.1c0.1,0.1,0.1,0.1,0.2,0.2c0,0.1,0.1,0.1,0.1,0.2
			c0,0.1,0.1,0.1,0.1,0.2c0.1,0.1,0.1,0.1,0.2,0.2c0,0,0.1,0.1,0.1,0.1c0.1,0.1,0.1,0.1,0.2,0.2c0,0,0.1,0.1,0.1,0.1
			c0.1,0.1,0.2,0.2,0.2,0.2c0,0,0,0,0,0.1c0.4,0.4,0.7,0.8,1,1.1c0,0,0,0,0,0c0.3,0.3,0.5,0.5,0.7,0.8l0,0c2.2,2.2,2.9,2.5,3,2.6
			l0,0c0,0,0,0,0,0l0,0c0,0,4.3,0.8,8.4,3l100.6,52.3l0.1,0.1c0.7,0.4,1.7,0,2.6-0.8l0,0c0.2,0.1,0.3,0.2,0.5,0.3
			c2.4,1.3,5.2,0.9,6.1-0.8c0.9-1.7-0.3-4.2-2.7-5.5c-0.2-0.1-0.3-0.2-0.5-0.3c0.2-1.3-0.1-2.3-0.8-2.7l0,0l-99.3-54.8
			c-4.1-2.2-7.1-5.3-7.1-5.3S150.5,209.7,149.7,209.4z M256.3,274.4c0-0.1,0-0.1,0.1-0.2C256.4,274.3,256.3,274.4,256.3,274.4z
			 M256.5,273.9C256.5,273.9,256.5,273.8,256.5,273.9C256.5,273.8,256.5,273.9,256.5,273.9z M256.7,273.4
			C256.7,273.4,256.7,273.4,256.7,273.4C256.7,273.4,256.7,273.4,256.7,273.4z M256.9,272.6C256.9,272.6,256.9,272.6,256.9,272.6
			C256.9,272.6,256.9,272.6,256.9,272.6z M256.2,274.6c0,0.1-0.1,0.1-0.1,0.2C256.2,274.7,256.2,274.7,256.2,274.6z"/>
		<g>
			<g>
				<g>
					<path fill="#373A41" d="M260.9,276.4c-0.9,1.7-3.7,2.1-6.1,0.8c-0.2-0.1-0.3-0.2-0.5-0.3c0.8-0.7,1.6-1.7,2.2-2.9
						c0.6-1.2,1-2.4,1.2-3.4c0.2,0.1,0.4,0.2,0.5,0.3C260.6,272.2,261.9,274.7,260.9,276.4z"/>
					<path opacity="0.2" d="M255.1,277.3c0.1,0,0.1,0.1,0.2,0.1c-0.1-0.1-0.3-0.1-0.4-0.2c-0.2-0.1-0.3-0.2-0.5-0.3
						c0.8-0.7,1.6-1.7,2.2-2.9c0.6-1.2,1-2.4,1.2-3.4c0.2,0.1,0.4,0.2,0.5,0.3c0.1,0.1,0.3,0.1,0.4,0.2c-0.1,0-0.1-0.1-0.2-0.1
						c-0.1,1-0.5,2.2-1.2,3.4C256.6,275.7,255.8,276.7,255.1,277.3z"/>
					<path d="M251.7,271.5c-1.4,2.7-3.6,4.4-4.8,3.7l-0.6-0.3c1.2,0.7,3.4-1,4.8-3.7c1.4-2.7,1.6-5.4,0.4-6.1l0.6,0.3
						C253.3,266.1,253.1,268.8,251.7,271.5z"/>
				</g>
				<path fill="#373A41" d="M157.6,213.2c-4.1-2.2-7.1-5.3-7.1-5.3s-1-1.3-19.6-3.1c-0.1-0.1-0.5,0.6-1,1.4
					c-0.4,0.8-0.7,1.6-0.6,1.6c11.8,14.5,13.5,14.6,13.5,14.6l0,0c0,0,4.3,0.8,8.4,3l100.7,52.3l5.2-9.8L157.6,213.2z"/>
				<path fill="#373A41" d="M128.6,204.8c-0.3-0.2-0.8-0.1-0.9,0.3s-0.1,0.8,0.3,0.9l2.1,1.1l0.6-1.2L128.6,204.8z"/>
				<path d="M129.8,206.2c-0.1,0.2-0.2,0.4-0.3,0.6L128,206c-0.3-0.2-0.5-0.6-0.3-0.9c0.2-0.3,0.6-0.5,0.9-0.3l1.5,0.8
					C130.1,205.8,129.9,206,129.8,206.2z"/>
			</g>
			<path fill="#27292E" d="M147.8,215.8c-1.5,2.8-3.3,5.1-5.1,6.6c-0.3-0.1-2.5-1.2-13.4-14.6c-0.1-0.1,0.2-0.8,0.6-1.6
				c0.4-0.8,0.9-1.5,1-1.4c17.2,1.7,19.4,2.9,19.6,3.1C150.2,210.2,149.3,213,147.8,215.8z"/>
			<path fill="#C3C3C3" d="M144.3,214c-1.4,2.6-3.1,4.6-4.7,5.8c-0.2-0.2-0.5-0.5-0.7-0.8c1.5-1.2,3.1-3.2,4.4-5.6
				c1.3-2.4,2.1-4.9,2.2-6.8c0.4,0.1,0.7,0.1,1,0.2C146.5,208.9,145.7,211.4,144.3,214z"/>
			<path d="M137.5,210.3c-0.8,1.6-1.8,2.9-2.8,4.1c-0.1-0.1-0.2-0.3-0.3-0.4c0.9-1.1,1.9-2.4,2.7-3.9c0.8-1.5,1.4-3,1.8-4.4
				c0.2,0,0.3,0,0.5,0.1C138.9,207.2,138.3,208.8,137.5,210.3z"/>
			<path opacity="0.2" fill="#FFFFFF" d="M130.1,205.8l15.7,4.8l-0.2,0.7c0,0-0.2,0.4-0.3,0.6c-0.3,0.8-0.7,1.5-0.7,1.5l-14.8-7.1
				L130.1,205.8z"/>
			<path fill="#202126" d="M178.8,233.8c-0.4,0.7-1.3,1-2,0.6L157.6,224c-0.7-0.4-1-1.3-0.6-2l1.1-2.1c0.4-0.7,1.3-1,2-0.6
				l19.3,10.3c0.7,0.4,1,1.3,0.6,2L178.8,233.8z"/>
			<path fill="#373A41" d="M164.3,226.8l-6.2-3.1c-0.4-0.2-0.5-0.6-0.3-1l1.2-2.2c0.2-0.4,0.6-0.5,1-0.3l6,3.4"/>
			<path fill="#373A41" d="M166.5,224l12.1,6.3c0.4,0.2,0.5,0.6,0.3,1l-1.2,2.2c-0.2,0.4-0.6,0.5-1,0.3l-11.9-6.6"/>
			<path fill="#27292E" d="M165.9,223.7L178,230c0.4,0.2,0.5,0.6,0.3,1l-1.2,2.2c-0.2,0.4-0.6,0.5-1,0.3l-11.9-6.6"/>
			<path fill="#27292E" d="M256.5,274.1c-0.6,1.2-1.4,2.2-2.2,2.9c-1,0.9-2,1.2-2.6,0.8l-4.8-2.6c1.2,0.7,3.4-1,4.8-3.7
				c0.1-0.2,0.2-0.4,0.3-0.7c0.4-0.8,0.6-1.6,0.8-2.4c0.3-1.5,0-2.6-0.7-3l4.8,2.6c0.7,0.4,0.9,1.4,0.8,2.7c0,0.1,0,0.3-0.1,0.4l0,0
				c-0.1,0.7-0.4,1.5-0.8,2.4C256.7,273.6,256.6,273.9,256.5,274.1z"/>
			<path opacity="0.2" fill="#FFFFFF" d="M256.8,273.4l-4.8-2.6c0.4-0.8,0.6-1.6,0.8-2.4l4.8,2.6l0,0
				C257.5,271.8,257.2,272.6,256.8,273.4z"/>
			<path fill="#111214" d="M251.6,271.5c-1.4,2.7-3.6,4.4-4.8,3.7l-0.5-0.3c1.2,0.7,3.4-1,4.8-3.7c0.1-0.2,0.2-0.4,0.3-0.7
				c0.4-0.8,0.6-1.6,0.8-2.4c0.3-1.5,0-2.6-0.7-3l0.5,0.3c0.7,0.4,1,1.6,0.7,3c-0.1,0.7-0.4,1.6-0.8,2.4
				C251.9,271,251.8,271.3,251.6,271.5z"/>
		</g>
	</g>
</g>
</svg>
