<?xml version="1.0" encoding="utf-8"?>
<!-- Generator: Adobe Illustrator 17.1.0, SVG Export Plug-In . SVG Version: 6.00 Build 0)  -->
<!DOCTYPE svg PUBLIC "-//W3C//DTD SVG 1.1//EN" "http://www.w3.org/Graphics/SVG/1.1/DTD/svg11.dtd">
<svg version="1.1" xmlns="http://www.w3.org/2000/svg" xmlns:xlink="http://www.w3.org/1999/xlink" x="0px" y="0px"
	 viewBox="-103 -172.3 400.6 533.5" enable-background="new -103 -172.3 400.6 533.5" xml:space="preserve">
<g id="Layer_1" display="none">
	<path display="inline" fill="#F0E7D9" d="M7.4,94.3l93.7-93.7l93.7,93.7L101.1,188L7.4,94.3z"/>
	<path display="inline" fill="#FFF9EE" d="M0,93.7L93.7,0l93.7,93.7l-93.7,93.7L0,93.7z"/>
	<path display="inline" fill="none" stroke="#2DA1C5" stroke-miterlimit="10" d="M98,183.1L9.3,94.3L98.7,5"/>
	<path display="inline" fill="none" stroke="#F48679" stroke-miterlimit="10" d="M99,181.5L11.8,94.3L99.9,6.2"/>
	<path display="inline" opacity="0.1" fill="#64594F" enable-background="new    " d="M148.1,14.8c-3.1-0.9-6.3-1.6-9.6-1.6h0
		c-0.7,0-1.4-0.2-2.1-0.2l-0.2-0.1c-0.7,0-1.5-0.1-2.2-0.1c-13.5,0-26,5-36.3,13.6c-0.8-0.1-1.5-0.2-2.3-0.2l-0.4,0
		c-1.1-0.1-2.1-0.2-3.2-0.2c-2.1,2-4.1,4.1-6,6.4C79.3,40.1,74.3,49.2,71,59c-0.4,0.1-0.7,0.2-1.1,0.4l0,0c-0.6,0.2-1.2,0.4-1.8,0.6
		l-0.4,0.2c-0.6,0.2-1.1,0.5-1.7,0.7c-2.7,8.9-4,18.4-4,28c0,9.9,1.4,19.5,4.2,28.5c0.6,0.2,1.1,0.5,1.7,0.7l0.4,0.1
		c0.6,0.2,1.2,0.4,1.8,0.6l0,0c0.4,0.1,0.7,0.2,1.1,0.4c3.3,9.6,8.2,18.5,14.6,26.1c2.1,2.5,4.2,4.7,6.5,6.8
		c1.1-0.1,2.1-0.1,3.1-0.2l0.4,0c0.8-0.1,1.5-0.1,2.3-0.2c10.2,8.4,22.5,13.3,35.8,13.3c0.7,0,1.5,0,2.2-0.1l0.2-0.3
		c0.7,0,1.4-0.4,2.1-0.4h0c3.3,0,6.5-0.6,9.6-1.4c-8.4-3-15.9-9.2-22.1-18c1.3-0.5,2.7-1,4-1.6c-5.7-7.9-10.1-18-12.7-29.3
		c1.3-0.8,2.6-1.7,3.7-2.6c-1.6-7.2-2.4-14.8-2.4-22.4c0-7.5,0.8-15,2.3-22.1c-1.2-0.9-2.4-1.8-3.7-2.6c2.6-11.3,7-21.4,12.6-29.4
		c-1.3-0.6-2.6-1.1-4-1.6C132,24.3,139.6,17.8,148.1,14.8L148.1,14.8z"/>
	<path display="inline" fill="#D7BC92" d="M104.9,88c0-36.2,16.2-66.4,37.9-74.2c-4.6-1.3-9.3-1.9-14.2-1.9
		C93.5,11.9,65.1,46,65.1,88c0,42,28.4,76.1,63.5,76.1c4.9,0,9.6-0.7,14.2-1.9C121.1,154.4,104.9,124.2,104.9,88L104.9,88z"/>
	<path display="inline" fill="#ECD4AF" d="M74.3,88c0-40.2,26-73,58.9-75.9c-1.5-0.1-3-0.2-4.6-0.2C93.5,11.9,65.1,46,65.1,88
		c0,42,28.4,76.1,63.5,76.1c1.5,0,3.1-0.1,4.6-0.2C100.3,161,74.3,128.2,74.3,88L74.3,88z"/>
	<path display="inline" fill="#DFC297" d="M124.7,142.4c-9.6-13.4-15.6-33.1-15.6-54.4c0-21.1,5.9-40.7,15.4-54.1
		c-11.2-5-24.2-8.1-38-8.8c-2.1,2-4.1,4.1-6,6.4C67.9,46.6,60.9,66.7,60.9,88c0,21.3,7,41.4,19.6,56.5c2.1,2.5,4.2,4.7,6.5,6.8
		C100.7,150.5,113.5,147.4,124.7,142.4z"/>
	<path display="inline" fill="#F0DCC0" d="M87.6,144.5C75,129.4,68,109.3,68,88c0-21.3,7-41.4,19.6-56.5c1.8-2.1,3.6-4.1,5.5-5.9
		c-2.2-0.2-4.4-0.4-6.6-0.5c-2.1,2-4.1,4.1-6,6.4C67.9,46.6,60.9,66.7,60.9,88c0,21.3,7,41.4,19.6,56.5c2.1,2.5,4.2,4.7,6.5,6.8
		c2.2-0.1,4.4-0.3,6.5-0.6C91.4,148.8,89.5,146.7,87.6,144.5L87.6,144.5z"/>
	<path display="inline" fill="#E9CB9D" d="M60.9,116.5c6.5,2.8,14.1,4.4,22.2,4.4c12.9,0,24.5-4,32.6-10.5
		c-1.6-7.2-2.4-14.8-2.4-22.5c0-7.5,0.8-15,2.3-22.1c-8.1-6.4-19.7-10.4-32.5-10.4c-8.2,0-15.8,1.6-22.4,4.4c-2.7,8.9-4,18.4-4,28
		C56.7,97.9,58.1,107.5,60.9,116.5L60.9,116.5z"/>
	<path display="inline" fill="#F0DCC0" d="M64.3,88c0-10.6,2.1-20.9,4.5-30.7c-2.8,0.7-5.5,1.6-8,2.7c-2.7,8.9-4,18.4-4,28
		c0,9.9,1.4,19.5,4.2,28.5c2.5,1.1,5.2,2,8,2.7C66.4,109.3,64.3,98.7,64.3,88z"/>
	<ellipse display="inline" fill="#E9CB9D" cx="138.1" cy="56.4" rx="1.3" ry="1.2"/>
	<path display="inline" fill="#D7BC92" d="M138.7,55.4c0.1,0.1,0.1,0.3,0.1,0.4c0,0.6-0.6,1.2-1.3,1.2c-0.2,0-0.4-0.1-0.6-0.1
		c0.2,0.4,0.7,0.8,1.2,0.8c0.7,0,1.3-0.5,1.3-1.2C139.4,55.9,139.2,55.5,138.7,55.4L138.7,55.4z"/>
	<ellipse display="inline" fill="#E9CB9D" cx="143.4" cy="57.9" rx="1.7" ry="1.5"/>
	<path display="inline" fill="#D7BC92" d="M144.2,56.6c0.1,0.2,0.1,0.3,0.1,0.5c0,0.8-0.8,1.5-1.7,1.5c-0.3,0-0.6-0.1-0.8-0.2
		c0.2,0.6,0.9,1,1.6,1c0.9,0,1.7-0.7,1.7-1.5C145.1,57.4,144.8,56.9,144.2,56.6L144.2,56.6z"/>
	<ellipse display="inline" fill="#E9CB9D" cx="140.2" cy="62.3" rx="1" ry="0.8"/>
	<path display="inline" fill="#D7BC92" d="M140.7,61.5c0,0.1,0.1,0.2,0.1,0.3c0,0.5-0.4,0.8-1,0.8c-0.2,0-0.3,0-0.5-0.1
		c0.1,0.3,0.5,0.6,0.9,0.6c0.5,0,1-0.4,1-0.8C141.2,61.9,141,61.7,140.7,61.5z"/>
	<ellipse display="inline" fill="#E9CB9D" cx="144.6" cy="61.6" rx="1" ry="0.8"/>
	<path display="inline" fill="#D7BC92" d="M145,60.9c0,0.1,0.1,0.2,0.1,0.3c0,0.5-0.4,0.8-1,0.8c-0.2,0-0.3,0-0.5-0.1
		c0.1,0.3,0.5,0.6,0.9,0.6c0.5,0,1-0.4,1-0.8C145.6,61.3,145.3,61,145,60.9z"/>
	<ellipse display="inline" fill="#E9CB9D" cx="148.9" cy="58.5" rx="1" ry="0.8"/>
	<path display="inline" fill="#D7BC92" d="M149.4,57.8c0,0.1,0.1,0.2,0.1,0.3c0,0.5-0.4,0.8-1,0.8c-0.2,0-0.3,0-0.5-0.1
		c0.1,0.3,0.5,0.6,0.9,0.6c0.5,0,1-0.4,1-0.8C149.9,58.2,149.7,57.9,149.4,57.8L149.4,57.8z"/>
</g>
<g id="Layer_2">
	<g id="Earphones">
		<path opacity="0.1" d="M84,105l1.9-3.5l0.8-0.3l0.2,0.1l0.2-0.3l0.8-0.3l-0.5-0.3l5.4-8.7l2,1.3l10.8-17.2l-0.4-0.3c0,0,0,0,0,0
			l0.3-0.4c-0.3-0.2-0.7-0.5-1-0.7c0,0-0.1-0.1-0.1-0.1l3.8-6.1l-0.3-0.3c0,0,0,0-0.1,0l0.3-0.4c-0.2-0.2-0.4-0.3-0.6-0.5
			c-0.1-0.1-0.2-0.1-0.2-0.2c9.8-15.8,15-29.4,15.5-40.8c0.2-3.8-0.1-7.4-0.9-10.7C119.1,4.5,111.3-1,106.7-4.3
			c-0.7-0.5-1.3-0.9-1.8-1.3c-4.8-3.7-9.2-6.3-13.3-7.9c-5.7-2.3-10.9-2.7-15.4-1.2c-3.2,1.1-6.5,2.5-9.6,4.1
			c-7.4-4.8-15.3-7.6-23-7.9c-6.1-0.3-11.9,1-16.7,3.6c-2.2,1.1-4.1,2.4-5.8,4c-2.3,2.1-4.5,4.6-6.8,7.2C9.4,1.7,4.2,7.6-3,11.5
			c-6.4,3.2-14.4,4.9-25,3.3c-33.9-5-55.7-30.3-62.7-40.4c-6.2-9.1-9.2-17.6-8.9-25.5c0.3-4.8,1.9-9.4,4.7-13.8
			c2.9-4.6,7.1-9,12.6-13.3c-0.2,0.6-0.4,1.3-0.5,1.9c-2.1,7.8-3.1,14.9-2.8,21c0.3,6.9,2.1,12.9,5.5,17.7
			c6.5,9.2,15.5,18.5,23,23.5c7.7,5.1,14.8,6.1,20.5,2.8c5.8-3.3,14.3-10.2,20.1-18.2c0.7-1,1.4-2,2.1-3.1
			c3.3-5.3,5.1-10.5,5.2-15.4c0.2-3.6-0.4-6.9-1.9-10.1c-2.7-5.6-7.9-11.7-14.5-16.8c-5-3.9-15.2-10.4-25.3-12.8
			c-9.1-2.2-17.8-1.5-25.3,2c2.3-6,5.9-12.1,10-19c2.5-4.2,5.1-8.6,7.7-13.5c1.3-2.3,2.5-4.6,3.7-6.8c4.1-7.7,7.6-14.4,11.2-20.1
			c7.5-12,15.5-20.5,29.8-23C1.7-171.1,33-151,33.3-150.7l7,4.4l-0.1,0.1c-0.3,0.5-0.2,1.2,0.3,1.6l7,7.7l5.6,3.5
			c0.6,0.4,1.3,0.2,1.7-0.4l0.4-0.6c4,2.6,6.1,5.4,6.2,8.5c0.1,2.9-1.3,5.9-2.6,8.5c-0.2,0.3-0.3,0.7-0.5,1.1c-0.5,1-0.9,2-1.5,2.9
			c-0.8,1.3-1.7,2.3-2.9,2.9c-0.3,0.1-0.6,0.3-0.9,0.4c-4.5,1.5-11.5,0.2-21.4-3.8c-11.1-4.6-20.6-5.4-28.3-2.4
			c-1,0.4-2,0.9-2.9,1.3c-4.9,2.5-8,6.2-9.8,9.1c-0.4,0.6-0.7,1.2-1,1.8c-1.6,2.9-1.9,5.2-1.1,7c1.3,2.8,4.7,3.6,9.6,4.8
			c1.2,0.3,2.5,0.6,3.9,1c7.8,2.1,8.9,5.1,10.6,9.9l0.4,1l0.1,0.2c0.2,0.3,4.3,8.1,9.2,11.3c3.8,2.5,23,14.4,31,19.4l0.1,0.1
			l-0.2,0.4l5.8,3.6c-0.6,1.3-0.2,2.8,1,3.6l40.8,25.5c1.2,0.8,2.8,0.5,3.7-0.7l5.8,3.6l0.2-0.4c7.8,4.8,13.4,5.8,17.1,3.2
			c0.8-0.6,1.6-1.4,2.2-2.3c1.3-2.1,2-5.1,2.1-8.9c0.2-4.3-0.3-9.8-1.8-16.5c-1.6-7.6-12.5-18.6-19.2-26.9
			c-5.4-6.7-11-13.6-11.4-17.8c0-0.4,0.2-0.9,0.4-1.2c0,0,0,0,0,0c5.1-7.5,26.9-16.8,44.8-16.8c9,0,18.1,3.9,21.5,7.6
			c3.3,3.6,4.9,9.9,5.3,20.4c0.7,18.4,10.5,19.2,20.1,20c2.2,0.2,4.5,0.4,6.6,0.8c10.7,2,18.3,9,18.4,9l0.2,0.1l1.9,1.2
			c0,0.1-0.1,0.1-0.1,0.2l-0.2,0.4l4.3,2.7c-0.2,0.4-0.4,0.7-0.5,1.1l-0.2,0.4l28.9,18c-0.8,0.2-1.6,0.5-2.3,0.9
			c-1.5,0.7-2.7,1.7-3.5,3c-2.9,4.7-0.1,11.8,6.2,15.7l0.1,0l0,0c6.4,4,14,3.4,16.9-1.3c1.2-1.9,1.7-3.9,1.7-5.8
			c0.8-8.3-8.7-15.9-11.6-17.8L226.9-44c-0.1,0.1-0.2,0.3-0.3,0.4l-0.3-0.2l-0.3,0.3c-0.1,0.2-0.3,0.3-0.4,0.5l-0.4-0.3l-3.6-2.2
			c-0.1,0.1-0.2,0.3-0.3,0.4l0,0l-0.3-0.2l-0.1,0.1l-1.8-1.1c-0.9-0.9-8.6-7.6-19.7-9.7c-2.3-0.4-4.6-0.6-6.9-0.8
			c-4.5-0.4-8.8-0.7-11.9-2.9c-3.5-2.4-5.2-7-5.5-14.3c-0.4-11.3-2.2-18-6.1-22.2c-3.9-4.3-13.7-8.6-23.6-8.6
			c-8.5,0-18.8,2.1-28.2,5.8c-3.1,1.2-5.9,2.5-8.3,3.8c-5.5,2.9-9.5,6-11.6,9c0,0.1-0.1,0.1-0.1,0.2c-3.4,5.5,3.3,13.8,11.1,23.4
			c1.4,1.8,3.1,3.7,4.9,5.7c5.9,6.8,12.6,14.6,13.8,19.9c2.3,10.9,2.4,18.6,0.2,22.1c-0.4,0.6-0.8,1.1-1.3,1.4
			c-2.8,1.2-7.3-0.1-13.1-3.7l0.1-0.2l-0.4-0.3l0.3-0.4l-4.6-2.9l-0.9-0.5c0.1-0.4,0.1-0.8,0.1-1.1c0.2-0.9-0.2-1.9-1-2.4L65.3-50.4
			c-0.8-0.5-1.9-0.4-2.6,0.2c-0.4,0.1-0.7,0.3-1,0.6l-0.9-0.5l-4.6-2.9l-0.3,0.4L55.5-53l-0.1,0.2c-3.4-2.1-26.8-16.7-31.1-19.5
			c-4.1-2.6-7.8-9.4-8.2-10.1c-0.1-0.3-0.2-0.6-0.3-0.8c-1.8-5-3.3-9.2-12.6-11.7c-1.4-0.4-2.7-0.7-4-1c-3.9-0.9-6.9-1.7-7.6-3.2
			c-0.1-0.2-0.1-0.4-0.1-0.6c0.1-0.6,0.4-1.5,1.1-2.8c0.3-0.5,0.6-1,0.9-1.6c4.8-7.7,15.1-15.1,36.5-6.3c10.6,4.4,18.3,5.6,23.4,3.9
			c2.7-0.9,4.6-2.5,6.3-5.1c0.7-1.1,1.2-2.3,1.7-3.3c0.2-0.3,0.3-0.7,0.5-1c1.3-2.7,2.9-5.9,3-9.5c0-0.5,0.1-1,0-1.5
			c-0.2-4.1-2.7-7.6-7.6-10.8l0.4-0.7c2.3,1.5,9.1,5.5,16.8,10c9.1,5.4,19.4,11.5,23.1,13.8c0.9,0.6,2,1.5,3.2,2.5
			c4.1,3.4,9.3,7.6,16.2,6.8c5.8-0.7,9.6-5.7,15.5-13.2l1.4-1.7c0.7,3.9,1.1,6.1,2.2,7.7c1.4,2,5.5,3.8,8.4,4.2
			c3.2,0.4,7.5-0.9,11.6-3.5c3.4-2.1,6.3-4.8,8-7.7c0.4-0.7,0.8-1.3,1.1-2c0.7-1.6,1-3.3,1.1-5c0.6-5.9-2.9-11.9-7.7-14.7
			c-0.2-0.1-0.4-0.2-0.5-0.3c-2.7-1.6-4.8-2.5-8.3-0.4c-2.9,1.5-6.8,5.1-12.8,12.3c1.4-10,8.5-22.4,10.9-26.6
			c0.1-0.2,0.2-0.4,0.3-0.6c1.2-1.9,2.3-2.9,3.5-3.1c2.3-0.3,5.3,2.4,8.4,5.4l0.8,0.8c6.5,6.1,10.2,11.9,11.5,18.1
			c0.7,3.3,1.3,5.1,2.6,6.4c1.3,1.2,2.9,1.5,5.4,1.8c1.1,0.1,2.4,0.3,4,0.6c2.7,0.5,6.8,1.2,11.6,2c10.1,1.7,22.8,3.8,29.1,5.5
			c8.2,2.1,15.7,7.6,17,8.5c0,0.1-0.3,0.6-0.3,0.6l4.3,2.7c-0.2,0.4-0.4,0.7-0.5,1.1l-0.2,0.4l24.5,15.3l0,0l1.8,1.2
			c-0.3,0.4-0.6,0.8-0.9,1.2c-3.1,5-3.5,12.5-1,17.5c0.8,1.5,2.1,2.3,3.4,3.1l0.6,0.3l0.6,0.4c1.3,0.8,2.6,1.7,4.3,1.7
			c5.6,0.1,12.2-3.5,15.3-8.5c1.4-2.2,2-4.6,2.1-7c0.4-4.7-1.8-9.5-6.1-12.2c-3.3-2.1-7.1-2.5-10.6-1.5l-29.2-18.2
			c-0.1,0.1-0.2,0.3-0.3,0.4l-0.3-0.2l-0.3,0.3c-0.1,0.2-0.3,0.3-0.4,0.5l-0.4-0.3l-3.6-2.2c-0.1,0.1-0.2,0.3-0.3,0.4l0,0l-0.3-0.2
			c0,0,0,0-0.1,0.1c-1.7-1.3-9.3-6.7-17.9-8.9c-6.5-1.7-19.2-3.8-29.4-5.5c-4.8-0.8-8.9-1.5-11.5-2c-1.7-0.3-3.1-0.5-4.2-0.7
			c-2.2-0.3-3.2-0.5-3.8-1c-0.6-0.6-1.1-1.9-1.7-4.9c-1.5-6.9-5.4-13.1-12.3-19.6c-0.3-0.3-0.5-0.5-0.8-0.8
			c-3.6-3.4-7.1-6.7-10.8-6.1c-0.7,0.1-1.5,0.4-2.2,0.8c-1.6,0.7-3,2.1-4.3,4.2c-0.1,0.2-0.3,0.5-0.4,0.7
			c-2.8,4.9-11.8,21.5-11.7,32.8c-0.8,1-1.6,2-2.4,3c-0.6,0.8-1.2,1.5-1.7,2.3c-3.6,4.7-6.3,8.2-9.2,10c-0.9,0.4-1.8,0.7-2.7,0.8
			c-5.8,0.7-10.4-3.1-14.1-6.1c-1.2-1-2.4-1.9-3.5-2.6c-3.7-2.4-14-8.5-23.2-13.9c-7.4-4.4-14.5-8.6-16.7-10c0.2-0.3,0.2-0.7,0.1-1
			l0,0c0.2-0.3,0.1-0.8-0.2-1l-4.5-2.8l-1-0.6l-10-2.9c-0.3-0.2-0.8-0.1-1,0.2l0,0c-0.2,0-0.5,0.1-0.6,0.2l-7.1-4.4
			c-1.3-0.9-32.4-21-49.2-18c-4.6,0.8-8.6,2.2-12.3,4.2c-4.8,2.5-9.1,6-13.2,10.8c-2.4,2.8-4.7,6.1-7.2,10
			c-3.6,5.8-7.2,12.5-11.3,20.2c-1.2,2.2-2.4,4.5-3.6,6.8c-2.6,4.8-5.1,9.2-7.6,13.4c-4.9,8.5-9.2,15.9-11.6,23
			c-1.2,0.7-2.4,1.6-3.6,2.4c-5.9,4.5-10.4,9.3-13.5,14.3c-3.2,5.1-4.9,10.4-5.2,15.9c-0.4,8.7,2.6,17.8,9.4,27.7
			c4.9,7.1,14.8,17.9,26.1,26c11.7,8.4,24.6,13.7,38.5,15.7C-4.1,22.1,7.5,9,16.8-1.5c2.3-2.6,4.4-5,6.6-7
			c4.8-4.4,11.9-6.7,19.6-6.3c6.6,0.3,13.2,2.4,19.7,6.3c-1.7,0.9-3.4,1.9-4.8,2.7c-1.4,0.8-2.7,1.5-4,2.2c-1,0.5-1.8,0.9-2.6,1.3
			C50.9-2.2,50.5-2,50-1.7c-2.9,1.4-7.2,4.9-10.6,10.3c-2.7,4.3-5.7,11.4-4.5,20.8c1.6,12.5,5.4,20.6,11.7,24.8
			c5.3,3.5,12.3,4,20.7,1.6c9.8-2.8,18.7-8.8,22.8-15.3c0.9-1.5,1.6-3,2-4.5c0.6-2,0.9-4.1,0.9-6.2c0.2-3.4-0.3-6.9-1.5-10.5
			c-1.9-5.9-5.7-11.9-11.1-17.8c-3.4-3.7-6.9-7-10.6-9.7c2.5-1.2,4.7-2.1,6.7-2.7c6.8-2.2,15.5,0.7,26.1,8.7
			c0.5,0.4,1.2,0.9,1.9,1.3c4.3,3,11.5,8.1,14,18c3,12.1-1.7,28.3-14.1,48.2c-0.3-0.2-0.7-0.3-1-0.5l-0.3,0.4c0,0,0,0-0.1,0
			l-0.4-0.2L98.9,71c-0.3-0.2-0.6-0.4-0.9-0.5l-0.3,0.4c0,0,0,0,0,0l-0.4-0.2L86.5,87.8l2,1.3l-5.4,8.7l-0.4-0.3l0.1,0.8l-0.2,0.3
			l0.2,0.1l0.1,0.8l-2.3,3.2l0.6,1.8l1,0.6L84,105z M76.1,48.4c-2.9,1.5-6,2.8-9,3.7c-7.6,2.2-13.8,1.8-18.4-1.2
			c-5.6-3.7-9-11.1-10.4-22.7c-0.2-1.4-0.2-2.7-0.2-4c0.3-5.9,2.4-10.7,4.4-13.9c3.2-5.1,7.1-8.1,9.4-9.1c2.1-0.9,4.7-2.4,7.6-4
			c2-1.1,4.2-2.3,6.4-3.5c4.1,2.9,8.1,6.4,11.8,10.5c9.8,10.8,13.7,21.8,11.1,30.9c-0.3,1.2-0.9,2.5-1.7,3.7
			C85,42.2,81,45.7,76.1,48.4z M-79.6-75.5c0.5-1.9,1.1-3.8,1.7-5.7c7.5-4.1,16.4-5.1,25.7-2.9c16.3,3.9,33,17.9,37.8,28.1
			c3.8,7.9,0.4,16.1-3.1,21.7c-0.6,0.9-1.2,1.9-1.9,2.8c-5.5,7.5-13.4,14-18.8,17.1c-9.4,4.6-25.2-5.7-39.2-25.8
			c-3.6-5.1-5.2-11.6-5-19.5C-82.1-64.4-81.2-69.7-79.6-75.5z M156.1-138.2l0.5,0.3c4.5,2.6,7.9,9.4,5.5,15
			c-0.2,0.5-0.5,1.1-0.8,1.6c-1.2,2-3.3,3.6-5.7,4.9c-4.3,2.2-9.4,3.3-12.3,3c-4.8-0.6-4.8-0.8-6.3-9l-0.1-0.7
			c-0.1-0.3-0.1-0.6-0.1-1C150.6-141.4,152.6-140.2,156.1-138.2z"/>
		<g>
			<g>
				<g>
					<path fill="#E4E4E4" d="M249.4-107.2l-5-3.1c0.2-0.5,0.5-1,0.8-1.5c0,0,0,0,0-0.1c0.2-0.4,0.5-0.8,0.8-1.1
						c0.1-0.1,0.2-0.3,0.3-0.4l5,3.1L249.4-107.2z"/>
					<path opacity="0.2" fill="#FFFFFF" d="M250.3-108.6l-5.1-3.2c0,0,0,0,0-0.1c0.2-0.4,0.5-0.8,0.8-1.1l5.1,3.2L250.3-108.6z"/>
					<path opacity="5.000000e-002" d="M251.3-110.2l-1.4-0.9c-0.3,0.5-0.7,1-1,1.5c0,0,0,0.1-0.1,0.1c-0.3,0.5-0.6,1-0.8,1.5
						l1.4,0.9L251.3-110.2z"/>
				</g>
				<g>
					<path fill="#F0F0F0" d="M279.6-86.4L248-106.1c0.4-0.9,0.9-1.9,1.5-2.9c0,0,0-0.1,0.1-0.1c0.5-0.7,0.9-1.4,1.4-2
						c0.2-0.3,0.4-0.5,0.6-0.7l31.5,19.7L279.6-86.4z"/>
					<path opacity="0.2" fill="#FFFFFF" d="M279.5-90.3L249.6-109c0,0,0-0.1,0.1-0.1c0.5-0.7,0.9-1.4,1.4-2l29.8,18.7L279.5-90.3z"
						/>
					<path opacity="5.000000e-002" d="M277.7-87.5l-5.1-3.2c1.7-2,3.9-3.3,6.3-4l2.4,1.5L277.7-87.5z"/>
				</g>
				<g>
					<path fill="#F0F0F0" d="M280.7-65.7c5.6,0.1,11.9-3.6,14.9-8.3c3.9-6.2,2-14.3-4.2-18.1c-6.2-3.9-14.3-2-18.1,4.2
						c-2.9,4.7-3.5,12-1,17c0.8,1.6,2.3,2.3,3.8,3.3C277.6-66.8,278.9-65.7,280.7-65.7z"/>
					<path fill="#B1B1B1" d="M287.5-83.1l2-3.3c0.4-0.7,0.2-1.7-0.5-2.1c-0.7-0.5-1.7-0.2-2.1,0.5l-2,3.3c-0.4,0.7-0.2,1.7,0.5,2.1
						C286.1-82.2,287.1-82.4,287.5-83.1z"/>
					<path opacity="0.1" d="M286.6-87.4L287-88c0.4-0.7,1.4-0.9,2.1-0.5c0.7,0.4,0.9,1.4,0.5,2.1l-0.4,0.6c0.4-0.7,0.2-1.7-0.5-2.1
						C288-88.4,287-88.1,286.6-87.4z"/>
					<g>
						<path fill="#B1B1B1" d="M279.2-66.2l-5.9-3.7c-0.4-0.2-0.6-0.6-0.7-1c-0.1-0.3-0.1-0.7,0.1-1c0.4-0.6,1.3-0.8,2-0.3l5.9,3.7
							c0.7,0.4,1,1.3,0.6,1.9c-0.2,0.3-0.5,0.5-0.8,0.5C280-65.9,279.6-66,279.2-66.2z"/>
						<path opacity="0.2" fill="#FFFFFF" d="M279.2-66.2l-5.9-3.7c-0.7-0.4-1-1.3-0.6-1.9c0.2-0.3,0.5-0.5,0.8-0.5
							c0.1,0.4,0.4,0.7,0.7,1l5.9,3.7c0.4,0.2,0.8,0.3,1.2,0.2c0.1,0.3,0.1,0.7-0.1,1C280.8-65.9,279.9-65.8,279.2-66.2z"/>
						<path opacity="0.5" fill="#FFFFFF" d="M272.8-71.9c0,0,0-0.1,0.1-0.1c0.4-0.6,1.3-0.8,2-0.3l5.9,3.7c0.7,0.4,1,1.3,0.6,1.9
							c0,0,0,0.1-0.1,0.1c0.3-0.6,0-1.4-0.6-1.9l-5.9-3.7C274.1-72.6,273.2-72.5,272.8-71.9z"/>
					</g>
				</g>
			</g>
			<g>
				<g>
					<g>
						<path fill="#E4E4E4" d="M226.1-38.4l-5-3.1c0.2-0.5,0.5-1,0.8-1.5c0,0,0,0,0-0.1c0.2-0.4,0.5-0.8,0.8-1.1
							c0.1-0.1,0.2-0.3,0.3-0.4l5,3.1L226.1-38.4z"/>
						<path opacity="0.2" fill="#FFFFFF" d="M227-39.8l-5.1-3.2c0,0,0,0,0-0.1c0.2-0.4,0.5-0.8,0.8-1.1l5.1,3.2L227-39.8z"/>
						<path opacity="5.000000e-002" d="M228-41.4l-1.4-0.9c-0.3,0.5-0.7,1-1,1.5c0,0,0,0.1-0.1,0.1c-0.3,0.5-0.6,1-0.8,1.5l1.4,0.9
							L228-41.4z"/>
					</g>
					<path fill="#F0F0F0" d="M256.2-17.6l-31.5-19.7c0.4-0.9,0.9-1.9,1.5-2.9c0,0,0-0.1,0.1-0.1c0.5-0.7,0.9-1.4,1.4-2
						c0.2-0.3,0.4-0.5,0.6-0.7l31.5,19.7L256.2-17.6z"/>
				</g>
				<path fill="#F0F0F0" d="M269.9-0.9c6.2-9.9-6.5-20.2-10-22.4c-2.8-1.7-3.4,2.8-3.6,4.8c-3.7-0.3-7.1,1-8.8,3.7
					c-2.8,4.5-0.1,11.2,6.1,15.1C259.8,4.1,267.1,3.5,269.9-0.9z"/>
				<path opacity="0.2" fill="#FFFFFF" d="M264.3-18.4c-3-3.3-36.6-24-36.6-24c-0.5,0.6-0.9,1.3-1.4,2c0,0,0,0.1-0.1,0.1L261-18.5
					C261-18.5,262.4-18.9,264.3-18.4z"/>
				<path fill="#B1B1B1" d="M256-8.1l4.7,2.9c1.4,0.9,3.2,0.5,4.1-0.9c0.9-1.4,0.5-3.2-1-4.1l-4.7-2.9c-1.4-0.9-3.2-0.5-4.1,0.9
					C254.2-10.8,254.6-8.9,256-8.1z"/>
				<path opacity="0.1" d="M262.7-10.9l1.1,0.7c1.4,0.9,1.8,2.7,0.9,4.1c-0.9,1.4-2.7,1.8-4.1,0.9l-1.1-0.7c1.4,0.9,3.2,0.5,4.1-0.9
					C264.5-8.2,264.1-10.1,262.7-10.9z"/>
				<g>
					<path fill="#B1B1B1" d="M252.8-1.4L252.8-1.4c0.2-0.2,0.4-0.4,0.8-0.4c0.3,0,0.7,0.1,1,0.3c0.7,0.4,1,1.2,0.8,1.6l0,0
						c-0.3,0.5-1.1,0.5-1.8,0c-0.3-0.2-0.6-0.5-0.7-0.8C252.7-0.9,252.7-1.2,252.8-1.4z"/>
				</g>
				<g opacity="0.2">
					<path fill="#FFFFFF" d="M253.6,0.2c-0.3-0.2-0.6-0.5-0.7-0.8c-0.2-0.3-0.2-0.6,0-0.9l0,0c0-0.1,0.1-0.1,0.1-0.2
						c-0.1,0.2,0,0.4,0.1,0.7c0.1,0.3,0.4,0.6,0.7,0.8c0.6,0.4,1.3,0.4,1.7,0.1c0,0.1,0,0.1-0.1,0.2l0,0
						C255.1,0.6,254.3,0.6,253.6,0.2z"/>
				</g>
				<path opacity="5.000000e-002" d="M254.7-18.6l-1.8-1.1c0,0,2.8-1.2,6.3,1C259.2-18.7,257.7-19.1,254.7-18.6z"/>
			</g>
			<g>
				<g>
					<path fill="#F0F0F0" d="M62.1-42.2c-1.1-0.7-1.4-2.1-0.7-3.2l2.1-3.4c0.7-1.1,2.1-1.4,3.2-0.7L107.5-24
						c1.1,0.7,1.4,2.1,0.7,3.2l-2.1,3.4c-0.7,1.1-2.1,1.4-3.2,0.7L62.1-42.2z"/>
				</g>
				
					<rect x="108.3" y="-20.8" transform="matrix(-0.5303 0.8478 -0.8478 -0.5303 153.7277 -119.8167)" fill="#E4E4E4" width="3.5" height="6.9"/>
				
					<rect x="106" y="-19.5" transform="matrix(-0.5303 0.8478 -0.8478 -0.5303 148.9612 -120.0695)" opacity="5.000000e-002" width="3.5" height="1.4"/>
				
					<rect x="57.8" y="-52.4" transform="matrix(0.5303 -0.8478 0.8478 0.5303 69.4416 27.4976)" fill="#E4E4E4" width="3.5" height="6.9"/>
				
					<rect x="60.1" y="-48.2" transform="matrix(0.5303 -0.8478 0.8478 0.5303 69.3015 30.1385)" opacity="5.000000e-002" width="3.5" height="1.4"/>
				<path fill="#E4E4E4" d="M75.2-35.6c-0.8-0.5-1.1-1.6-0.5-2.4l1.4-2.2c0.5-0.8,1.6-1.1,2.4-0.5l15.8,9.9c0.8,0.5,1.1,1.6,0.5,2.4
					l-1.4,2.2c-0.5,0.8-1.6,1.1-2.4,0.5L75.2-35.6z"/>
				<path opacity="5.000000e-002" d="M91-25.7L90.5-26c0.8,0.5,1.9,0.3,2.4-0.5l1.4-2.2c0.5-0.8,0.3-1.9-0.5-2.4l0.5,0.3
					c0.8,0.5,1.1,1.6,0.5,2.4l-1.4,2.2C92.9-25.4,91.8-25.2,91-25.7z"/>
				
					<rect x="99.2" y="-23.3" transform="matrix(-0.5303 0.8478 -0.8478 -0.5303 134.5393 -120.8349)" fill="#CFCFD1" width="3.2" height="0.3"/>
				
					<rect x="67.4" y="-43.2" transform="matrix(-0.5303 0.8478 -0.8478 -0.5303 69.0386 -124.3091)" fill="#CFCFD1" width="3.2" height="0.3"/>
				
					<rect x="99.2" y="-23.3" transform="matrix(0.8478 0.5303 -0.5303 0.8478 3.0556 -56.9439)" fill="#CFCFD1" width="3.2" height="0.3"/>
			</g>
			<g>
				<path fill="#F0F0F0" d="M103.4-83.1c0-0.1,0.1-0.1,0.1-0.2c2.9-4.2,9.8-8.7,19-12.3c9.4-3.7,19.6-5.8,28.2-5.8
					c9.9,0,15.7,1.8,19.6,6c3.8,4.2,5.7,10.9,6.1,22.2c0.3,7.3,2,11.9,5.5,14.3c3.1,2.2,7.4,2.5,11.9,2.9c2.3,0.2,4.6,0.4,6.9,0.8
					c11.1,2.1,18.8,8.8,19.7,9.7l2,1.3l-1.3,2l-2.2-1.4l-0.1-0.1c-0.1-0.1-7.7-7.1-18.6-9.2c-2.2-0.4-4.5-0.6-6.7-0.8
					c-9.3-0.8-18.9-1.5-19.6-19.5c-0.4-10.6-2.1-17-5.5-20.7c-3.4-3.7-8.7-5.3-17.8-5.3c-18.1,0-40,9.4-45.2,17c0,0,0,0.1-0.1,0.1
					c-2.3,3.7,4.4,12,10.9,20.1c6.7,8.2,13.6,16.7,15.2,24.3c3,14.4,2.3,23.3-2.3,26.5c-3.6,2.6-9.2,1.4-17-3.5l1.3-2
					c6.7,4.2,11.7,5.4,14.4,3.5c3.7-2.6,4.1-10.9,1.3-24c-1.5-7.1-8.5-15.7-14.7-23.3C106.9-69.7,100.2-77.9,103.4-83.1z"/>
			</g>
			<g>
				<path fill="#F0F0F0" d="M59.4-139.1l1.3-2c1.7,1.1,9.2,5.6,17.1,10.3c9.1,5.4,19.5,11.5,23.2,13.9c1.1,0.7,2.2,1.6,3.5,2.6
					c3.7,3,8.3,6.8,14.1,6.1c5.2-0.6,10.8-4.7,16.6-12.3c0.9-1.1,1.7-2.2,2.5-3.2c-0.2-10.1,5.3-26.4,9.6-34
					c1.8-3.1,3.7-4.7,5.9-5.1c3.7-0.6,7.1,2.7,10.8,6.1c0.3,0.3,0.5,0.5,0.8,0.8c7,6.5,10.9,12.8,12.3,19.6c0.6,3,1.1,4.3,1.7,4.9
					c0.6,0.6,1.6,0.7,3.8,1c1.1,0.2,2.5,0.3,4.2,0.7c2.6,0.5,6.8,1.2,11.5,2c10.2,1.7,22.9,3.9,29.4,5.5c9.5,2.5,17.9,8.9,18.2,9.2
					l-1.5,1.9c-0.1-0.1-8.3-6.4-17.4-8.8c-6.4-1.7-19-3.8-29.2-5.5c-4.8-0.8-8.9-1.5-11.6-2c-1.6-0.3-3-0.5-4.1-0.6
					c-2.4-0.3-3.9-0.5-5.1-1.7c-1.2-1.1-1.7-2.9-2.4-6.1c-1.3-6.4-5-12.2-11.6-18.4c-0.3-0.3-0.5-0.5-0.8-0.8
					c-3.2-3-6.2-5.9-8.8-5.5c-1.4,0.2-2.9,1.5-4.2,3.9c-3.8,6.7-8.4,20.2-9.2,29.8c13.3-16.3,16.3-15.6,21.3-12.7
					c0.2,0.1,0.4,0.2,0.5,0.3c5.9,3.4,7.7,10.4,4.6,17.4c-1.5,3.4-4.7,6.8-8.9,9.4c-4,2.5-8.3,3.8-11.3,3.4
					c-3.1-0.4-4.9-0.9-6.1-2.7c-1.1-1.6-1.5-4-2.2-8.3l-0.1-0.3c-0.3,0.4-0.6,0.8-0.9,1.2c-6.4,8.2-12.3,12.6-18.2,13.2
					c-6.8,0.8-11.8-3.3-15.9-6.7c-1.2-1-2.3-1.9-3.3-2.5c-3.7-2.4-14-8.4-23.1-13.8C68.3-133.7,61.1-137.9,59.4-139.1z M163.6-121
					c0.3-0.5,0.6-1.1,0.9-1.7c2.6-5.8,1.1-11.6-3.7-14.4c-0.2-0.1-0.4-0.2-0.6-0.3c-3.7-2.2-5.9-3.4-20.1,14.5
					c0,0.7,0.1,1.3,0.2,1.9l0.1,0.7c1.4,8.3,1.5,8.4,6.3,9C151.4-110.7,159.9-115.2,163.6-121z"/>
			</g>
			<g>
				<path fill="#F0F0F0" d="M-7.1-105.5c2.2-3.5,5.9-7.6,11.8-9.9c7.6-3,17.1-2.1,28.3,2.4c10,4.1,17,5.4,21.4,3.8
					c3.6-1.2,5-4.1,6.3-6.9c0.2-0.4,0.3-0.7,0.5-1.1c1.3-2.7,2.8-5.7,2.7-8.8c-0.2-3.4-2.4-6.4-6.9-9.2l1.3-2
					c5.2,3.2,7.8,6.8,8,11.1c0.2,3.7-1.5,7.1-2.9,9.9c-0.2,0.3-0.3,0.7-0.5,1.1c-1.4,2.9-3.1,6.6-7.7,8.1c-5,1.7-12.6,0.4-23.1-3.9
					c-24.1-9.9-34.2,0.8-38,8.1c-1.1,2-1.4,3.5-1,4.4c0.7,1.5,3.8,2.3,7.6,3.2c1.3,0.3,2.6,0.6,4,1c9.3,2.5,10.8,6.8,12.6,11.7
					c0.1,0.3,0.2,0.6,0.3,0.8c0.4,0.7,4.1,7.5,8.2,10.1c4.6,2.9,31.3,19.6,31.5,19.7l-1.3,2C55.7-49.8,29-66.4,24.4-69.4
					c-4.9-3.1-8.9-10.8-9.1-11.1l-0.1-0.1c-0.1-0.3-0.2-0.6-0.3-0.9c-1.7-4.9-2.9-8.1-11-10.3c-1.4-0.4-2.7-0.7-3.9-1
					c-4.7-1.1-8.1-1.9-9.2-4.5c-0.7-1.7-0.4-3.7,1.1-6.5C-7.8-104.4-7.5-105-7.1-105.5z"/>
			</g>
			<g>
				<path fill="#F0F0F0" d="M-44.2-146.7c2.3-3.7,4.6-7,7.1-10c7-8.3,14.6-12.7,24.6-14.5c16.8-3,47.9,17.1,49.2,18l7.5,4.7l-1.3,2
					l-7.5-4.7c-0.3-0.2-31.7-20.5-47.5-17.7c-13.9,2.4-22,10.4-30.1,23.3c-3.6,5.7-7.2,12.5-11.2,20.1c-1.2,2.2-2.4,4.5-3.7,6.8
					c-7.4,13.7-12.6,25.1-16.2,35c7.7-3.6,16.4-4.3,25.7-2.1c10.1,2.4,18.3,7.6,23.3,11.6c6.5,5.1,11.8,11.3,14.5,16.8
					c3.8,8,2,17.5-5.3,27.4c-5.8,7.9-14.2,14.8-20,18.1c-5.6,3.2-12.5,2.2-20-2.8c-6.7-4.5-13.9-12.1-20.9-22.1
					c-3.3-4.7-5.1-10.6-5.4-17.4c-0.2-6.1,0.7-13.1,2.8-20.8c0.3-1.1,0.6-2.2,1-3.4c-0.4,0.3-0.7,0.5-1.1,0.8
					c-20.1,15.5-23,33.2-8.7,54c6.9,10.1,26.8,34.2,60.6,39.2C-3.3,19.1,7.3,7.1,16.6-3.4c2.3-2.6,4.5-5.1,6.8-7.2
					c5.3-4.9,13.2-7.5,21.6-7.1c7.7,0.4,15.6,3.1,23,7.9c3.1-1.6,6.3-3,9.6-4.1c4.5-1.5,9.7-1.1,15.4,1.2c4.1,1.7,8.5,4.3,13.3,7.9
					c0.5,0.4,1.1,0.8,1.8,1.3c4.6,3.3,12.4,8.7,15.1,19.7c3.3,13.1-1.8,30.3-15,51.2l-2-1.3c12.8-20.3,17.8-36.9,14.7-49.3
					c-2.5-10.1-9.8-15.2-14.2-18.3c-0.7-0.5-1.3-0.9-1.8-1.3c-10.7-8.1-19.6-11.1-26.5-8.8c-2.7,0.9-5.4,2.1-8,3.4
					c4,2.9,7.9,6.3,11.5,10.4c5.4,6,9.1,12,11.1,17.8c1.8,5.6,2.1,10.8,0.7,15.7c-2.5,8.7-10.2,15.5-21.2,18.7
					c-8.3,2.4-15.2,1.9-20.3-1.5c-6.2-4.1-9.9-12.1-11.5-24.4c-2.1-17,6.3-27.4,12.1-30c2-0.9,4.5-2.3,7.4-3.9c1.7-1,3.6-2,5.6-3.1
					c-6.7-4.1-13.8-6.5-20.7-6.8c-7.8-0.4-15.1,2-19.9,6.4c-2.2,2-4.3,4.4-6.6,7C9.1,8.6-2.4,21.6-26.9,18
					c-13.8-2-26.6-7.3-38.3-15.6c-11.6-8.3-19.5-18-24-24.6c-6.7-9.8-9.8-18.8-9.4-27.4C-98-60.3-91.8-70.3-80-79.4
					c1.2-0.9,2.4-1.7,3.7-2.5c3.6-10.6,9.1-22.9,17.2-37.8c1.3-2.3,2.5-4.6,3.7-6.8C-51.4-134.2-47.8-140.9-44.2-146.7z M-15-34
					c3.9-6.2,6.8-14.4,3.1-22.2c-4.9-10.3-19.8-23.2-36.2-27.1c-9.6-2.3-18.6-1.2-26.3,3.1c-0.7,2-1.3,4-1.8,5.9
					c-4.4,16-3.6,27.9,2.2,36.3c14.3,20.5,28.4,29.5,37.7,24.2c5.5-3.2,13.6-9.8,19.2-17.4C-16.3-32.1-15.7-33-15-34z M67.9-7
					c-2.4,1.2-4.7,2.5-6.7,3.7c-2.9,1.7-5.5,3.1-7.6,4c-5.6,2.4-12.5,12.6-10.7,27.5c1.4,11.6,4.9,19.1,10.4,22.7
					c4.6,3,10.7,3.4,18.4,1.2C81.9,49.3,89,43,91.3,35.1C94,25.8,90,14.7,80.1,3.8C76.2-0.5,72.1-4.1,67.9-7z"/>
			</g>
			<g>
				<g>
					<path fill="#E4E4E4" d="M100.1,73.1l4.7-7.6c0.7,0.3,1.5,0.7,2.3,1.2c0,0,0.1,0,0.1,0.1c0.6,0.4,1.1,0.8,1.6,1.1
						c0.2,0.2,0.4,0.3,0.6,0.5l-4.7,7.6L100.1,73.1z"/>
					<path opacity="0.2" fill="#FFFFFF" d="M102.3,74.5l4.8-7.7c0,0,0.1,0,0.1,0.1c0.6,0.4,1.1,0.8,1.6,1.1l-4.8,7.7L102.3,74.5z"/>
					<path opacity="5.000000e-002" d="M104.7,76.1l1.4-2.2c-0.7-0.5-1.5-1-2.3-1.5c-0.1,0-0.1-0.1-0.2-0.1c-0.7-0.5-1.5-0.9-2.2-1.3
						l-1.4,2.2L104.7,76.1z"/>
				</g>
				<path fill="#F0F0F0" d="M89.1,87.7l10.2-16.4c1.1,0.6,2.4,1.3,3.7,2.2c0,0,0.1,0.1,0.1,0.1c1,0.6,1.9,1.2,2.7,1.8
					c0.4,0.2,0.7,0.5,1,0.7L96.7,92.4L89.1,87.7z"/>
			</g>
			
				<rect x="90.6" y="89.2" transform="matrix(-0.5303 0.8478 -0.8478 -0.5303 218.3766 61.6834)" fill="#BDBDBD" width="3" height="4.2"/>
			
				<rect x="90.7" y="90.8" transform="matrix(-0.5303 0.8478 -0.8478 -0.5303 218.2037 64.9462)" fill="#FFFFFF" width="0.8" height="4.2"/>
			
				<rect x="88.6" y="92.4" transform="matrix(-0.5303 0.8478 -0.8478 -0.5303 218.0288 68.2418)" fill="#BDBDBD" width="3" height="4.2"/>
			
				<rect x="88.7" y="94" transform="matrix(-0.5303 0.8478 -0.8478 -0.5303 217.8557 71.5044)" fill="#FFFFFF" width="0.8" height="4.2"/>
			
				<rect x="86.6" y="95.6" transform="matrix(-0.5303 0.8478 -0.8478 -0.5303 217.681 74.7999)" fill="#BDBDBD" width="3" height="4.2"/>
			
				<rect x="86.7" y="97.2" transform="matrix(-0.5303 0.8478 -0.8478 -0.5303 217.5079 78.0629)" fill="#FFFFFF" width="0.8" height="4.2"/>
			<polygon fill="#BDBDBD" points="84.2,104.8 83.4,104.4 83,103 85.3,99.8 85.2,98.5 88.7,100.7 87.5,101.1 85.6,104.6 			"/>
			
				<rect x="91.1" y="91" transform="matrix(-0.5303 0.8478 -0.8478 -0.5303 219.4929 61.7104)" opacity="0.5" fill="#FFFFFF" width="3" height="1.3"/>
			
				<rect x="89.2" y="94.2" transform="matrix(-0.5303 0.8478 -0.8478 -0.5303 219.1452 68.269)" opacity="0.5" fill="#FFFFFF" width="3" height="1.3"/>
			
				<rect x="87.2" y="97.4" transform="matrix(-0.5303 0.8478 -0.8478 -0.5303 218.7972 74.8268)" opacity="0.5" fill="#FFFFFF" width="3" height="1.3"/>
			<g>
				<path fill="#FFFFFF" d="M56.3-134.1l4.9-7.8c0.2-0.3,0.1-0.8-0.2-1l-4.5-2.8l-5.6,9l4.5,2.8C55.7-133.6,56.1-133.7,56.3-134.1z"
					/>
				<path fill="#FFFFFF" d="M44.5-149l-1.9,3c-0.2,0.3-0.1,0.8,0.2,1l7,7.7l5.6-9l-10-2.9C45.2-149.4,44.7-149.3,44.5-149z"/>
				
					<rect x="47.9" y="-142" transform="matrix(-0.5303 0.8478 -0.8478 -0.5303 -38.6202 -261.5583)" fill="#EEEEEE" width="10.6" height="1.1"/>
			</g>
		</g>
		<path opacity="0.2" d="M248.9-109.5l-5.1-3.2c0,0,0,0,0-0.1c0.2-0.4,0.5-0.8,0.8-1.1l5.1,3.2L248.9-109.5z"/>
		<path opacity="0.2" d="M278.1-91.2l-29.9-18.7c0,0,0-0.1,0.1-0.1c0.5-0.7,0.9-1.4,1.4-2l29.8,18.7L278.1-91.2z"/>
		<path opacity="0.2" d="M277.8-67.1l-5.9-3.7c-0.7-0.4-1-1.3-0.6-1.9c0.2-0.3,0.5-0.5,0.8-0.5c0.1,0.4,0.4,0.7,0.7,1l5.9,3.7
			c0.4,0.2,0.8,0.3,1.2,0.2c0.1,0.3,0.1,0.7-0.1,1C279.4-66.8,278.5-66.6,277.8-67.1z"/>
		<path opacity="0.2" d="M225.6-40.7l-5.1-3.2c0,0,0,0,0-0.1c0.2-0.4,0.5-0.8,0.8-1.1l5.1,3.2L225.6-40.7z"/>
		<path opacity="0.2" d="M262.9-19.3c-3-3.3-36.6-24-36.6-24c-0.5,0.6-0.9,1.3-1.4,2c0,0,0,0.1-0.1,0.1l34.8,21.7
			C259.6-19.4,261-19.8,262.9-19.3z"/>
		<path opacity="0.2" d="M100.9,73.7l4.8-7.7c0,0,0.1,0,0.1,0.1c0.6,0.4,1.1,0.8,1.6,1.1l-4.8,7.7L100.9,73.7z"/>
	</g>
	<g>
		
			<linearGradient id="SVGID_1_" gradientUnits="userSpaceOnUse" x1="346.3053" y1="-309.7595" x2="529.9193" y2="-309.7595" gradientTransform="matrix(0.6374 0.7705 -0.7705 0.6374 -470.3842 77.7478)">
			<stop  offset="0" style="stop-color:#E6E7E8"/>
			<stop  offset="1" style="stop-color:#C8CACB"/>
		</linearGradient>
		<path fill="url(#SVGID_1_)" d="M-97.8,227.9c-2.4-2.9-2-7.3,0.9-9.7L74.9,76.1c2.9-2.4,7.3-2,9.7,0.9l108.2,130.8
			c2.4,2.9,2,7.3-0.9,9.7L20.2,359.7c-2.9,2.4-7.3,2-9.7-0.9L-97.8,227.9z"/>
		<path fill="#F5F5F7" d="M19.3,358.6c-2.3,1.9-5.8,1.6-7.8-0.7L-96.7,227c-1.9-2.3-1.6-5.8,0.7-7.8L75.8,77.1
			c2.3-1.9,5.8-1.6,7.8,0.7l108.2,130.8c1.9,2.3,1.6,5.8-0.7,7.8L19.3,358.6z"/>
		
			<linearGradient id="SVGID_2_" gradientUnits="userSpaceOnUse" x1="365.6286" y1="-309.7602" x2="510.5945" y2="-309.7602" gradientTransform="matrix(0.6374 0.7705 -0.7705 0.6374 -470.3842 77.7478)">
			<stop  offset="0" style="stop-color:#231F20"/>
			<stop  offset="1" style="stop-color:#323031"/>
		</linearGradient>
		<polygon fill="url(#SVGID_2_)" points="19.3,335.3 -73.1,223.6 75.8,100.4 168.2,212.1 		"/>
		<defs>
			<filter id="Adobe_OpacityMaskFilter" filterUnits="userSpaceOnUse" x="44.4" y="128.8" width="148" height="208.4">
				<feFlood  style="flood-color:white;flood-opacity:1" result="back"/>
				<feBlend  in="SourceGraphic" in2="back" mode="normal"/>
			</filter>
		</defs>
		<mask maskUnits="userSpaceOnUse" x="44.4" y="128.8" width="148" height="208.4" id="SVGID_3_">
			<g filter="url(#Adobe_OpacityMaskFilter)">
				<defs>
					<filter id="Adobe_OpacityMaskFilter_1_" filterUnits="userSpaceOnUse" x="44.4" y="128.8" width="148" height="208.4">
						<feFlood  style="flood-color:white;flood-opacity:1" result="back"/>
						<feBlend  in="SourceGraphic" in2="back" mode="normal"/>
					</filter>
				</defs>
				<mask maskUnits="userSpaceOnUse" x="44.4" y="128.8" width="148" height="208.4" id="SVGID_3_">
					<g filter="url(#Adobe_OpacityMaskFilter_1_)">
					</g>
				</mask>
				
					<linearGradient id="SVGID_4_" gradientUnits="userSpaceOnUse" x1="459.8111" y1="-242.0955" x2="489.8187" y2="-431.5564" gradientTransform="matrix(0.6374 0.7705 -0.7705 0.6374 -470.3842 77.7478)">
					<stop  offset="0" style="stop-color:#000000"/>
					<stop  offset="0.1624" style="stop-color:#030303"/>
					<stop  offset="0.2928" style="stop-color:#0D0D0D"/>
					<stop  offset="0.4122" style="stop-color:#1E1E1E"/>
					<stop  offset="0.525" style="stop-color:#363636"/>
					<stop  offset="0.6332" style="stop-color:#555555"/>
					<stop  offset="0.7379" style="stop-color:#7B7B7B"/>
					<stop  offset="0.8399" style="stop-color:#A7A7A7"/>
					<stop  offset="0.9371" style="stop-color:#DADADA"/>
					<stop  offset="1" style="stop-color:#FFFFFF"/>
				</linearGradient>
				<path mask="url(#SVGID_3_)" fill="url(#SVGID_4_)" d="M44.4,337.2l146-120.8c2.3-1.9,2.7-5.4,0.7-7.8l-66-79.8L44.4,337.2z"/>
			</g>
		</mask>
		
			<linearGradient id="SVGID_5_" gradientUnits="userSpaceOnUse" x1="459.8111" y1="-242.0955" x2="489.8187" y2="-431.5564" gradientTransform="matrix(0.6374 0.7705 -0.7705 0.6374 -470.3842 77.7478)">
			<stop  offset="0" style="stop-color:#FFFFFF"/>
			<stop  offset="0.9104" style="stop-color:#FFFFFF"/>
			<stop  offset="1" style="stop-color:#FFFFFF"/>
		</linearGradient>
		<path opacity="0.53" fill="url(#SVGID_5_)" d="M44.4,337.2l146-120.8c2.3-1.9,2.7-5.4,0.7-7.8l-66-79.8L44.4,337.2z"/>
		
			<linearGradient id="SVGID_6_" gradientUnits="userSpaceOnUse" x1="438.1115" y1="-209.0595" x2="438.1115" y2="-197.7006" gradientTransform="matrix(0.6374 0.7705 -0.7705 0.6374 -470.3842 77.7478)">
			<stop  offset="0" style="stop-color:#FFFFFF"/>
			<stop  offset="0.4908" style="stop-color:#DBDCDD"/>
			<stop  offset="0.7349" style="stop-color:#E8E8E9"/>
			<stop  offset="1" style="stop-color:#FBFBFB"/>
		</linearGradient>
		<circle fill="url(#SVGID_6_)" stroke="#D0D2D3" stroke-miterlimit="10" cx="-34.4" cy="285.7" r="5.7"/>
		<path fill="#A6A8AB" d="M-31.9,284.9l-1.3-1.6c-0.5-0.6-1.3-0.7-1.9-0.2l-1.6,1.3c-0.6,0.5-0.7,1.3-0.2,1.9l1.3,1.6
			c0.5,0.6,1.3,0.7,1.9,0.2l1.6-1.3C-31.5,286.4-31.4,285.5-31.9,284.9z M-33.9,287.9c-0.4,0.4-1.1,0.3-1.5-0.1l-1.3-1.6
			c-0.4-0.4-0.3-1.1,0.1-1.5l1.6-1.3c0.4-0.4,1.1-0.3,1.5,0.1l1.3,1.6c0.4,0.4,0.3,1.1-0.1,1.5L-33.9,287.9z"/>
		
			<linearGradient id="SVGID_7_" gradientUnits="userSpaceOnUse" x1="437.9148" y1="-415.4198" x2="438.3095" y2="-417.9121" gradientTransform="matrix(0.6374 0.7705 -0.7705 0.6374 -470.3842 77.7478)">
			<stop  offset="0" style="stop-color:#231F20"/>
			<stop  offset="1" style="stop-color:#404041"/>
		</linearGradient>
		<circle fill="url(#SVGID_7_)" cx="129.9" cy="149.7" r="1.3"/>
	</g>
</g>
</svg>
