<svg xmlns="http://www.w3.org/2000/svg" width="108" height="101" viewBox="0 0 108 101"><path opacity=".1" fill="#64594F" d="M4 4h104v97h-104z"/><path fill="#FFF9EE" d="M0 0h104v97h-104z"/><path fill="#DFD9C6" d="M0 96h104v1h-104zM103 0h1v97h-1z"/><path fill="#2DA1C5" d="M5 5h94v72h-94z"/><path fill-rule="evenodd" clip-rule="evenodd" fill="#2DA1C5" d="M58.326 70.363h19.609v6.547h-19.609z"/><path fill-rule="evenodd" clip-rule="evenodd" fill="#FFF5E6" d="M58.604 35.716c0-5.105 4.462-9.238 9.984-9.238 5.494 0 9.957 4.133 9.957 9.238 0 5.076-4.463 9.21-9.957 9.21-5.523 0-9.984-4.134-9.984-9.21z"/><path fill-rule="evenodd" clip-rule="evenodd" fill="#7CC8A3" d="M78.274 31.14c-1.663-3.633-5.215-5.438-9.345-5.438-4.134 0-7.687 1.806-9.352 5.438h18.697zM53.7 31.14h24.604v2.249h-24.604z"/><path fill-rule="evenodd" clip-rule="evenodd" fill="#2F6C84" d="M57.99 70.363h19.945v2.191h-19.945z"/><path fill-rule="evenodd" clip-rule="evenodd" fill="#2DA1C5" d="M61.182 44.231c-3.993 0-7.211 3.22-7.211 7.213v18.918999999999997h28.319v-18.919c0-3.993-3.216-7.213-7.21-7.213h-13.898z"/><path fill-rule="evenodd" clip-rule="evenodd" fill="#2F6C84" d="M77.936 70.363h4.354v-18.360999999999997c0-2.392-2.082-4.497-4.354-5.857v24.218z"/><path fill-rule="evenodd" clip-rule="evenodd" fill="#F48679" d="M25.812 70.363h19.225v6.547h-19.225z"/><path fill-rule="evenodd" clip-rule="evenodd" fill="#FFF5E6" d="M24.871 36.522c0-5.577 4.604-10.071 10.26-10.071 5.662 0 10.241 4.494 10.241 10.071 0 5.576-4.579 10.093-10.241 10.093-5.656 0-10.26-4.517-10.26-10.093z"/><path fill-rule="evenodd" clip-rule="evenodd" fill="#B7655C" d="M25.812 70.363h19.225v2.191h-19.225z"/><path fill-rule="evenodd" clip-rule="evenodd" fill="#F48679" d="M28.578 44.127c-3.938 0-7.108 3.208-7.108 7.188v18.859h27.908v-18.859c0-3.979-3.17-7.188-7.105-7.188h-13.695z"/><path fill-rule="evenodd" clip-rule="evenodd" fill="#B7655C" d="M45.23 70.197h4.355v-18.128999999999998c0-2.359-2.08-6.603-4.355-7.918v26.047z"/><path fill-rule="evenodd" clip-rule="evenodd" fill="#F8BE61" d="M32.526 22.484c-14.288.776-13.815 14.01-13.231 15.755 0 0 1.137 5.162 5.077 3.718 5.13-3.326 3.77-8.793 3.022-11.234.747.445 1.61.694 2.524.694 2.161 0 4.021-1.387 4.714-3.303.666 1.916 2.525 3.303 4.689 3.303.916 0 1.775-.249 2.524-.694-.749 2.441-2.079 7.908 3.024 11.234 3.938 1.444 5.076-3.718 5.076-3.718.582-1.745 1.304-15.173-13.232-15.755-1.024-.082-3.131-.082-4.187 0z"/><path fill-rule="evenodd" clip-rule="evenodd" fill="#F48679" d="M32.414 41.236l1.248-1.219 1.25 1.219-1.25 1.25zM34.912 41.236l1.249-1.219 1.245 1.219-1.245 1.25z"/><path opacity=".4" fill="#FFFAF3" d="M5 5v71.996l93.457-71.996z"/></svg>