<svg xmlns="http://www.w3.org/2000/svg" width="130.103" height="122.821" viewBox="0 0 130.103 122.821"><path opacity=".1" fill="#64594F" d="M4.257 28.345l101.995-25.751 23.854 94.479-101.995 25.751z"/><path fill="#FFF9EE" d="M.002 25.751l101.456-25.615 23.854 94.479-101.456 25.615z"/><path fill="#DFD9C6" d="M23.585 119.158l101.993-25.751.271 1.073-101.993 25.751zM124.776 94.745l-23.853-94.478 1.074-.271 23.853 94.478z"/><path fill="#7CC8A3" d="M6.725 29.764l91.258-23.04 17.619 69.786-91.258 23.04z"/><path clip-rule="evenodd" stroke="#F4D19F" stroke-width="4" stroke-linecap="round" stroke-linejoin="round" stroke-miterlimit="10" d="M90.254 80.063c7.312-1.439 12.921-11.24-2.934-21.352-15.858-10.114-9.287-20.564-9.287-20.564" fill="none"/><path fill-rule="evenodd" clip-rule="evenodd" fill="#F4D19F" d="M46.496 52.651l1.555 6.161 8.157 32.307 34.629-8.744s-.733-7.806-7.544-16.918c-14.671-19.611-36.797-12.806-36.797-12.806z"/><path fill-rule="evenodd" clip-rule="evenodd" fill="#2DA1C5" d="M46.496 52.651l1.555 6.161.563 2.231c.734 1.378 2.217 1.973 4.831 1.312 4.75-1.2 10.684-5.55 13.026-9.436-10.978-3.903-19.975-.268-19.975-.268z"/><path fill-rule="evenodd" clip-rule="evenodd" fill="#CAB694" d="M50.188 67.273c6.51-1.779 7.68 4.467 7.68 4.467l3.723 14.749-6.158 1.553-5.245-20.769z"/><path fill-rule="evenodd" clip-rule="evenodd" fill="#F4D19F" d="M49.949 92.284l.109.389 14.602-3.688-.089-.393c-1.019-4.037-5.117-6.482-9.151-5.463-4.045 1.022-6.489 5.12-5.471 9.155zM37.534 46.331c2.58-8.924 3.041-13.862 10.829-17.06 7.504-3.081 15.653 2.006 17.64 9.872 1.982 7.853-2.782 15.838-10.647 17.823-7.854 1.984-15.837-2.781-17.822-10.635z"/><path fill-rule="evenodd" clip-rule="evenodd" fill="#CAB694" d="M46.642 33.8s2.525-6.834 3.83-7.519c1.868.217 5.61 9.221 5.61 9.221-4.651-2.91-9.44-1.702-9.44-1.702z"/><path fill-rule="evenodd" clip-rule="evenodd" fill="#F48679" d="M36.659 46.134c.136-1.815 2.132-.234 2.132-.234l-.009 2.159c-1.522.404-2.123-1.925-2.123-1.925z"/><path clip-rule="evenodd" stroke="#DFC8A2" stroke-linecap="square" stroke-linejoin="round" stroke-miterlimit="10" d="M70.912 55.333c-.361-1.218 2.049 6.692-2.277 13.67M76.691 58.78c-.363-1.215 2.057 6.688-2.277 13.671" fill="none"/><path fill-rule="evenodd" clip-rule="evenodd" fill="#2DA1C5" d="M45.855 69.597c-.591-2.341.833-4.711 3.173-5.302 2.33-.589 4.708.821 5.299 3.161.588 2.331-.832 4.713-3.162 5.3-2.34.592-4.722-.828-5.31-3.159z"/><path fill="#EFECE6" d="M50.606 68.563c-.329-.199-.753-.093-.94.237l-.518.87c-.188.329-.611.434-.943.238-.321-.2-.427-.62-.226-.943l.876-1.522c.428-.735 1.048-.922 1.808-.467l1.498.934c.327.189.445.606.247.938-.188.328-.619.438-.94.237l-.862-.522z"/><path clip-rule="evenodd" stroke="#B4D4DB" stroke-linecap="round" stroke-linejoin="round" stroke-miterlimit="10" d="M47.678 63.812c-.214-.852.297-1.71 1.149-1.926.852-.215 1.71.298 1.926 1.149.215.851-.299 1.709-1.149 1.925-.854.216-1.711-.296-1.926-1.148z" fill="none"/><path opacity=".4" fill="#FFFAF3" d="M6.725 29.764l17.529 69.422 73.754-92.47z"/></svg>